<?xml version="1.0" encoding="utf-8"?>
<!-- Generator: Adobe Illustrator 16.0.0, SVG Export Plug-In . SVG Version: 6.00 Build 0)  -->
<!DOCTYPE svg PUBLIC "-//W3C//DTD SVG 1.1//EN" "http://www.w3.org/Graphics/SVG/1.1/DTD/svg11.dtd">
<svg version="1.1" id="Layer_1" xmlns="http://www.w3.org/2000/svg" xmlns:xlink="http://www.w3.org/1999/xlink" x="0px" y="0px"
	 width="103.759px" height="93.36px" viewBox="0 0 103.759 93.36" enable-background="new 0 0 103.759 93.36" xml:space="preserve">
<g id="atom">
	<g>
		<path fill-rule="evenodd" clip-rule="evenodd" d="M99.619,54.35c-1.525-2.467-3.407-4.581-5.135-6.847
			c-1.008-0.801-1.899-1.714-2.854-2.569c-1.118-0.686-1.803-1.812-3.135-2.281c-1.707-1.906-4.394-2.837-6.279-4.563
			c4.554-7.999,9.549-15.56,9.414-28.245c-0.578-0.275-0.613-1.096-0.566-1.998c-2.881-4.253-8.359-5.906-15.979-5.42
			c-3.092,0.711-5.635,1.974-8.275,3.137c-1.091,1.385-3.084,1.86-3.991,3.424c-1.979,0.498-2.495,2.453-4.281,3.14
			c-1.388-1.748-3.128-3.149-4.28-5.136c-1.014-0.127-1.25-1.032-1.997-1.428c-0.626-0.608-1.585-0.887-1.999-1.711
			c-1.817-0.65-3.523-1.42-5.134-2.283C43.907,1.554,43.038,1.188,41.991,1h-3.995c-1.788,0.397-3.024,1.351-4.565,1.996
			c-2.578,2.463-4.365,5.714-5.133,9.984v6.564c-0.172,0.59,0.35,1.873-0.285,1.996H11.749c-1.592,0.404-2.924,1.069-4.852,1.141
			c-0.461,0.869-1.447,1.216-2.282,1.713c-1.122,2.016-2.005,4.269-2.567,6.847v5.134c0.441,0.416,0.601,1.113,0.573,1.998
			c0.688,0.164,0.632,1.077,0.853,1.713c0.396,0.746,1.301,0.98,1.429,1.995c0.854,0.286,1.425,0.856,1.712,1.713
			c0.896,1.479,2.043,2.709,2.854,4.28c1.447,1.212,2.779,2.543,3.992,3.994c2.002,0.371,4.055,0.699,4.85,2.281
			c-3.467,6.346-4.653,16.112-3.707,25.961c0.714,1.093,1.221,2.393,1.712,3.709c1.284,1.189,2.64,2.305,3.707,3.71
			c1.017-0.063,1.71,0.192,1.997,0.855c1.964,0.128,3.465,0.719,5.706,0.571c4.494-0.263,8-1.512,11.128-3.139
			c1.586-0.793,2.917-1.839,4.565-2.568c1.235-1.143,2.659-2.094,4.276-2.853c2.431,1.946,4.212,4.539,6.848,6.276
			c2.596,1.873,5.582,3.357,9.13,4.28c2.723,0.06,5.396,0.069,7.416-0.571c0.701-0.536,1.296-1.18,2.282-1.426
			c0.441-1.367,1.715-1.901,1.999-3.424c0.991-0.817,0.842-2.772,1.712-3.709c-0.168-1.216,0.204-1.888,0.285-2.854
			c0.293-0.849,0-2.279,0.858-2.568c6.19,0.589,14.333,1.2,19.683-0.569c0.262-0.501,0.533-0.991,1.428-0.856
			c0.277-1.148,1.246-1.606,1.995-2.282c-0.011-0.87,0.263-1.452,0.858-1.712c-0.031-0.883,0.129-1.583,0.57-1.996v-6.277
			C102.063,59.703,101.015,56.854,99.619,54.35z M75.085,7.562c2.378-0.284,4.978-0.348,7.7-0.286
			c0.631,0.609,2.14,0.336,2.569,1.141c0.778,0.363,1.137,1.146,1.711,1.713c0.159,3.391-0.277,6.188-0.854,8.844
			c-1.164,3.022-2.357,6.012-3.709,8.845c-0.902,1.19-1.146,3.039-2.284,3.994c-0.636,1.455-1.262,2.921-2.282,3.994
			c-1.759-0.431-3.221-1.155-4.566-1.997c-1.82-0.269-2.883-1.3-4.564-1.711c-0.85-3.05-2.423-5.375-3.42-8.275
			c-1.541-2.359-2.522-5.275-4.281-7.417C64.724,12.415,69.555,9.637,75.085,7.562z M37.14,37.517
			c1.281-0.432,1.967-1.458,2.569-2.567c1.878-1.449,3.254-3.401,5.134-4.85c0.598,0.121,0.757-0.195,1.142-0.285
			c7.188,0.894,12.852,3.314,18.829,5.42c0.99,2.055,1.901,4.188,2.57,6.562c0.436,1.083,0.824,2.217,1.137,3.423
			c0.594,0.835,0.443,2.41,1.143,3.139c-0.289,1.14-1.215,1.638-1.711,2.567c-0.547,0.785-1.166,1.496-1.714,2.282
			c-1.253,1.505-2.269,3.245-3.707,4.564c-1.061,1.698-2.483,3.032-3.708,4.565c-0.491,0.935-1.506,1.348-2,2.281
			c-0.967,0.364-1.078,1.582-2.281,1.713c-4.274-0.955-7.661-2.799-11.697-3.994c-2.955-7.031-6.113-13.858-7.986-21.969
			C35.468,39.27,36.782,38.869,37.14,37.517z M34.573,34.093c-0.673,0.089-0.531,0.991-1.427,0.856
			c-0.266-2.619-1.524-5.665-0.857-8.273c2.785,0.448,5.712,0.758,8.274,1.428c-0.774,0.841-1.32,1.912-2.567,2.28
			c-0.588,1.028-1.695,1.541-2.282,2.567C35.439,33.44,34.769,33.526,34.573,34.093z M56.823,20.113
			c0.464-0.08,0.494,0.271,0.857,0.287c1.555,2.914,3.176,5.764,4.566,8.843c-3.59-0.786-6.457-2.294-10.271-2.853
			c0.196-1.704,1.591-2.217,2.281-3.424C55.239,22.141,55.959,21.053,56.823,20.113z M32.289,19.545
			c0.054-0.187,0.521-0.709,0.571-0.857c0.123-0.354-0.16-0.849,0.286-0.855c-0.05-3.666,1.428-5.799,2.282-8.559
			c1.145-0.854,2.051-1.944,3.424-2.569c9.06-0.788,11.849,4.7,15.689,9.13c0.045,1.566-1.498,1.545-1.711,2.854
			c-0.935,0.49-1.348,1.506-2.281,1.998c-1.484,1.463-3.123,2.771-5.139,3.709c-4.461-0.769-8.598-1.861-13.406-2.283
			C31.917,21.05,32.058,20.34,32.289,19.545z M30.864,45.506c0.242-0.053,0.268,0.111,0.284,0.285
			c0.651,4.578,2.235,8.226,3.425,12.268c-3.242-1.417-6.562-2.757-9.701-4.28c0.266-2.112,1.775-2.979,2.566-4.564
			c1.078-1.302,2.064-2.692,3.142-3.994C30.819,45.167,30.847,45.332,30.864,45.506z M12.036,44.364
			c-1.025-1.45-2.597-2.351-3.426-3.995c-1.486-0.891-1.898-2.858-2.854-4.277v-3.994c0.632-0.42,0.229-1.866,0.858-2.283
			c-0.088-0.752,0.393-0.937,1.141-0.855c0.283-0.381,0.469-0.863,0.855-1.142c0.735-0.503,1.23-1.241,1.994-1.712
			c5.587-0.521,12.056-0.291,17.693,0v4.278c0.32,1.294,0.246,2.985,0.568,4.28c0.319,1.297,0.268,2.964,0.855,3.993
			c-0.415,1.394-1.788,1.825-2.283,3.14c-1.145,0.562-1.379,2.045-2.566,2.567c-0.344,1.369-1.693,1.728-1.997,3.139
			c-1.105,0.605-1.364,2.059-2.282,2.852C16.744,49.354,14.702,46.545,12.036,44.364z M38.565,80.311
			c-1.58,0.13-2.355,1.069-3.422,1.713c-1.388,0.325-2.604,0.818-3.711,1.426c-2.34,0.036-4.283,0.472-6.847,0.286
			c-0.801-0.626-1.909-0.945-2.853-1.426c-0.445-1.077-1.111-1.933-1.712-2.854c0.048-0.331-0.063-0.507-0.286-0.57
			c-0.221-2.916-0.38-5.894-0.285-9.129c0.539-4.312,1.09-8.613,2.852-11.697c-0.077-0.461,0.271-0.491,0.289-0.856
			c3.13,1.054,5.34,3.028,9.414,3.139c1.236,1.046,2.693,1.872,4.564,2.283c0.533,1.272,1.337,2.276,1.711,3.708
			c0.92,0.795,0.926,2.496,1.996,3.139c0.201,1.513,1.373,2.051,1.715,3.423c1.045,0.665,1.234,2.188,2.283,2.853
			C43.008,77.904,40.109,78.432,38.565,80.311z M50.55,70.896c-0.828,0.219-0.74,1.353-1.998,1.142
			c-0.465-2.196-2.246-3.078-2.853-5.137c2.022,0.827,3.985,1.722,6.276,2.284C51.665,69.92,51.255,70.557,50.55,70.896z
			 M69.95,85.447c-0.709-0.045-1.186,0.147-1.43,0.57c-3.819-0.364-7.078-1.288-9.129-3.424c-1.718-0.373-2.158-2.021-3.709-2.566
			c-0.926-1.167-1.972-2.214-3.139-3.141c0.371-1.247,1.441-1.793,2.283-2.566c0.641-0.881,1.402-1.642,2.282-2.282
			c0.255-0.128,0.514-0.251,0.571-0.571c5.021,1.354,9.814,2.932,15.121,3.994C72.915,79.855,71.659,82.877,69.95,85.447z
			 M73.087,71.467c-4.25-0.885-8.443-1.826-12.268-3.137c-0.049-1.002,0.963-0.939,1.143-1.714c0.823-0.127,0.672-1.226,1.426-1.425
			c0.852-0.958,1.4-2.214,2.566-2.854c1.441-2.268,2.879-4.539,4.85-6.277v-0.855c0.463-0.079,0.492,0.27,0.857,0.287
			C72.366,60.587,73.291,65.462,73.087,71.467z M71.376,38.089c1.405,0.305,2.191,1.229,3.709,1.425
			c0.127,1.936-1.238,2.378-1.715,3.709C72.16,42.057,71.89,39.953,71.376,38.089z M98.479,70.039
			c-0.753,0.201-0.604,1.301-1.428,1.428c-0.43,0.428-1.201,0.512-1.427,1.141c-0.743,0.111-1.565,0.148-1.995,0.572
			c-5.669,0.055-11.324,0.102-15.979-0.857c0.575-7.867-0.748-15.612-2.566-21.968c0.749-3.147,3.097-4.698,4.279-7.417
			c0.207-0.266,0.52-0.433,0.854-0.57c7.907,4.553,14.806,10.112,18.261,19.115C99.06,64.308,98.957,67.092,98.479,70.039z
			 M54.827,57.488c0.596-0.166,0.815-0.708,1.713-0.571c0.603-0.347,0.828-1.074,1.713-1.14c1.013-1.174,1.682-2.693,2.852-3.709
			c0.288-2.281,1.24-3.895,1.143-6.562c-0.378-1.719-1.281-2.906-2.283-3.994c0.209-1.258-0.925-1.17-1.141-1.998
			c-0.62-0.428-0.664-1.428-1.714-1.425c-1.591-0.976-3.888-1.247-6.56-1.142c-0.177,0.016-0.338,0.041-0.289,0.284h-1.137
			c-0.973,0.362-1.652,1.013-2.567,1.426c-0.302,1.13-1.91,0.944-1.998,2.282c-1.107,1.462-1.325,3.812-1.714,5.993
			c0.59,3.311,2.531,5.267,3.712,7.987C49.062,56.025,50.952,57.752,54.827,57.488z M55.399,46.361
			c-0.518,2.148-0.23,5.094-2.568,5.421c-0.113-2.778,1.711-3.615,1.996-5.991C55.084,45.917,55.341,46.04,55.399,46.361z
			 M51.69,43.223c0.773-0.248,3.33-1.388,3.424,0.286c-1.166,0.26-2.199,0.653-3.139,1.141
			C52.093,43.962,51.454,44.029,51.69,43.223z"/>
	</g>
</g>
</svg>
