<?xml version="1.0" encoding="UTF-8"?>
<svg width="16px" height="25px" viewBox="0 0 16 25" version="1.1" xmlns="http://www.w3.org/2000/svg" xmlns:xlink="http://www.w3.org/1999/xlink">
    <!-- Generator: Sketch 41.2 (35397) - http://www.bohemiancoding.com/sketch -->
    <title>balloons</title>
    <desc>Created with Sketch.</desc>
    <defs>
        <linearGradient x1="76.071603%" y1="8.24054047%" x2="33.6957659%" y2="66.5551871%" id="linearGradient-1">
            <stop stop-color="#00E6DD" offset="0%"></stop>
            <stop stop-color="#00C7B7" offset="100%"></stop>
        </linearGradient>
    </defs>
    <g id="logo" stroke="none" stroke-width="1" fill="none" fill-rule="evenodd">
        <g id="Old-Copy" transform="translate(-347.000000, -85.000000)">
            <g id="bitballoon-logo" transform="translate(304.000000, 84.000000)">
                <g id="balloons" transform="translate(43.299988, 1.000000)">
                    <path d="M9.69660808,16.6921387 L9.79660809,16.6921387 C9.77400219,16.7058088 9.75643044,16.722222 9.74272033,16.7412896 L9.69660808,16.6921387 Z M9.69064151,17.0269033 C9.68316791,17.2942204 9.66971086,17.5921893 9.64877515,17.9131175 C9.58897654,18.8297838 9.48135489,19.7463151 9.3141095,20.6008958 C8.9850818,22.2821422 8.46695753,23.5096926 7.73472857,24.0864838 C7.69134371,24.1206589 7.68387773,24.1835337 7.71805284,24.2269186 C7.75222796,24.2703034 7.81510274,24.2777694 7.85848761,24.2435943 C8.6390767,23.6287089 9.17283093,22.3641276 9.51038611,20.639308 C9.67945597,19.7754048 9.78803698,18.8507033 9.84835096,17.9261368 C9.86945466,17.6026336 9.88302294,17.3022018 9.89056341,17.0324927 C9.89509459,16.8704206 9.8966081,16.754416 9.8966081,16.6921387 L9.79660809,16.6921387 L9.80298108,16.5923419 C9.65638852,16.5829806 9.39532224,16.5431463 9.05819232,16.4518244 C8.49501945,16.2992718 7.93180114,16.0534286 7.40651945,15.6936514 C6.5604809,15.1141807 5.89546908,14.2948799 5.47901558,13.1952944 C4.7204073,11.1922984 4.55822282,9.63119783 4.73155386,8.53399097 C4.75286543,8.39908605 4.77383203,8.30996913 4.78712633,8.2672868 C4.80355016,8.21455689 4.77411826,8.15849671 4.72138836,8.14207289 C4.66865845,8.12564906 4.61259828,8.15508096 4.59617445,8.20781086 C4.58003294,8.25963437 4.55684582,8.35818946 4.53400368,8.50278302 C4.35523706,9.63439784 4.52107524,11.230667 5.29198051,13.2661314 C5.72331312,14.4050031 6.4146055,15.2566818 7.29350267,15.8586581 C7.83860718,16.2320124 8.42223123,16.4867627 9.00590072,16.6448674 C9.30909279,16.7269962 9.55493684,16.7693909 9.71890651,16.7859674 C9.69500875,16.8478057 9.69338683,16.9287081 9.69064151,17.0269033 Z M9.7902351,16.7919354 L9.74272033,16.7412896 C9.73296979,16.7548503 9.72517245,16.7697535 9.71890651,16.7859674 C9.74474832,16.7885798 9.76855652,16.790551 9.7902351,16.7919354 Z" id="Path-5-Copy-3" fill="#DEDEDE"></path>
                    <path d="M11.8724248,11.0300474 C12.4671801,12.6004131 12.0331446,14.1094787 10.9411244,15.4796075 C10.6785417,15.8090631 10.3970503,16.1038111 10.1156671,16.3595066 C9.94727407,16.5125268 9.81686016,16.618144 9.74347273,16.6721371 C9.70680547,16.9198308 9.72064038,17.2068171 9.75004692,17.5754651 C9.79906139,18.1899234 9.87523999,18.8044947 9.98449581,19.3788232 C10.195228,20.4865857 10.5020671,21.3103879 10.9320676,21.7403884 C10.9711201,21.7794409 11.0344366,21.7794409 11.073489,21.7403884 C11.1125414,21.701336 11.1125414,21.6380195 11.073489,21.598967 C10.6802225,21.2057006 10.3846582,20.412169 10.1809723,19.341447 C10.073219,18.7750163 9.99789571,18.1673457 9.94941365,17.5595619 C9.92032227,17.1948648 9.90666058,16.9114715 9.90270429,16.7502326 C9.94068239,16.7753424 10.0763976,16.6654318 10.2501707,16.5075227 C10.5390642,16.2450027 10.8278496,15.942617 11.0975252,15.6042622 C12.2292938,14.1842621 12.6832005,12.6061077 12.0594599,10.9592104 C12.0398988,10.9075621 11.9821722,10.8815503 11.9305239,10.9011114 C11.8788755,10.9206725 11.8528637,10.9783991 11.8724248,11.0300474 Z" id="Path-5-Copy-2" fill="#DEDEDE"></path>
                    <path d="M11.8886313,11.286341 L11.4465688,11.7591067 C11.4019843,11.8068017 11.3881596,11.8759249 11.4106247,11.9374446 C11.4330897,11.9989643 11.4890795,12.0421663 11.554401,12.0490786 L12.7529976,12.178339 C12.8317981,12.1793759 12.8881335,12.1479248 12.9195846,12.0953912 C12.9541462,12.0376733 12.9520725,11.9647483 12.9137091,11.9091041 L12.4891978,11.288227 C14.2869086,11.141198 15.7000122,9.63562454 15.7000122,7.80000305 C15.7000122,5.86700643 14.1330088,4.30000305 12.2000122,4.30000305 C10.2670156,4.30000305 8.70001221,5.86700643 8.70001221,7.80000305 C8.70001221,9.62806338 10.1014983,11.1287891 11.8886313,11.286341 Z M14.973779,6.32964911 C14.598371,5.64153676 13.9986881,5.09336346 13.2729582,4.78335713 C13.0382707,4.68310686 13.3969698,4.90795978 13.9615885,5.41335766 C14.5262072,5.91875554 15.0941038,6.55020103 14.973779,6.32964911 Z M12.7476807,11.9511147 C12.7476807,11.8186684 12.3990479,11.3925819 12.3990479,11.3925819 C12.3990479,11.3925819 12.5207048,11.8144924 12.5643311,11.8634071 C12.6079573,11.9123218 12.7476807,12.0835609 12.7476807,11.9511147 Z" id="Combined-Shape" fill="url(#linearGradient-1)"></path>
                    <path d="M4.34617952,8.44720098 C2.12546182,8.36628508 0.350000381,6.54048278 0.350000381,4.29999924 C0.350000381,2.00801774 2.2080185,0.149999619 4.5,0.149999619 C6.7919815,0.149999619 8.64999962,2.00801774 8.64999962,4.29999924 C8.64999962,6.36746526 7.13816429,8.08182321 5.15971554,8.39785122 L5.49750619,8.75910288 C5.54209067,8.8067979 5.55591531,8.87592112 5.53345026,8.93744079 C5.51098522,8.99896045 5.45499541,9.04216247 5.38967396,9.04907479 L4.19107733,9.17833521 C4.11227685,9.17937206 4.05594143,9.14792099 4.02449036,9.09538735 C3.98992875,9.03766946 3.99200245,8.96474446 4.03036584,8.90910027 L4.34617952,8.44720098 Z M7.87377289,2.42964377 C7.49836489,1.74153142 6.89868198,1.19335812 6.17295207,0.883351787 C5.93826455,0.783101517 6.29696365,1.00795444 6.86158236,1.51335232 C7.42620108,2.0187502 7.99409765,2.65019568 7.87377289,2.42964377 Z M5.40405273,8.86462402 C5.40405273,8.73217773 5.02642822,8.44122314 5.02642822,8.44122314 C5.02642822,8.44122314 5.21711595,8.81570933 5.26074219,8.86462402 C5.30436843,8.91353872 5.40405273,8.99707031 5.40405273,8.86462402 Z" id="Combined-Shape" fill="url(#linearGradient-1)"></path>
                </g>
            </g>
        </g>
    </g>
</svg>