<?xml version="1.0" encoding="utf-8"?>
<!-- Generator: Adobe Illustrator 16.0.0, SVG Export Plug-In . SVG Version: 6.00 Build 0)  -->
<!DOCTYPE svg PUBLIC "-//W3C//DTD SVG 1.1//EN" "http://www.w3.org/Graphics/SVG/1.1/DTD/svg11.dtd">
<svg version="1.1" id="Layer_1" xmlns="http://www.w3.org/2000/svg" xmlns:xlink="http://www.w3.org/1999/xlink" x="0px" y="0px"
	 width="136.25px" height="97.125px" viewBox="0 0 136.25 97.125" enable-background="new 0 0 136.25 97.125" xml:space="preserve">
<g id="robot">
	<g>
		<path d="M56.512,69.777c0.477,1.164,0.465,2.201,1.414,2.826c0.036,0.022,0.625,0.299,0.564,0.281
			c2.113,0.633,5.328-0.773,5.646-3.107c0.118-1.437-0.435-2.199-0.849-3.104C60.668,64.619,56.645,66.714,56.512,69.777z
			 M59.898,69.214v-0.848c0.363-0.388,1.688-0.492,1.697,0.282C61.676,69.555,60.359,69.676,59.898,69.214z"/>
		<path d="M66.676,88.979c0.512,0.616,0.951,1.308,2.26,1.129c1.258-0.438,1.82-1.57,1.692-3.39
			C69.434,84.125,66.348,86.084,66.676,88.979z"/>
		<path d="M9.361,75.708c0.893,0.387,0.943,0.062,1.978,0c0.988-0.962,0.853-2.377,0.282-3.672
			C9.512,70.823,8.538,74.021,9.361,75.708z"/>
		<path d="M55.949,83.331c-0.619,0.606-2.314,0.133-2.823,0.849c-1.336-0.111-2.358,0.09-3.39,0.281
			c-2.53,0.012-4.484,0.598-7.057,0.564c-2.047,0.399-4.519,0.377-6.778,0.563c-1.419-0.194-1.966,0.479-3.384,0.283
			c-1.321-0.002-2.296,0.342-2.259,1.694c0.938,1.332,3.336,0.847,5.361,0.847h6.213c2.859-0.437,5.755-0.833,9.036-0.847
			c0.209-0.639,1.582-0.11,2.258-0.283c0.333-0.514,1.47-0.223,1.976-0.565c1.293-0.401,3.015-0.373,3.105-1.975
			C58.031,83.697,57.335,83.167,55.949,83.331z"/>
		<path d="M44.936,90.671c-1.814,0.16-3.309,0.646-5.081,0.847h-3.388c-0.996,0.416-2.642,0.185-3.387,0.85
			c1.341,0.445,2.99,0.584,4.517,0.846h6.777c1.818-0.725,5.237,0.155,5.081-2.541C48.549,89.297,46.246,90.646,44.936,90.671z"/>
		<path d="M34.775,77.684c3.498-0.828,7.355-1.302,11.29-1.693c1.022-4.99-0.135-10.206-3.386-11.858h-4.801
			c-3.371,1.237-6.23,2.992-8.754,5.082c-0.207,0.826-0.682,1.388-1.125,1.976c-0.05,0.424,0.099,1.045-0.285,1.131
			c0.324,1.904-0.539,3.869,0,5.082C29.241,78.284,32.145,77.376,34.775,77.684z M30.258,74.861c-0.191-1.6,0.255-2.565,0.562-3.672
			c1.545-1.744,3.887-2.699,5.928-3.953h4.799c1.218,1.326,1.625,3.462,1.411,6.213c-1.002-0.239-1.689,0.818-1.974-0.283
			c-0.426-0.422-1.19-0.504-1.411-1.129c-1.351-0.146-2.425-1.786-3.956-0.848c-0.165,1.016,0.329,1.365,0.563,1.977
			c0.315,0.191,1.465,0.939,0.85,1.131C35.194,74.907,32.74,74.896,30.258,74.861z"/>
		<path d="M66.961,66.955c-0.393,1.82-0.494,4.24,0.562,5.365c1.182,0.699,3.174,0.592,5.08,0.564
			c1.459-0.992,2.541-2.355,2.26-5.083C73.648,65.594,68.75,64.648,66.961,66.955z M69.783,69.214c0.375-0.401,1.599-0.401,1.979,0
			C71.916,69.896,69.552,70.236,69.783,69.214z"/>
		<path d="M89.548,64.98c0.295-2.073-0.532-3.922,0-5.365c-0.707-0.704-0.532-2.288-0.848-3.389
			c-2.535-0.85-6.103-0.674-8.751-1.412c-6.59-0.295-11.198,0.58-16.941,0.566c-0.029-1.759-0.471-3.109-0.281-5.083
			c1.688-0.286,3.674-0.278,5.362-0.564c1.233,0.197,1.591-0.48,2.824-0.282c0.858-0.177,2.435,0.36,2.825-0.282
			c0.955,0.64,1.369,1.827,3.386,1.412c0.257-0.498,1.037-0.467,1.129-1.13c0.347-0.504,0.054-1.643,0.565-1.977V26.298
			c0.314-1.85,1.275-3.056,1.131-5.362c-1.063-1.95-4.071-1.956-5.93-3.108c-0.973,0.125-1.584-0.111-2.259-0.281
			c-11.634-0.058-22.232,0.919-33.036,1.693c0.429-2.122-1.317-2.068-1.977-3.106c0.51-1.463,2.049-1.901,1.977-3.952
			c-0.04-0.807-1.178-0.517-1.977-0.564c-0.318-0.529-1.094-0.6-1.411-1.13c0.8-0.985,2.113-1.462,3.104-2.259
			c0.944-0.682,1.108-2.92,0.567-4.234C35.786,2.8,31.947,4.466,33.36,7.947c-1.468,0.32-3.087,0.487-2.822,2.541
			c0.066,1.155,1.176,1.269,2.26,1.413c0.414,0.902,2.031,0.6,2.821,1.13c-0.598,1.751-3.192,1.511-3.387,3.669
			c-0.008,0.948,0.389,1.494,0.848,1.977c0.243,0.348,1.815,0.782,1.129,1.13c-2.603,0.972-6.249,0.901-9.036,1.692
			c-1.394,2.842-0.882,7.586-1.41,11.296v9.316c-0.228,2.396-0.857,5.479,0,7.341c0.723,0.292,1.943,1.017,2.822,0.282
			c0.773,0.45,1.706,0.741,2.824,0.848h14.117c0.008,1.777,0.555,3.021,0.566,4.8c-2.828,0.099-5.397-0.067-7.91-0.282
			c-7.016,0.604-12.594,2.648-20.044,2.822c-0.047,0.329-0.445,0.309-0.849,0.28c-0.537,0.97-2.076,0.934-2.541,1.979
			c-0.289,2.407,1.25,4.33,0.85,5.926c-0.882-0.342-1.791-0.655-3.108-0.562c-2.954,0.713-5.279,2.06-6.775,4.233
			c-1.19,3.891-1.845,8.316-1.693,13.553c0.526,0.698,0.289,2.154,0.848,2.823c0.16,0.495-0.343,1.659,0.282,1.694
			c0.163,0.498-0.342,1.658,0.282,1.693c0.435,2.197,0.344,4.927,2.54,5.363c3.011-0.123,2.127-3.391,1.415-5.363
			c-0.391-2.529-0.841-4.995-1.415-7.341c-0.171-4.406,0.311-8.161,1.415-11.295c1.721-1.382,4.271-1.938,7.057-2.257
			c0.538,4.072,1.455,7.769,1.977,11.856c-0.271,4.786,0.464,8.567,1.127,12.425c0.28,0.94,1.469,0.978,1.695,1.975
			c0.129,1.095,0.729,1.717,1.975,1.695c1.361-0.052,1.857-0.969,1.979-2.261v-4.517c-0.508-0.812-0.542-2.096-0.851-3.106
			c-0.071-7.829-0.764-15.045-1.976-21.737c4.695-0.953,8.461-2.834,13.27-3.672c4.657-1.084,10.524-0.961,15.531-1.694
			c9.896-0.313,18.688-0.666,28.798-0.282c2.155,0.95,5.282,0.928,7.905,1.413c0.795,8.235-0.237,18.304,0.562,26.539v4.799
			c0.404,1.293,0.373,3.017,1.978,3.106c1.707-0.74,1.371-3.526,1.415-5.932V67.236c0.299,0.015,0.607,0.018,0.92,0.018
			c0-0.864,0-1.577,0-2.376C90.32,64.908,89.932,64.904,89.548,64.98z M16.422,62.155h-0.566v-0.563h0.566V62.155z M57.641,50.863
			c-0.842-0.407-1.72,0.988-1.69-0.282h3.668c-0.084,1.778,0.046,3.343,0.28,4.8C57.104,55.918,58.439,52.325,57.641,50.863z
			 M57.359,46.064v-0.002c-0.676,0.172-2.049-0.355-2.26,0.282c-6.905,0.036-13.25-0.489-20.325-0.282
			c-1.525,0.455-3.947,0.008-4.803,1.129c-0.792-0.284,0.081-1.198,0-1.693v-6.776c-0.128-2.884-0.425-5.598-0.281-8.752
			c-0.324-1.653-0.319-3.634-0.283-5.646c5.498-0.056,9.771-1.336,15.246-1.411c5.545,0.086,10.874-0.044,16.095-0.282
			c0.454,0.079,0.483-0.268,0.849-0.282c4.529,0.269,10.295-0.7,13.549,0.847c-1.553,6.146-0.631,14.688-0.562,21.738
			c-3.503-0.017-6.602,0.367-9.6,0.85c-2.004-0.215-3.227,0.351-5.086,0.281H57.359z"/>
		<path d="M108.733,56.869l-9.874-0.415c-1.56,0.369-3.711,0.094-5.653,0.046c-0.305,0.454-1.211,0.258-1.716,0.493
			c-3.016,1.423-4.083,5.806-3.212,9.188c0.102,0.398,0.126,0.741,0.135,1.063c0.799,0.033,1.511,0.063,2.374,0.1
			c0.13-3.071-0.235-6.682,1.993-7.473l17.771,0.747c1.576,0.354,4.978,1.155,5.127-0.915c0.186-1.704-0.688-2.44-2.446-2.362
			C111.845,57.082,110.44,56.837,108.733,56.869z"/>
		<path d="M44.373,28.274c-0.812-1.652-3.378-2.745-5.932-2.259c-1.078,0.206-1.792,1.008-2.54,1.412
			c0.017,0.487-0.214,0.725-0.563,0.847c0.044,1.739-0.609,2.779-0.562,4.52c0.415,0.051,0.255,0.681,0.281,1.128
			c0.353,0.115,0.574,0.364,0.562,0.848c1.016,0.583,1.95,1.252,3.39,1.41c1.557,0.054,2.599-0.412,3.67-0.846
			C43.955,33.69,44.577,31.399,44.373,28.274z M41.266,33.64c-1.139,0.492-2.708-0.047-3.669-0.564
			c0.252-1.161,1.06-1.764,1.129-3.106c0.642-0.488,1.577-0.681,2.823-0.566C41.865,30.673,42.106,32.768,41.266,33.64z"/>
		<path d="M61.029,37.028c-2.004-0.608-4.324,0.432-6.494-0.282c-2.058,1.109-4.154,0.491-7.058,0.563
			c-0.603,0.526-1.876,0.384-2.259,1.13c-0.837,0.385-1.235,1.21-1.693,1.977c-0.168,1.582,0.149,2.673,0.566,3.67
			c1.718,1.395,5.058,0.683,7.339,0.283c3.729-0.037,7.837,0.308,9.88-1.411C62.488,41.69,62.561,37.935,61.029,37.028z
			 M48.891,41.545c-0.559,0.457-2.055,0.908-2.826,0.282c0.103-1.593,1.395-1.997,2.826-2.26V41.545z M53.409,41.545L53.409,41.545
			h-1.698c0.228-0.98-0.417-1.087-0.28-1.978c0.365-0.39,1.226-0.278,1.978-0.28V41.545z M59.617,41.262
			c-0.912,0.577-1.924,0.621-3.105,0.283v-2.258h3.105V41.262z"/>
		<path d="M70.062,27.427c-0.22-0.062-0.328-0.234-0.279-0.564c-0.291-0.742-1.121-0.951-1.414-1.693
			c-3.66-1.622-7.102,0.433-7.62,3.671c0.101,2.061,0.153,4.174,1.129,5.364C66.686,36.091,70.371,32.48,70.062,27.427z
			 M67.242,29.687c-0.074,1.956-2.055,3.332-3.953,2.54C63.848,30.451,65.91,26.521,67.242,29.687z"/>
		<path d="M77.689,65.826c-0.879,0.99-0.881,2.418-0.566,3.951c0.752,1.277,3.635,1.437,5.365,0.849
			c0.418-0.996,0.734-2.09,0.566-3.671C82.18,65.686,79.335,64.598,77.689,65.826z M80.795,68.932
			c-0.734,0.17-1.018-0.113-0.847-0.847C80.211,68.386,80.988,68.172,80.795,68.932z"/>
		<path d="M96.372,63.218c-1.824-0.98-3.781,0.105-3.105,2.543c0.623,0.318,0.939,0.943,1.696,1.129
			c0.587-0.354,1.188-0.691,1.692-1.129C96.597,64.876,96.845,63.689,96.372,63.218z"/>
		<path d="M90.453,66.464c-1.824-0.98-3.781,0.105-3.105,2.543c0.623,0.318,0.939,0.943,1.696,1.129
			c0.587-0.354,1.188-0.691,1.692-1.129C90.678,68.122,90.926,66.936,90.453,66.464z"/>
		<path d="M108.469,70.944l-9.865-0.083c-1.537-0.321-3.694-0.208-5.635-0.249c-0.281-0.334-1.194-0.229-1.687-0.416
			c-2.938-1.124-3.793-4.274-2.763-6.641c0.12-0.28,0.161-0.521,0.186-0.75c0.798,0.007,1.509,0.013,2.372,0.02
			c-0.018,2.185-0.555,4.732,1.629,5.379l17.754,0.149c1.588-0.19,5.019-0.629,5.068,0.846c0.104,1.216-0.803,1.704-2.552,1.582
			C111.58,70.913,110.17,71.033,108.469,70.944z"/>
		<path d="M128.166,58.721c-1.305-2.727-5.421-4.53-9.519-3.728c-1.729,0.338-2.878,1.663-4.077,2.329
			c0.027,0.805-0.342,1.197-0.902,1.398c0.07,2.872-0.979,4.587-0.903,7.461c0.668,0.083,0.411,1.123,0.451,1.862
			c0.568,0.189,0.922,0.601,0.903,1.398c1.63,0.964,3.127,2.067,5.439,2.327c2.499,0.091,4.169-0.68,5.89-1.396
			C127.494,67.66,128.492,63.878,128.166,58.721z M123.18,67.578c-1.827,0.812-4.345-0.078-5.886-0.931
			c0.404-1.917,1.7-2.911,1.812-5.128c1.028-0.805,2.528-1.123,4.528-0.934C124.142,62.68,124.526,66.138,123.18,67.578z"/>
		<g id="balloon">
			<g>
				<path fill-rule="evenodd" clip-rule="evenodd" d="M134.989,12.518c-0.372-2.138-0.749-4.269-1.883-5.646
					c-0.781-1.784-2.324-2.808-3.593-4.106c-1.751-0.816-3.563-1.569-5.816-1.882h-5.305c-6.847,0.853-11.535,3.861-15.226,7.87
					c-0.271,0.755-0.852,1.201-1.198,1.882c-0.472,0.612-0.94,1.226-1.197,2.053c-0.439,0.588-0.78,1.273-1.025,2.053
					c-0.47,0.615-0.457,1.71-0.856,2.396c0.12,1.148-0.176,1.877-0.171,2.908c0.051,2.438,0.642,4.4,1.369,6.159
					c0.739,1.786,1.549,3.435,2.567,4.961c0.963,1.543,2.164,2.853,3.42,4.105c0.716,0.541,1.224,1.285,2.054,1.711
					c0.706,0.605,1.289,1.334,2.223,1.711c0.308,0.549,0.608,1.102,1.026,1.539c0.573,0.114,0.838,0.533,1.37,0.685
					c0.364,0.321,1.089,0.279,1.369,0.684c0.538-0.084,0.604,0.31,1.196,0.172c0.118,0.336,0.954-0.042,1.026,0.342
					c-0.623,1.682-2.263,3.892-1.196,6.159c0.74,0.178,1.451,0.51,2.052,0c0.779-0.026,1.297-1.012,2.055-0.513v1.92
					c0.636,0.004,1.333,0.021,2.049,0.068c0.01-0.313,0.001-0.644,0.003-0.963c0.588,0.075,0.96-0.068,1.368-0.171
					c0.265-0.478,0.157-1.327,0.857-1.368c1.03,0.094,1.99,0.831,3.079,0.342c0.197-0.558,0.32-1.862,0-2.396
					c-0.312-0.602-0.834-0.993-1.028-1.711c-0.648-0.263-0.719-1.105-1.369-1.368c0.082-0.538-0.46-0.453-0.512-0.855
					c-0.192-0.037-0.269-0.19-0.342-0.343c-0.187-0.041-0.411-0.281-0.172-0.343c1.766-0.971,3.174-2.298,4.62-3.592
					c2.161-3.142,3.778-6.829,5.132-10.778C134.472,22.404,135.357,17.745,134.989,12.518z M124.896,45.708
					C125.102,45.691,124.999,45.957,124.896,45.708c-0.606-0.252-1.267-0.445-2.226-0.342c-0.535,0.034-0.699,0.44-1.025,0.684
					c-0.768-0.2-0.934-1.005-2.054-0.855c-0.051-1.342,0.638-2.338,0.172-3.593c0.789,0.351,1.438,0.842,2.396,1.026
					C123.049,43.676,124.076,44.589,124.896,45.708z M132.081,18.163c-0.857,5.588-2.838,10.051-4.62,14.713
					c-0.436,0.192-0.835,0.42-1.196,0.685c-0.342,2.625-2.449,3.483-4.106,4.791c-1.011-0.403-1.798,0.039-2.567,0.342
					c-0.02-0.72-0.256-1.228-0.856-1.368c-0.906-0.11-0.974,0.621-1.368,1.026c0.104,0.355-0.211,1.124,0.173,1.197
					c-0.293,0.603-0.376-0.398-0.515-0.513c-0.491-0.818-1.521-1.101-2.224-1.71c-0.01-1.131,0.188-2.47-0.684-2.739
					c-0.939-0.025-0.963,0.864-1.369,1.369c-0.879-0.318-1.386-1.009-1.883-1.71c-0.216-1.722,0.631-3.216,0.344-4.449
					c-1.383,0.044-1.577,1.276-2.054,2.225c-0.755-0.671-1.431-1.421-1.883-2.396c0.084-0.599,0.255-1.112,0.171-1.88
					c0.156-0.473,0.054-1.202,0.343-1.541c-0.062-1.375,0.651-1.972,0.684-3.251c-0.152-0.463-0.628,0.144-0.684,0.343
					c-0.349,0.051-0.336,0.463-0.685,0.513c-0.508,1.201-0.95,2.47-1.196,3.936c-0.53-0.784-1.032-1.593-1.37-2.566
					c0.005-1.422,0.396-2.457,0.514-3.764c0.354-0.333,0.333-1.038,0.685-1.369c0.072-0.611,0.456-0.912,0.342-1.711
					c-1.604-0.959-2.418,1.326-2.738,2.737c-0.466-0.387-0.321-1.389-0.341-2.223v-2.567c0.144-0.824,0.234-1.704,0.341-2.564
					c2.955-5.257,7.561-8.865,14.715-9.924c1.034-0.049,2.303,0.137,3.078-0.171c2.771,0.025,4.984,0.607,6.844,1.541
					c1.932,1.89,3.769,3.873,4.107,7.356V18.163z"/>
			</g>
		</g>
		<path d="M121.468,59.034l-0.188-8.015c0.128-1.593,0.427-5.033-0.771-5.067c-0.991-0.09-1.374,0.823-1.245,2.573
			c-0.084,1.399-0.157,2.814-0.058,4.517l0.139,5.909C119.92,59.321,120.656,59.155,121.468,59.034z"/>
	</g>
</g>
</svg>
