<?xml version="1.0" encoding="utf-8"?>
<!-- Generator: Adobe Illustrator 16.0.0, SVG Export Plug-In . SVG Version: 6.00 Build 0)  -->
<!DOCTYPE svg PUBLIC "-//W3C//DTD SVG 1.1//EN" "http://www.w3.org/Graphics/SVG/1.1/DTD/svg11.dtd">
<svg version="1.1" id="Layer_1" xmlns="http://www.w3.org/2000/svg" xmlns:xlink="http://www.w3.org/1999/xlink" x="0px" y="0px"
	 width="63.843px" height="110px" viewBox="0 0 63.843 110" enable-background="new 0 0 63.843 110" xml:space="preserve">
<g id="balloon">
	<g>
		<path fill-rule="evenodd" clip-rule="evenodd" d="M42.964,69.703c3.101-1.705,5.574-4.036,8.114-6.309
			c3.795-5.519,6.636-11.992,9.013-18.928c2.697-6.674,4.252-14.856,3.606-24.036c-0.654-3.754-1.316-7.497-3.307-9.914
			c-1.373-3.133-4.082-4.931-6.31-7.212C51.007,1.871,47.822,0.549,43.866,0h-9.315C22.527,1.497,14.293,6.781,7.812,13.82
			c-0.477,1.326-1.495,2.109-2.104,3.305c-0.828,1.074-1.65,2.153-2.102,3.605c-0.771,1.033-1.37,2.236-1.801,3.605
			c-0.825,1.08-0.804,3.004-1.505,4.207C0.512,30.559-0.009,31.84,0,33.65c0.089,4.282,1.126,7.727,2.404,10.816
			c1.299,3.137,2.72,6.031,4.509,8.713c1.691,2.711,3.801,5.011,6.006,7.209c1.258,0.949,2.149,2.257,3.607,3.006
			c1.24,1.062,2.263,2.343,3.902,3.005c0.541,0.965,1.069,1.936,1.804,2.702c1.006,0.2,1.471,0.937,2.405,1.203
			c0.641,0.564,1.912,0.49,2.404,1.201c0.944-0.147,1.061,0.544,2.102,0.303c0.207,0.591,1.676-0.074,1.802,0.601
			c-1.094,2.954-3.974,6.835-2.101,10.815c1.3,0.312,2.549,0.896,3.603,0c1.369-0.045,2.278-1.777,3.609-0.901v3.906
			c-1.322,2.02-5.113,1.271-7.813,1.802c-2.152-0.553-4.72-0.689-7.512-0.601c-1.621,0.981-2.924,2.285-3.905,3.906
			c-0.402,2.183-0.558,5.435,0.299,7.211c2.919,5.394,9.96,6.667,18.329,6.608c0.35-0.25,0.805-0.395,1.502-0.3
			c4.438-2.067,10.305-2.715,17.125-2.404c1.076,0.829,2.03,1.776,2.705,3.005c0.463,0.436,0.263,1.539,0.298,2.404
			c-0.19,1.193,0.383,1.621,0.901,2.103c1.35,0.249,1.344-0.86,2.105-1.201v-3.306c-0.752-2.352-2.166-4.044-3.908-5.407
			c-0.555-0.042-1.002-0.198-1.199-0.601c-0.45-0.052-1.108,0.106-1.201-0.301c-7.013-0.191-12.843-0.24-18.027,1.804
			c-4.899,0.189-9.224-0.193-12.619-1.503c-1.012-0.992-2.257-1.748-2.707-3.306c-0.022-1.829-0.176-3.782,0.902-4.507
			c1.572-1.254,3.888-0.395,6.01-0.3c2.397,0.104,4.812-0.081,7.21,0c0.371-0.433,1.035-0.57,1.806-0.601
			c0.929-0.976,2.257-1.547,2.702-3.006c0.771-0.633,0.59-2.217,0.601-3.605c1.033,0.132,1.687-0.119,2.402-0.3
			c0.466-0.839,0.277-2.331,1.507-2.402c1.81,0.166,3.495,1.46,5.406,0.601c0.347-0.979,0.563-3.271,0-4.207
			c-0.548-1.057-1.464-1.744-1.805-3.005c-1.14-0.462-1.263-1.941-2.405-2.402c0.145-0.944-0.808-0.796-0.898-1.503
			c-0.337-0.064-0.471-0.334-0.6-0.602C42.939,70.233,42.544,69.812,42.964,69.703z M45.971,78.718
			C46.333,78.688,46.153,79.154,45.971,78.718c-1.064-0.442-2.225-0.781-3.909-0.601c-0.939,0.06-1.227,0.773-1.801,1.201
			c-1.347-0.352-1.639-1.765-3.605-1.502c-0.089-2.356,1.119-4.105,0.301-6.311c1.386,0.617,2.525,1.479,4.207,1.803
			C42.728,75.149,44.531,76.752,45.971,78.718z M41.163,65.799c-1.774-0.708-3.156,0.067-4.508,0.601
			c-0.035-1.265-0.449-2.155-1.504-2.402c-1.593-0.193-1.71,1.09-2.403,1.802c0.183,0.623-0.371,1.973,0.303,2.102
			c-0.514,1.058-0.659-0.699-0.902-0.9c-0.863-1.438-2.672-1.934-3.905-3.003c-0.018-1.987,0.329-4.338-1.201-4.81
			c-1.649-0.045-1.691,1.517-2.404,2.404c-1.543-0.559-2.434-1.772-3.307-3.004c-0.379-3.024,1.108-5.648,0.604-7.812
			c-2.428,0.078-2.769,2.24-3.605,3.906c-1.326-1.179-2.514-2.495-3.307-4.207c0.146-1.053,0.447-1.953,0.3-3.303
			c0.273-0.831,0.094-2.11,0.602-2.705c-0.109-2.414,1.144-3.464,1.201-5.71c-0.269-0.812-1.104,0.253-1.201,0.603
			c-0.612,0.089-0.59,0.812-1.202,0.901c-0.892,2.108-1.669,4.338-2.102,6.911c-0.931-1.376-1.812-2.797-2.405-4.507
			c0.009-2.497,0.694-4.315,0.902-6.61c0.621-0.584,0.584-1.822,1.201-2.404c0.127-1.074,0.801-1.603,0.601-3.006
			c-2.815-1.685-4.246,2.328-4.809,4.807c-0.818-0.68-0.563-2.439-0.599-3.903v-4.509c0.253-1.448,0.411-2.992,0.599-4.504
			c5.19-9.231,13.277-15.568,25.842-17.428c1.816-0.087,4.044,0.24,5.405-0.301c4.867,0.043,8.753,1.065,12.019,2.705
			c3.393,3.319,6.618,6.802,7.213,12.919v9.914c-1.505,9.813-4.982,17.651-8.113,25.838c-0.764,0.338-1.466,0.738-2.101,1.203
			C47.774,61.996,44.074,63.503,41.163,65.799z"/>
	</g>
</g>
</svg>
