<?xml version="1.0" encoding="utf-8"?>
<!-- Generator: Adobe Illustrator 16.0.0, SVG Export Plug-In . SVG Version: 6.00 Build 0)  -->
<!DOCTYPE svg PUBLIC "-//W3C//DTD SVG 1.1//EN" "http://www.w3.org/Graphics/SVG/1.1/DTD/svg11.dtd">
<svg version="1.1" id="Layer_1" xmlns="http://www.w3.org/2000/svg" xmlns:xlink="http://www.w3.org/1999/xlink" x="0px" y="0px"
	 width="219.453px" height="54.192px" viewBox="0 0 219.453 54.192" enable-background="new 0 0 219.453 54.192"
	 xml:space="preserve">
<g fill="rgb(22, 49, 73)">
	<path d="M1.008,19.87c0-7.009,0.384-8.737,0.624-10.273c4.416-1.92,9.457-2.688,13.489-2.688c5.953,0,10.609,1.68,11.425,3.792
		c0.288,0.768,0.432,1.68,0.432,2.544c0,4.608-3.889,10.321-9.265,10.609c6.193,0.192,9.553,1.92,10.081,3.888
		c0.192,0.768,0.288,1.728,0.288,2.592c0,4.32-2.352,9.073-5.137,10.561c-0.864,0.48-3.456,0.72-6.625,0.72
		c-4.56,0-10.753-0.528-14.497-1.584C1.824,40.032,1.008,29.279,1.008,19.87z M11.425,35.087c0.048,0.48,2.112,0.288,2.304,0.192
		c0.336-0.192,1.344-5.953,0.72-7.201c-0.048-0.096-2.16-0.096-2.688,0.096C11.761,28.175,11.377,34.799,11.425,35.087z
		 M14.737,23.758c0.336-6.433,0.096-7.009-0.528-7.537c-0.384-0.336-1.728-0.24-1.824,0c-0.096,0.24-0.384,7.584-0.384,7.584
		C12.289,23.806,13.969,23.758,14.737,23.758z"/>
	<path d="M39.409,16.558c1.056,1.92-0.432,23.138-1.008,23.906c-0.576,0.768-6.817,0.72-7.585,0.24
		c-1.2-0.72-1.776-20.594-1.392-22.274C29.904,17.374,37.873,15.934,39.409,16.558z M38.305,7.773
		c0.24,0.528,0.096,5.953-0.336,6.48c-0.576,0.672-7.297,1.488-7.537,1.248c-0.816-1.152-0.96-7.537-0.528-8.161
		C30.336,6.813,38.017,7.245,38.305,7.773z"/>
	<path d="M43.535,16.99c0.048-2.352,0.144-3.648,0.336-4.656c0.432-0.816,10.849-3.121,10.609-1.584
		c-0.192,2.112-0.336,3.216-0.576,5.281c2.256-0.288,3.936-0.48,3.936-0.48c0.96,0.192-1.2,9.073-2.208,9.648
		c-0.144,0.096-1.008,0.144-2.304,0.096c-0.096,3.84-0.096,5.809,0.048,6.385c0.096,0.432,3.984-1.104,4.849-1.2
		c1.296-0.144-0.288,8.833-1.824,9.793c-0.72,0.432-10.177,1.248-10.849,0.288c-1.248-3.12-2.208-9.792-2.208-16.177
		c-0.96-0.192-1.536-0.384-1.728-0.528c-0.576-0.576-0.336-6.577,0.144-6.673C42.431,17.134,42.623,17.134,43.535,16.99z"/>
	<path d="M60.431,19.87c0-7.009,0.384-8.737,0.624-10.273c4.416-1.92,9.457-2.688,13.489-2.688c5.953,0,10.609,1.68,11.425,3.792
		c0.288,0.768,0.432,1.68,0.432,2.544c0,4.608-3.889,10.321-9.265,10.609c6.193,0.192,9.553,1.92,10.081,3.888
		c0.192,0.768,0.288,1.728,0.288,2.592c0,4.32-2.352,9.073-5.137,10.561c-0.864,0.48-3.456,0.72-6.625,0.72
		c-4.56,0-10.753-0.528-14.497-1.584C61.247,40.032,60.431,29.279,60.431,19.87z M70.848,35.087c0.048,0.48,2.112,0.288,2.304,0.192
		c0.336-0.192,1.344-5.953,0.72-7.201c-0.048-0.096-2.16-0.096-2.688,0.096C71.184,28.175,70.8,34.799,70.848,35.087z M74.16,23.758
		c0.336-6.433,0.096-7.009-0.528-7.537c-0.384-0.336-1.728-0.24-1.824,0c-0.096,0.24-0.384,7.584-0.384,7.584
		C71.712,23.806,73.392,23.758,74.16,23.758z"/>
	<path d="M99.456,16.462c4.128,0,8.785,0.72,12.769,3.168c0.288,0.288,0.384,1.824,0.384,3.984c0,5.568-0.72,15.073-1.152,15.938
		c-0.48,0.912-2.736,1.488-5.184,1.488c-0.864,0-1.776-0.096-2.641-0.24c-0.096-0.144-0.336-0.672-0.432-1.248
		c-1.584,1.056-5.041,1.584-7.873,1.584c-2.112,0-3.888-0.288-4.464-0.816c-1.296-1.152-2.16-6.769-2.16-9.937
		c0-0.72,0.048-1.296,0.144-1.68c1.968-1.248,5.329-2.112,8.545-2.112c1.68,0,3.36,0.24,4.752,0.816L102,25.583
		c-1.008-0.432-2.496-0.816-4.513-0.816c-1.92,0-3.648,0.288-6.576,1.392c-1.488-1.008-2.064-3.648-2.064-5.856
		c0-0.864,0.096-1.729,0.24-2.353C89.087,17.95,93.359,16.462,99.456,16.462z M102.864,36.335l-0.432-5.088
		c-0.336-0.096-0.768-0.144-1.824,0.048c-0.096,1.68,0.672,5.424,0.864,5.424C101.472,36.719,102.384,36.624,102.864,36.335z"/>
	<path d="M124.079,9.213c0.816,0,1.44,0.096,1.776,0.336c0.288,0.48,0.384,2.688,0.384,5.712c0,8.833-0.912,24.674-1.344,25.25
		c-0.288,0.384-2.4,0.576-4.512,0.576c-1.92,0-3.84-0.144-4.225-0.384c-0.912-0.576-1.632-17.042-1.632-25.058
		c0-2.4,0.048-4.032,0.192-4.272C115.15,10.557,120.958,9.213,124.079,9.213z"/>
	<path d="M137.758,9.213c0.816,0,1.44,0.096,1.776,0.336c0.288,0.48,0.384,2.688,0.384,5.712c0,8.833-0.912,24.674-1.344,25.25
		c-0.288,0.384-2.4,0.576-4.512,0.576c-1.92,0-3.84-0.144-4.225-0.384c-0.912-0.576-1.632-17.042-1.632-25.058
		c0-2.4,0.048-4.032,0.192-4.272C128.83,10.557,134.638,9.213,137.758,9.213z"/>
	<path d="M141.885,26.495c0-2.112,0.192-4.032,0.672-5.088c1.488-3.312,6.672-4.993,11.809-4.993c5.088,0,10.081,1.632,11.137,5.088
		c0.336,1.056,0.432,2.448,0.432,3.984c0,4.417-1.008,9.889-1.488,10.993c-1.488,3.36-6.048,5.041-10.609,5.041
		c-4.464,0-8.977-1.632-10.609-5.041C142.557,35.087,141.885,30.431,141.885,26.495z M153.454,35.183c0.288,0.24,0.672,0.24,0.96,0
		c0.384-0.24,0.624-11.329,0.336-11.617c-0.192-0.192-1.248-0.24-1.488,0C153.022,23.806,152.83,33.455,153.454,35.183z"/>
	<path d="M167.949,26.495c0-2.112,0.192-4.032,0.672-5.088c1.488-3.312,6.672-4.993,11.809-4.993c5.088,0,10.081,1.632,11.137,5.088
		c0.336,1.056,0.432,2.448,0.432,3.984c0,4.417-1.008,9.889-1.488,10.993c-1.488,3.36-6.048,5.041-10.609,5.041
		c-4.464,0-8.977-1.632-10.609-5.041C168.621,35.087,167.949,30.431,167.949,26.495z M179.518,35.183c0.288,0.24,0.672,0.24,0.96,0
		c0.384-0.24,0.624-11.329,0.336-11.617c-0.192-0.192-1.248-0.24-1.488,0C179.086,23.806,178.894,33.455,179.518,35.183z"/>
	<path d="M207.79,16.414c8.497,0,10.705,4.464,10.705,12.721c0,5.568-1.008,11.041-1.008,11.041
		c-0.192,0.576-3.84,1.104-6.816,1.104c-1.92,0-3.504-0.24-3.696-0.768c-0.144-0.48,0.336-14.257-0.576-16.321
		c-0.288-0.192-1.104,0.096-1.2,0.24c-0.288,2.017-0.24,16.129-0.24,16.129c-0.24,0.384-2.016,0.576-3.937,0.576
		c-2.64,0-5.616-0.288-5.904-0.72c-1.2-6.481-1.248-20.69-1.056-20.834C197.517,17.23,203.95,16.414,207.79,16.414z"/>
</g>
</svg>
