<?xml version="1.0" encoding="UTF-8"?>
<svg width="69px" height="26px" viewBox="0 0 69 26" version="1.1" xmlns="http://www.w3.org/2000/svg" xmlns:xlink="http://www.w3.org/1999/xlink">
    <!-- Generator: Sketch 41.2 (35397) - http://www.bohemiancoding.com/sketch -->
    <title>bitballoon-logo</title>
    <desc>Created with Sketch.</desc>
    <defs>
        <linearGradient x1="67.0275807%" y1="84.7140915%" x2="67.027578%" y2="0%" id="linearGradient-1">
            <stop stop-color="#313D3E" offset="0%"></stop>
            <stop stop-color="#425253" offset="100%"></stop>
        </linearGradient>
        <linearGradient x1="76.071603%" y1="8.24054047%" x2="33.6957659%" y2="66.5551871%" id="linearGradient-2">
            <stop stop-color="#00E6DD" offset="0%"></stop>
            <stop stop-color="#00C7B7" offset="100%"></stop>
        </linearGradient>
    </defs>
    <g id="logo" stroke="none" stroke-width="1" fill="none" fill-rule="evenodd">
        <g id="Old-Copy" transform="translate(-304.000000, -84.000000)">
            <g id="bitballoon-logo" transform="translate(304.000000, 84.000000)">
                <path d="M0.296,12.04 L0.296,0.264 L1.368,0.264 L1.368,5 C2.29600464,3.8799944 3.43199328,3.32 4.776,3.32 C5.99200608,3.32 7.02399576,3.7599956 7.872,4.64 C8.72000424,5.5200044 9.144,6.57866048 9.144,7.816 C9.144,9.05333952 8.71200432,10.1146622 7.848,11 C6.98399568,11.8853378 5.94933936,12.328 4.744,12.328 C3.39999328,12.328 2.2746712,11.7093395 1.368,10.472 L1.368,12.04 L0.296,12.04 Z M1.304,7.736 C1.304,8.72800496 1.62933008,9.56532992 2.28,10.248 C2.93066992,10.9306701 3.72532864,11.272 4.664,11.272 C5.60267136,11.272 6.39999672,10.9253368 7.056,10.232 C7.71200328,9.5386632 8.04,8.725338 8.04,7.792 C8.04,6.858662 7.7200032,6.0453368 7.08,5.352 C6.4399968,4.6586632 5.6400048,4.312 4.68,4.312 C3.7199952,4.312 2.91733656,4.63733008 2.272,5.288 C1.62666344,5.93866992 1.304,6.75466176 1.304,7.736 Z M10.016,1.176 C10.016,0.93066544 10.1039991,0.71733424 10.28,0.536 C10.4560009,0.35466576 10.6693321,0.264 10.92,0.264 C11.1706679,0.264 11.3839991,0.35199912 11.56,0.528 C11.7360009,0.70400088 11.824,0.91733208 11.824,1.168 C11.824,1.41866792 11.7360009,1.63199912 11.56,1.808 C11.3839991,1.98400088 11.1706679,2.072 10.92,2.072 C10.6693321,2.072 10.4560009,1.98133424 10.28,1.8 C10.1039991,1.61866576 10.016,1.41066784 10.016,1.176 Z M10.368,3.544 L11.472,3.544 L11.472,12.04 L10.368,12.04 L10.368,3.544 Z M15.192,10.696 C15.192,10.9840014 15.2293329,11.1546664 15.304,11.208 C15.378667,11.2613336 15.5706651,11.288 15.88,11.288 L16.536,11.288 L16.536,12.216 C16.0879977,12.290667 15.7360012,12.328 15.48,12.328 C14.9999976,12.328 14.6480011,12.2106678 14.424,11.976 C14.1999988,11.7413322 14.088,11.3733358 14.088,10.872 L14.088,4.472 L12.584,4.472 L12.584,3.544 L14.088,3.544 L14.088,0.264 L15.192,0.264 L15.192,3.544 L16.92,3.544 L16.92,4.472 L15.192,4.472 L15.192,10.696 Z M18.0319999,12.04 L18.0319999,0.264 L19.1039999,0.264 L19.1039999,5 C20.0320046,3.8799944 21.1679932,3.32 22.5119999,3.32 C23.728006,3.32 24.7599957,3.7599956 25.6079999,4.64 C26.4560042,5.5200044 26.8799999,6.57866048 26.8799999,7.816 C26.8799999,9.05333952 26.4480042,10.1146622 25.5839999,11 C24.7199956,11.8853378 23.6853393,12.328 22.4799999,12.328 C21.1359932,12.328 20.0106711,11.7093395 19.1039999,10.472 L19.1039999,12.04 L18.0319999,12.04 Z M19.0399999,7.736 C19.0399999,8.72800496 19.36533,9.56532992 20.0159999,10.248 C20.6666698,10.9306701 21.4613286,11.272 22.3999999,11.272 C23.3386713,11.272 24.1359966,10.9253368 24.7919999,10.232 C25.4480032,9.5386632 25.7759999,8.725338 25.7759999,7.792 C25.7759999,6.858662 25.4560031,6.0453368 24.8159999,5.352 C24.1759967,4.6586632 23.3760047,4.312 22.4159999,4.312 C21.4559951,4.312 20.6533365,4.63733008 20.0079999,5.288 C19.3626634,5.93866992 19.0399999,6.75466176 19.0399999,7.736 Z M36.7279999,3.544 L36.7279999,12.04 L35.6559999,12.04 L35.6559999,10.584 C34.6853284,11.7466725 33.5760061,12.328 32.3279999,12.328 C31.0799937,12.328 30.0266709,11.8826711 29.1679999,10.992 C28.3093289,10.1013289 27.8799999,9.04000616 27.8799999,7.808 C27.8799999,6.57599384 28.3119956,5.5200044 29.1759999,4.64 C30.0400042,3.7599956 31.0746605,3.32 32.2799999,3.32 C33.6666735,3.32 34.7919956,3.91199408 35.6559999,5.096 L35.6559999,3.544 L36.7279999,3.544 Z M35.7199999,7.832 C35.7199999,6.86132848 35.3946698,6.04267 34.7439999,5.376 C34.09333,4.70933 33.2960046,4.376 32.3519999,4.376 C31.4079952,4.376 30.6106698,4.71999656 29.9599999,5.408 C29.30933,6.09600344 28.9839999,6.90932864 28.9839999,7.848 C28.9839999,8.78667136 29.3146633,9.59999656 29.9759999,10.288 C30.6373365,10.9760034 31.4293286,11.32 32.3519999,11.32 C33.2746712,11.32 34.0666633,10.9893366 34.7279999,10.328 C35.3893365,9.66666336 35.7199999,8.83467168 35.7199999,7.832 Z M38.4319999,0.264 L39.5199999,0.264 L39.5199999,12.04 L38.4319999,12.04 L38.4319999,0.264 Z M41.0319999,0.264 L42.1199999,0.264 L42.1199999,12.04 L41.0319999,12.04 L41.0319999,0.264 Z M60.7919997,3.544 L61.8959997,3.544 L61.8959997,5.064 C62.7706708,3.90132752 63.8319935,3.32 65.0799997,3.32 C65.7200029,3.32 66.2959972,3.4933316 66.8079997,3.84 C67.3200023,4.1866684 67.6826653,4.6399972 67.8959997,5.2 C68.1093341,5.7600028 68.2159997,6.58399456 68.2159997,7.672 L68.2159997,12.04 L67.1279997,12.04 L67.1279997,7.992 C67.1279997,6.99999504 67.0826668,6.32800176 66.9919997,5.976 C66.9013326,5.62399824 66.7626673,5.32533456 66.5759997,5.08 C66.3893321,4.83466544 66.1520012,4.64800064 65.8639997,4.52 C65.5759983,4.39199936 65.2266684,4.328 64.8159997,4.328 C64.405331,4.328 64.0026684,4.42933232 63.6079997,4.632 C63.2133311,4.83466768 62.8773344,5.11733152 62.5999997,5.48 C62.322665,5.84266848 62.1360002,6.21599808 62.0399997,6.6 C61.9439992,6.98400192 61.8959997,7.75732752 61.8959997,8.92 L61.8959997,12.04 L60.7919997,12.04 L60.7919997,3.544 Z" id="bitball-n" fill="url(#linearGradient-1)"></path>
                <g id="Group" transform="translate(43.299988, 1.000000)">
                    <path d="M9.69660808,16.6921387 L9.79660809,16.6921387 C9.77400219,16.7058088 9.75643044,16.722222 9.74272033,16.7412896 L9.69660808,16.6921387 Z M9.69064151,17.0269033 C9.68316791,17.2942204 9.66971086,17.5921893 9.64877515,17.9131175 C9.58897654,18.8297838 9.48135489,19.7463151 9.3141095,20.6008958 C8.9850818,22.2821422 8.46695753,23.5096926 7.73472857,24.0864838 C7.69134371,24.1206589 7.68387773,24.1835337 7.71805284,24.2269186 C7.75222796,24.2703034 7.81510274,24.2777694 7.85848761,24.2435943 C8.6390767,23.6287089 9.17283093,22.3641276 9.51038611,20.639308 C9.67945597,19.7754048 9.78803698,18.8507033 9.84835096,17.9261368 C9.86945466,17.6026336 9.88302294,17.3022018 9.89056341,17.0324927 C9.89509459,16.8704206 9.8966081,16.754416 9.8966081,16.6921387 L9.79660809,16.6921387 L9.80298108,16.5923419 C9.65638852,16.5829806 9.39532224,16.5431463 9.05819232,16.4518244 C8.49501945,16.2992718 7.93180114,16.0534286 7.40651945,15.6936514 C6.5604809,15.1141807 5.89546908,14.2948799 5.47901558,13.1952944 C4.7204073,11.1922984 4.55822282,9.63119783 4.73155386,8.53399097 C4.75286543,8.39908605 4.77383203,8.30996913 4.78712633,8.2672868 C4.80355016,8.21455689 4.77411826,8.15849671 4.72138836,8.14207289 C4.66865845,8.12564906 4.61259828,8.15508096 4.59617445,8.20781086 C4.58003294,8.25963437 4.55684582,8.35818946 4.53400368,8.50278302 C4.35523706,9.63439784 4.52107524,11.230667 5.29198051,13.2661314 C5.72331312,14.4050031 6.4146055,15.2566818 7.29350267,15.8586581 C7.83860718,16.2320124 8.42223123,16.4867627 9.00590072,16.6448674 C9.30909279,16.7269962 9.55493684,16.7693909 9.71890651,16.7859674 C9.69500875,16.8478057 9.69338683,16.9287081 9.69064151,17.0269033 Z M9.7902351,16.7919354 L9.74272033,16.7412896 C9.73296979,16.7548503 9.72517245,16.7697535 9.71890651,16.7859674 C9.74474832,16.7885798 9.76855652,16.790551 9.7902351,16.7919354 Z" id="Path-5-Copy-3" fill="#DEDEDE"></path>
                    <path d="M11.8724248,11.0300474 C12.4671801,12.6004131 12.0331446,14.1094787 10.9411244,15.4796075 C10.6785417,15.8090631 10.3970503,16.1038111 10.1156671,16.3595066 C9.94727407,16.5125268 9.81686016,16.618144 9.74347273,16.6721371 C9.70680547,16.9198308 9.72064038,17.2068171 9.75004692,17.5754651 C9.79906139,18.1899234 9.87523999,18.8044947 9.98449581,19.3788232 C10.195228,20.4865857 10.5020671,21.3103879 10.9320676,21.7403884 C10.9711201,21.7794409 11.0344366,21.7794409 11.073489,21.7403884 C11.1125414,21.701336 11.1125414,21.6380195 11.073489,21.598967 C10.6802225,21.2057006 10.3846582,20.412169 10.1809723,19.341447 C10.073219,18.7750163 9.99789571,18.1673457 9.94941365,17.5595619 C9.92032227,17.1948648 9.90666058,16.9114715 9.90270429,16.7502326 C9.94068239,16.7753424 10.0763976,16.6654318 10.2501707,16.5075227 C10.5390642,16.2450027 10.8278496,15.942617 11.0975252,15.6042622 C12.2292938,14.1842621 12.6832005,12.6061077 12.0594599,10.9592104 C12.0398988,10.9075621 11.9821722,10.8815503 11.9305239,10.9011114 C11.8788755,10.9206725 11.8528637,10.9783991 11.8724248,11.0300474 Z" id="Path-5-Copy-2" fill="#DEDEDE"></path>
                    <path d="M11.8886313,11.286341 L11.4465688,11.7591067 C11.4019843,11.8068017 11.3881596,11.8759249 11.4106247,11.9374446 C11.4330897,11.9989643 11.4890795,12.0421663 11.554401,12.0490786 L12.7529976,12.178339 C12.8317981,12.1793759 12.8881335,12.1479248 12.9195846,12.0953912 C12.9541462,12.0376733 12.9520725,11.9647483 12.9137091,11.9091041 L12.4891978,11.288227 C14.2869086,11.141198 15.7000122,9.63562454 15.7000122,7.80000305 C15.7000122,5.86700643 14.1330088,4.30000305 12.2000122,4.30000305 C10.2670156,4.30000305 8.70001221,5.86700643 8.70001221,7.80000305 C8.70001221,9.62806338 10.1014983,11.1287891 11.8886313,11.286341 Z M14.973779,6.32964911 C14.598371,5.64153676 13.9986881,5.09336346 13.2729582,4.78335713 C13.0382707,4.68310686 13.3969698,4.90795978 13.9615885,5.41335766 C14.5262072,5.91875554 15.0941038,6.55020103 14.973779,6.32964911 Z M12.7476807,11.9511147 C12.7476807,11.8186684 12.3990479,11.3925819 12.3990479,11.3925819 C12.3990479,11.3925819 12.5207048,11.8144924 12.5643311,11.8634071 C12.6079573,11.9123218 12.7476807,12.0835609 12.7476807,11.9511147 Z" id="Combined-Shape" fill="url(#linearGradient-2)"></path>
                    <path d="M4.34617952,8.44720098 C2.12546182,8.36628508 0.350000381,6.54048278 0.350000381,4.29999924 C0.350000381,2.00801774 2.2080185,0.149999619 4.5,0.149999619 C6.7919815,0.149999619 8.64999962,2.00801774 8.64999962,4.29999924 C8.64999962,6.36746526 7.13816429,8.08182321 5.15971554,8.39785122 L5.49750619,8.75910288 C5.54209067,8.8067979 5.55591531,8.87592112 5.53345026,8.93744079 C5.51098522,8.99896045 5.45499541,9.04216247 5.38967396,9.04907479 L4.19107733,9.17833521 C4.11227685,9.17937206 4.05594143,9.14792099 4.02449036,9.09538735 C3.98992875,9.03766946 3.99200245,8.96474446 4.03036584,8.90910027 L4.34617952,8.44720098 Z M7.87377289,2.42964377 C7.49836489,1.74153142 6.89868198,1.19335812 6.17295207,0.883351787 C5.93826455,0.783101517 6.29696365,1.00795444 6.86158236,1.51335232 C7.42620108,2.0187502 7.99409765,2.65019568 7.87377289,2.42964377 Z M5.40405273,8.86462402 C5.40405273,8.73217773 5.02642822,8.44122314 5.02642822,8.44122314 C5.02642822,8.44122314 5.21711595,8.81570933 5.26074219,8.86462402 C5.30436843,8.91353872 5.40405273,8.99707031 5.40405273,8.86462402 Z" id="Combined-Shape" fill="url(#linearGradient-2)"></path>
                </g>
            </g>
        </g>
    </g>
</svg>