<?xml version="1.0" encoding="utf-8"?>
<!-- Generator: Adobe Illustrator 16.0.0, SVG Export Plug-In . SVG Version: 6.00 Build 0)  -->
<!DOCTYPE svg PUBLIC "-//W3C//DTD SVG 1.1//EN" "http://www.w3.org/Graphics/SVG/1.1/DTD/svg11.dtd">
<svg version="1.1" id="Layer_1" xmlns="http://www.w3.org/2000/svg" xmlns:xlink="http://www.w3.org/1999/xlink" x="0px" y="0px"
	 width="112.329px" height="109.912px" viewBox="0 0 112.329 109.912" enable-background="new 0 0 112.329 109.912"
	 xml:space="preserve">
<g id="squared-plus">
	<g>
		<path fill-rule="evenodd" clip-rule="evenodd" d="M101.568,37.135c0-6.199-1.044-12-2.567-16.548
			c-1.533-2.558-3.037-5.144-5.133-7.131c-1.562-0.344-2.527-1.281-4.282-1.428c-0.28-0.671-1.646-0.256-1.999-0.855
			c-0.785-0.259-2.002-0.089-2.566-0.57c-5.826-0.167-12.332,0.349-17.689-0.285c-4.397-0.535-10.773,0.729-13.692,0
			c-0.383-0.096-0.659,0.324-0.856,0.285c-0.112-0.022,0.029-0.287-0.285-0.285c-1.002,0.007-1.789,0.122-1.998,0.285h-0.569
			c-9.983,0.383-21.703-0.972-29.956,1.141c-1.516,1.148-3.477,1.851-5.135,2.854c-1.469,1.289-2.511,3.005-3.711,4.564
			c-0.965,2.966-1.043,6.189-1.14,9.415c0.236,1.723,0.003,2.354,0,4.564c0.319,1.581,0.202,3.6,0.571,5.135
			c0.764,6.747,1.853,13.173,2.282,20.257c1.354,6.154,1.489,13.536,2.567,19.971c1.121,6.486,1.143,14.072,5.133,17.688
			c3.691,2.881,9.625,3.14,15.979,3.14c6.164,0,12.899,0.296,18.26,0.854c6.139-0.23,12.556-0.186,18.545-0.57
			c6.342-0.123,12.717-0.213,17.972-1.426c2.909-1.938,6.201-3.498,7.987-6.562c2.545-10.103,1.223-24.075,1.998-35.947
			C101.684,49.728,101.568,43.393,101.568,37.135z M93.868,79.645c-0.053,2.233,0.244,4.812-0.574,6.276
			c-2.551,2.429-7.619,1.704-11.697,1.997c-2.33,0.048-4.405,0.349-6.562,0.57c-1.35-0.212-1.961,0.32-3.141,0.285
			c-0.816,0.321-2.221,0.059-2.851,0.571c-8.019,1.394-16.757,2.07-25.106,3.139c-6.627-0.125-14.029,0.526-18.828-1.427
			c-1.011-1.652-1.672-3.653-1.998-5.992c-0.355-0.975-0.096-2.565-0.568-3.423c-0.168-0.502,0.346-1.677-0.287-1.713
			c-0.164-0.5,0.346-1.676-0.283-1.712c-0.693-4.634-1.25-9.399-1.714-14.264c-1.601-9.047-2.216-19.087-3.709-28.245
			c0.171-4.489-0.354-9.673,0.286-13.694c0.755-1.239,1.709-2.282,2.854-3.138c1.479-0.42,2.729-1.072,3.994-1.712
			c0.158-0.41,0.443-0.697,0.855-0.855c10.09,0.242,20.052,0.284,29.958,0.284c4.865,0,9.756-0.326,14.547,0
			c4.983,0.341,9.856,0.338,14.837,0.287c2.643,0.209,4.436,1.268,6.56,1.996c0.982,1.778,2.228,3.289,2.854,5.42
			c0.533,2.224,0.895,4.624,1.426,6.847c0.056,14.133-0.15,27.997-0.568,41.654C94.078,75.103,94.358,77.763,93.868,79.645z
			 M84.164,45.694c-3.317-1.004-6.481,0.534-9.987,0.286c-0.035,0.818-1.957-0.246-1.994,0.571h-2.855
			c-0.3,0.647-1.791,0.108-2.566,0.283c-0.711,0.24-1.529,0.375-2.568,0.286c-1.568-6.987-1.193-15.924-3.705-21.968
			c-0.809-0.146-1.215-0.69-2-0.856h-2.855c-0.36,0.018-0.391,0.365-0.852,0.285c-2.696,0.348-5.848,0.238-7.704,1.427
			c-0.751,1.247-0.572,3.421-0.569,5.422c-0.104,2.1,0.071,3.921,0.285,5.705c0.375,3.615,0.858,7.13,1.424,10.556
			c-4.748,0.576-10.593,0.057-15.404,0.571c-1.207,0.123-1.454,1.21-2.566,1.426c-1.588-0.255-2.041,0.623-2.855,1.141
			c-0.92,3.849,0.039,8.296,1.429,11.413c2.06,1.742,6.622,0.985,10.269,1.141c3.628,0.179,7.975-0.365,11.129,0.285
			c0.303,6.223-0.872,12.411,0,18.26c0.589,0.742,1.268,1.393,2.566,1.426c0.558,0.773,1.107,1.557,2.282,1.712
			c1.896,0.336,4.693,0.483,6.562,0c0.118-0.359,0.368-0.583,0.854-0.571c0.907-0.899,1.34-2.275,1.999-3.423v-15.12
			c0.17-0.592-0.352-1.874,0.285-1.997h10.557c3.014-0.598,7.26,0.034,9.416-1.428c0.472-0.586,1.363-2.229,0.566-3.138
			c0.409-1.02,0.816-2.038,0.859-3.424C85.924,52.113,86.421,47.528,84.164,45.694z M32.238,55.11v-1.999h1.431
			C33.299,53.884,33.149,54.875,32.238,55.11z M44.793,57.961c-2.103,0.035-5.222-0.025-7.705,0c0.146-1.188,1-1.665,1.144-2.852
			c0.905,0.615,0.472,2.569,1.995,2.566c1.777,0.256,1.551-1.492,2.855-1.712c-0.238,2.504,2.835,1.261,3.993,1.712
			C46.531,58.22,45.563,57.95,44.793,57.961z M47.076,53.398c0.007-0.277,0.349-0.223,0.571-0.287
			C47.638,53.39,47.297,53.333,47.076,53.398z M57.916,45.694c0.091,0.669,0.45,1.071,0.287,1.997h-1.998
			c0.108-1.509,1.005-2.228,1.427-3.423C58.25,44.219,57.758,45.28,57.916,45.694z M54.78,45.123
			c-0.586,0.08-0.57,0.763-0.857,1.143c-1.014-1.936-0.689-5.208-1.426-7.418c0.053-1.367,0.496,0.49,1.426,0
			c1.159-0.175,0.7-1.96,1.142-2.853c-0.003-0.758,0.108-1.629-0.284-1.997c0.383-1.52,1.425-2.379,1.141-4.565
			c-2.246-0.061-2.581,1.795-3.424,3.139c-0.127,1.175,1.021,1.071,1.142,1.997c-0.624,0.611-0.901,1.571-0.856,2.853
			c-1.283-1.757-0.547-5.54-1.142-7.988c-0.12-0.596,0.194-0.755,0.288-1.142c1.266,0.348,2.922,0.311,4.562,0.286
			c0.665,3.423,0.629,7.55,0.855,11.412c-1.703,0.293-2.26,1.733-3.139,2.851C53.858,44.141,54.991,43.962,54.78,45.123z
			 M57.063,53.111h1.424v1.142c-0.088,1.055-1.213,1.07-1.711,1.712c-0.267,0.78-0.874,1.217-1.145,1.997
			c-0.479-0.564-0.309-1.78-0.567-2.567C55.262,54.167,56.743,54.222,57.063,53.111z M58.487,63.382
			c-0.768,1.042-2.221,1.394-2.566,2.854C54.93,64.574,56.151,62.671,58.487,63.382z M55.348,74.795
			c-0.195-0.768,0.593-0.553,0.856-0.856c0.245-0.231,0.171-0.781,0.571-0.857c0.258-1.833,1.062-3.122,1.711-4.562
			c0.641,0.122,0.115,1.404,0.285,1.995v1.999c-1.029,1.441-2.667,2.276-3.141,4.278C54.998,76.669,55.519,75.385,55.348,74.795z
			 M58.487,79.359c-1.09-0.246-0.287-1.484,0-1.997C59.098,77.541,58.754,79.119,58.487,79.359z M66.192,54.538
			c-0.24,1.094-0.524,2.142-1.713,2.282c0.161-1.836,1.133-2.862,1.713-4.278h1.998C68.058,53.744,66.795,53.808,66.192,54.538z
			 M80.456,57.676c-2.738,0.497-5.449,1.018-8.846,0.856c-0.916,0.25-0.391-0.941-1.137-0.856c-1.248-0.199-1.274,0.824-2.283,0.856
			c0.323-0.627,0.954-0.948,1.137-1.713c0.309-1.064-0.707-0.812-0.568-1.71c0.329-0.636,1.703-1.705,0.855-2.568
			c0.125-0.638,1.406-0.116,1.996-0.284c0.709-0.435,2.213-0.072,2.855-0.571c2.225,0.356,4.229-0.821,5.99,0V57.676z"/>
	</g>
</g>
</svg>
