<?xml version="1.0" encoding="utf-8"?>
<!-- Generator: Adobe Illustrator 16.0.0, SVG Export Plug-In . SVG Version: 6.00 Build 0)  -->
<!DOCTYPE svg PUBLIC "-//W3C//DTD SVG 1.1//EN" "http://www.w3.org/Graphics/SVG/1.1/DTD/svg11.dtd">
<svg version="1.1" id="Layer_1" xmlns="http://www.w3.org/2000/svg" xmlns:xlink="http://www.w3.org/1999/xlink" x="0px" y="0px"
	 width="192.333px" height="113.667px" viewBox="0 0 192.333 113.667" enable-background="new 0 0 192.333 113.667"
	 xml:space="preserve">
<g id="sale-tag">
	<g>
		<path fill-rule="evenodd" clip-rule="evenodd" d="M188.939,14.889c-1.334-1.625-2.652-3.259-3.705-4.978
			c-3.979-2.596-9.412-4.7-14.247-7.006c-0.542-0.221-0.803,0.233-1.42-0.179c-1.745-0.174-3.461-0.271-5.245-0.533
			c-7.83,1.359-14.96,4.43-21.769,8.299c-1.556,1.663-3.206,3.099-4.958,4.292c-1.762,1.438-3.226,3.613-5.375,4.094
			c-5.4-1.738-10.966-3.874-16.847-6.786c-5.177-0.646-11.319-3.643-16.496-4.285c-4.146-0.028-7.924,0.848-11.732,1.649
			c-3.481,1.604-7.695,1.419-11.031,3.379c-3.589,1.348-7.142,2.781-10.795,3.955c-3.812,1.077-6.763,4.249-11.21,3.766
			c-3.455,1.672-6.975,3.185-10.561,4.533c-3.744,0.964-7.582,1.69-11.03,3.379c-3.548,1.438-7.694,1.414-11.267,2.802
			c-3.576,1.647-7.583,2.24-10.971,4.345c-2.56,4.139-5.576,7.169-7.921,11.834c0.417,5.973,3.281,11.128,5.976,16.336
			c-0.757,1.676,1.403,2.371,0.644,4.046c0.987,1.086,0.908,2.529,1.23,3.842c1.099,2.581,1.848,5.279,2.283,8.081
			c1.233,2.533,1.636,5.346,2.868,7.881c0.908,2.642,1.122,5.521,2.285,8.078c2.42,2.026,3.463,4.514,6.59,6.305
			c1.867,2.21,4.012,4.327,7.18,6.104c5.37,1.944,9.884,1.768,15.023,3.142c12.97-3.014,26.012-5.842,38.513-9.995
			c5.906-1.149,11.918-2.024,17.634-3.633c5.416-2.355,11.466-3.135,17.166-4.783c1.301-2.294,3.809-1.63,5.197-3.712
			c8.075-12.821,16.521-24.762,23.719-39.75c7.399,1.428,14.275,1.576,20.686,0.582c4.888-1.729,9.624-3.815,13.575-7.841
			c0.276-0.422,0.433-1.129,0.948-0.971C188.815,32.419,190.039,22.641,188.939,14.889z M145.204,41.709
			c-0.555,1.161-2.63,2.809-1.955,4.261c-1.53,0.635-2.978,1.479-4.482,2.161c-0.37,1.659-0.495,2.204-1.835,2.912
			c-1.361,2.967-2.722,5.936-4.085,8.904c-3.829,5.15-7.194,11.439-11.06,16.495c-3.112,2.78-6.797,4.17-10.268,6.071
			c-3.394,1.829-7.034,3.037-10.562,4.533c-3.229-1.902-5.016-0.244-7.661-0.703c-2.14,0.788-4.698,0.537-6.724,1.607
			c-2.386,0.176-4.515,0.985-6.723,1.603c-2.338,0.027-4.109,1.434-6.549,1.217c-1.896,1.372-4.508,1-6.483,2.183
			c-2.218,0.598-4.518,0.992-6.489,2.179c-2.607-0.368-4.311,1.495-6.724,1.603c-1.811,1.316-4.354,0.833-6.313,1.795
			c-1.522-0.451-2.668,0.032-4.242-0.54c-1.021,0.786-2.9-0.538-4.008,0.035c-3.504-0.921-7.66-3.443-11.072-4.144
			c-2.702-2.803-3.486-6.252-5.761-9.202c-1.735-6.298-3.662-12.531-5.325-18.853c-2.803-5.827-2.934-12.551-3.145-19.255
			c0.829-1.807,1.657-3.613,2.486-5.419c5.685-2.51,12.369-2.56,18.168-4.795c6.203-1.242,11.946-3.605,18.165-4.796
			c5.739-2.377,12.336-2.638,17.928-5.372c3.026-0.813,6.031-1.664,9.084-2.395c1.67-0.021,3.051-0.752,4.777-0.625
			c1.406-0.387,2.688-1.085,4.364-0.81c2.409-1.499,5.404-1.552,7.849-2.964c2.833-0.445,5.678-0.877,8.55-1.234
			c6.889,1.548,14.127,3.945,21.445,6.553c-1.134,2.98-3.216,3.634-4.435,6.403c-5.822-1.673-10.027,0.624-12.865,6.289
			c-0.433,1.126,0.02,1.96-0.42,3.085c0.063,2.278,2.065,3.897,3.351,5.76c4.139,1.377,7.685,1.312,11.551,2.014
			c1.527-0.635,2.973-1.479,4.483-2.162c0.719-2.102,2.646-4.604,2.429-6.386c0.458-1.463-0.062-2.601-0.817-3.656
			c-0.322-1.202-1.941-1.971-1.406-3.458c1.723-2.904,4.047-4.332,6.259-6.038c3.305,1.256,6.461,2.143,9.365,2.425
			c2.881,2.415,3.43,5.618,3.934,8.833C147.145,39.341,146.042,40.196,145.204,41.709z M123.634,39.786
			c-1.601,2.248-4.186,0.252-5.896-1.298c1.218-1.677,3.378-1.035,5.834,0.334C123.302,39.242,123.349,39.555,123.634,39.786z
			 M181.655,30.771c-1.42,3.094-2.718,6.498-4.729,8.142c-0.967,1.476-2.739,0.961-3.664,2.539
			c-1.489,0.456-2.885,1.149-4.306,1.776c-4.674,0.046-8.835,1.353-14.263-0.447c0.663-1.114,1.91-0.801,2.243-2.722
			c-0.219-1.563,0.278-3.368-1.463-4.422c0.911-2.051-1.266-3.069-0.696-5.007c-1.552-1.554-2.107-3.444-3.117-5.18
			c-0.636-0.549-1.617-0.983-1.703-1.718c-1.651-0.757-3.3-1.514-4.947-2.269c-0.174,0.486-0.71-0.037,0,0
			c7.412-6.225,16.476-8.391,26.368-8.533c2.253,0.871,4.284,1.188,6.538,2.059c1.664,0.795,2.552-0.314,4.243,0.541
			C183.722,20.029,182.66,25.41,181.655,30.771z M80.942,32.585l0.228-0.06c0.193,1.431,0.324,2.507,0.392,3.23
			c0.079,0.535,0.273,1.467,0.582,2.798c0.25,1.184,0.425,2.122,0.525,2.813c-1.181,0.681-1.666,1.421-1.456,2.222
			c0.103,0.39,0.446,0.694,1.031,0.91c0.51,0.167,0.965,0.198,1.363,0.093c0.988,3.767,1.74,5.861,2.257,6.281
			c0.552,0.48,1.188,0.626,1.91,0.437c0.341-0.09,0.612-0.295,0.813-0.613c0.199-0.318,0.249-0.673,0.146-1.062
			c-0.034-0.13-0.29-0.41-0.768-0.84c-0.166-0.165-0.409-0.667-0.731-1.509c-0.283-0.69-0.48-1.251-0.595-1.685l-0.332-1.267
			c0.095-0.025,0.272-0.083,0.533-0.174c0.207-0.055,0.379-0.1,0.512-0.135c0.759-0.199,2.541,0.271,5.346,1.409
			c2.804,1.138,4.394,2.075,4.769,2.809c0.313,0.265,0.631,0.356,0.954,0.271c0.417-0.109,0.706-0.44,0.865-0.991l-0.042-0.163
			c-0.396-1.585-1.536-2.836-3.42-3.754c-1.585-0.625-3.179-1.248-4.781-1.869c1.428-1.439,2.368-2.647,2.822-3.623
			c0.68-1.428,0.784-3.04,0.312-4.838c-0.613-2.338-2.041-3.873-4.282-4.604c-1.823-0.609-3.846-0.623-6.065-0.04
			c-0.475,0.125-0.726,0.133-0.755,0.024c-0.09-0.346-0.307-0.475-0.648-0.385c-0.475,0.125-0.806,0.275-0.992,0.451
			c-0.188,0.177-0.42,0.51-0.697,0.999c-0.294,0.193-0.588,0.386-0.882,0.579c-0.41,0.293-0.527,0.775-0.352,1.446
			C79.709,32.527,80.189,32.807,80.942,32.585z M85.144,31.204c1.328-0.349,2.563-0.36,3.704-0.035
			c1.42,0.391,2.313,1.28,2.677,2.665c0.358,1.364,0.206,2.678-0.457,3.938c-0.564,1.098-1.416,2.027-2.555,2.788
			c-0.397,0.267-0.709,0.43-0.937,0.489c-0.267,0.07-1.006,0.033-2.221-0.111c-0.504-2.229-0.802-3.943-0.895-5.146
			c-0.12-2.004-0.292-3.395-0.516-4.169C84.574,31.389,84.973,31.249,85.144,31.204z M51.381,56.764
			c1.265,1.497,2.938,2.342,5.018,2.537c0.938,0.101,1.778,0.054,2.519-0.141c2.619-0.688,4.357-2.451,5.215-5.292
			c0.779-2.518,0.76-5.337-0.059-8.455c-0.744-2.836-1.996-5.169-3.755-6.999c-2.039-2.126-4.226-2.883-6.561-2.27
			c-2.656,0.698-4.386,2.69-5.186,5.979c-0.706,2.801-0.638,5.803,0.203,9.006C49.423,53.599,50.292,55.477,51.381,56.764z
			 M51.619,41.324c0.778-1.361,1.699-2.182,2.763-2.461c0.342-0.089,0.656-0.125,0.945-0.109c2.775,0.221,4.755,2.583,5.937,7.085
			c0.643,2.447,0.806,4.614,0.49,6.502c-0.425,2.402-1.604,3.858-3.54,4.366c-1.424,0.374-2.62,0.225-3.587-0.447
			c-0.839-0.566-1.639-1.641-2.398-3.224c-0.346-0.696-0.571-1.25-0.68-1.662C50.367,46.872,50.39,43.521,51.619,41.324z
			 M64.267,36.528c0.201,0.306,0.325,0.545,0.371,0.718c0.262,0.996,0.598,2.511,1.01,4.543c0.412,2.033,0.748,3.547,1.01,4.543
			c0.534,2.036,1.103,3.622,1.705,4.759c0.848,1.606,1.934,2.768,3.258,3.484c1.201,0.633,2.446,0.781,3.737,0.442
			c1.442-0.379,2.501-1.293,3.176-2.743c0.547-1.162,0.722-3.047,0.523-5.658c-0.149-2.113-0.46-4.067-0.932-5.865l-2.361-8.996
			c-0.102-0.39-0.397-0.683-0.884-0.878c-0.488-0.196-0.912-0.247-1.272-0.152c-0.342,0.09-0.593,0.353-0.752,0.787
			c-0.159,0.436-0.188,0.849-0.086,1.238c0.04,0.151,0.15,0.342,0.333,0.572c0.612,0.788,1.106,1.896,1.481,3.325
			c1.028,3.919,1.645,6.847,1.849,8.784c0.419,4.148-0.32,6.471-2.218,6.969c-0.987,0.259-1.896-0.15-2.727-1.228
			c-0.667-0.843-1.163-1.882-1.487-3.116l-1.057-4.027c-0.233-0.888-0.485-2.233-0.756-4.037c-0.271-1.804-0.519-3.138-0.746-4.004
			c-0.068-0.26-0.068-0.642,0.003-1.146c0.07-0.504,0.074-0.875,0.012-1.114c-0.119-0.455-0.502-0.597-1.146-0.428
			c-0.569,0.149-1.112,0.442-1.626,0.878c-0.669,0.546-0.932,1.09-0.789,1.63C63.941,35.983,64.065,36.223,64.267,36.528z
			 M80.768,77.306c0.81-0.236,1.079-0.874,0.806-1.913c-0.107-0.412-0.34-0.675-0.693-0.79c-0.156-0.051-0.498-0.077-1.025-0.078
			c-1.364-3.808-2.493-6.601-3.387-8.38c-1.994-3.965-3.816-5.732-5.469-5.299c-1.689,0.443-2.762,4.973-3.219,13.585
			c-0.048,3.299-0.06,5.766-0.035,7.403c-0.063,1.15-0.075,1.802-0.036,1.953c0.114,0.434,0.43,0.785,0.946,1.054
			c0.518,0.269,0.976,0.352,1.374,0.247c0.379-0.1,0.638-0.387,0.777-0.863c-0.489-2.093-0.674-3.282-0.557-3.568
			c0.118-0.285,1.204-0.767,3.258-1.445c1.433-0.492,2.681-0.877,3.743-1.156c0.627-0.165,0.92-0.322,0.88-0.474
			c0.046,0.173,0.107,0.446,0.185,0.819c0.078,0.374,0.143,0.657,0.193,0.852c0.205,0.779,0.505,1.418,0.898,1.916
			c0.519,0.119,0.948,0.133,1.29,0.044c0.436-0.115,0.776-0.365,1.02-0.754c0.242-0.387,0.311-0.822,0.205-1.303
			C81.378,78.395,80.994,77.778,80.768,77.306z M72.707,76.505c-1.139,0.531-1.992,0.952-2.56,1.262
			c0.056-2.028,0.223-4.444,0.501-7.248c0.396-3.899,0.86-5.918,1.393-6.058c0.664-0.174,2.405,3.407,5.224,10.744
			C75.267,75.637,73.749,76.07,72.707,76.505z M109.455,53.043c-1.646-1.558-3.551-2.053-5.715-1.485
			c-1.784,0.469-2.947,1.642-3.489,3.52c-0.041-0.545-0.298-0.963-0.771-1.256c-0.473-0.292-0.946-0.376-1.42-0.252
			c-0.343,0.09-0.604,0.287-0.789,0.59c-0.185,0.303-0.225,0.65-0.122,1.041c0.018,0.066,0.05,0.15,0.097,0.253
			c0.047,0.104,0.077,0.178,0.089,0.221c0.456,1.738,1.097,4.354,1.924,7.851c0.826,3.497,1.468,6.113,1.923,7.85
			c0.53,2.019,1.145,3.587,1.844,4.704c0.377,0.202,0.681,0.273,0.908,0.214c0.379-0.1,0.709-0.43,0.988-0.988
			c0.84,0.265,1.754,0.269,2.741,0.01c2.752-0.723,4.518-2.922,5.298-6.598c0.65-3.087,0.529-6.33-0.363-9.729
			C111.92,56.411,110.874,54.43,109.455,53.043z M109.891,69.661c-0.687,1.87-1.703,2.981-3.05,3.334
			c-1.5,0.394-2.517-0.426-3.051-2.462l-1.833-6.982c-0.353-1.342-0.528-2.609-0.526-3.802c0.002-1.192,0.276-2.369,0.823-3.531
			c0.627-1.322,1.405-2.104,2.335-2.349c2.277-0.598,3.996,1.312,5.155,5.728c0.449,1.711,0.724,3.375,0.823,4.991
			C110.675,66.389,110.45,68.079,109.891,69.661z M94.668,62.443c-0.33-1.255-0.479-2.94-0.445-5.055
			c0.01-0.118,0.057-0.443,0.141-0.974c0.073-0.413,0.079-0.738,0.017-0.977c-0.022-0.086-0.058-0.181-0.104-0.285
			c-0.577-0.265-0.998-0.362-1.264-0.293c-0.836,0.22-1.264,1.292-1.285,3.219c-0.007,1.367,0.135,2.718,0.425,4.054l2.025,8.876
			c0.058,0.217,0.16,0.513,0.31,0.891s0.248,0.653,0.293,0.826c0.159,0.606,0.135,0.937-0.074,0.992
			c-0.569,0.149-1.959-1.626-4.168-5.328c-1.859-3.145-3.105-5.457-3.737-6.934c-0.199-0.527-0.395-1.042-0.588-1.547
			c-0.295-0.732-0.529-1.203-0.706-1.411c-0.604-0.605-1.391-0.78-2.358-0.526c-0.418,0.11-0.805,0.338-1.16,0.686
			c-0.438,0.417-0.601,0.841-0.486,1.274c0.011,0.044,0.042,0.104,0.094,0.184c0.051,0.08,0.082,0.141,0.094,0.184l1.039,3.962
			c0.233,0.888,0.485,2.233,0.756,4.037c0.271,1.804,0.522,3.149,0.755,4.037c0.097,0.369,0.23,0.917,0.402,1.647
			c0.172,0.731,0.306,1.28,0.401,1.648c0.217,0.822,0.588,1.697,1.115,2.623c0.678,1.189,1.281,1.712,1.812,1.572
			c0.38-0.1,0.718-0.356,1.016-0.77c0.297-0.413,0.392-0.826,0.283-1.237c-0.051-0.195-0.277-0.459-0.68-0.793
			s-0.967-1.887-1.694-4.658c-0.329-1.256-0.778-3.776-1.346-7.562c0.899,1.569,1.788,3.141,2.668,4.715
			c1.44,2.399,2.726,4.237,3.852,5.515c1.548,1.723,2.843,2.448,3.888,2.173c0.701-0.184,1.125-0.966,1.271-2.347
			c0.099-1.09,0.032-2.114-0.198-3.072L94.668,62.443z M63.546,81.026c-1.584-0.625-3.178-1.248-4.781-1.868
			c1.428-1.439,2.368-2.646,2.822-3.623c0.68-1.428,0.785-3.041,0.313-4.838c-0.614-2.338-2.042-3.873-4.282-4.604
			c-1.824-0.609-3.846-0.623-6.066-0.04c-0.475,0.125-0.726,0.133-0.754,0.025c-0.091-0.346-0.308-0.475-0.649-0.385
			c-0.475,0.125-0.806,0.276-0.992,0.451c-0.187,0.177-0.419,0.51-0.696,0.999c-0.294,0.194-0.589,0.386-0.883,0.579
			c-0.41,0.293-0.527,0.775-0.351,1.446c0.204,0.779,0.684,1.059,1.437,0.838l0.229-0.06c0.192,1.431,0.323,2.507,0.391,3.23
			c0.08,0.534,0.273,1.467,0.583,2.797c0.25,1.185,0.425,2.123,0.524,2.813c-1.18,0.681-1.665,1.421-1.455,2.222
			c0.103,0.39,0.445,0.693,1.03,0.91c0.511,0.167,0.965,0.198,1.363,0.093c0.989,3.767,1.741,5.861,2.258,6.28
			c0.551,0.48,1.188,0.626,1.909,0.437c0.342-0.089,0.612-0.295,0.812-0.613c0.201-0.318,0.25-0.673,0.147-1.063
			c-0.034-0.13-0.29-0.41-0.769-0.839c-0.164-0.165-0.408-0.667-0.73-1.509c-0.282-0.689-0.48-1.25-0.594-1.684l-0.333-1.267
			c0.095-0.025,0.272-0.083,0.532-0.174c0.209-0.055,0.38-0.1,0.514-0.135c0.758-0.199,2.54,0.271,5.345,1.409
			c2.804,1.138,4.394,2.075,4.77,2.809c0.312,0.266,0.63,0.356,0.953,0.271c0.417-0.109,0.706-0.44,0.866-0.991l-0.043-0.163
			C66.57,83.196,65.43,81.944,63.546,81.026z M56.235,77.982c-0.396,0.266-0.709,0.429-0.937,0.488
			c-0.266,0.07-1.006,0.034-2.22-0.111c-0.505-2.228-0.803-3.943-0.895-5.146c-0.121-2.005-0.293-3.395-0.517-4.169
			c0.628-0.234,1.027-0.374,1.198-0.419c1.328-0.349,2.563-0.36,3.704-0.035c1.421,0.391,2.313,1.279,2.677,2.665
			c0.358,1.364,0.206,2.677-0.457,3.938C58.225,76.291,57.374,77.221,56.235,77.982z M43.689,80.963
			c0.488-0.845,0.781-1.895,0.878-3.146c0.114-1.187,0.032-2.311-0.246-3.372c-0.488-1.862-1.306-3.279-2.451-4.251
			c-1.255-1.082-2.677-1.415-4.267-0.998c-2.007,0.527-3.398,1.968-4.175,4.325l-0.185-1.514c-0.253-0.188-0.505-0.376-0.758-0.564
			c-0.186-0.09-0.487-0.081-0.904,0.029c-0.304,0.08-0.575,0.342-0.813,0.787s-0.312,0.84-0.221,1.187l2.608,9.938
			c-0.281,0.398-0.368,0.803-0.26,1.214c0.097,0.368,0.362,0.646,0.797,0.832l0.06,0.228c0.131,0.498,0.301,1.148,0.511,1.948
			c0.228,0.866,0.396,1.505,0.504,1.917l0.017,0.065c-0.547,0.236-0.731,0.69-0.556,1.36c0.103,0.39,0.287,0.631,0.555,0.723
			s0.542,0.17,0.823,0.235c0.067,0.028,0.128,0.14,0.179,0.335c0.012,0.043,0.031,0.118,0.06,0.227s0.049,0.185,0.06,0.228
			c0.228,0.866,0.797,1.18,1.708,0.94c0.493-0.129,0.756-0.558,0.789-1.283c1.213-0.018,2.255-0.141,3.128-0.371
			c3.341-0.876,5.345-2.826,6.013-5.848c0.144-0.686,0.122-1.386-0.065-2.101C46.988,82.168,45.725,81.146,43.689,80.963z
			 M35.772,82.451l-0.546-2.079c-0.38-1.45-0.306-3.136,0.225-5.057c0.561-2.115,1.448-3.332,2.663-3.65
			c1.689-0.443,2.884,0.667,3.583,3.33c0.568,2.166,0.44,3.808-0.381,4.926c-0.678,0.895-2.014,1.604-4.007,2.127L35.772,82.451z
			 M43.691,87.697c-0.892,0.928-1.85,1.527-2.875,1.796c-1.12,0.294-2.202,0.347-3.245,0.157c-0.104-0.319-0.216-0.707-0.335-1.162
			l-0.529-2.014c-0.125-0.476-0.252-0.998-0.381-1.566c0.388-0.148,0.894-0.304,1.521-0.468c1.746-0.458,3.011-0.744,3.792-0.857
			c1.909-0.223,2.975,0.087,3.197,0.932C45.114,85.577,44.732,86.638,43.691,87.697z M36.379,51.086
			c1.435,1.915,2.859,3.241,4.271,3.982c-0.042,1.076-0.084,2.151-0.127,3.227c-0.07,1.43-0.209,2.45-0.414,3.06
			c-0.205,0.609-0.262,1.087-0.171,1.433c0.147,0.563,0.484,0.96,1.013,1.192c0.465,0.225,0.953,0.271,1.466,0.136
			c0.588-0.154,1.067-3.162,1.437-9.021c0.447-6.874,0.712-10.52,0.796-10.936c0.084-0.415,0.297-1.033,0.64-1.852
			c0.344-0.819,0.565-1.461,0.666-1.928c-0.177-0.439-0.469-0.762-0.877-0.967c-0.41-0.205-0.823-0.253-1.24-0.144
			c-0.569,0.15-1.068,1.148-1.496,2.997c-0.251,1.131-0.53,2.963-0.839,5.497c-0.29,2.298-0.505,3.685-0.644,4.161
			c-0.705-0.139-1.717-1.134-3.035-2.987c-1.252-1.753-1.997-3.085-2.235-3.995c-0.046-0.173-0.086-0.423-0.121-0.75
			c-0.035-0.327-0.072-0.565-0.112-0.717c-0.392-1.494-1.157-2.092-2.296-1.793c-0.987,0.259-1.315,1.017-0.986,2.272
			C32.465,45.449,33.9,47.826,36.379,51.086z"/>
	</g>
</g>
</svg>
