<?xml version="1.0" encoding="utf-8"?>
<!-- Generator: Adobe Illustrator 16.0.0, SVG Export Plug-In . SVG Version: 6.00 Build 0)  -->
<!DOCTYPE svg PUBLIC "-//W3C//DTD SVG 1.1//EN" "http://www.w3.org/Graphics/SVG/1.1/DTD/svg11.dtd">
<svg version="1.1" id="Layer_1" xmlns="http://www.w3.org/2000/svg" xmlns:xlink="http://www.w3.org/1999/xlink" x="0px" y="0px"
	 width="123.014px" height="115.096px" viewBox="0 0 123.014 115.096" enable-background="new 0 0 123.014 115.096"
	 xml:space="preserve">
<g id="luggage">
	<g>
		<path fill-rule="evenodd" clip-rule="evenodd" d="M112.703,38.258c-0.477-1.739-1.162-3.271-1.936-4.709
			c-0.412-1.899-1.51-3.11-2.217-4.709c-0.817-0.384-1.121-1.28-1.939-1.661c-0.352-0.849-1.586-0.815-1.939-1.663
			c-0.689,0.041-1.148-0.145-1.386-0.554c-1.205-0.087-2.267-0.32-3.322-0.554H89.158c-1.752,0.234-4.688,0.598-6.369,0v-5.265
			c0.242-2.089-0.256-3.437-0.831-4.709c-5.587-3.472-15.761-3.804-24.655-3.047c-3.203-0.16-5.774,0.32-8.588,0.555
			c-0.871,0.604-2.855,0.097-3.6,0.831c-1.553,0.017-2.091,1.047-3.047,1.661c-0.475,1.557-0.692,3.37-0.554,5.54
			c0.491,0.525,0.201,1.83,0.275,2.771v1.383c-0.264,0.518,0.83,0.928,0,1.109c-4.269-0.209-7.685,0.438-11.908,0.277
			c-2.648,0.678-5.626,1.022-8.312,1.663c-0.727,0.693-2.416-0.602-3.324,0.274c-2.883,0.995-3.75,4.006-5.261,6.372
			c-0.355,4.078-1.496,7.37-2.497,10.803c-0.305,7.912-0.319,16.116-0.276,24.377c0.311,2.183,0.664,4.325,0.555,6.925
			c0.564,1.927,0.025,4.962,1.108,6.37c0.725,4.261,2.335,7.636,3.6,11.358c1.293,1.478,2.676,2.861,4.153,4.155
			c2.642,0.962,5.184,2.021,8.037,2.769c1.104,0.559,3.323,0,4.433,0.557c-0.186,1.845,0.318,3.002,0.828,4.152
			c0.938,0.266,1.457,0.945,2.215,1.386c1.271,0.021,1.882,0.704,3.324,0.554c2.754-0.115,4.863,0.674,6.648-0.554
			c0.823-0.561,1.383-1.39,1.664-2.493c0.998-0.48,0.515-2.439,1.384-3.045h13.849c3.074-0.812,8.096-1.342,11.359-0.279
			c-0.428,4.123,1.091,6.297,3.877,7.202c0.206,0.626,1.554,0.108,2.219,0.277h2.491c1.747,0.085,3.28-0.044,4.708-0.277
			c0.813-0.663,1.704-1.252,2.492-1.938c0.366-0.744,0.745-1.472,1.107-2.215c0.543-0.656-0.076-2.479,0.558-3.049
			c2.029-0.277,2.676,0.834,4.707,0.554c4.45-0.165,7.778-1.453,10.806-3.046c3.918-3.65,6.157-8.985,6.924-15.789
			c0.723-6.941,1.154-14.173,1.936-21.053V49.062C114.439,45.388,113.906,41.488,112.703,38.258z M27.389,59.033
			c0.547,12.189-1.013,23.727-0.279,35.179c-2.649-0.12-4.509-1.027-6.093-2.216c0.7-1.885,1.003-4.167,1.386-6.371
			c0.236-1.059,0.467-2.118,0.555-3.325c0.608-0.034,0.118-1.175,0.277-1.659c0.04-0.69,0.051-1.347-0.556-1.387
			c-2.042-0.197-1.721,1.971-2.769,2.77c-0.074,0.852-0.601,1.247-0.831,1.939c-0.476,0.449-0.108,1.74-1.109,1.662
			c0.169-1.096-1.082-1.605-0.276-2.493c1.167,0.059,0.976-1.24,1.661-1.663c0.161-3.625,1.252-6.318,1.939-9.417
			c0.211-1.636,1.043-2.649,1.109-4.432c0.642-0.966,1.356-3.237,0-3.878c-1.693-0.215-1.787,1.168-2.493,1.939
			c-0.565,0.911-0.865,2.092-1.384,3.046c-0.867,1.995-1.908,3.819-2.497,6.095c-1.007-1.299,0.477-2.471,0.833-3.324
			c0.693-3.276,1.53-6.412,2.492-9.417c0.01-1.931,0.931-2.948,1.107-4.711c0.459-1.116,1.677-3.14,0.555-4.154
			c-2.727,0.041-2.617,2.925-3.879,4.433c-0.355,2.414-1.728,3.81-1.937,6.37c-1.05-1.431,0.548-2.583,0.553-3.878
			c0.739-0.83,0.971-2.171,1.109-3.6c0.412-0.421,0.447-1.217,0.556-1.941c0.212-0.614,0.578-1.079,0.552-1.938
			c0.723-0.847,0.662-2.479,1.384-3.325c0.631-2.6,1.724-4.738,2.772-6.923c0.639-1.99,3.638-3.975,1.659-6.096
			c-1.354-0.775-2.016,1.223-3.044,1.661c-0.499,1.165-1.482,1.844-1.941,3.048c-1.461,1.862-2.34,4.309-3.323,6.647
			c-0.799-0.815,0.388-1.997,0-3.323c0.707-1.14,0.992-2.702,1.385-4.155c0.509-1.337,0.595-3.099,0.832-4.709
			c1.073-1.79,2.047-3.677,3.323-5.264c1.952-0.231,5.265-0.079,7.478,0.276c0.122,4.074-0.637,8.198-0.827,12.468
			C27.423,48.302,28.062,54.173,27.389,59.033z M47.054,21.359c0.173-1.391-0.259-3.273,0-3.877
			c3.503-0.287,6.468-1.105,10.528-0.831c6.715-0.511,15.537-0.777,20.221,1.661c-0.16,2.149,0.336,4.952-0.278,6.649
			c-10.123,0.125-20.784-0.287-30.471,0.276C46.795,24.635,47.227,22.752,47.054,21.359z M31.266,30.224h4.154v4.157
			c0.119,0.578-0.19,0.732-0.277,1.106c-0.227,0.694,0.539,2.384-0.552,2.216c-1.138,0.127,0.114-0.592-0.277-1.385v-1.938
			c-0.361-0.654-0.118-1.917-0.555-2.494c-1.025,0.08-1.902,0.313-2.216,1.107C30.912,32.609,31.439,31.066,31.266,30.224z
			 M34.591,40.473c0.146-0.426,0.287-0.018,0.276,0.277C34.72,41.177,34.578,40.768,34.591,40.473z M34.034,52.938
			c0.149-0.223,0.291-0.45,0.279-0.831C34.851,51.997,34.718,53.369,34.034,52.938z M30.99,48.507v-3.879
			c0.877,0.386,2.446,0.386,3.324,0c-0.492,1.63-2.26,1.989-2.771,3.602c0.32,1.354,0.879,2.213-0.276,3.048
			C30.635,50.893,31.163,49.348,30.99,48.507z M30.99,65.682c0.577-0.119,0.736,0.188,1.11,0.277
			c-0.082,0.563-0.752,0.542-0.834,1.107C30.665,67.111,31.139,66.084,30.99,65.682z M30.99,56.541c0.067-0.349,0.55-0.28,0.552,0
			C31.297,56.71,31.047,56.875,30.99,56.541z M30.99,74.545c0.323-0.043,0.49,0.061,0.552,0.277
			c0.063,1.447-0.002,2.766-0.276,3.877C30.625,77.861,31.169,75.843,30.99,74.545z M35.42,95.319
			c-1.78-0.064-3.956,0.265-4.986-0.553c0.038-1.548,1.271-0.192,2.493-0.555c2.267-0.318,1.74-3.432,2.215-5.539
			C36.144,90.543,35.366,92.901,35.42,95.319z M36.806,102.244v-1.105h5.818C42.766,103.517,38.3,102.38,36.806,102.244z
			 M75.311,98.089c0.033-1.512-0.176-2.782-1.385-3.046c-1.299-0.282-1.578,0.456-2.217,0.832c-0.375,0.643,0.038,2.07-1.107,1.938
			c-0.207-0.625-1.556-0.108-2.216-0.277c0.513-1.36,1.235-4.775-0.556-5.264c-1.293-0.093-1.634,0.768-2.217,1.386
			c-0.381,0.725-0.145,2.072-1.109,2.217c0.201-0.754-1.305,0.197-1.106-0.556c-0.945,0.331-0.209-1.166,0-1.384
			c0.029-0.709,0.157-1.322,0.555-1.663c-0.021-0.618,0.36-1.276,0.276-1.938c-0.11-0.888-0.133-0.934-0.831-1.387
			c-1.668,0.179-1.665,2.029-2.769,2.771c-0.329,1.427-1.338,2.17-1.94,3.324c-1.639-0.004-1.429,0.195-2.768,0.276
			c0.039-1.805,0.788-2.904,1.105-4.431c0.614-0.84,1.354-3,0.276-3.878c-1.843,0.278-2.351,1.896-2.769,3.601
			c-0.958,1.165-1.122,3.127-1.662,4.708c-1.436-0.133-3.439,0.299-4.433-0.276c0.462-2.491,1.538-4.371,1.939-6.924
			c0.723-0.755,0.864-2.092,1.384-3.05c0.244-1.025,1.014-2.306,0-3.046c-1.559,0.195-2.09,1.421-2.768,2.493
			c-0.821,0.935-1.107,2.402-1.942,3.323c-0.743,2.672-2.665,4.169-2.771,7.479h-4.152c-0.009-1.761,1.373-2.134,1.938-3.323
			c0.505-1.896,1.096-3.706,1.939-5.264c0.022-2.057,2.208-3.268,1.108-5.541c-2.283-0.25-3.038,1.025-3.601,2.494
			c-0.893,1.138-1.426,2.637-1.938,4.154c-0.632-0.383-0.104-1.926-0.279-2.771V64.019c0.223-0.962-0.412-1.065-0.275-1.938
			c-0.556-9.894-0.005-20.244,0-31.024v-0.833c14.959,0.493,31.559,0.399,46.536,0c0.277,1.665-0.406,2.365-0.557,3.602
			c0.794,2.81,0.47,6.734,1.111,9.696c0.083,1.102-0.642,1.391-0.555,2.491c-0.232,1.157,0.538,1.31,0.555,2.217
			c-0.203,15.588-0.129,31.451-1.111,46.259c-0.082,1.562,0.494,2.464,0.28,4.157C82.055,99.442,78.684,98.062,75.311,98.089z
			 M82.789,103.908c-1.438-0.135-3.437,0.298-4.433-0.279c-0.514-0.596-0.186-2.029-0.278-3.047
			c2.942,0.902,7.995-1.991,8.312,2.217C86.334,104.335,84.061,104.422,82.789,103.908z M92.482,29.948
			c0.102,0.839-0.9,0.573-1.385,0.831c-0.355,0.382-1.203,0.273-1.939,0.277c-0.145-0.225-0.286-0.451-0.274-0.833
			C89.629,29.68,91.304,30.059,92.482,29.948z M88.33,97.813c-0.201-0.85,0.477-0.815,0.276-1.662
			c1.009-0.178,0.341,1.319,1.106,1.385C89.76,98.136,88.731,97.66,88.33,97.813z M90.266,83.963
			c-0.109-0.562-0.326-0.435-0.553-0.831c0.188-1.013,0.387-2.015,0.277-3.324c0.32-0.897,0.314,0.743,0.275,1.108
			c0.275,1.852,0.692,3.557,1.109,5.262C89.826,86.027,90.59,85.584,90.266,83.963z M90.823,35.21
			c-0.009-1.207,0.88-1.516,1.107-2.493c0.63,0.295,0.105,1.741,0.275,2.493H90.823z M91.931,43.521
			c0.232-0.881,0.364,0.49,0.275,0.83C91.973,45.231,91.842,43.859,91.931,43.521z M92.206,88.673c0.378-0.356,0.378-1.309,0-1.662
			c-0.336,0.027-0.17-0.405,0,0h1.109v4.708C92.214,91.434,93.174,89.089,92.206,88.673z M93.315,96.98
			c0.051-0.313,0.278-0.151,0.276,0C93.54,97.297,93.315,97.135,93.315,96.98z M108.829,68.728
			c-0.472,5.665-1.026,11.228-1.665,16.897c-0.449,0.656-0.537,1.678-0.828,2.494c-0.473,0.543-0.321,1.711-0.833,2.215
			c-0.181,1.849-1.4,2.664-1.938,4.154c-1.852,0.643-3.107,1.879-5.543,1.941c-0.043-10.63,0.152-20.8-0.275-30.471
			c0.448-10.883-1.555-19.312-1.383-29.917c-0.031-1.726-0.461-3.05-0.279-4.985c-0.141-0.705-0.473-1.076,0.556-1.108
			c2.134-0.104,3.987,0.072,5.54,0.552c0.529,0.671,1.3,1.1,1.939,1.664c0.17,1.027,0.777,1.621,1.105,2.492
			c0.554,1.758,1.631,2.988,1.939,4.986c0.795,1.514,1.105,3.513,1.387,5.541c0.637,1.669,0.691,3.924,1.105,5.816
			C109.951,57.283,109.3,63.053,108.829,68.728z M52.873,38.812c-0.743,0.177-1.365,0.426-1.94,1.106
			c-0.426,0.508-0.94,2.131-1.385,2.496c-0.079,0.064,0.046,0.453,0,0.554c-0.062,0.132-0.415,0.717-0.552,0.831
			c-0.076,0.06,0.034,0.454,0,0.553c-0.439,1.158-0.489,2.885,0.275,3.878c1.41-0.161,2.336-0.802,2.493-2.217
			c0.702-0.868,1.145-1.993,1.385-3.323c0.501-0.885,1.679-1.092,1.386-2.771C54.237,39.292,53.694,38.913,52.873,38.812z
			 M75.586,42.689c-1.764,2.852-3.105,6.127-4.432,9.418c-0.863,1.445-1.26,3.357-2.217,4.709c-0.203,1.682-1.921,4.548,0.554,4.986
			c1.803-0.6,2.116-2.685,3.05-4.154c0.727-1.676,1.307-3.494,2.216-4.986c0.554-1.848,1.196-3.606,2.216-4.987
			c0.234-2.002,2.387-3.179,1.384-5.539C77.136,42.021,76.214,42.211,75.586,42.689z M63.676,55.985
			c-1.675,3.249-4.796,6.431-3.878,11.358c1.38-0.004,1.538-1.234,1.938-2.217c0.821-0.564,0.728-2.041,1.386-2.771
			c0.098-2.429,2.435-3.981,1.662-6.37H63.676z"/>
	</g>
</g>
</svg>
