<?xml version="1.0" encoding="utf-8"?>
<!-- Generator: Adobe Illustrator 16.0.0, SVG Export Plug-In . SVG Version: 6.00 Build 0)  -->
<!DOCTYPE svg PUBLIC "-//W3C//DTD SVG 1.1//EN" "http://www.w3.org/Graphics/SVG/1.1/DTD/svg11.dtd">
<svg version="1.1" id="Layer_1" xmlns="http://www.w3.org/2000/svg" xmlns:xlink="http://www.w3.org/1999/xlink" x="0px" y="0px"
	 width="100px" height="73.332px" viewBox="0 0 100 73.332" enable-background="new 0 0 100 73.332" xml:space="preserve">
<g id="cloud2">
	<g>
		<path fill="#132C42" d="M90.836,35.012c-2.039-0.501-4.002-1.125-6.387-0.555c1.564-3.71,3.363-7.188,3.887-11.94v-7.775
			C87.059,6.393,82.494,1.33,74.172,0.024c-3.312-0.075-6.449,0.028-9.439,0.277c-2.608,0.722-5.16,1.505-7.494,2.5
			c-2.014,1.413-3.986,2.864-5.836,4.443c-0.592,1.165-1.764,1.75-2.22,3.054c-1.259,0.592-1.271,2.43-2.499,3.056
			c-0.401-1.357-1.852-1.663-3.051-2.221c-1.785-0.434-3.542-0.684-5.555-0.555c-7.992,0.502-15.349,3.937-19.717,8.052
			c-1.099,1.767-2.354,3.384-2.775,5.831v5.833c0.386,1.186,0.333,2.815,0.833,3.886c0.028,0.712,0.16,1.324,0.555,1.666
			c-0.354,0.848,0.951,1.414,0.278,1.666c-1.673-0.006-3.417-0.088-4.721,0.279c-2.852,1.035-4.593,3.182-6.666,5
			c-0.271,1.298-1.393,1.754-1.664,3.053c-0.92,0.746-1.13,2.202-1.944,3.055c-0.868,2.463-1.728,4.938-2.222,7.774
			c-0.125,2.255,0.12,4.14,0.276,6.108c0.627,0.576,0.868,1.541,1.112,2.499c0.408,0.241,0.878,0.415,0.834,1.11
			c3.192,3.381,7.481,5.66,13.605,6.108c2.2,0.069,4.242-0.019,6.109-0.276c6.474,1.392,14.688,1.047,22.491,1.109
			c0.09-5.807,0.685-12.373,0-18.049c0.052-2.273,0.09-4.533-0.83-5.832c-1.677,0.008-3.421,0.087-4.72-0.277
			c-1.278-0.768-2.652,0.117-3.056-1.666c0.121-0.986,1.125-1.096,1.665-1.666c0.756-0.355,0.798-1.422,1.667-1.666
			c0.679-1.266,1.608-2.279,2.222-3.609c0.939-0.911,2.309-1.395,2.774-2.776c1.312-0.545,1.707-1.997,2.5-3.055
			c-0.07,0.813,0.631,0.854,0.557,1.666c0.709-0.287,1.916-1.001,2.776-0.277c1.121,1.008,1.781,2.478,2.5,3.887
			c1.44,1.242,2.26,3.108,3.607,4.443c0.613,1.967,3.527,2.526,2.777,4.998c-1.428,1.188-3.479-0.172-5.276-0.277
			c-0.567,0.634-2.485-0.08-3.054,0.556v3.055c-0.75,0.503,0.811,1.02,0.277,2.222c-0.872,5.421-0.464,12.124-0.553,18.327
			c8.223-0.014,15.594-0.879,24.156-0.555c1.396-0.271,2.765-0.567,4.162-0.834c2.91,0.133,5.478-0.078,7.779-0.555
			c1.008-0.564,1.688-1.457,2.775-1.943c1.574,0.188,2.275-0.5,3.607-0.557c1.764-1.293,3.315-2.795,4.721-4.442
			c1.078-2.347,2.078-4.771,2.502-7.775v-7.22C99.299,42.282,95.546,38.17,90.836,35.012z M24.192,38.066
			c-0.249,0.17-0.497,0.336-0.555,0C23.705,37.718,24.189,37.786,24.192,38.066z M91.945,54.172
			c-0.619,0.768-1.08,1.696-1.389,2.777c-0.687,0.793-1.269,1.693-1.664,2.777c-1.615,1.258-2.295,3.443-4.443,4.164
			c0.234-0.322,0.365-0.744,0.277-1.39c-0.732,0.748-0.925,2.039-2.223,2.224c-0.127-1.262-0.15-2.627-1.109-3.057
			c-1.959,0.331-2.396,2.471-1.945,4.443h-3.332c0.056-1.506,0.689-3.166-0.276-4.166c-1.354-0.147-1.299,1.107-2.223,1.39
			c-0.069,1.133-1.034,1.371-0.831,2.776c-1.314,0.205-1.91-0.312-3.055-0.277c0.057-3.3-2.213-4.268-3.056-6.664
			c-1.68,0.357-2.298,1.773-3.331,2.775c-0.259,0.761-0.854,1.186-1.113,1.943c-0.765,0.254-0.442,1.59-1.385,1.666
			c0.256-2.054,1.743-2.884,1.385-5.553c-0.474-1.193-2.073-1.257-3.051-1.943c-1.48,0.096-2.336,0.812-3.613,1.11
			c-0.004-1.753,0.111-3.628-0.274-4.999c2.938-0.891,6.935,0.879,8.608-1.389c-0.403-2.068,0.914-2.414,0.83-4.164
			c-0.438-1.785-1.699-2.74-2.775-3.889c-0.979-1.334-2.254-2.371-3.611-3.332c-2.072-2.832-4.83-4.978-6.943-7.775
			c-0.856-0.438-1.631-0.957-2.22-1.667c-1.417,0.124-0.961-1.627-2.499-1.388c-1.118-0.177-1.644,0.613-2.221,1.112
			c-0.625,0.542-1.103,1.332-1.665,1.943c-1.235,1.077-2.208,2.419-3.333,3.611c-0.26,0.848-1.351,0.869-1.387,1.942
			c-0.644,0.562-1.485,0.923-1.667,1.944c-1.306,1.099-2.616,2.197-3.333,3.886c-0.829,0.006-0.945,0.724-1.665,0.834
			c-0.779,1.905-2.513,2.854-2.779,5.275c0.72,3.538,6.329,2.188,10.279,2.5c1.03,3.622,0.491,9.243,0.275,13.327
			c-1.618,0.144-3.105,0.412-5,0.279c0.063-1.395,0.907-2.627,0.279-3.889c-0.216-0.062-0.547-0.009-0.556-0.277
			c-2.754,0.301-3.625,2.485-4.721,4.441h-1.943c0.442-1.871,1.249-3.379,1.943-4.998c-0.114-0.619,0.152-1.333,0-1.943
			c-0.179-0.713-0.317-0.72-0.833-1.109c-1.868,0.283-2.87,1.945-3.889,2.775c-0.091,0.076,0.078,0.459,0,0.555
			c-0.23,0.293-0.516,0.459-0.831,0.834c-0.675,0.803-1.015,1.361-1.387,2.223c-0.219,0.502-0.325,0.963-0.557,1.389
			c-1.029,0.196-1.191-0.475-2.222-0.277c0.129-2.768,2.83-4.354,2.222-6.941c-1.597-1.396-3.78,0.641-4.721,1.665
			c-0.74-0.847,0.728-1.854,0.278-3.331c-0.325-0.135-0.631-0.297-0.833-0.557c-3.44,0.633-5.081,3.062-6.385,5.832
			c-0.935-0.954,0.386-2.01,0.276-3.055c0.694-0.692,0.787-1.988,1.387-2.777c0.779-1.902,2.019-3.354,3.056-4.998
			c-0.153-1.143-1.035-1.557-2.499-1.389c-2.154,0.717-3.27,2.471-4.442,4.166c-0.614-0.453,0.39-1.631,0.553-2.223
			c0.472-0.734,0.645-1.766,1.114-2.499c0.739-1.666,2.154-2.659,2.775-4.442c-1.368-0.539-2.745,1.076-3.61,1.944
			c-0.531-0.198,0.055-1.586,0.555-1.668c-0.066-0.994,0.834-1.017,0.834-1.942c2.43-2.289,4.874-4.564,8.885-5.274
			c1.021-0.006,1.228,0.808,1.664,1.388c0.479-0.016,0.712,0.215,0.834,0.555c0.169,0.388,1.07,0.043,1.112,0.557
			c1.078-0.217,1.561-1.031,2.498-1.389c0.22-1.262,0.394-2.568,0.833-3.61c-0.076-1.125-0.882-1.524-0.554-3.054
			c0.331-1.52,1.331-2.369,1.666-3.888c-0.08-1.226-1.47,0.15-1.666-0.555c-0.112-1.684,1.181-1.964,1.943-2.777
			c0.535-1.13,1.913-1.418,2.221-2.776c-0.014-1.098-0.569-1.653-1.665-1.666c0.575-0.997,1.364-1.782,1.942-2.778
			c4.097-1.553,12.255-3.74,16.108-0.555c-0.078,3.222-0.402,6.695,2.221,7.221c0.547-0.843,1.213-1.562,1.664-2.499
			c1.752-1.119,2.848-2.894,5-3.611c1.308-1.654,2.451-3.472,4.164-4.72c0.742-0.74,1.496-1.466,2.498-1.943
			c0.693-0.79,2.259-0.708,2.224-2.221c0.077-1.282-0.911-1.497-1.666-1.945c-2.063-0.215-2.795,0.909-4.166,1.39
			c-1.576,1.106-2.95,2.419-4.442,3.609c0.026,0.335-0.4,0.17,0,0c0.062-0.216,0.008-0.548,0.276-0.556
			c0.006-0.829,0.724-0.943,0.834-1.667c0.877,0.042,0.541-1.125,1.108-1.387c1.445-0.87,2.607-2.021,4.447-2.5
			c0.449-0.657,1.627-0.591,2.217-1.111c0.877-0.329,2.097-0.313,2.777-0.833c0.357,0.381,1.205,0.274,1.944,0.277
			C67.6,6.318,68.1,6.076,68.62,5.854h4.996c2.812,0.337,4.673,1.623,6.389,3.055c1.149,1.717,1.998,3.737,2.498,6.107v5.554
			c-0.511,5.691-2.957,9.446-4.72,13.885v2.222c0,0.278,0.225,0.33,0.277,0.556c0.076,0.57,0.739,0.555,1.109,0.832
			c1.034-0.293,0.896,0.586,1.389,0.834c0.784-0.143,1.178-0.672,1.943-0.834h4.443c0.234,0.412,0.893,0.402,1.388,0.556
			c0.112,0.35,0.358,0.567,0.834,0.557c0.538,1.312,1.612,2.089,2.224,3.332c0.666,1.183,1.114,2.586,1.661,3.888
			c0.048,0.328-0.045,0.787,0.28,0.834C92.896,49.566,92.293,51.742,91.945,54.172z M66.678,8.077
			c-0.012,0.383,0.129,0.609,0.276,0.833c1.517-0.06,3.341,0.19,4.442-0.279C71.166,7.222,67.727,7.773,66.678,8.077z"/>
	</g>
</g>
</svg>
