<?xml version="1.0" encoding="utf-8"?>
<!-- Generator: Adobe Illustrator 16.0.0, SVG Export Plug-In . SVG Version: 6.00 Build 0)  -->
<!DOCTYPE svg PUBLIC "-//W3C//DTD SVG 1.1//EN" "http://www.w3.org/Graphics/SVG/1.1/DTD/svg11.dtd">
<svg version="1.1" id="Layer_1" xmlns="http://www.w3.org/2000/svg" xmlns:xlink="http://www.w3.org/1999/xlink" x="0px" y="0px"
	 width="118.904px" height="108.247px" viewBox="0 0 118.904 108.247" enable-background="new 0 0 118.904 108.247"
	 xml:space="preserve">
<g id="code2">
	<g>
		<path fill-rule="evenodd" clip-rule="evenodd" d="M76.559,19.794c-2.076-1.318-5.087-1.709-7.194-2.997
			c-0.917-0.216-1.091,0.306-1.795,0.301c-0.047-0.658-0.757-0.646-1.5-0.6c-0.353,0.145-0.682,0.319-0.898,0.6
			c-1.649,1.344-1.455,4.541-2.7,6.292c-0.471,2.428-1.308,4.486-1.798,6.894c-1.317,4.481-2.588,9.002-3.898,13.488
			c-0.732,2.162-1.611,4.181-2.095,6.595c-1.069,1.828-1.328,4.465-2.399,6.291c-0.384,2.519-1.455,4.34-1.797,6.897
			c-0.896,2.104-0.661,5.332-2.396,6.592c0.463,0.925,0.772,1.762,0,2.699c0.036,0.738,0.043,1.443-0.303,1.799
			c-0.172,0.527,0.363,1.761-0.299,1.797c-0.224,2.574-0.844,4.753-0.901,7.494c-0.654,0.941-0.562,2.636-1.198,3.598
			c-0.056,1.754,0.76,2.64,1.498,3.596c2.471,0.548,6.062-0.044,8.696-0.299c1.399-0.195,1.604-1.592,2.396-2.399
			c1.519,0.122,2.087-0.71,2.996-1.198c1.215-4.184,2.009-8.78,2.698-13.49c1.018-4.377,2.346-8.443,2.998-13.186
			c1.264-2.531,2.273-5.321,2.998-8.392c0.775-3.122,2.24-5.551,2.997-8.693c0.78-1.118,0.862-2.932,1.194-4.495
			c0.37-1.532,0.946-2.857,0.903-4.796c0.675-0.224,0.114-1.683,0.301-2.397c0.407-0.591,0.283-1.71,0.598-2.399
			c0.195-1.804,0.895-3.103,1.196-4.796C76.795,22.957,77.067,20.987,76.559,19.794z M67.569,21.592h0.598v0.6h-0.598V21.592z
			 M54.977,84.837c0.197-0.404,0.643-0.56,1.2-0.601C56.109,84.764,55.66,84.919,54.977,84.837z M56.774,82.437
			c-1.116-0.48-1.986-1.206-3.893-0.898c-0.207-1.205,0.287-1.713,0.298-2.697c1.321-0.578,2.6-1.197,4.195-1.499
			C57.297,79.162,56.92,80.681,56.774,82.437z M58.276,73.147c-1.872-0.273-2.75,0.444-4.2,0.596c0.25-1.445,0.859-2.542,0.9-4.192
			c1.459-0.542,2.409-1.591,4.196-1.8C58.779,69.455,58.634,71.405,58.276,73.147z M60.071,63.255
			c-1.717-0.32-2.273,0.522-3.595,0.6c0.022-1.476,0.587-2.41,0.898-3.598c0.771-0.527,2.167-0.43,2.696-1.199
			c0.352-0.048,0.536,0.068,0.602,0.301C60.595,60.777,59.987,61.669,60.071,63.255z M63.373,52.166
			c-1.344,0.251-2.799,0.401-3.602,1.198c-0.644-0.67,0.629-1.958,0.602-2.997c1.12-0.476,2.323-0.875,3.298-1.5
			c1.053-0.316,0.248,1.012,0,1.2C63.911,51.107,63.226,51.22,63.373,52.166z M66.968,41.074c0.078,1.081-0.556,1.445-0.601,2.399
			c-1.272,0.827-3.113,1.082-4.196,2.098c-0.758-0.588,0.675-1.503,0.3-2.698c1.068-1.029,3.079-1.119,4.198-2.1
			C67.206,40.692,67.282,41.059,66.968,41.074z M68.464,35.98c-1.2,0.995-3.006,1.388-4.192,2.398
			c-0.847-0.868,0.288-2.297,0.298-3.298c1.483-0.614,3.022-1.17,4.196-2.097C69.58,33.718,68.439,35.034,68.464,35.98z
			 M70.862,27.586c-1.824,0.974-3.403,2.188-5.392,2.999c0.431-0.966,0.572-2.226,0.896-3.296c1.413-0.89,2.977-1.621,4.495-2.401
			c0.514-0.107,0.567,0.236,0.602,0.603C70.996,25.923,70.834,26.659,70.862,27.586z M112.525,51.267
			c-0.645-0.556-1.476-0.922-2.098-1.5c-0.481-0.713-1.077-1.321-1.495-2.096c-0.602-0.602-1.527-0.877-1.8-1.801
			c-1.474-0.924-2.296-2.499-3.6-3.596c-1.232-1.166-1.972-2.818-3.597-3.596c-1.44-1.056-2.444-2.551-3.895-3.598
			c-0.056-0.776-0.823-1.294-1.2-1.796c-0.468-0.625-0.732-1.476-1.5-1.8c-0.755-1.341-1.613-2.58-3.296-2.998h-1.495
			c-0.355,0.146-0.682,0.321-0.903,0.6c-0.829,0.412-1.396,1.976-1.797,2.398c-0.514,0.538-0.866,0.969-1.196,1.5
			c-0.873,1.377-1.749,2.958-2.102,4.794c1.305,3.892,3.65,6.742,5.998,9.592c-0.084,1.082,0.552,1.446,0.597,2.398
			c1.135,0.565,2.393,1.004,2.998,2.097c0.58,1.119,1.696,1.7,2.097,2.998c-1.442,1.555-1.998,3.996-3.599,5.395
			c-0.907,2.088-2.395,3.598-3.293,5.695c-1.248,1.752-2.399,3.599-3.3,5.695c-1.472,1.62-3.226,2.967-3.296,5.996
			c0.093,0.405,0.429,0.572,0.298,1.197c1.073,1.825,3.527,2.271,5.099,3.596c2.059,0.84,2.983,2.811,5.696,2.998
			c4.666-1.625,6.499-6.087,9.587-9.292c1.69-4.201,4.046-7.744,5.995-11.688c1.472-1.525,2.592-3.402,3.598-5.396
			c1.064-1.932,2.7-3.294,3-5.994C113.405,52.584,113.597,51.297,112.525,51.267z M89.147,38.978
			c-0.816-0.381-1.192-1.204-1.797-1.8c0.176-1.121,1.048-1.549,1.497-2.401c0.866,0.139,0.71,1.291,1.496,1.502
			C89.988,37.222,89.334,37.865,89.147,38.978z M96.642,43.473c1.92,1.577,3.106,3.887,5.095,5.395
			c-0.585,0.812-2.167,0.631-2.698,1.5c-0.911-1.002-2.504-2.733-1.198-4.196c-0.203-0.656-0.998,0.566-1.198,0.9
			c-0.598-0.005-0.382-0.82-1.2-0.601C95.321,44.95,96.152,44.383,96.642,43.473z M92.445,78.243
			c-0.268,0.13-0.536,0.264-0.598,0.598c-1.629-0.368-2.391-1.606-3.9-2.098c-0.271-1.47,1.258-1.144,1.2-2.399
			c0.693,0.605,1.603,0.997,1.798,2.099C91.635,76.853,92.617,76.968,92.445,78.243z M95.738,74.344
			c-1.258-0.136-1.377-1.415-2.396-1.798c-0.447-0.848-1.317-1.273-1.494-2.398c0.864-0.934,1.422-2.173,2.095-3.296
			c0.848-0.046,0.751,0.847,1.201,1.199c0.527,0.272,0.928,0.67,1.198,1.198c0.57,0.129,0.753,0.646,1.498,0.6
			C97.482,71.692,96.375,72.781,95.738,74.344z M99.937,66.553c-1.282-1.015-2.501-2.093-2.994-3.897
			c0.238-1.955,1.406-2.988,2.096-4.495c0.718-0.226,0.824,0.206,1.198,0.6c0.246,0.255,0.356,0.647,0.602,0.898
			c0.269,0.277,0.777,1.444,1.797,1.498C101.85,63.066,100.521,64.439,99.937,66.553z M105.033,58.16
			c-1.167-0.134-1.227-1.372-1.797-2.098c-0.477-0.827-1.021-1.577-1.802-2.1c0.153-1.445,1.481-1.715,1.5-3.296
			c1.588,1.011,2.665,2.529,3.896,3.896C106.552,56.079,105.495,56.823,105.033,58.16z M39.991,41.074
			c1.161-1.735,2.888-2.906,2.399-6.296c-0.719-1.276-2.319-1.679-3.596-2.395c-1.774-0.326-2.532-1.667-3.898-2.397
			c-2.134-0.067-3.484-0.914-5.994-0.6c-2.104,0.694-2.602,2.997-3.297,5.096c-3.967,2.727-7.588,5.8-11.689,8.392
			c-1.617,1.783-4.032,2.761-5.395,4.798c-1.867,1.53-3.985,2.811-4.494,5.693c0.845,3.543,3.605,5.186,4.793,8.393
			c1.209,0.992,1.556,2.84,2.698,3.895c0.671,1.626,1.724,2.875,2.696,4.197c2.198,4.398,4.397,8.791,6.593,13.189
			c0.956,1.344,1.336,3.264,2.701,4.195c1.033,0.363,1.986,0.812,3.593,0.6c1.906-0.492,2.492-2.307,3.599-3.597
			c1.176-1.321,2.344-2.652,3.298-4.196c1.276-1.224,2.165-2.828,3.297-4.196c0.835-1.662,3.058-1.938,2.996-4.497
			c-0.008-2.486-1.346-3.648-2.696-4.794c-0.226-0.974-1.769-1.805-1.798-2.397c-0.053-0.938-1.793-1.098-1.5-2.1
			c-3.042-2.151-4.668-5.722-7.195-8.39C31.576,49.642,35.522,45.097,39.991,41.074z M15.413,58.76
			c-0.662,0.164-0.427-0.573-0.898-0.6c0.197-0.403,0.64-0.56,1.2-0.603C15.483,57.827,15.391,58.236,15.413,58.76z M16.616,55.762
			c-1.164-1.537-1.827-3.571-2.7-5.395c-0.031-1.331,1.555-1.042,1.799-2.098c0.95-0.251,1.524-0.875,2.098-1.498
			c0.483-0.086,0.515,0.284,0.9,0.3c0.47,1.528,1.878,2.115,2.398,3.596c-0.481,0.421-0.77,1.033-0.902,1.799
			C18.35,52.901,17.347,54.197,16.616,55.762z M19.312,65.053c-0.594-0.206-0.803-0.797-0.901-1.497
			c0.852-0.05,1.248-0.551,2.098-0.602C20.231,63.774,19.589,64.233,19.312,65.053z M20.509,59.358
			c-0.078-0.878,0.679-0.921,0.603-1.801c1.028,0.168,1.522,0.877,2.093,1.5c-0.2,1.098-1.132,1.463-1.495,2.399
			C21.218,60.847,21.079,59.888,20.509,59.358z M30.4,68.649c0.77,0.729,1.416,1.582,2.1,2.398c-0.659,1.637-1.938,2.658-3,3.896
			c-0.421,0.777-1.014,1.383-1.496,2.096c-0.93,0.172-0.788,1.413-1.797,1.5c0.01-2.188,1.463-2.928,1.797-4.797
			c0.697-1.396,1.397-2.795,2.097-4.192C30.017,69.066,30.387,69.034,30.4,68.649z M28.004,66.253
			c-1.129,0.768-1.838,1.959-2.398,3.298c-1.098,0.799-0.818,2.978-2.401,3.296c0.05-0.748-0.467-0.928-0.599-1.5
			c0.357-2.738,2.037-4.156,2.702-6.594c0.103-0.395,0.525-0.47,0.595-0.898C26.692,64.564,27.713,65.044,28.004,66.253z
			 M25.308,46.47c-0.609,0.693-0.999,1.603-2.104,1.799c-0.939-0.959-1.559-2.234-2.695-2.998c0.972-1.626,2.981-2.212,4.195-3.597
			c1.36,0.34,1.457,1.941,2.397,2.696C26.906,45.473,25.999,45.865,25.308,46.47z M30.101,41.975
			c-1.255,0.254-1.188-0.813-1.799-1.202c-0.134-0.693-1.321-0.8-0.598-1.496C29.081,39.487,30.639,40.812,30.101,41.975z"/>
	</g>
</g>
</svg>
