<?xml version="1.0" encoding="utf-8"?>
<!-- Generator: Adobe Illustrator 16.0.0, SVG Export Plug-In . SVG Version: 6.00 Build 0)  -->
<!DOCTYPE svg PUBLIC "-//W3C//DTD SVG 1.1//EN" "http://www.w3.org/Graphics/SVG/1.1/DTD/svg11.dtd">
<svg version="1.1" id="Layer_1" xmlns="http://www.w3.org/2000/svg" xmlns:xlink="http://www.w3.org/1999/xlink" x="0px" y="0px"
	 width="110.126px" height="113.924px" viewBox="0 0 110.126 113.924" enable-background="new 0 0 110.126 113.924"
	 xml:space="preserve">
<g id="share1">
	<g>
		<path fill-rule="evenodd" clip-rule="evenodd" d="M92.946,78.294c-1.721-1.339-3.958-3.711-6.047-4.232
			c-0.387-0.097-0.642-0.236-0.907-0.304c-0.387-0.097-0.638-0.234-0.905-0.301c-1.501-0.375-2.322-0.152-3.931-0.303
			c-0.672-0.064-1.423-0.327-2.114-0.303c-0.89,0.03-1.724,0.572-2.725,0.303c-1.256,0.756-2.811,1.219-3.926,2.115
			c-0.68,0.33-1.517,0.5-2.115,0.907c-0.971,0.141-1.068,1.149-2.118,1.21c-2.188-1.847-4.857-3.205-6.953-5.138
			c-1.414-0.604-2.622-1.409-3.629-2.419c-1.412-0.602-2.622-1.409-3.626-2.419c-2.738-1.293-4.803-3.261-7.558-4.536
			c-0.917-1.099-2.521-1.508-3.627-2.418c-1.146-0.867-2.851-1.18-3.627-2.418c0.302-0.808,0.623-1.594,0.605-2.721
			c0.621-1.394,2.466-1.562,3.323-2.719c1.532-0.587,2.427-1.808,3.93-2.419c0.881-1.136,2.487-1.546,3.326-2.722
			c1.506-0.61,2.4-1.83,3.929-2.417c2.176-1.956,4.758-3.507,7.256-5.139c1.134-0.982,2.494-1.739,3.627-2.721
			c1.736-0.384,2.909-1.324,3.629-2.72c0.932,1.483,2.557,2.281,3.93,3.325c2.092,0.527,4.201,1.041,6.65,1.209
			c2.551-0.342,4.781-0.589,6.649-1.512c1.874-0.923,3.223-2.314,4.535-3.628c1.313-1.311,2.712-2.713,3.627-4.534
			c0.973-1.933,1.305-4.101,1.512-6.649c-0.129-1.483-0.405-2.821-0.603-4.233C90.799,11.367,83.969,5.417,72.086,6.952
			c-0.257,0.448-0.76,0.65-1.509,0.604c-3.407,3.145-5.462,7.642-6.046,13.604c-2.197,1.53-4.557,2.902-6.654,4.536
			c-2.516,1.31-4.505,3.149-7.251,4.231c-0.846,1.07-2.441,1.39-3.326,2.417c-1.479,0.435-2.251,1.578-3.627,2.117
			c-0.967,0.948-2.359,1.471-3.326,2.418c-1.374,0.538-2.146,1.681-3.628,2.116c-1.241-1.274-3.028-2.01-4.536-3.023
			c-3.198-0.628-6.543-1.109-10.577-0.907c-0.057,0.449-0.73,0.279-1.21,0.305c-0.257,0.447-0.758,0.647-1.51,0.603
			c-0.976,0.738-1.883,1.545-3.025,2.116c-3.388,3.562-5.975,7.927-6.95,13.907c-0.073,3.493,0.22,6.63,0.602,9.671
			c2.152,6.613,7.022,10.512,16.022,10.278c2.667-0.356,4.873-1.173,6.648-2.419c-0.271,1.885,0.555,2.67,1.514,3.326
			c1.608,0.664,2.259-0.269,3.628-0.603c1.073,0.739,1.791,1.833,3.021,2.418c0.896,0.915,1.747,1.88,3.023,2.418
			c0.558,1.257,2.124,1.504,2.72,2.718c1.453,0.363,1.831,1.798,3.324,2.117c0.739,1.076,1.997,1.633,3.024,2.418
			c1.037,0.779,1.984,1.646,3.324,2.117c0.833,0.982,2.178,1.451,3.324,2.116c1.168,0.747,2.702,1.128,3.934,1.813v7.557
			c0.662,1.05,1.019,2.404,1.812,3.325c0.707,1.108,1.678,1.951,2.719,2.72c1.796,1.734,4.767,2.292,7.862,2.723h5.44
			c8.382-1.593,14.194-5.758,15.719-14.207v-6.047C96.101,82.996,94.432,80.736,92.946,78.294z M80.854,32.344
			c0.183-0.724,0.434-1.378,0.302-2.417c1.066,0.042,0.862,1.355,1.209,2.115C81.637,31.918,81.708,32.594,80.854,32.344z
			 M78.134,15.416c0.595-0.631,0.229-2.007,0-2.72c5.521,0.12,7.795,3.491,10.882,6.047c0.3,1.011,0.96,1.66,1.21,2.72
			c0.213,3.842-1.846,5.411-3.327,7.555c-1.379,0.638-2.027,2.003-3.629,2.42c-0.734-1.782-1.283-3.752-2.114-5.442
			c-0.921-0.013-1.177,0.64-1.813,0.909c0.03,0.364-0.439,0.185,0,0c0.488-1.511,0.326-3.333-0.605-4.232
			c-0.922-0.219-0.888,0.521-1.812,0.302c0.594-2.127,1.501-3.94,2.719-5.442C79.514,16.453,78.884,15.873,78.134,15.416z
			 M77.528,30.833c0.592,0.138,0.543,2.121-0.604,1.511C77.053,31.769,77.576,31.585,77.528,30.833z M39.743,43.528
			c0.955,0.051,1.009-0.802,2.114-0.603c0.633,0.174,0.862,0.75,1.815,0.603c1.733-0.482,2.631-1.801,2.72-3.93
			c3.107-1.729,5.651-4.021,9.07-5.44c1.087-1.333,3.198-1.636,4.231-3.022c1.605-0.713,3.082-1.551,4.23-2.721h0.908
			c0.085,1.424,1.234,1.786,1.51,3.022h-2.418c-2.371,1.053-4.242,2.607-6.349,3.931c-1.815,1.506-4.063,2.584-5.744,4.229
			c-1.192,0.522-2.169,1.254-3.021,2.118c-1.36,0.254-1.664,1.559-3.022,1.812c-0.589,1.123-2.058,1.37-2.723,2.419
			c-1.221,0.39-1.665,1.56-3.021,1.815C40.281,46.013,39.605,45.178,39.743,43.528z M18.583,65.898
			c0.157-0.445,0.447-0.762,0.602-1.208c0.706,0.205,0.811,1.003,1.513,1.208C20.338,66.713,19.122,65.897,18.583,65.898z
			 M23.116,66.201c0.414-0.795,1.274-1.146,1.51-2.115c0.503,0.305,0.329,1.283,0.608,1.812
			C24.842,66.315,23.918,66.199,23.116,66.201z M34.3,51.388c0.053,1.063-1.02,0.995-1.21,1.814
			c-0.094,1.206-0.015,2.234,0.606,2.721c-0.934,3.499-2.364,6.504-4.836,8.464c-1.343-2.387-0.953-6.504-3.025-8.16
			c-1.188,0.524-2.711,0.715-3.322,1.812c-0.497-0.207-0.104-0.566,0-0.906c0.091-0.306,0.157-0.743,0.301-1.21
			c0.051-0.161,0.579-0.79,0.604-0.906c0.085-0.385-0.065-0.821,0-1.209c-0.335-0.977-0.961-1.659-2.419-1.512
			c0.103-1.107,1.199-1.22,0.907-2.719c-0.283-1.183-1.525-0.259-2.417-0.304c0.814-1.703,3.018-2.02,3.627-3.929
			c0.02-1.835-1.284-2.346-2.721-2.72c0.66-0.75,1.759-1.065,2.419-1.814c3.846-0.221,6.974,0.279,9.369,1.512
			c0.274,0.534,0.677,0.935,1.211,1.208c0.134,0.773,0.424,1.391,0.906,1.815V51.388z M43.672,71.944
			c-1.822-0.681-0.155-2.853-0.303-4.533c0.634,0.372,1.177,0.835,1.813,1.209C44.89,69.938,44.135,70.796,43.672,71.944z
			 M46.693,74.062c0.433-0.979,0.763-2.063,0.909-3.325c1.123,0.792,0.588,3.24,1.208,4.533
			C47.818,75.154,47.476,74.386,46.693,74.062z M64.833,83.432c-0.617,0.646-1.199-0.084-1.812-0.303
			c-0.471-0.437-1.414-0.402-1.815-0.906c-1.263,0.068-1.429-0.492-2.418,0c-1.183-1.234-3.024-1.816-4.231-3.022
			c-1.845-0.574-2.658-2.179-4.536-2.722c0.571-1.639-0.119-3.116-0.302-4.835c0.258-0.058,0.284,0.116,0.302,0.301
			c2.83,1.705,5.532,3.538,8.163,5.442c1.288,0.926,2.738,1.693,3.931,2.719C63.191,81.018,65.847,81.364,64.833,83.432z
			 M69.671,96.43c-1.056-0.154-0.445-1.973-0.608-3.021C70.249,94.135,70.37,95.154,69.671,96.43z M90.226,94.013
			c-0.208,0.353-0.308,0.362-0.607,0.604c-0.099,0.083,0.081,0.498,0,0.605c-0.538,0.712-1.565,1.508-2.417,2.114
			c-0.958,0.686-2.1,1.432-3.326,1.513c-0.644-1.071-0.999-2.425-1.812-3.324c0.408-0.892,0.377-1.872-0.302-2.419
			c-3.236-0.039-4.769,4.47-3.024,6.65c1.152,0.52,1.891-0.896,2.117-0.301c0.04,1.25-2.105,0.312-3.022,0.604
			c-1.2-0.112-2.897,0.274-3.628-0.304c-0.104-2.822,1.288-4.153,1.812-6.348c0.575-0.84,0.826-1.996,1.512-2.721
			c0.564-0.847,1.348-1.477,1.514-2.722c0.021-1.03-1.122-0.895-2.117-0.905c0.466-1.952,2.049-2.791,2.719-4.535
			c-0.336-1.402-2.445-1.869-3.928-1.209c0.028,0.365-0.441,0.185,0,0c1.082-1.158,2.447-1.916,4.229-2.116
			c2.169-0.241,5.796,0.23,6.35,0.905c0.073,0.092,0.495-0.053,0.604,0c0.361,0.178,0.66,0.805,1.209,0.607
			c1.297,1.324,2.362,2.875,3.326,4.532C91.685,89.025,91.279,92.203,90.226,94.013z"/>
	</g>
</g>
</svg>
