<?xml version="1.0" encoding="utf-8"?>
<!-- Generator: Adobe Illustrator 16.0.0, SVG Export Plug-In . SVG Version: 6.00 Build 0)  -->
<!DOCTYPE svg PUBLIC "-//W3C//DTD SVG 1.1//EN" "http://www.w3.org/Graphics/SVG/1.1/DTD/svg11.dtd">
<svg version="1.1" id="Layer_1" xmlns="http://www.w3.org/2000/svg" xmlns:xlink="http://www.w3.org/1999/xlink" x="0px" y="0px"
	 width="98.542px" height="100px" viewBox="0 0 98.542 100" enable-background="new 0 0 98.542 100" xml:space="preserve">
<g id="create-new">
	<g>
		<path fill-rule="evenodd" clip-rule="evenodd" d="M90.789-1.643C90.265-1.838,88.931-1.22,88.988-2
			c-3.193,0.281-5.157,1.792-7.907,2.518c-4.013,3.778-7.589,7.986-12.583,10.781c-5.468,6.875-12.539,12.148-18.692,18.337
			c-2.931,3.183-5.531,6.694-8.629,9.704c-1.435,1.684-2.665,3.566-4.313,5.038c-0.595,0.962-1.526,1.59-2.158,2.515
			c-0.338,1.098-1.748,1.127-1.797,2.513c0.108,1.092,1.11,1.287,0.716,2.879c0.424,0.059,0.395,0.566,0.361,1.077
			c1.529,1.229,2.235,3.278,3.957,4.313c0.973,1.78,3.166,2.348,3.594,4.674c-2.854,0.861-4.933,2.498-7.551,3.596
			c-0.46-1.101-2.06-1.057-2.515-2.156c0.9-3.655,2.066-7.041,2.153-11.504c-0.332-0.264-0.541-0.654-0.716-1.078
			c-3.235-0.119-2.904,3.329-4.314,5.031c-0.714,2.281-1.959,4.031-2.875,6.111c-1.44,3.609-5.749,8.409-2.877,12.942
			c1.05-0.094,1.103,0.812,2.158,0.719c2.927,0.052,3.217-2.535,5.39-3.236c4.564-1.547,8.255-3.968,13.302-5.03
			c0.903-0.416,1.134-1.504,1.8-2.161c0.311-1.005,1.871-0.761,2.515-1.438c0.562-0.876,0.745-2.132,1.438-2.876
			c3.703-2.529,7.194-5.266,10.066-8.627c2.894-1.74,4.865-4.504,7.188-6.828c2.252-2.25,4.491-4.693,6.835-6.832
			c0.63-0.578,1.518-0.863,2.153-1.44c1.538-1.383,2.998-3.648,4.674-5.39c2.228-2.32,4.844-4.269,6.829-6.832v-3.236
			c1.831-1.526,3.508-3.205,5.033-5.031c1.675-1.682,3.168-3.546,4.318-5.755v-5.75C95.271,2.504,93.587-0.127,90.789-1.643z
			 M76.768,26.399c-1.386-0.051-1.661-1.213-3.233-1.078c-0.478,0.128-0.566,0.635-1.081,0.719
			c-0.204,1.883,1.884,1.472,2.155,2.875c-1.606,0.964-2.389-1.562-4.673-1.075c-1.051,0.021-1.331,0.818-1.797,1.436
			c-0.281,2.439,2.642,1.671,2.874,3.596c-1.939,1.863-3.282-1.599-5.751-1.44c-1.093-0.015-1.398,0.759-2.156,1.078
			c-0.447,2.965,0.962,4.074,2.516,5.033c-0.236,1.322-1.321,1.791-2.154,2.518c-2.099-0.66-2.984-2.53-5.394-2.875
			c-1.467,0.209-2.304,1.051-2.517,2.513c0.54,2.34,3.454,2.301,3.954,4.679c-0.835,0.242-0.963,1.191-1.797,1.437
			c-1.868-0.375-3.162-2.958-5.031-2.16c-0.703,1.562,1.294,3.162,2.515,3.957c-0.396,1.282-1.234,2.124-2.515,2.516
			c-1.456-0.824-1.847-2.711-4.318-2.516c-1.224-0.027-1.337,1.056-1.797,1.794c-0.185,2.586,2.043,2.754,2.519,4.678
			c-0.925,0.871-1.699,1.896-2.519,2.875c-2.249-1.794-4.02-3.93-6.112-6.113c-0.616-0.645-1.803-1.004-1.795-2.155
			c1.885-0.754,2.722-2.552,4.673-3.238c0.372-0.946,1.426-1.209,1.797-2.158c0.942-0.256,1.103-1.294,2.157-1.436
			c1.574-2.746,4.271-4.355,6.112-6.831c1.282-0.871,2.232-2.083,3.234-3.236c1.297-0.742,1.941-2.136,3.236-2.876
			c4.292-4.099,9.015-7.763,12.583-12.581c0.288-0.308,0.983-0.21,1.081-0.72c0.578-0.101,0.616,0.342,1.074,0.359
			c0.892,2.466,2.865,3.848,4.319,5.752C79.51,24.591,77.605,24.964,76.768,26.399z M86.475,12.739
			c-1.45,0.708-1.739,2.576-3.237,3.235c-2.131-0.861-3.046-2.944-3.952-5.03c0.28-1.217,1.99-1.546,2.516-2.878
			c0.908-0.89,2.182-1.412,2.875-2.517c1.208,0.007,1.901-0.495,2.515-1.078c1.729,0.433,2.228,2.087,2.16,4.314
			C88.946,10.658,87.333,11.32,86.475,12.739z M8.46,9.503c2.392,0.125,4.476,0.559,7.191,0.359c1.268,0.409,2.96,0.396,4.313,0.719
			c12.448-0.091,20.142,0.276,31.638,0.717c2.721,1.045,6.753,0.976,8.268-1.074V7.348c0.414-1.492-0.759-1.4-0.719-2.517
			c-0.992-0.567-2.113-1.003-3.234-1.438c-1.951-0.392-2.262,0.853-3.596,1.077c-0.643-0.916-1.646-1.469-3.235-1.438
			c-12.914-0.312-26.584,0.472-38.466,0C8.274,3.804,4.054,2.699,4.509,6.267C4.256,8.917,6.968,8.603,8.46,9.503z M90.789,51.207
			c-0.345-1.574-0.377-3.46-0.722-5.035c0.093-2.125,0.056-4.127-1.794-4.313c-1.788,0.37-2.362,1.953-2.161,4.313
			c-0.809,0.271-0.14,2.017-0.359,2.877c-0.807,0.266-0.141,2.015-0.357,2.876c-0.447,3.985-0.388,8.482-0.359,12.942
			c-0.548,3.886-0.322,8.547-1.079,12.222v6.473c-0.997,1.278,0.298,4.851-0.72,6.11c-4.701-0.268-8.504,0.362-12.225,1.08
			c-1.247-0.789-1.176-2.898-3.235-2.876c-4.509-0.762-10.366-0.175-15.456-0.362c-4.935-1.119-12.535-0.866-17.977-0.356
			c-5.586-3.522-15.615-4.11-24.445-3.236c0.063-9.29-1.061-17.394-0.717-26.962c-0.408-1.27-0.398-2.958-0.723-4.316
			c0.117-6.586-0.682-13.487-0.717-20.489c-0.037-7.118,0.539-14.371-0.722-20.854c-0.478-0.355-1.082-0.589-1.437-1.074
			c-1.031-0.502-1.826,0.977-2.156,0C2.827,8.544,3.394,5.704,0.911,5.908C0.46,6.056,0.177,6.373,0.194,6.986
			c-0.593,0.006-0.204,0.999-0.72,1.079C-1.313,30.9-2.675,55.029-1.606,78.528v7.188c0.499,0.822,0.736,1.905,1.081,2.877
			c0.991,0.445,1.04,1.837,1.796,2.519c0.167,1.124-0.903,1.011-1.438,1.437c-0.174,0.818-0.714,1.834,0,2.516
			c1.519,1.6,4.708,1.529,7.188,2.158c2.931,0.184,5.702,0.529,8.988,0.359c18.104,0.832,37.746,0.123,56.443,0.357
			c3.667-0.883,7.847-1.259,12.583-1.077c1.371-1.264,4.335-0.937,5.391-2.517c0.719-2.276,0.206-5.788,0.362-8.629
			C91.58,74.805,91.084,62.213,90.789,51.207z"/>
	</g>
</g>
</svg>
