<?xml version="1.0" encoding="utf-8"?>
<!-- Generator: Adobe Illustrator 16.0.0, SVG Export Plug-In . SVG Version: 6.00 Build 0)  -->
<!DOCTYPE svg PUBLIC "-//W3C//DTD SVG 1.1//EN" "http://www.w3.org/Graphics/SVG/1.1/DTD/svg11.dtd">
<svg version="1.1" id="Layer_1" xmlns="http://www.w3.org/2000/svg" xmlns:xlink="http://www.w3.org/1999/xlink" x="0px" y="0px"
	 width="86px" height="95.334px" viewBox="0 0 86 95.334" enable-background="new 0 0 86 95.334" xml:space="preserve">
<g id="checklist2">
	<g>
		<path fill="#132C42" d="M81.957,73.663c-0.393-5.977-0.283-12.463-0.285-18.828c0.131-12.877-0.145-25.344-0.857-37.375
			c-0.764-0.949-1.02-2.402-1.713-3.424c-0.643-1.068-0.996-2.428-2.281-2.852c-2.02-0.121-3.696,0.104-5.418,0.285
			c-1.104-0.15-1.395,0.51-2.571,0.285c-0.533,0.416-1.89,0.01-2.281,0.57c-3.393,0.133-6.901,1.318-9.981,0.857
			c-0.144-3.463,0.896-7.166-0.285-9.986c-1.693-1.729-5.803-1.736-7.988-2.283c-2.934-0.734-6.387,0.555-9.131,0
			c-0.365,0.016-0.395,0.365-0.857,0.285c-1.662,0.049-2.779,0.645-3.707,1.428c-0.465,1.912-0.67,4.086-0.572,6.561
			c-0.625,0.518-0.049,2.234-0.568,2.852c-0.148,1.092-0.336,2.141-1.141,2.57c-7.062-1.242-15.385-1.453-22.539-1.143
			c-1.63,1.419-3.68,2.413-4.856,4.28c-0.809,4.896-0.586,10.822-0.852,16.264C3.469,50.524,4.057,68.229,3.217,84.507
			c0.242,4.318,0.766,8.359,3.705,9.984c8.314,0.391,18.23-0.012,26.818-0.287c8.695-0.623,17.211-1.428,26.248-1.711
			c3.17,0.219,7.469,0.629,10.557,0c1.928,0.027,3.633-0.17,5.135-0.568c2.014,0.107,3.828,0.021,4.848-0.859
			c1.013-2.127,1.15-5.125,1.146-8.271C82.232,80.216,81.84,76.685,81.957,73.663z M28.893,19.175
			c2.422-0.146,4.596-0.541,6.846-0.857c2.168-0.875,2.582-3.506,3.139-5.992c0.215-2.023-0.354-3.258-0.287-5.135
			c1.289-1.184,4.408-0.537,6.279-1.141c2.653,0.1,5.299,0.217,7.414,0.854c0.53,2.715-0.396,5.934-0.283,9.131
			c0.644,1.547,3.487,0.887,5.136,1.426c2.12,0.164,4.907-0.342,6.562,0.285c-0.191,3.193-0.123,5.039,0,8.275
			c-2.438,0.494-6.685,0.436-9.132,0c-1.963,0.506-4.735,0.207-7.131,0.285c-3.617,0.568-8.203,0.164-12.266,0.285
			c-1.26,0.074-2.211,0.455-3.711,0.285c-1.246-0.219-2.643,0.352-3.139,0C29.178,24.976,28.818,21.858,28.893,19.175z
			 M76.25,23.165c-0.619,20.482-0.883,42.553-0.285,63.338c-10.221,0.717-20.184,1.686-31.096,1.711
			c-0.992-0.229-1.098,0.426-1.998,0.285c-5.852,0.039-12.104-0.049-18.26,0c-1.838,0.018-3.732,0.105-5.42,0
			c-1.094,0.053-0.104-0.232-0.287-0.855c0.412-0.063,0.1-0.854,0.572-0.854c-0.006-0.896,0.941-1.592,0.285-2.281
			c-2.299,0.365-2.447,2.875-3.993,3.992h-3.425c0.688-2.164,1.467-4.237,2.283-6.274c0.266-1.16,1.068-1.783,1.142-3.138
			c0.442-0.657,1.464-1.754,0.856-2.569c-1.508-0.269-1.606,0.871-2.283,1.428c-0.463,0.678-1.025,1.256-1.428,1.994
			c-0.908,1.375-1.885,2.682-2.568,4.283c-1.096-1.584,0.852-2.566,0.57-4.283c0.66-1.146,0.77-2.844,1.428-3.992
			c0.498-3.117,1.678-5.549,2.283-8.561c-0.703-1.351-2.221,0.354-2.566,0c0.258-2.781,1.307-4.777,1.708-7.416
			c0.554-0.97,0.591-2.455,1.144-3.425c0.145-1.375,1.285-1.754,1.141-3.424c-0.148-0.709-0.695-1.017-1.141-1.426
			c-3.049-0.48-3.6,1.534-4.279,3.426c-0.655-0.584-0.105-2.371-0.287-3.426c1.75-4.621,2.945-9.799,5.423-13.693
			c-0.087-0.582-0.772-0.559-0.856-1.141c-2.506-0.225-3.094,1.471-3.709,3.137c-0.746-0.49,0.402-1.477,0-2.566
			c-0.17-1.215,0.205-1.889,0.285-2.854c-0.127-2.219,0.508-3.678,0.285-5.994c0.828-0.215-0.262-2.35,0.57-2.564
			c-0.055-1.102-0.012-2.104,0.285-2.855c0.025-1.969,0.674-3.32,0.857-5.133c1.719,0.008,3.512,0.088,4.85-0.287
			c3.785,2.299,2.188,9.986,5.135,13.125c14.756,0.891,30.947,0.746,44.791-0.857c2.213-3.604-0.814-7.934-0.857-11.98
			c2.595-0.639,6.253-2.123,8.562-0.572C76.676,18.712,76.766,21.579,76.25,23.165z M45.438,17.46
			c1.625-0.754,2.986-1.77,3.424-3.707c0.224-1.555-0.438-2.225-0.854-3.139c-1.873-1.076-5.23-0.58-6.277,0.854
			c-0.131,1.01-0.635,1.646-0.568,2.852C41.967,15.989,43.6,16.827,45.438,17.46z M39.732,24.593c3.631-0.17,6.18-1.428,10.27-1.139
			c1.51,0.297,2.895,0.719,4.564,0.855c1.252,0.234,3.422,0.361,3.426-1.428c0.488-0.119-0.061-0.369,0-0.857
			c-0.568-0.004-0.363-0.777-1.143-0.568c-0.361-0.686-1.519-0.576-2-1.143c-5.48-0.252-9.658,0.799-14.831,0.855
			c-1.266-0.068-2.08-0.584-3.426-0.57c-0.506,0.65,0.342,1.771,0.855,2.283C38.01,23.655,38.557,24.437,39.732,24.593z
			 M63.414,46.274c-3.691,2.111-6.881,4.723-9.988,7.42c-1.426,1.426-2.562,3.141-3.992,4.563c-1.393,1.556-2.856,3.039-3.996,4.851
			c-0.961,0.463-1.215,1.635-2.565,1.711c-0.586,0.842-1.268,1.586-2.283,1.998c-0.777-0.65-1.59-1.267-2.283-1.998
			c-0.291-1.229-1.012-2.027-1.711-2.854c-1.117-1.924-1.883-4.205-4.277-4.85c-1.891,0.487-3.834,0.924-4.85,2.282
			c-1.68,0.793-3.291,1.656-4.568,2.854c1.154,3.031,3.066,5.301,4.852,7.703c0.754,1.338,1.887,2.299,2.566,3.707
			c0.4,0.075,0.327,0.627,0.572,0.856c0.266,0.306,1.053,0.09,0.854,0.855c0.762,0.283,0.943,1.152,1.43,1.711
			c2.299,1.506,3.615,3.992,6.561,4.852c2.5-2.158,4.523-4.799,6.562-7.418c1.344-1.035,2.158-2.596,3.422-3.711
			c0.402-0.738,0.967-1.315,1.426-1.994c0.438-0.934,1.515-1.116,1.715-1.998c2.261-2.397,4.254-5.065,6.562-7.418
			c0.832-1.547,2.228-2.528,2.854-4.276c1.252-1.125,1.621-3.136,2.565-4.565c0.052-1.974,0.332-2.743,0-4.564
			C64.506,46.229,64.074,46.368,63.414,46.274z"/>
	</g>
</g>
</svg>
