<?xml version="1.0" encoding="utf-8"?>
<!-- Generator: Adobe Illustrator 16.0.0, SVG Export Plug-In . SVG Version: 6.00 Build 0)  -->
<!DOCTYPE svg PUBLIC "-//W3C//DTD SVG 1.1//EN" "http://www.w3.org/Graphics/SVG/1.1/DTD/svg11.dtd">
<svg version="1.1" id="Layer_1" xmlns="http://www.w3.org/2000/svg" xmlns:xlink="http://www.w3.org/1999/xlink" x="0px" y="0px"
	 width="112.055px" height="119.206px" viewBox="0 0 112.055 119.206" enable-background="new 0 0 112.055 119.206"
	 xml:space="preserve">
<g id="diamond">
	<g>
		<path fill-rule="evenodd" clip-rule="evenodd" d="M54.98,23.617c3.839-0.109,1.958-6.976,2-9.986
			c-0.08-1.729,0.305-3.921-0.571-4.85h-0.856c-0.068,0.407-0.472,0.481-0.572,0.854c-0.062,0.223-0.004,0.564-0.283,0.57
			c-0.051,2.081-0.592,4.406-0.854,6.564c-0.279,2.271-0.768,4.562,0.284,6.561C54.463,23.375,54.938,23.282,54.98,23.617z
			 M37.293,28.75c0.961-0.277,1.424-1.049,1.999-1.711c0.116-3.73-0.796-6.431-1.712-9.129c-0.696-0.158-0.608-1.105-1.712-0.857
			c-0.592-0.409-0.942-0.967-1.426-1.426c-0.053-0.047-0.226,0.038-0.287,0c-0.422,0.338-0.441,1.077-0.854,1.426v2.854
			C34.871,22.615,33.035,28.73,37.293,28.75z M77.806,31.89c1.896,0.46,2.389-0.637,3.139-1.427c0.731-0.77,1.303-2.119,1.711-3.139
			c0.646-0.786,1.23-1.783,1.43-2.567c0.155-0.628,0.574-1.276,0.853-1.997c0.24-0.617,0.793-1.245,0.572-1.996
			c-0.062-0.225-0.24-0.332-0.572-0.287c-1.765,1.373-3.081,3.197-4.85,4.564c-1.121,1.871-3.723,3.308-3.136,5.992
			C77.359,31.194,77.646,31.477,77.806,31.89z M17.039,35.028c0.067-0.979,1.849-0.242,1.71-1.426
			c-0.327-2.906-2.616-3.85-3.424-6.277c-1.104-0.319-1.46-1.393-2.565-1.711c-0.395,0.366-0.283,1.238-0.286,1.995
			c-0.68,0.653-1.623,1.04-1.714,2.282c0.25,3.272,1.449,5.592,4.282,6.277C15.865,35.952,16.681,35.717,17.039,35.028z
			 M87.219,49.007c-1.929-1.778-3.858-3.558-5.988-5.136c-0.599-1.494-2.024-2.16-2.569-3.709c-1.185-1.003-1.81-2.562-3.139-3.424
			c-3.975-0.303-7.575-0.98-11.412-1.426c-5.217,0.082-11.566,0.01-15.977-0.285c-0.17-0.012-0.337,0.062-0.285,0.285
			c-2.843,0.059-5.864,0.64-8.557,0c-2.845,1.624-5.791,3.148-8.845,4.565c-1.275,1.292-2.237,2.901-3.709,3.993
			c-3.12,1.828-5.525,4.367-8.56,6.277c-1.056,1.131-0.973,3.402-2.569,3.994c-1.445,0.834-1.124,3.439-1.71,5.135
			c0.67,1.424,1.393,2.793,2.281,3.994c0.895,1.199,1.427,2.758,2.568,3.708c1.153,3.035,3.489,4.884,4.281,8.274
			c2.15,1.557,3.113,4.304,5.137,5.992c0.491,1.407,1.646,2.156,2.28,3.424c0.682,1.217,1.642,2.159,2.28,3.423
			c3.444,4.069,7.199,7.827,9.986,12.552c2.842,2.484,5.525,5.126,8.275,7.705c1.899,0.573,3.282,1.661,5.136,2.282
			c0.523-0.872,1.353,0.329,2.283,0c4.096-1.228,6.139-4.515,8.842-7.134c2.168-3.156,4.478-6.172,6.56-9.414
			c1.504-2.656,3.736-5.426,5.138-7.703c0.164-0.266,0.438-0.359,0.571-0.57c0.231-0.367,0.312-1.043,0.569-1.428
			c0.086-0.127,0.469-0.15,0.57-0.285c0.18-0.236,0.139-0.643,0.286-0.855c0.645-0.924,1.21-1.484,1.711-2.283
			c0.242-0.383,0.315-1.025,0.572-1.426c0.081-0.123,0.473-0.154,0.569-0.285c0.179-0.236,0.137-0.645,0.288-0.855
			c0.911-1.312,1.616-2.537,2.566-3.709c2.032-5.004,4.922-9.151,5.135-15.977c-0.339-0.709-0.414-1.68-0.569-2.567
			C90.271,53.375,88.632,51.303,87.219,49.007z M17.892,59.278c-0.144-0.148,0.209-0.364,0.287-0.286
			C18.328,59.14,17.974,59.358,17.892,59.278z M78.092,48.436h0.855c0.876,1.217,1.912,2.271,2.854,3.424
			c0.797,1.198,2.087,1.907,2.566,3.424c-2.729,1.547-5.904,2.654-8.559,4.279c-1.941-1.008-1.642-4.254-3.138-5.705
			C73.313,50.886,76.614,50.574,78.092,48.436z M41.001,39.592c6.488,0.931,13.483,1.352,21.112,1.141
			c2.798,0.343,5.726,0.553,8.275,1.142c1.708-0.093,2.854,0.383,3.992,0.856c0.854,0.668,1.225,1.821,2,2.567
			c-1.8,2.48-4.837,3.722-7.421,5.421c-8.216-3.541-21.229,0.961-30.241-1.712c-0.423-0.524-1.188-0.712-1.426-1.427
			c-0.608-0.343-1.554-0.348-1.709-1.141c-1.064-0.746-2.383-1.233-2.856-2.568C35.931,42.891,38.468,41.241,41.001,39.592z
			 M37.01,58.992c0.424-0.241,0.412-0.918,0.57-1.426c0.472-0.952,0.664-2.185,1.139-3.137c8.479-2.176,19.682-1.624,30.241-1.713
			c-0.206,3.63,1.999,4.851,2.283,7.988c-5.55,0.631-12.118,0.243-17.688,0.856c-4.597-1.015-10.346-0.875-15.976-0.856
			C37.805,59.717,37.264,59.5,37.01,58.992z M20.46,55.284c0.217-1.209,1.333-1.523,1.997-2.282c0.84-0.587,1.564-1.29,2.568-1.713
			c1.384-1.373,3.158-2.358,4.563-3.708c-0.076-0.459,0.271-0.49,0.287-0.855c0.071,0.035,0.226-0.045,0.285,0
			c2.102,1.53,3.307,3.713,5.991,4.563c-0.554,1.254-1.248,2.367-1.997,3.425c-0.457,1.256-1.546,1.877-1.712,3.424
			C28.529,57.104,24.918,55.771,20.46,55.284z M46.996,97.221c-1.033-1.059-1.845-2.34-2.854-3.423
			c-2.362-6.199-5.976-11.142-9.416-16.263c-3.162-5.397-6.796-10.32-9.987-15.691c0.154-0.41-1.109-0.695-0.284-0.854
			c3.535,0.649,6.407,1.963,9.416,3.138c2.672,6.174,5.294,12.396,8.275,18.26c1.1,3.271,2.812,5.934,3.992,9.129
			c0.667,1.521,1.615,2.756,1.995,4.564c0.843,1.345,1.568,2.807,1.997,4.564C48.492,100.1,48.189,98.211,46.996,97.221z
			 M59.261,104.069c-1.556-0.533-2.069-2.113-2.852-3.424c-1.17-0.828-1.271-2.725-2.282-3.708
			c-0.371-3.243-1.828-5.399-2.281-8.559c-0.62-1.188-0.82-2.792-1.431-3.995c-0.139-1.569-0.879-2.543-1.138-3.993
			c-1.76-5.374-3.575-10.693-5.993-15.405c0.733-0.791,3.242,0.197,3.996-0.571c2.793,0.343,5.724,0.553,7.984,1.425h11.129
			c2.254-0.139,4.458-1.474,6.278-1.141c0.362,2.109-0.908,4.709-1.713,6.562c-0.801,2.148-1.583,4.314-1.999,6.848
			C64.659,85.691,61.993,94.913,59.261,104.069z M87.793,61.844c-0.342,0.897-0.963,1.511-1.142,2.569
			c-0.446,0.79-0.888,1.587-1.142,2.566c-2.018,3.976-4.395,7.591-6.275,11.697c-2.224,2.629-3.445,6.256-5.992,8.56
			c-0.653,1.822-1.907,3.041-2.854,4.564c-1.208,1.17-1.851,2.902-3.139,3.994c-0.846-0.499,0.165-1.52,0-2.281
			c0.316-0.54,0.367-1.349,0.572-1.998c0.366-1.344,0.758-2.664,1.425-3.709c2.713-7.843,7.643-13.469,8.559-23.109
			c2.47-2.38,6.388-3.312,9.129-5.42h0.284C88.51,59.014,88.164,61.331,87.793,61.844z M104.055,39.592
			c-0.048,0.332-0.453,0.311-0.857,0.286c-1.134,1.055-2.566,1.807-3.708,2.853c-1.214,1.07-3.359,1.206-2.854,3.994
			c1.999,1.578,3.806-0.589,5.42-1.143c1.275-1.86,3.529-2.744,3.708-5.704C105.096,39.885,104.926,39.385,104.055,39.592z"/>
	</g>
</g>
</svg>
