<?xml version="1.0" encoding="utf-8"?>
<!-- Generator: Adobe Illustrator 16.0.0, SVG Export Plug-In . SVG Version: 6.00 Build 0)  -->
<!DOCTYPE svg PUBLIC "-//W3C//DTD SVG 1.1//EN" "http://www.w3.org/Graphics/SVG/1.1/DTD/svg11.dtd">
<svg version="1.1" id="Layer_1" xmlns="http://www.w3.org/2000/svg" xmlns:xlink="http://www.w3.org/1999/xlink" x="0px" y="0px"
	 width="107.5px" height="96.5px" viewBox="0 0 107.5 96.5" enable-background="new 0 0 107.5 96.5" xml:space="preserve">
<g id="syringe">
	<g>
		<path fill="#132C42" d="M102.896,90.381c-0.949-0.961-1.689-2.15-2.77-2.962c-0.016-1.004-1.023-0.875-1.253-1.635
			c-0.83-0.07-0.755-1.179-1.517-1.328c-0.836-1.19-2.127-1.858-2.791-3.245c-2.256-1.607-4.01-3.79-6.09-5.6
			c-1.875-2.041-4.095-3.693-5.824-5.902c0.893-1.186,2.945-1.357,2.923-3.341c-0.079-2.665-2.146-3.062-3.433-4.347
			c-0.572-0.776-1.688-0.931-2.127-1.861c-0.424-0.94-1.65-0.973-1.857-2.163c0.519-1.063,1.588-1.649,2.107-2.712
			c1.074-0.579,0.977-2.186,2.409-2.448c-0.099-1.694,1.421-1.973,1.481-3.528c-0.49-0.666-0.629-1.734-1.291-2.204
			c-1.201,0.044-1.438-1.013-2.639-0.969c-1.32-2.673-4.062-3.728-5.291-6.51c-5.035-3.949-9.174-8.921-14.289-12.776
			c-0.494-1.065-1.226-1.867-2.162-2.429c-0.444-1.126-1.432-1.629-2.164-2.428c-2.273-2.405-4.665-4.678-7.304-6.664
			c-0.527-1.035-1.856-1.149-2.164-2.429c-2.062-1.016-3.165-3.124-5.938-3.324c-1.067,0.136-1.133,1.154-2.201,1.292
			c-0.392-0.368-1.254-0.203-2.011-0.154c-1.352,1.497-3.25,2.519-4.594,4.021c-1.559,1.317-3.009,2.729-4.593,4.025
			c0.004-1.333-0.988-1.527-1.308-2.486c-1.346-0.407-1.988-1.612-3.55-1.768c-0.481-2.308-3.092-2.186-3.983-4.025
			c0.284-2.523,2.783-3.103,3.055-5.637c-0.602-1.865-1.417-3.482-3.396-3.776c-1.215,0.369-2.166,0.963-3.34,1.365
			c-1.589,1.917-2.992,3.995-4.46,6.015c-2.798,1.664-4.527,4.26-7.024,6.186c0.127,1.629-1.406,1.806-1.196,3.512
			c0.605,1.042,2.065,1.108,3.776,0.893c1.741-0.708,2.471-2.303,4.384-2.866c0.85,0.255,1.193,1.089,1.555,1.899
			c2.548-0.052,3.338,1.905,5.048,2.811c1.352,1.313,3.299,1.948,4.516,3.417c-2.638,3.052-4.983,6.364-7.973,9.109
			c0.019,1.353-1.288,1.548-0.932,3.204c0.073,1.656,1.582,1.665,1.917,3.02c1.023,0.67,1.933,1.468,2.733,2.391
			c1.891,1.513,3.417,3.447,5.198,5.086c3.39,3.376,6.165,7.457,9.846,10.498c1.35,2.033,3.544,3.101,4.916,5.106
			c2.087,1.291,3.429,3.435,5.729,4.479c1.432,1.939,3.329,3.345,5.179,4.806c0.626,1.12,1.701,1.729,2.466,2.692
			c1.197,0.473,1.584,1.867,3,2.088c1.563,0.052,3.027,0.221,4.593,0.27c2.811-2.458,5.776-4.773,8.37-7.418
			c1.647-1.062,2.675-2.662,4.025-3.984c0.854-0.502,1.415-1.266,2.165-1.857c0.84-0.516,1.043-1.586,2.162-1.86
			c1.449,1.714,3.389,2.867,5.143,4.231c-2.536,2.607-4.658,5.574-8.086,7.402c-0.839-2.037-2.043-5.178-5.104-3.664
			c-0.91,3.121,1.961,4.463,2.731,6.682c1.015-0.143,1.099,0.784,2.047,0.718c3.925-0.319,5.046-3.088,7.707-4.514
			c4.282,3.583,8.271,7.504,12.2,11.487c2.006,1.998,4.053,3.944,6.107,5.883c1.119,0.869,1.826,2.201,3.322,2.641
			c0.493,1.508,2.266,2.025,3.812,1.461C104.99,92.07,103.759,91.434,102.896,90.381z M24.783,20.654
			c0.362,0.046,0.324,0.546,0.038,0.569C24.399,21.125,24.833,20.971,24.783,20.654z M56.007,73.193
			c-0.362-0.045-0.325-0.547-0.038-0.568C56.393,72.723,55.956,72.875,56.007,73.193z M73.945,50.559
			c-0.27,1.729-1.657,2.479-1.707,4.4c-1.401,1.007-2.652,2.146-4.084,3.133c-1.189,1.102-2.252,2.314-3.188,3.641
			c-1.288,0.302-1.821,1.264-2.733,1.896c-0.715,0.805-1.842,1.248-2.428,2.164c-1.906,1.195-2.875,3.205-5.164,4.061
			c-1.068-0.109-1.721-0.69-2.638-0.971c1.544-2.49,3.374-4.732,5.259-6.926c-0.171-1.131,0.403-1.612,0.096-2.864
			c-0.35-0.726-0.904-1.216-1.801-1.309c-2.32,0.204-2.232,2.512-3.78,3.396c-0.474,1.818-2.118,2.616-2.562,4.459
			c-1.01-0.177-1.506-0.936-1.841-1.879c-0.436-0.218-0.931-0.367-0.93-1.083c-0.201-0.381-1.099,0.03-1.177-0.493
			c0.213-1.424,1.594-1.82,2.393-2.729c0.997-0.738,1.782-1.661,2.696-2.47c1.075-0.666,1.795-1.646,2.695-2.465
			c0.565-1.113,1.817-1.625,1.785-3.264c-0.327-1.258-1.135-1.971-2.428-2.127c-2.21,0.928-2.978,3.115-4.86,4.328
			c-0.709,0.809-1.432,1.604-2.43,2.16c-0.625,0.794-1.016,1.794-2.145,2.146c-0.624-1.025-1.72-1.509-2.181-2.714
			c2.302-1.917,4.17-4.215,6.452-6.149c0.195-0.991,0.588-1.81,0.667-2.901c-0.487-1.112-1.266-1.61-2.106-1.576
			c-2.208,0.283-3.148,2.18-4.347,3.435c-1.263,1.316-2.819,2.351-3.74,3.966c-0.963,0.076-1.279-0.582-1.784-1.027
			c-0.09-0.818-1.247-0.415-1.234-1.349c1.057-1.396,2.154-2.761,3.454-3.947c-0.076-1.229,1.349-1.145,1.273-2.373
			c0.887-0.386,0.684-1.723,1.271-2.373c-0.294-0.581-0.527-1.233-0.966-1.649c-2.926-0.146-3.109,2.107-4.348,3.432
			c-1.032,1.422-2.356,2.586-3.151,4.214c-1.467,0.042-1.349-1.729-2.693-1.822c-0.167-1.345-1.352-1.521-1.881-2.449
			c0.545-1.578,1.855-2.489,2.905-3.625c0.689-1.809,2.289-2.822,2.223-5.294c-0.126-0.368-0.531-0.412-0.628-0.815
			c-2.945-0.167-3.033,2.17-4.344,3.434c-1.273,1.21-1.744,3.121-3.456,3.947c-1.577,0.166-1.457-1.603-2.693-1.824
			c-0.349-1.335-1.802-1.413-2.183-2.714c2.885-3.55,6.289-6.648,9.036-10.322c1.626-0.81,2.454-2.319,4.081-3.13
			c0.835-0.698,1.544-1.508,2.125-2.428c1.528-0.363,2.005-1.644,3.286-2.222c0.868-0.847,1.494-1.907,2.998-2.196
			c2.941,2.253,5.16,5.333,8.215,7.458c2.724,2.403,5.111,5.188,7.667,7.785c0.311,0.896-0.912,0.451-0.779,1.19
			c0.856,1.78,2.805,2.314,3.699,4.046c1.133-0.271,1.646,0.164,2.582,0.114c0.266,1.024,1.24,1.239,1.308,2.484
			c0.759,1.077,1.993,1.605,2.752,2.68c0.885,0.148,0.805-0.547,1.688-0.399c0.354,1.13,1.351,1.519,2.146,2.146
			c-0.026,0.333-0.503,0.275-0.837,0.34c1.093,1.1,2.107,2.287,3.625,2.905C73.126,47.816,74.175,48.457,73.945,50.559z"/>
	</g>
</g>
</svg>
