<?xml version="1.0" encoding="utf-8"?>
<!-- Generator: Adobe Illustrator 16.0.0, SVG Export Plug-In . SVG Version: 6.00 Build 0)  -->
<!DOCTYPE svg PUBLIC "-//W3C//DTD SVG 1.1//EN" "http://www.w3.org/Graphics/SVG/1.1/DTD/svg11.dtd">
<svg version="1.1" id="Layer_1" xmlns="http://www.w3.org/2000/svg" xmlns:xlink="http://www.w3.org/1999/xlink" x="0px" y="0px"
	 width="90.137px" height="120.575px" viewBox="0 0 90.137 120.575" enable-background="new 0 0 90.137 120.575"
	 xml:space="preserve">
<g id="flash1">
	<g>
		<path fill-rule="evenodd" clip-rule="evenodd" d="M72.801,65.515c-2.61-2.426-5.624-4.527-8.691-6.583
			c-1.497-1.103-3.134-2.087-4.797-3.054c-0.693-0.552-1.717-0.836-2.412-1.387c-0.641-0.68-1.991-0.785-2.383-1.667
			c3.125-6.505,6.472-12.738,8.902-20.099c1.356-3.506,2.453-7.331,3.695-10.978c0.988-1.32,1.476-3.255,2.211-4.883
			c0.239-0.686,0.922-1.441,1.104-2.444c0.215-1.16,0.062-2.162-0.238-3.148c-0.694-0.681-1.433-0.757-2.249-0.233
			c-1.02-0.373-1.344-1.312-3.004-1.164c-0.39,0.048-0.578,0.342-1.153,0.165c-2.323,1.578-4.376,3.483-6.515,5.288
			c-0.982,1.009-1.886,2.115-2.879,3.111c-0.557,1.534-2.02,1.951-2.628,3.42c-3.338,2.228-6.103,5.161-9.308,7.556
			c-1.207,1.682-3.021,2.617-4.147,4.399c-1.612,1.29-2.541,3.42-4.179,4.678c-2.662,3.167-5.543,6.062-8.325,9.079
			c-0.573,0.881-1.214,1.679-1.95,2.354c-0.659,0.777-1.07,1.85-1.951,2.355c-0.423,1.06-0.987,1.952-1.694,2.665
			c-0.569,0.7-2.029,1.546-1.417,2.692c-0.293,2.556,1.876,3.111,3.246,4.314c0.985,1.604,2.757,2.565,4.146,3.839
			c1.917,0.848,2.896,2.451,4.767,3.335c0.841,0.521,1.591,1.113,2.692,1.417c0.537,0.764,2.066,0.726,2.383,1.668
			c-1.004,2.667-2.598,4.616-3.597,7.296c-1.775,1.722-2.89,4.259-4.353,6.366c-2.737,4.446-5.714,8.602-7.697,13.972
			c0.103,1.081-0.484,1.308-0.517,2.218c-0.208,1.545,0.633,2.232,0.154,3.994c-0.448,1.82,0.125,2.816,1.055,3.519
			c1.346,0.634,2.439,0.101,3.46-0.494c0.095-0.332,0.331-0.14,0.561,0.058c0.094-0.309,0.358-0.404,0.622-0.502
			c0.494-0.343,0.973-0.705,1.521-0.979c2.08-1.035,3.785-2.523,5.778-3.661c3.92-2.358,6.747-6.06,10.8-8.254
			c3.538-2.826,7.191-5.51,10.547-8.564c3.197-3.349,7.149-5.772,10.071-9.464c1.927-0.793,3.145-2.465,5.156-3.158
			c1.651-1.238,3.476-2.268,4.18-4.679C73.946,68.017,73.171,66.931,72.801,65.515z M58.056,76.2
			c-2.412,2.205-5.055,4.128-7.224,6.635c-0.908,0.146-0.947,1.367-1.859,1.512c-0.338,0.852-1.423,0.785-1.86,1.512
			c-1.103,1.285-2.65,2.018-3.753,3.304c-2.777,1.861-5.599,3.667-8.006,5.985l-0.281-0.029c-0.008,0.344-0.428,0.131,0,0
			c0.029-0.28,0.059-0.561,0.088-0.842c-0.849,0.095-1.326,1.693-2.086,0.92c-0.325,0.865-0.966,1.343-1.607,1.82
			c-0.418,0.754-0.643,1.745-1.86,1.512c-0.694-1.51,0.937-2.553,1.25-3.848c0.73-1.107,1.467-2.206,2.317-3.168
			c0.093-0.838,0.831-0.879,1.017-1.598c0.478-0.471,0.463-1.545,1.051-1.881c0.387-1.529,1.049-2.719,1.81-3.788
			c1.096-2.669,2.597-4.835,3.629-7.576c0.859-0.95,1.207-2.529,2.063-3.48c0.565-1.419,1.404-2.497,1.339-4.688
			c0.01-0.863-1.445-0.542-1.567-1.299c0.152-0.982-0.854-1.023-0.949-1.803c-0.485-0.036-0.7-0.293-0.784-0.65
			c-4.614-2.346-8.727-5.097-11.89-8.619c0.623-1.875,2.316-2.43,3.25-3.924c1.442-0.969,2.305-2.652,3.778-3.585
			c0.23-1.092,1.361-1.072,1.642-2.103c0.73-0.469,1.252-1.203,1.889-1.792c1.156-1.322,2.197-2.788,3.529-3.894
			c2.111-2.786,4.314-5.462,6.776-7.819c2.213-2.916,5.272-4.684,6.553-8.411c0.422-0.114,0.733-0.364,0.929-0.754
			c0.337,0.404,1.01,0.48,1.157-0.163c0.802-0.491,1.035-1.68,2.424-1.452c0.632,2.423-2.131,3.251-2.049,6.034
			c-2.983,3.299-4.464,8.449-6.961,12.346c-2.142,4.337-4.506,8.398-5.2,14.515c0.241,0.748,0.549,1.442,0.919,2.083
			c0.896,0.258,1.328-0.056,1.998-0.077c0.952,1.2,2.246,2.121,3.669,2.938c1.115,1.156,2.537,2.059,3.954,2.969
			c2.486,2.012,5.076,3.943,7.624,5.903C63.539,72.599,60.055,73.483,58.056,76.2z M35.16,94.276
			C35.584,94.146,35.167,93.934,35.16,94.276L35.16,94.276z"/>
	</g>
</g>
</svg>
