<?xml version="1.0" encoding="utf-8"?>
<!-- Generator: Adobe Illustrator 16.0.0, SVG Export Plug-In . SVG Version: 6.00 Build 0)  -->
<!DOCTYPE svg PUBLIC "-//W3C//DTD SVG 1.1//EN" "http://www.w3.org/Graphics/SVG/1.1/DTD/svg11.dtd">
<svg version="1.1" id="Layer_1" xmlns="http://www.w3.org/2000/svg" xmlns:xlink="http://www.w3.org/1999/xlink" x="0px" y="0px"
	 width="86.027px" height="109.617px" viewBox="0 0 86.027 109.617" enable-background="new 0 0 86.027 109.617"
	 xml:space="preserve">
<g id="lock">
	<g>
		<path fill="#132C42" d="M80.866,44.129c-0.716-1.832-2.369-2.731-4.167-3.493c-0.465-0.807-1.94-0.615-2.239-1.588
			c-0.729-0.55-2.688,0.125-2.882-0.952c0.301-8.451-0.278-16.024-1.603-22.858c-0.808-1.214-1.374-2.663-1.927-4.127
			C67.1,9.938,66.305,8.607,65.488,7.3C61.958,3.605,57.22,1.105,51.075,0h-9.611c-1.835,0.403-3.685,0.791-5.766,0.952
			c-2.118,1.18-4.537,2.064-6.728,3.174c-0.672,0.924-1.93,1.262-2.882,1.906c-1.626,0.082-2.229,1.179-3.524,1.585
			c-2.575,2.634-4.548,5.863-6.407,9.208c-1.39,4.439-1.974,9.684-2.883,14.606v7.936c-2.631,0.355-5.234,0.738-8.327,0.636
			c-0.184,0.556,0.385,1.864-0.322,1.905c-0.476,0.372-0.9,0.796-1.276,1.269c-0.91,7.822,0.437,16.039,0,24.447
			c0.136,1.658,0.817,2.783,0.957,4.442c-0.02,5.312,0.511,10.08,1.28,14.605c1.114,3.025,2.924,5.357,3.848,8.57
			c1.266,0.756,1.986,2.051,2.881,3.176c1.131,0.889,2.136,1.906,3.206,2.859c0.55-0.019,0.819,0.242,0.96,0.633
			c2.408,1.002,5.115,1.703,7.367,2.857c1.987,1.521,4.979,2.051,7.686,2.856c3.116,0.291,6.384,0.838,9.61,0.635
			c3.262-0.202,6.261-1.127,8.969-1.586h5.448c7.817-4.102,14.448-9.383,20.179-15.555c1.052-3.511,2.815-6.312,3.525-10.162
			c0.851-3.703,1.229-7.883,1.92-11.746V56.509C81.184,52.101,81.449,48.036,80.866,44.129z M20.001,29.206
			c1.813-2.122,4.215-3.656,5.127-6.665c-0.286-0.669-0.499-1.412-0.958-1.906c-0.562-0.293-1.719,0.012-1.604-0.953
			c1.229-1.744,2.398-3.551,4.166-4.761c-0.075-1.239,0.686-1.647,0.959-2.541c1.345-1.524,3.646-2.101,5.126-3.492
			c1.99-0.776,3.561-1.972,5.764-2.539h3.849c2.868-1.068,6.861-1.026,10.888-0.953c0.05,0.373,0.582,0.269,0.963,0.317
			c1.979,1.207,3.563,2.814,5.443,4.127c1.288,1.686,2.517,3.433,3.524,5.397c0.204,2.229,0.581,4.288,1.276,6.032
			c0.202,3.824,0.458,7.592,0.322,11.748c-0.005,1.159-0.912,1.424-1.279,2.222v1.905c-0.177,0.461,0.372,1.641-0.319,1.587
			c-1.55,0.475-1.338-0.79-1.284-1.903c-1.186-0.142-2.204-0.027-2.884-1.269c0.495-1.899,1.133-3.958,0.962-6.986
			c-0.197-3.479-1.096-7.235-1.602-10.16c-0.335-1.042-1.446-1.315-1.924-2.221c-0.452-0.823-1.084-1.467-1.604-2.224
			c-2.045-1.252-3.671-2.92-5.763-4.126c-2.812,0.247-4.655-0.467-7.368-0.316c-9.394,2.858-14.475,9.993-16.977,19.682
			c-0.25,1.307,0.489,1.629,0.318,2.855c0.271,1.329-0.621,1.5-0.637,2.541c-0.454,1.521,0.923,2.875,0,3.811
			c-1.33,0.046-0.337-2.21-0.643-3.175c-0.621,0.866-1.055,1.919-2.564,1.905c-0.558-0.523-0.948-0.593-1.283-1.271
			C19.209,34.257,20.032,31.346,20.001,29.206z M53.957,30.794v7.938H32.176c-0.35-2.297-0.371-4.923-0.321-7.619
			c1.795-7.328,5.337-12.917,12.498-14.923c2.02,0.008,4.183-0.125,5.762,0.317C53.057,19.624,52.599,26.108,53.957,30.794z
			 M71.578,71.432c0.454,1.243,0.222,3.17,0.959,4.129c-0.396,1.725-0.461,3.772-0.641,5.713c-1.967,3.135-4.236,5.963-6.407,8.889
			c-1.965,1.547-3.987,3.033-6.087,4.445c-2.537,0.869-4.582,2.229-6.727,3.494c-3.212,0.278-7.754,0.674-10.89,0
			c-1.098-0.787,0.124-2.166-1.283-2.859c-1.638-1.172-2.5,1.928-3.842,0.955c-1.571-0.146,0.397-1.238,0.319-1.906
			c0.537-0.527,0.257-1.865,0.322-2.859c-0.463-1.34-1.463-2.147-3.524-1.904c-2.004,0.021-2.236,1.808-4.166,1.904
			c-1.711,0.738-1.683,3.201-3.522,3.812c-0.534-1.285,1.463-2.479,0.964-4.761c-0.105-0.746-0.993-0.713-1.284-1.271
			c-2.186,0.375-3.346,1.765-4.162,3.492c-1.108-0.231-0.213-0.955,0-1.586c0.442-0.515,0.27-1.64,0.958-1.906
			c0.346-1.562,1.38-2.438,1.604-4.129c1.01-1.153,1.143-2.679,1.6-4.127c0.066-0.207,0.583-0.787,0.643-0.951
			c0.065-0.188-0.047-0.442,0-0.635c0.095-0.384,0.562-1.742,0.32-3.177c-0.292-0.561-0.716-0.983-1.283-1.27
			c-3.633-0.318-3.938,2.654-5.766,4.127c-1.22,1.965-2.545,3.824-3.525,6.031c-0.754-0.266,0.267-1.393,0.322-1.906
			c-0.033-0.982,0.393-1.516,0.64-2.221c0.319-1.484,0.966-2.643,1.282-4.129c0.912-2.691,2.669-4.549,2.563-8.254
			c-0.32-0.955-0.965-1.59-1.921-1.904c-1.827,0.092-3.028,0.807-3.844,1.904c-0.815-0.424,0.472-1.412,0.32-2.221
			c0.246-0.707,0.671-1.24,0.638-2.226c0.673-1.24,1.183-2.642,1.604-4.127c-0.035-1.66-0.866-2.526-1.924-3.179
			c0.604-1.409,2.475-1.567,2.563-3.49c-0.183-1.301-1.208-1.765-2.244-2.222c-2.179-0.363-2.302,1.315-3.844,1.587
			c0.495-1.629,0.396-3.84,0.643-5.713c1.466-0.559,2.457-1.587,3.844-2.225c17.64,1.468,37.078,1.142,56.056,1.275
			C71.995,54.068,73.257,64.21,71.578,71.432z M46.909,58.414c-2.291-0.445-3.97-0.656-6.406-0.316
			c-1.821,1.051-3.956,1.791-5.443,3.176c-1.489,2.088-2.606,5.992-1.601,9.523c1.002,1.652,3.364,1.957,4.48,3.492
			c-0.7,3.336-0.957,8.418-0.317,12.064c0.694,0.688,1.671,1.094,2.562,1.59c1.191,0.197,1.468,1.299,3.205,0.953
			c4.515-1.451,2.925-8.955,3.2-14.605c1.79-1.506,3.111-3.475,3.849-6.031c0.243-2.252-0.4-3.627-0.323-5.713
			C49.123,61.091,48.192,59.578,46.909,58.414z"/>
	</g>
</g>
</svg>
