<?xml version="1.0" encoding="utf-8"?>
<!-- Generator: Adobe Illustrator 16.0.0, SVG Export Plug-In . SVG Version: 6.00 Build 0)  -->
<!DOCTYPE svg PUBLIC "-//W3C//DTD SVG 1.1//EN" "http://www.w3.org/Graphics/SVG/1.1/DTD/svg11.dtd">
<svg version="1.1" id="Layer_1" xmlns="http://www.w3.org/2000/svg" xmlns:xlink="http://www.w3.org/1999/xlink" x="0px" y="0px"
	 width="140.822px" height="100.027px" viewBox="0 0 140.822 100.027" enable-background="new 0 0 140.822 100.027"
	 xml:space="preserve">
<g id="mail">
	<g>
		<path fill-rule="evenodd" clip-rule="evenodd" d="M127.128,13.378c-0.844-1.809-4.362-0.944-6.048-1.91
			c-1.731-0.352-1.677,1.082-3.183,0.956c-0.275-0.788-2.217,0.093-2.547-0.636h-3.182c-0.53-0.535-1.873-0.254-2.863-0.32
			c-0.865-0.196-2.529,0.405-2.869-0.317c-11.932-0.458-25.32-0.519-37.242,0c-7.5,0.156-15.289,1.864-23.555,1.91
			c-8.133,0.043-16.493-0.213-24.189,0.953c-1.45,1.099-1.893,3.205-3.184,4.457c-0.458,2.514-0.146,5.799-0.638,8.277
			c1.444,15.111,2.206,30.899,3.502,46.154c0.041,1.339,1.232,1.525,1.272,2.865c0.226,2.219,0.727,4.157,1.275,6.048
			c0.959,0.314,1.422,1.125,2.867,0.955c-0.035-0.385,0.461-0.195,0,0c-0.274,0.258-0.189,0.871-0.639,0.955
			c-0.111,2.977,2.495,3.234,4.775,3.82c2.593,0.164,5.047,0.469,7.959,0.318c2.431,0.43,5.114,0.611,7.639,0.955h28.646
			c6.751-0.996,14.252-1.24,21.009-2.229c7.784,0.039,14.147-1.344,21.328-1.912c1.518-0.35,0.438,1.899,1.592,1.912
			c0.239,0.82,1.016,1.105,2.227,0.955c1.388-0.313,1.962-1.438,2.228-2.867c0.354-1.344,0.367-3.026,0.318-4.772V69.72
			c0.436-6.355,0.902-12.68,0.955-19.417c0.67-6.118,0.333-13.249,0.955-19.417c0.132-3.263,0.628-6.161,0.955-9.231
			c-0.238-1.936,0.523-2.87,0.637-4.457C127.399,15.781,128.103,14.376,127.128,13.378z M29.41,19.426h21.642
			c8.315-0.917,16.652-1.809,26.1-1.591c0.549,0.067,0.828-0.544,0.956,0c0.333,0.331,1.583-0.329,1.591-0.317
			c0.012,0.015-0.008,0.317,0,0.317c0.971-0.062,1.252-0.166,1.912,0c0.168,0.042,0.461,0.016,0.635,0
			c0.824-0.083,0.98-0.004,2.223,0c0,0,0.065-0.372,0.324-0.317c0.024,0.002,0.093,0.288,0.32,0.317
			c0.643,0.085,1.809-0.015,2.865,0c-0.088-0.002,0.158-0.517,0.317-0.317c0.395,0.495,1.652,0.285,2.867,0.317
			c2.036-0.142,2.317-0.057,4.454,0c7.084,0.024,13.926,0.294,20.051,1.273c1.346-0.054-0.003,0.489,0,0.957
			c-0.424,0.317-0.957,0.524-1.271,0.953c-0.732,0.646-1.617,1.143-2.227,1.91c-1.875,0.885-3.426,2.095-5.092,3.184
			c-3.447,2.179-6.822,4.427-9.871,7.003c-0.846-0.274-0.567,0.6-1.272,0.637c-0.534,0.028-0.644,0.921-1.272,0.955
			c-0.261,0.013-1.202,0.681-1.593,0.955c-0.308,0.215-0.849,0.51-0.954,0.955c-2.053,0.705-3.166,2.35-5.094,3.184
			c-2.987,2.633-6.338,4.909-9.229,7.64c-2.059-1.232-4.024-2.553-5.733-4.14c-2.207-0.761-3.772-2.165-5.729-3.183
			c-1.625-1.239-3.596-2.132-5.091-3.5c-4.058-1.671-7.498-3.962-11.458-5.729c-7.938-3.521-15.179-7.739-22.918-11.46
			C27.37,18.534,28.293,19.874,29.41,19.426z M23.36,19.745c0.046-0.087,0.684-0.588,0.956-0.319
			C24.547,19.662,23.023,20.369,23.36,19.745z M34.183,83.089c0.102-0.744,0.381-1.315,0.635-1.909
			c0.453,0.606,0.741,1.381,0.953,2.228C35.037,83.508,34.551,83.354,34.183,83.089z M46.595,83.089h-3.502
			c0.826-1.827,2.043-3.266,2.865-5.093C47.252,78.612,46.306,81.468,46.595,83.089z M120.444,27.703
			c-0.561,9.627-1.091,19.282-1.913,28.65v4.136c0.265,0.901-0.446,0.826-0.317,1.591v4.776c-0.792,3.235,0.256,8.319-0.952,11.141
			c-2.397-0.169-3.895,0.563-6.369,0.319c-7.794,1.646-17.337,1.547-25.145,3.18c0.252-1.865,1.589-2.652,1.91-4.453
			c-0.177-0.924-0.497,0.486-0.955,0.316c-0.321,0.424-0.302,1.186-0.955,1.274c-0.2,1.181-0.895,1.862-1.274,2.862
			c-3.145,0.251-6.018,0.773-9.229,0.957c1.294-2.42,3.434-3.994,4.136-7.003c-0.981-0.824-1.704,0.649-2.229,1.273
			c-0.809,0.673-1.406,1.563-1.907,2.547c-0.901,0.478-1.354,1.402-2.549,1.591c0.012,0.75-0.544,0.939-0.315,1.91H59.964
			c0.01-1.305,1.62-2.208,0.955-3.184c-1.702,0.209-1.562,2.26-2.545,3.184c-2.908-0.149-5.368,0.152-7.958,0.318
			c-0.542-2.112-0.713-4.591-1.591-6.366c-0.683-1.393,0.488-1.964,0-2.864c-3.137,0.367-4.859,2.143-6.684,3.818
			c-0.499-0.459-0.629-1.281-1.913-0.954c-2.056,0.169-2.421,2.034-4.137,2.547c0.268-1.112,1.062-1.694,0.955-3.184
			c-1.461,0.054-2.146,1.364-2.863,2.229c-0.791,0.949-1.142,2.268-2.229,2.864c0.013,0.437-0.148,0.698-0.318,0.954
			c-0.126,0.547,0.47,0.816,0,0.955c-1.656-0.043-2.799-0.595-4.457-0.637c0.098-0.75,1.106-0.593,0.956-1.592
			c0.9-0.05,0.743,0.957,1.591,0.955c1.313-0.49,2.268-1.339,2.546-2.864c0.918-0.99,1.512-2.308,2.228-3.502
			c1.423-2.29,3.033-4.396,3.818-7.32c-3.785,0.778-5.106,4.02-7.32,6.366c0.036,0.385-0.463,0.194,0,0
			c1.068-2.645,2.631-4.797,3.82-7.322c1.037-2.434,4.035-4.346,2.863-7.957c-3.502-0.107-4.119,2.668-6.045,4.139
			c-1.017,2.486-2.966,4.039-3.823,6.684c-0.747-0.268,0.024-1.641,0.322-1.909c-0.087-1.147,0.587-1.535,0.633-2.547
			c0.898-1.226,1.108-3.14,1.912-4.456c0.327-1.689,1.195-2.842,1.592-4.457c0.532-1.587,1.8-2.443,1.911-4.457
			c-0.185-0.98-1.151-1.183-1.911-1.59c-1.824,0.083-2.303,1.515-3.504,2.228c-0.703,2.374-2.159,3.991-2.863,6.366
			c-0.721-0.34-0.121-2.003-0.318-2.863c0.434-0.629,0.303-1.819,0.636-2.548c0.05-1.013,0.72-1.399,0.639-2.548
			c0.746-0.312,0.285-1.835,0.95-2.228c0.504-3.342,3.376-5.932,2.23-9.867c-2.714-0.274-3.55,1.329-4.456,2.864
			c-0.72-0.236-0.124-1.785-0.32-2.545c-0.722-0.339-0.118-2.001-0.317-2.865c-0.623-4.999-1.077-10.169-1.59-15.278
			c0.731,0.437,1.023,1.311,1.59,1.909c2.37,1.133,4.229,2.777,6.366,4.138c2.389,1.113,4.197,2.806,6.685,3.82
			c4.097,2.905,9.128,4.877,13.368,7.638c2.582,0.925,4.623,2.383,6.687,3.82c2.21,1.29,3.912,3.091,6.368,4.138
			c1.756,1.746,4.531,2.472,6.048,4.456c1.351,0.453,2.135,1.471,3.183,2.229c1.564,0.237,2.327,1.278,4.454,0.956
			c1.299-0.4,2.148-1.252,2.547-2.547c2.021-0.738,3.253-2.265,5.094-3.184c1.315-1.547,3.458-2.272,4.773-3.82
			c2.052-0.707,3.167-2.351,5.095-3.183c1.572-1.294,3.415-2.314,5.094-3.501c6.167-5.187,14.012-8.693,19.734-14.326
			C121.159,24.618,120.698,26.88,120.444,27.703z M29.09,77.042c0.599,0.314-0.158,1.938-0.955,1.909
			C27.808,77.67,28.629,77.537,29.09,77.042z M122.354,17.518c0.061-0.363,0.316-0.177,0.316,0
			C122.61,17.878,122.351,17.694,122.354,17.518z"/>
	</g>
</g>
</svg>
