<?xml version="1.0" encoding="UTF-8"?>
<svg width="149px" height="54px" viewBox="0 0 149 54" version="1.1" xmlns="http://www.w3.org/2000/svg" xmlns:xlink="http://www.w3.org/1999/xlink">
    <!-- Generator: Sketch 41.2 (35397) - http://www.bohemiancoding.com/sketch -->
    <title>netlify</title>
    <desc>Created with Sketch.</desc>
    <defs>
        <radialGradient cx="50%" cy="0%" fx="50%" fy="0%" r="100%" id="radialGradient-1">
            <stop stop-color="#20C6B7" offset="0%"></stop>
            <stop stop-color="#4D9ABF" offset="100%"></stop>
        </radialGradient>
        <linearGradient x1="67.0275807%" y1="84.7140915%" x2="67.027578%" y2="0%" id="linearGradient-2">
            <stop stop-color="#313D3E" offset="0%"></stop>
            <stop stop-color="#425253" offset="100%"></stop>
        </linearGradient>
    </defs>
    <g id="**Mockups" stroke="none" stroke-width="1" fill="none" fill-rule="evenodd">
        <g id="netlify" transform="translate(-613.000000, -33.000000)">
            <g transform="translate(613.000000, 33.000000)" id="logo-v1-01">
                <g transform="translate(0.053476, 0.000000)">
                    <g id="Layer_1">
                        <g id="Page-1_1_">
                            <g id="logo">
                                <g id="Page-1">
                                    <g id="logo-text-dark_jm">
                                        <path d="M37.8657125,19.0102687 C38.1397698,19.1458952 38.368151,19.3267304 38.5508558,19.5301701 C38.573694,19.5527745 38.573694,19.5527745 38.5965321,19.5527745 L38.6193702,19.5527745 L43.8721358,17.3149381 C43.8949739,17.2923337 43.917812,17.2697293 43.917812,17.2471249 C43.917812,17.2245205 43.917812,17.2019161 43.8949739,17.1793117 L38.98478,12.319364 C38.9619419,12.2967596 38.9391037,12.2967596 38.9391037,12.2967596 L38.9162656,12.2967596 C38.8934275,12.2967596 38.8705894,12.319364 38.8705894,12.3645729 L37.7971982,18.9424555 C37.8200363,18.9650599 37.8428744,19.0102687 37.8657125,19.0102687 Z M26.9719217,14.6023512 C27.2231414,14.9866233 27.3830085,15.4387081 27.4286848,15.890793 C27.4286848,15.9133972 27.451523,15.9360015 27.4743611,15.9586057 L35.2850104,19.2814292 L35.3078486,19.2814292 C35.3306868,19.2814292 35.3535249,19.2814292 35.3535249,19.2588249 C35.5819065,19.077991 35.8559643,18.9423656 36.1528604,18.8519486 C36.1756985,18.8519486 36.1985367,18.8293444 36.1985367,18.7841359 L37.4774734,10.8500471 C37.4774734,10.8274429 37.4774734,10.8048387 37.4546353,10.7822344 L32.5672699,5.92232251 C32.5444317,5.89971827 32.5444317,5.89971827 32.5215936,5.89971827 C32.4987554,5.89971827 32.4759173,5.92232251 32.4759173,5.94492675 L26.9719217,14.48933 C26.9490835,14.5345385 26.9490835,14.579747 26.9719217,14.6023512 Z M53.6468619,26.831277 L45.2652303,18.5128963 C45.242392,18.490292 45.2195538,18.490292 45.2195538,18.490292 L45.1967156,18.490292 L39.5099955,20.9089516 C39.4871572,20.9315559 39.464319,20.9541602 39.464319,20.9767645 C39.464319,20.9993688 39.4871572,21.0445774 39.5099955,21.0445774 L53.5326708,26.9895071 L53.555509,26.9895071 C53.5783472,26.9895071 53.6011855,26.9895071 53.6011855,26.9669028 L53.6468619,26.9216942 C53.6925384,26.9216942 53.6925384,26.8538813 53.6468619,26.831277 Z M52.2537683,28.1875328 L38.8020571,22.491238 L38.7792189,22.491238 C38.7563807,22.491238 38.7335424,22.491238 38.7107042,22.5138423 C38.3452927,23.0111379 37.7971755,23.3275987 37.1577053,23.4180161 C37.1348671,23.4180161 37.0891907,23.4406205 37.0891907,23.4858291 L35.6503828,32.3241278 C35.6503828,32.3467321 35.6503828,32.3693365 35.6732211,32.3919408 C36.1756619,32.7762147 36.4725587,33.3413233 36.5410734,33.9742449 C36.5410734,34.0194536 36.5639116,34.0420579 36.6095881,34.0420579 L44.7399941,35.7373838 L44.7628323,35.7373838 C44.7856706,35.7373838 44.8085088,35.7373838 44.8085088,35.7147794 L52.2537683,28.3231588 C52.2766065,28.3005545 52.2766065,28.2779501 52.2766065,28.2553458 C52.2766065,28.2327415 52.2766065,28.2101371 52.2537683,28.1875328 Z M34.4399335,20.6377204 L27.0860349,17.5183296 L27.0631967,17.5183296 C27.0403586,17.5183296 27.0175204,17.5409339 26.9946822,17.5635381 C26.4922419,18.3320837 25.6472287,18.7841693 24.7337009,18.7841693 C24.5966718,18.7841693 24.4596426,18.761565 24.2997752,18.7389608 L24.276937,18.7389608 C24.2540988,18.7389608 24.2312606,18.761565 24.2084224,18.7841693 L18.1563009,28.164946 C18.1334627,28.1875503 18.1334627,28.2327588 18.1563009,28.2553631 C18.1791391,28.2779674 18.2019773,28.2779674 18.2248155,28.2779674 L18.2476537,28.2779674 L34.3942571,21.3836617 C34.4170953,21.3610574 34.4399335,21.3384531 34.4399335,21.3158488 L34.4399335,21.2254317 L34.4399335,21.1124103 C34.4399335,20.9767846 34.4627717,20.8411589 34.4856099,20.7281375 C34.4856099,20.6829289 34.4627717,20.6603247 34.4399335,20.6377204 Z M43.3011832,37.0484085 L36.1528228,35.5791348 L36.1299846,35.5791348 C36.1071464,35.5791348 36.0843081,35.601739 36.0614699,35.601739 C35.7874114,35.9408022 35.4448382,36.2120527 35.0337504,36.3702822 C35.0109122,36.3702822 34.988074,36.4154906 34.988074,36.4380948 L33.275208,46.9716566 C33.275208,47.0168651 33.2980463,47.0394693 33.3208845,47.0620735 L33.3665609,47.0620735 C33.3893991,47.0620735 33.4122373,47.0620735 33.4122373,47.0394693 L43.3240214,37.2066379 C43.3468596,37.1840337 43.3468596,37.1614295 43.3468596,37.1388253 C43.3468596,37.0710127 43.3240214,37.0484085 43.3011832,37.0484085 Z M33.3209356,36.3250614 C32.6357889,36.0538105 32.133348,35.4434961 31.9506422,34.7427647 C31.9506422,34.7201605 31.927804,34.6975562 31.8821275,34.674952 L18.6359583,31.9398392 C18.6359583,31.9398392 18.6359583,31.9398392 18.6131201,31.9398392 C18.5902819,31.9398392 18.5674436,31.9624435 18.5446054,31.9850477 C18.4760908,32.0980689 18.4304143,32.1884859 18.3618996,32.2789028 C18.3390614,32.301507 18.3390614,32.3467155 18.3618996,32.3693198 L30.4204813,49.8197913 C30.4433195,49.8423955 30.4433195,49.8423955 30.4661577,49.8423955 C30.4889959,49.8423955 30.5118342,49.8423955 30.5118342,49.8197913 L31.2426573,49.0964557 C31.2426573,49.0738514 31.2654955,49.0738514 31.2654955,49.0512472 L33.3209356,36.3928741 C33.366612,36.3928741 33.366612,36.3476656 33.3209356,36.3250614 Z M18.9100506,30.3349855 C18.9100506,30.3801941 18.9328888,30.4027983 18.9785652,30.4027983 L32.1105275,33.1153106 L32.1333657,33.1153106 C32.1562039,33.1153106 32.1790421,33.0927064 32.2018803,33.0701021 C32.5901296,32.391974 33.2752755,31.9398886 34.0517741,31.8946801 C34.0974505,31.8946801 34.1202887,31.8720758 34.1202887,31.8268673 L35.5362568,23.1242236 C35.5362568,23.1016194 35.5362568,23.0564108 35.4905804,23.0564108 C35.3992276,22.988598 35.3078748,22.9207852 35.1936839,22.8077639 C35.1708457,22.7851596 35.1480075,22.7851596 35.1480075,22.7851596 L35.1251693,22.7851596 L18.8872124,29.7246703 C18.8415361,29.7472745 18.8415361,29.7698788 18.8415361,29.8150873 C18.8643742,29.9959215 18.9100506,30.1541514 18.9100506,30.3349855 Z M13.4060307,32.5275653 C13.3375165,32.4371481 13.2690024,32.3467309 13.2004882,32.2337094 C13.1776501,32.2111051 13.154812,32.1885008 13.131974,32.1885008 L13.1091359,32.1885008 L7.44529633,34.6071609 C7.42245827,34.6071609 7.39962021,34.6297652 7.39962021,34.6523695 C7.39962021,34.6749738 7.39962021,34.6975781 7.42245827,34.7201824 L10.1858639,37.4553028 C10.2087019,37.4779071 10.23154,37.4779071 10.23154,37.4779071 C10.2543781,37.4779071 10.2772161,37.4553028 10.3000542,37.4326985 L13.4288688,32.5727739 C13.4288688,32.5727739 13.4288688,32.5501696 13.4060307,32.5275653 Z M17.151468,33.4091808 C17.1286298,33.3865765 17.1057916,33.3639722 17.0829534,33.3639722 L17.0601152,33.3639722 C16.6490273,33.5448065 16.2379394,33.6352236 15.8040133,33.6352236 C15.46144,33.6352236 15.141705,33.590015 14.7991318,33.4769936 L14.7762936,33.4769936 C14.7534553,33.4769936 14.7306171,33.4995979 14.7077789,33.5222022 L11.4190758,38.6307704 L11.3962376,38.6533747 C11.3733994,38.6759789 11.3733994,38.7211875 11.3962376,38.7437918 L26.5151366,53.7304322 C26.5379748,53.7530364 26.560813,53.7530364 26.560813,53.7530364 C26.5836512,53.7530364 26.6064894,53.7530364 26.6064894,53.7304322 L29.2557225,51.0857309 C29.2785607,51.0631266 29.2785607,51.0179181 29.2557225,50.9953138 L17.151468,33.4091808 Z M15.0275396,27.5094299 C15.0503778,27.5320342 15.0732161,27.5546385 15.0960543,27.5546385 L15.1188926,27.5546385 C15.3472751,27.5094299 15.5984959,27.4642213 15.8268784,27.4642213 C16.0780992,27.4642213 16.3521582,27.5094299 16.603379,27.5772428 L16.6262173,27.5772428 C16.6490555,27.5772428 16.6718938,27.5546385 16.694732,27.5320342 L22.8153839,18.0382312 C22.8382221,18.0156269 22.8382221,17.9704183 22.8153839,17.947814 C22.3357805,17.4505195 22.0617215,16.794995 22.0617215,16.094262 C22.0617215,15.8908233 22.0845598,15.6873847 22.1302363,15.4839461 C22.1302363,15.4387375 22.107398,15.4161332 22.0845598,15.3935289 C21.3080592,15.0544645 14.433745,12.161115 14.433745,12.1385107 L14.4109067,12.1385107 C14.3880685,12.1385107 14.3652302,12.1385107 14.3652302,12.161115 L8.54147571,17.947814 C8.51863745,17.9704183 8.51863745,18.0156269 8.54147571,18.0382312 L15.0275396,27.5094299 Z M15.6897922,10.9630954 C15.6897922,10.9630954 22.6325935,13.901657 22.9294896,14.0372829 L22.9523278,14.0372829 C22.975166,14.0372829 22.975166,14.0372829 22.9980041,14.0146786 C23.4776055,13.6304052 24.0942359,13.404362 24.7108663,13.404362 C25.0077624,13.404362 25.3046585,13.4495706 25.6015546,13.5399879 L25.6243928,13.5399879 C25.647231,13.5399879 25.6700691,13.5173836 25.6929073,13.4947793 L31.3339334,4.74690728 C31.3567715,4.72430296 31.3567715,4.67909432 31.3339334,4.65649 L26.6521101,0.0226043204 C26.6292719,0 26.6292719,0 26.6064338,0 C26.5835956,0 26.5607575,0 26.5607575,0.0226043204 L15.6897922,10.8274695 C15.666954,10.8500738 15.666954,10.8726781 15.666954,10.8952824 C15.6441159,10.9404911 15.666954,10.9404911 15.6897922,10.9630954 Z M12.9949111,29.1595172 C13.0177492,29.1595172 13.0405874,29.1369129 13.0634255,29.1143087 C13.2004545,28.8430577 13.4059979,28.594411 13.6115413,28.3683686 C13.6343795,28.3457643 13.6343795,28.3005558 13.6115413,28.2779516 C13.5430268,28.1875346 7.35388641,19.236253 7.35388641,19.2136488 C7.33104825,19.1910445 7.33104825,19.1910445 7.28537194,19.1684403 C7.26253378,19.1684403 7.23969563,19.1684403 7.23969563,19.1910445 L0.0228381566,26.3339864 C0,26.3565906 0,26.3791949 0,26.4017991 C0,26.4244034 0.0228381566,26.4470076 0.0685144697,26.4470076 L12.9949111,29.1595172 C12.9720729,29.1595172 12.9720729,29.1595172 12.9949111,29.1595172 Z M12.4010901,30.7192745 C12.4010901,30.6740661 12.3782519,30.6514618 12.3325756,30.6514618 L1.11903601,28.3232274 C1.11903601,28.3232274 1.11903601,28.3232274 1.09619785,28.3232274 C1.07335968,28.3232274 1.05052151,28.3458317 1.02768335,28.3684359 C1.00484518,28.3910401 1.02768335,28.4362485 1.05052151,28.4588527 L6.0520799,33.4317806 C6.07491807,33.4543848 6.09775623,33.4543848 6.09775623,33.4543848 L6.1205944,33.4543848 L12.3325756,30.8096914 C12.3782519,30.7644829 12.4010901,30.7418787 12.4010901,30.7192745 Z" id="Combined-Shape" fill="url(#radialGradient-1)"></path>
                                        <path d="M108.327962,13.5285642 L111.946391,13.5285642 L111.946391,37.0625036 L108.327962,37.0625036 L108.327962,13.5285642 Z M71.3065428,20.1686768 C69.3616083,20.1686768 67.8011375,20.9139931 66.602515,22.3820403 L66.4894374,20.4622862 L63.0971097,20.4622862 L63.0971097,37.0399273 L66.7155926,37.0399273 L66.7155926,25.2503788 C67.4392892,23.8952582 68.5248341,23.217698 69.9722273,23.217698 C70.9673101,23.217698 71.6910067,23.4661367 72.143317,23.9855996 C72.5956274,24.4824771 72.799167,25.2729641 72.799167,26.3118898 L72.799167,37.0399273 L76.41765,37.0399273 L76.41765,26.0860364 C76.3724189,22.1561869 74.6762551,20.1686768 71.3065428,20.1686768 Z M86.9337261,20.1686768 C85.5541886,20.1686768 84.3103433,20.5300419 83.1795748,21.252772 C82.0488064,21.9755021 81.1894224,22.9918414 80.556192,24.3017897 C79.9455771,25.6117381 79.6289619,27.0797837 79.6289619,28.7285118 L79.6289619,29.1802181 C79.6289619,31.6420176 80.3526537,33.6295255 81.777422,35.1201564 C83.2021902,36.6107873 85.0566505,37.3561027 87.3634181,37.3561027 C88.6977249,37.3561027 89.9189548,37.0850789 91.0044926,36.5430313 C92.0900303,36.0009837 92.9494143,35.2330829 93.5826446,34.239329 L91.6377229,32.3195771 C90.5974159,33.6972814 89.2404938,34.3974262 87.5895718,34.3974262 C86.4135726,34.3974262 85.4184964,33.9908905 84.6495738,33.2004045 C83.8580359,32.4099184 83.4283439,31.3258232 83.3152671,29.9481189 L93.8540291,29.9481189 L93.8540291,28.457488 C93.8540291,25.8150059 93.2434141,23.7823274 92.0674149,22.3368672 C90.8235696,20.8914069 89.1274169,20.1686768 86.9337261,20.1686768 Z M90.2356374,27.2152699 L83.3378978,27.2152699 C83.4962066,25.9279087 83.9032863,24.9341562 84.5139059,24.2340123 C85.1245254,23.5112832 85.9386849,23.172504 86.9337686,23.172504 C87.9288524,23.172504 88.7203963,23.488698 89.2857848,24.1210859 C89.8511732,24.7534739 90.1677908,25.7020558 90.258253,26.9442464 L90.258253,27.2152699 L90.2356374,27.2152699 Z M101.995693,33.8553764 C101.746922,33.5843524 101.633844,33.1100605 101.633844,32.4776712 L101.633844,23.2176856 L104.483402,23.2176856 L104.483402,20.4622752 L101.633844,20.4622752 L101.633844,16.4420863 L98.0153578,16.4420863 L98.0153578,20.4622752 L95.3693397,20.4622752 L95.3693397,23.2176856 L98.0153578,23.2176856 L98.0153578,32.6131832 C98.0153578,35.7751295 99.4175213,37.3561027 102.199233,37.3561027 C102.968161,37.3561027 103.759705,37.243176 104.59648,36.9947374 L104.59648,34.103815 C104.166785,34.2167417 103.737089,34.2619124 103.33001,34.2619124 C102.674159,34.2844977 102.244464,34.1489857 101.995693,33.8553764 Z M117.555102,20.4848522 L121.173532,20.4848522 L121.173532,37.0625036 L117.555102,37.0625036 L117.555102,20.4848522 Z M141.708413,31.7323594 L138.293486,20.4848522 L134.38102,20.4848522 L140.057488,36.972162 L139.537333,38.3950394 C139.265948,39.2081122 138.904102,39.7727461 138.429178,40.1115265 C137.97687,40.4503068 137.275792,40.6309896 136.371176,40.6309896 L135.692713,40.5858189 L135.692713,43.4767445 C136.325945,43.6574273 136.913946,43.7477688 137.4341,43.7477688 C139.786103,43.7477688 141.459643,42.3474767 142.454721,39.5694779 L148.877498,20.4848522 L145.010263,20.4848522 L141.708413,31.7323594 Z M128.274795,14.7030786 C127.279717,15.6968308 126.782178,17.1197033 126.782178,18.9716961 L126.782178,20.4849097 L124.317098,20.4849097 L124.317098,23.2403136 L126.782178,23.2403136 L126.782178,37.0625036 L130.400644,37.0625036 L130.400644,23.2403136 L133.679879,23.2403136 L133.679879,20.4849097 L130.400644,20.4849097 L130.400644,19.0168666 C130.400644,17.1874591 131.26003,16.284048 133.001417,16.284048 C133.521571,16.284048 133.996495,16.3292186 134.380957,16.3969744 L134.471419,13.4834736 C133.747725,13.3027913 133.091878,13.2124502 132.436031,13.2124502 C130.672029,13.1898649 129.269873,13.7093263 128.274795,14.7030786 Z M121.173532,13.1898126 L121.173532,16.4420863 L117.555102,16.4420863 L117.555102,13.1898126 L121.173532,13.1898126 Z" id="Combined-Shape" fill="url(#linearGradient-2)"></path>
                                    </g>
                                </g>
                            </g>
                        </g>
                    </g>
                </g>
            </g>
        </g>
    </g>
</svg>