<?xml version="1.0" encoding="utf-8"?>
<!-- Generator: Adobe Illustrator 16.0.0, SVG Export Plug-In . SVG Version: 6.00 Build 0)  -->
<!DOCTYPE svg PUBLIC "-//W3C//DTD SVG 1.1//EN" "http://www.w3.org/Graphics/SVG/1.1/DTD/svg11.dtd">
<svg version="1.1" id="Layer_1" xmlns="http://www.w3.org/2000/svg" xmlns:xlink="http://www.w3.org/1999/xlink" x="0px" y="0px"
	 width="99.726px" height="108.751px" viewBox="0 0 99.726 108.751" enable-background="new 0 0 99.726 108.751"
	 xml:space="preserve">
<g id="git">
	<g>
		<path fill-rule="evenodd" clip-rule="evenodd" d="M61.229,64.825c3.233-0.092,5.096-1.549,7.694-2.279
			c2.114-1.301,5.56-1.273,7.689-2.562c2.8-0.621,4.5-2.338,6.551-3.701c1.924-1.496,3.74-3.096,5.699-4.559
			c1.383-2.418,3.179-4.414,3.701-7.695v-7.402c-0.484-3.312-1.452-6.145-2.277-9.117c-0.574-0.373-0.963-0.936-1.141-1.707
			c-0.971-0.734-1.828-1.59-2.561-2.561c-1.299-0.51-2.457-1.16-3.137-2.281c0.643-0.209,0.113-1.6,0.285-2.277
			c0.645-0.213,0.112-1.602,0.285-2.279c0.817-0.041-0.248-1.955,0.568-1.996c-0.221-1.176,0.439-1.463,0.289-2.564
			c0.516-2.568,2.285-6.289,0.568-8.543c-0.367-0.396-1.24-0.283-1.996-0.287c-0.336,0.137-0.645,0.305-0.854,0.57
			c-1.163,0.451-1.745,1.482-2.848,1.996c-0.752,0.859-2.014,1.213-2.564,2.279c-1.954,1.365-3.371,3.271-5.413,4.555
			c-1.308-0.072-1.769,0.697-2.847,0.854c-1.217,0.016-2.088,0.383-3.136,0.574c-2.159,0.303-4.308,0.627-6.552,0.852
			c-0.979,0.125-1.594-0.113-2.279-0.285c-0.896-0.139-0.645,0.873-1.707,0.572c-2.825-0.371-6.92,0.234-10.541,0
			c-1.134-0.293-2.432-0.418-3.703-0.572c-1.461-0.91-2.766-1.98-3.705-3.422c-2.373-0.754-4.038-2.221-6.549-2.846
			C29.295,7.7,29.2,5.891,27.049,6.145c-2.42,0.143-2.676,2.451-3.416,4.273c0.068,4.389-0.49,7.834,0,11.965
			c-0.104,0.943-0.854,1.232-1.425,1.711c-0.511,0.535-0.774,1.314-1.425,1.707c-0.854,1.236-1.439,2.74-2.281,3.986
			c-0.145,1.756-0.697,3.102-0.855,4.84v7.125c0.57,0.965,0.307,2.109,0.57,3.133c0.031,0.123,0.513,0.695,0.57,0.857
			c0.151,0.422,0.188,0.854,0.287,1.137c0.279,0.836,0.537,1.375,0.566,1.996c0.016,0.283,0.254,0.182,0.287,0.285
			c0.539,1.58,0.783,3.195,1.426,4.557c0.254,0.543,0.771,1.119,1.139,1.711c0.479,0.77,0.612,0.992,1.141,1.42
			c0.094,0.078-0.082,0.473,0,0.574c0.988,1.207,2.428,1.838,3.133,3.131c2.387,1.123,4.455,2.568,7.975,2.564
			c0.211,0.641,1.596,0.109,2.281,0.283c0.412,0.441,1.455,0.254,2.274,0.287c1.399,0.408,2.989,0.621,4.847,0.568
			c-0.652,0.775-1.262,1.586-1.996,2.279c-0.538,0.98-1.779,1.258-1.996,2.564c-0.9,0.809-0.505,2.91-1.424,3.703
			c-3.181,0.139-5.988-0.09-7.975-1.141c-2.75-3.037-3.968-7.613-7.691-9.686c-2.846-0.516-5.75,0.219-8.831,0.285
			c-1.202,0.979-2.782,1.588-3.987,2.562c-1.449,0.736-3.121,1.252-3.135,3.42c2.914,2.176,5.346-1.805,8.549-1.994
			c1.871-0.068,3.105,0.502,5.127,0.285c1.205,1.547,2.09,3.414,2.85,5.41c0.988,1.195,2.035,2.334,2.85,3.705
			c0.709-0.051,0.887,0.439,1.137,0.855c2.019,1.018,4.277,1.797,7.121,1.994h4.273c1.477,1.629,1.758,4.047,1.422,6.549
			c-0.057,0.439-0.413,0.936-0.566,1.428c-0.287,0.877-0.408,1.623-0.573,2.275c-0.253,1.012-1.192,1.883-1.14,2.85
			c-1.831,1.395-3.32,3.131-6.552,3.135c-1.958-0.037-1.927-2.059-4.271-1.713c-0.254-1.072-0.396-2.258-1.994-1.992
			c-1.221,0.5-1.365,2.914-0.856,4.277c0.468,1.43,1.165,2.631,1.71,3.982c2.193,1.795,6.561,1.42,10.54,1.426
			c0.599-0.543,1.356-0.918,2.28-1.141c2.018-2.445,3.775-5.146,5.695-7.691c0.203-1.316,0.939-2.1,1.139-3.416
			c0.332-0.926,1.471-2.162,2.279-1.707c0.557,4.191,0.174,9.316,0.285,13.955c-0.629,0.984-0.881,2.352-1.424,3.418
			c-1.592-0.076-2.637,0.404-3.42,1.143c0.281,1.619,1.217,2.582,2.279,3.414c2.973,0.316,4.619-0.699,6.268-1.707
			c0.789-1.777,1.532-3.596,1.993-5.695c0.108-3.609-0.06-7.912,0-12.248c0.382-1.619,0.854-3.139,0.856-5.131
			c0.604-1.391,0.037-3.947,0.855-5.125c0.063,1.832,0.455,3.34,0.287,5.41c0.989,6.51,4.521,10.482,6.547,15.953
			c2.01,1.885,3.969,3.818,7.691,3.986c0.244-0.424,0.92-0.414,1.425-0.568c0.668-0.945,1.377-1.852,1.14-3.701
			c-0.223-0.064-0.331-0.24-0.283-0.574c-0.785-1.682-3.239-1.697-4.56-2.846c-0.786-2.535-2.346-4.301-3.417-6.555
			c-0.695-2.152-1.25-4.445-2.283-6.264c0.083-1.506-0.734-2.113-0.566-3.701c-0.59-0.074-0.076-1.252-0.571-1.426
			c-0.212-0.975,1.158-0.363,0.858-1.424c1.191,1.176,1.646,3.096,2.278,4.838c1.854,2.803,3.562,5.744,6.264,7.693
			c2.239,2.514,5.177,4.322,9.118,5.129h3.701c0.046-0.525,0.967-0.176,1.139-0.57c0.191-0.383,0.612-0.531,1.141-0.57
			c1.033-1.053,1.722-2.453,2.562-3.705c0.578-1.322,1.092-4.285-0.283-5.125c-3.572-0.061-3.898,3.131-6.838,3.703
			c-5.34-1.229-8.856-5.508-11.106-9.4c-0.168-0.283-0.11-0.531-0.288-0.854c-1.568-2.883-3.458-5.752-4.559-8.832
			c-0.841-0.678-1.352-1.684-1.991-2.561c-0.501-0.258-0.885-0.641-1.138-1.139C61.531,65.815,60.63,64.915,61.229,64.825z
			 M78.039,21.815c0.012,0.018,0.26-0.537,0.285-0.572c0.016-0.02-0.023-0.283,0-0.283C79.338,20.782,78.351,22.225,78.039,21.815z
			 M76.328,28.936c-0.582-0.086-0.559-0.773-1.14-0.855c0.401-1.5,1.283-2.516,1.709-3.986c0.512-0.039,0.601,0.344,1.142,0.285
			C78.508,26.936,76.736,27.25,76.328,28.936z M78.324,31.784c-0.016-1.246,0.709-1.758,1.139-2.564
			c0.502,0.26,0.521,0.996,0.854,1.424c0.071,1.021-0.855,1.045-0.854,1.998C78.881,32.557,78.904,31.866,78.324,31.784z
			 M86.867,42.893c0.605,0.09-0.042,1.242-0.281,1.424c0.135,0.898-0.41,1.113-0.572,1.709c-0.846,0.674-0.799,2.24-2.279,2.279
			c-1.328-0.021,0.336-0.652,0.285-1.141c0.26-0.504,0.689-0.832,0.857-1.422C85.763,45.014,86.268,43.909,86.867,42.893z
			 M84.588,40.327c-0.013-0.867,0.604-1.105,0.857-1.705C86.825,38.985,85.238,41.133,84.588,40.327z M84.877,28.936
			c0.715,1.037,2.073,3.336,0.852,4.555c-1.139-0.287-1.141-1.707-1.994-2.277C83.867,30.206,84.455,29.655,84.877,28.936z
			 M84.02,42.323c-0.996,0.996-1.84,2.145-2.562,3.42c-0.92-0.756,0.24-1.83,0.57-2.279c0.579-0.557,0.932-1.346,1.422-1.996
			C83.799,41.592,84.037,41.834,84.02,42.323z M83.164,26.94c-0.005,0.568-0.776,0.363-0.568,1.141
			c-1.079-0.154-1.256-1.213-1.426-2.279C82.338,25.68,82.66,26.401,83.164,26.94z M82.027,33.78
			c0.947,0.695,1.961,2.256,0.855,3.416c-0.902-0.242-0.812-1.471-1.713-1.711C81.442,34.905,81.754,34.354,82.027,33.78z
			 M80.316,40.327c-1.045-0.584-0.016-1.484-0.287-2.844c0.633,0.223,0.715,0.992,1.141,1.422
			C81.309,39.799,80.406,39.655,80.316,40.327z M80.887,9.28c0.824,0.936-0.551,2.098-0.285,3.42
			c-1.217,0.076-1.239-1.041-1.995-1.428C79.245,10.487,80.396,10.215,80.887,9.28z M76.613,12.413h0.855
			c0.013,1.945,2.867,2.043,1.994,3.99c-1.472-0.525-2.123-1.867-3.135-2.85C76.209,12.956,76.522,12.799,76.613,12.413z
			 M74.904,16.12c0.461-0.084,0.491,0.266,0.854,0.283c0.093,1.326,1.617,1.229,1.71,2.561c-0.385,0.281-0.571,0.762-0.855,1.141
			c-1.445-0.168-1.45-1.773-2.564-2.277C74.162,17.086,74.9,16.965,74.904,16.12z M74.904,31.213
			c-0.987,0.199-1.021-0.998-0.568-1.426C74.912,29.995,75.496,30.647,74.904,31.213z M72.344,15.545
			c0.148-0.439,0.293-0.018,0.283,0.285C72.117,15.913,72.042,15.561,72.344,15.545z M72.627,20.387
			c0.461-0.078,0.488,0.271,0.853,0.285c0.005,1.23,1.421,1.049,1.425,2.281c-0.892,1.197-1.438,2.74-2.277,3.986
			c-1.279-0.145-1.961-0.887-2.852-1.422C70.783,23.862,71.619,22.043,72.627,20.387z M71.2,30.073h-3.704
			c0.009-0.852,0.744-0.971,0.857-1.711c0.729,0.035,0.997,0.527,1.422,0.857C70.504,29.254,71.24,29.274,71.2,30.073z
			 M68.924,17.827c-0.08-0.463,0.269-0.49,0.283-0.857c1.105-0.246,1.015,0.697,1.71,0.857c-0.413,1.199-1.479,1.748-1.71,3.133
			c-1.096,0.518-0.854,2.373-2.278,2.564c-1.12-0.84-0.128-2.201,0.567-2.852C67.813,19.565,68.287,18.614,68.924,17.827z
			 M66.645,17.254c-0.811,1.186-1.581,2.408-2.278,3.705C62.176,20.059,63.594,16.315,66.645,17.254z M64.65,25.518
			c0.564,0,0.362,0.773,1.138,0.566c-0.104,1.695-1.208,2.4-0.851,4.559c-0.254-0.221-0.646-0.307-1.143-0.283
			c0.609-1.066-0.032-1.619-0.569-2.279C63.521,27.047,64.171,26.364,64.65,25.518z M62.654,23.524
			c-0.313,1.486-1.463,2.137-1.711,3.701c-0.576-0.271-1.126-0.582-1.707-0.855c0.522-1.471,1.607-2.381,1.993-3.986
			C62.066,22.401,62.287,23.032,62.654,23.524z M61.518,17.542c0.146,0.145-0.207,0.361-0.288,0.285
			C61.084,17.676,61.438,17.463,61.518,17.542z M56.675,22.098c0.609-0.527,0.753-1.529,1.422-1.994
			c-0.081-0.461,0.271-0.488,0.29-0.857c0.58,0.086,0.555,0.773,1.135,0.857c-0.192,1.039-1.079,1.391-1.425,2.279
			c-0.638,0.596-0.693,1.773-1.709,1.996C55.447,23.68,56.324,22.993,56.675,22.098z M58.951,29.788
			c-0.123,0.641-1.402,0.115-1.994,0.285c0.104-0.373,0.502-0.447,0.57-0.854C58.406,29.004,58.074,30.002,58.951,29.788z
			 M48.697,17.542h7.69c-0.358,1.916-1.985,2.572-2.562,4.273c-0.851-0.004-0.967-0.742-1.71-0.855
			c0.215-1.213,1.332-1.518,1.141-3.133c-1.443-0.117-1.668,0.994-2.564,1.42c-0.713,0.053-0.891-0.436-1.137-0.854
			C49.287,18.09,48.504,18.305,48.697,17.542z M54.965,30.073c-0.489,0.654-2.174,0.104-3.137,0.287
			c0.689-1.217,1.539-2.262,1.997-3.703c0.423,0.145,0.72,0.422,1.14,0.568C54.342,27.907,54.182,29.42,54.965,30.073z
			 M50.406,27.225c-0.834-0.021-1.055-0.652-1.424-1.141c0.214-1.117,1.113-1.545,1.424-2.561c0.662,0.189,0.762,0.943,1.422,1.137
			C51.385,25.545,50.984,26.475,50.406,27.225z M48.982,30.36c-0.771,0.174-2.26-0.359-2.562,0.283
			c-0.851-0.592,0.714-1.158,0.567-1.994C47.705,29.167,48.938,29.165,48.982,30.36z M46.421,20.104
			c0.912,0.225,1.242,1.031,1.991,1.424c-0.236,1.279-1.469,1.566-1.709,2.852c-0.934-0.113-1.254-0.836-1.994-1.139
			C44.854,21.768,46.205,21.504,46.421,20.104z M39.582,17.542v0.285c2.342-0.68,3.188,1.133,5.414,0.281
			c0.05,1-0.963,0.941-1.143,1.713c-0.749,0.197-0.602,1.293-1.422,1.422c-1.371-0.432-2.178-1.428-3.136-2.279
			c-0.063-0.537,0.325-0.625,0.286-1.137c-0.686-0.117-0.619,0.52-1.426,0.281C37.865,17.151,39.043,17.667,39.582,17.542z
			 M44.426,26.657c-0.4,1.873-2.175,2.383-2.279,4.557c-0.826-0.219-1.639-0.451-1.996-1.141c0.439-1.744,1.737-2.631,2.281-4.271
			C43.535,25.647,43.604,26.528,44.426,26.657z M37.588,21.528c0.15,0.148-0.207,0.367-0.287,0.287
			C37.158,21.667,37.509,21.45,37.588,21.528z M38.156,22.098c0.625,0.611,1.586,0.885,1.994,1.709
			c-0.788,1.775-2.201,2.924-2.85,4.842c-1.163-0.445-2.141-1.086-3.133-1.709C34.859,24.688,37.3,24.182,38.156,22.098z
			 M35.309,33.78c-0.951,0.186-1.393,0.885-2.274,1.139c-1.122-0.213-1.551-1.111-2.567-1.428c0.363-1.631,1.43-2.557,1.996-3.986
			c1.66,0.045,2.117,1.299,3.416,1.709C35.574,31.952,35.188,32.612,35.309,33.78z M29.043,29.788
			c-0.527,0.5-0.861,2.129-1.709,1.426c0.469-1.717,1.482-2.883,2.279-4.273c0.377,0.102,0.449,0.502,0.854,0.568
			C30.271,28.549,29.388,28.899,29.043,29.788z M31.322,24.661c0.148,0.148-0.205,0.361-0.285,0.285
			C30.888,24.801,31.246,24.583,31.322,24.661z M37.021,16.403c-0.77,0.838-1.58-0.691-2.281-0.857
			C35.414,14.799,36.223,16.327,37.021,16.403z M34.74,18.963c-0.844,1.725-2.404,2.727-3.136,4.561
			c-0.579-0.086-0.556-0.773-1.138-0.857c0.623-2.033,1.84-3.479,2.85-5.125C34.066,17.737,33.918,18.836,34.74,18.963z
			 M28.472,16.12v-4.277c1.351,0.74,2.956,1.223,4.274,1.998c-0.584,0.266-0.791,0.916-1.142,1.422
			c0.155,1.006-1.009,0.701-0.853,1.707c-0.927,0.781-1.48,1.941-1.992,3.135C28.1,19.336,28.658,17.356,28.472,16.12z
			 M27.619,22.667c0.15-0.439,0.297-0.02,0.285,0.287C27.395,23.032,27.321,22.684,27.619,22.667z M27.049,24.661
			c1.312,0.514-0.67,1.246-0.566,2.279c-0.832,0.406-0.648,1.826-1.713,1.996C24.965,26.946,26.271,26.065,27.049,24.661z
			 M23.633,39.473c0.722-2.023,1.502-4,2.275-5.982h0.857c-0.547,1.666-1.682,3.846-0.857,5.982
			c-0.708,0.721-1.473,1.375-1.708,2.566C23.469,41.723,23.638,40.508,23.633,39.473z M29.896,37.196
			c-0.788,0.068-0.648,1.059-1.137,1.426c-0.117,0.686,0.516,0.617,0.283,1.422c-2.443,2.654-3.17,9.92-1.139,13.674
			c0.344-0.029,0.175,0.414,0,0c-1.695-1.438-2.41-3.855-3.135-6.268c0.422-2.713,1.751-4.518,2.279-7.123
			c0.66-0.191,0.764-0.943,1.423-1.141c-0.2-1.055,0.487-1.221,0.288-2.277c0.332-0.172,0.414-2.006,1.137-0.855
			C31.15,36.014,29.977,36.862,29.896,37.196z M44.426,58.846c-2.873-0.359-5.729-0.73-8.547-1.141
			c-1.062-0.932-2.092-1.896-2.845-3.137c-0.444-0.602-0.821-1.268-1.143-1.988c-0.504-0.451-0.375-1.529-0.854-1.998
			c-0.024-2.777,0.256-5.248,0.567-7.689c0.413-1.676,1.786-2.393,2.563-3.707c1.209-0.881,2.054-2.125,3.42-2.844
			c0.652-0.207,1.455-0.256,1.994-0.572c0.51-0.346,1.658-0.049,1.993-0.566c6.941,0.385,11.862-1.242,18.8-0.855
			c1.465,0.229,1.871-0.604,3.134-0.568h6.267c0.458,0.076,0.495-0.273,0.854-0.289c0.87-0.207,0.842,0.492,1.714,0.289
			c0.72,0.033,1.103,0.41,1.136,1.139c0.375,0.289,1.048,0.277,1.425,0.566c0.851,2.57,1.904,4.936,2.564,7.695v4.555
			c-0.902,3.084-2.186,5.791-3.701,8.262c-1.013,0.795-2.643,0.965-3.704,1.709c-0.635,0.225-1.11,0.6-1.996,0.568
			c-0.101,0.756-1.45,0.26-1.709,0.855C58.688,59.776,52.053,58.934,44.426,58.846z M67.784,50.014
			c2.287,0.195,2.596-1.582,3.416-2.85c-0.042-3.562,0.579-7.795-2.847-7.979h-0.569c-1.2,1.174-2.536,2.223-3.134,3.994
			c-0.044,1.561-0.029,3.068,0.287,4.27C66.009,48.182,66.012,49.983,67.784,50.014z M38.727,50.866
			c1.245,0.82,2.856,0.992,4.277,0.287c2.066-2.088,1.109-7.662-0.289-9.686C37.949,40.04,36.926,47.383,38.727,50.866z
			 M54.965,51.153c0.048-0.33,0.449-0.307,0.855-0.287c0.572-0.67,0.752-1.908,0.287-2.844c-1.072-1.023-3.078-0.453-3.139,1.139
			C53.138,50.325,53.803,50.983,54.965,51.153z M56.107,54.288c-0.941,0.01-1.422,0.479-2.566,0.281
			c-1.865-0.127-1.971-2.016-3.986-1.988c-0.16,0.406-0.446,0.693-0.857,0.85c0.449,2.971,3.086,3.75,6.268,3.992
			c0.666-0.092,1.066-0.451,1.992-0.289c1.387-0.92,4.637-2.285,2.85-4.553C57.83,52.401,57.377,53.752,56.107,54.288z"/>
	</g>
</g>
</svg>
