<?xml version="1.0" encoding="utf-8"?>
<!-- Generator: Adobe Illustrator 16.0.0, SVG Export Plug-In . SVG Version: 6.00 Build 0)  -->
<!DOCTYPE svg PUBLIC "-//W3C//DTD SVG 1.1//EN" "http://www.w3.org/Graphics/SVG/1.1/DTD/svg11.dtd">
<svg version="1.1" id="Layer_1" xmlns="http://www.w3.org/2000/svg" xmlns:xlink="http://www.w3.org/1999/xlink" x="0px" y="0px"
	 width="83px" height="87px" viewBox="0 0 83 87" enable-background="new 0 0 83 87" xml:space="preserve">
<g id="plus">
	<g>
		<path fill-rule="evenodd" clip-rule="evenodd" d="M76.409,37.313c-1.037-0.685-1.266-2.186-2.739-2.438
			c-1.413-0.688-3.387,0.385-5.479,0c-1.175-0.16-1.481,0.545-2.739,0.307c-0.825,0.188-2.413-0.388-2.739,0.304
			c-3.958-0.165-9.032,0.266-11.261,0c-0.043-4.507-0.038-8.968,0.303-13.087c-0.074-2.309,0.251-4.216,0.611-6.088
			c0.123-2.096,1.121-3.945,0.305-6.09c-1.018-0.604-1.413-1.83-3.348-1.52c-1.904,1.243-5.436,0.856-8.524,0.912
			c-1.39,0.336-2.936,0.512-3.958,1.217c-0.753-0.264-2.36-0.595-3.041,0c-1.142,0.992-1.336,2.925-1.219,5.175
			c-0.198,6.497,0.399,13.795-0.305,19.785c-5.843,0.651-12.87,0.117-18.568,0.914c-0.89-0.022-1.129-0.697-1.519-1.219
			c-0.761-0.256-1.632-0.399-2.741-0.304c-1.912,1.029-2.318,3.564-2.129,6.697c-0.428,2.613-0.298,5.792-0.306,8.828
			c0.563,0.655,0.33,2.104,0.915,2.738c0.479,0.836,1.035,1.601,1.827,2.128c1.465,0.562,3.849,0.208,5.781,0.307
			c1.18,0.161,1.486-0.545,2.738-0.307c0.573-0.443,2.019-0.011,2.436-0.606c2.123,0.092,3.548-0.515,5.48-0.61h3.042
			c0.926,0.191,2.623-0.39,3.044,0.304v21.005c0.907,1.124,1.474,2.586,3.042,3.042c3.163,0.694,7.6,0.113,11.262,0.303
			c1.812-0.363,4.875-0.38,5.785-0.604c0.932-0.235,0.748-0.467,1.218-0.917c0.557-0.531,1.266-0.877,1.217-1.823
			c0.202-1.829-0.464-2.783-1.217-3.655c-1.032-0.689-0.788-2.66-1.522-3.651c0.215-5.087-0.319-9.421-0.307-14.306
			c4.994-0.489,10.703-0.255,16.133-0.305c1.382-0.446,3.347-0.305,4.568-0.912c1.181-0.746,3.127-0.727,3.954-1.828
			C77.971,47.018,75.883,42.218,76.409,37.313z M22.234,45.529c-1.133,0.596-0.275,3.18-2.132,3.043
			c0.102-2.532,0.88-4.394,1.217-6.693h2.436C23.305,43.154,22.347,43.919,22.234,45.529z M28.318,47.661h-1.523
			c-0.019-2.052,0.718-3.341,0.915-5.173c-0.167-0.676,0.581-0.436,0.608-0.914c0.516-0.113,0.574,0.238,0.61,0.607
			C28.098,43.356,27.673,45.953,28.318,47.661z M39.886,68.054c-0.269,0.745-0.273,1.756-1.216,1.827
			c1.593-5.713,4.449-10.161,6.086-15.828c0.692,0.326,0.114,1.914,0.304,2.737c0.429,1.702,0.228,4.038,0.605,5.784
			c-0.349-0.254-0.813-0.4-1.519-0.302c-1.451,0.781-1.935,2.525-3.043,3.651C40.654,66.589,40.509,67.562,39.886,68.054z
			 M40.492,46.139c0.758,0.047,0.09,1.031,0,1.217C39.737,47.31,40.404,46.326,40.492,46.139z M45.975,71.099
			c-0.529,0.788-2.021,0.615-3.35,0.604c0.345-3.201,2.428-4.668,2.741-7.911c0.259-0.057,0.285,0.118,0.3,0.305
			c-0.32,1.343,0.603,2.354,0,3.044C45.874,68.455,46.506,69.924,45.975,71.099z M45.06,28.485
			c-0.722,1.408-1.345,2.915-2.435,3.955c-0.499,0.516-0.66,1.369-1.216,1.827c-0.252,0.767-0.399,1.632-1.523,1.522
			c0.46-2.788,1.429-5.064,2.131-7.609c0.622-2.151,2.5-4.55,1.521-7.306c-1.845,0.085-2.496,1.36-3.046,2.74
			c-1.041,0.888-1.671,2.184-2.13,3.651c-0.919-0.46,0.254-1.336,0-2.128c0.421-0.391,0.188-1.438,0.61-1.829
			c0.289-1.437,0.665-2.786,0.913-4.259c-0.244-1.564-1.775-0.21-2.132-0.611c0.064-0.949-0.205-2.232,0.304-2.738
			c2.125-0.652,5.7-1.354,8.22-0.609C45.528,19.215,45.336,23.891,45.06,28.485z M56.624,46.746c-0.96-0.147-1.075,0.55-2.127,0.309
			c-0.322-2.517-0.18-3.868,0.608-5.786h3.349C57.748,42.932,55.734,44.455,56.624,46.746z M70.019,46.441
			c-1.894,0.035-3.352,0.508-5.478,0.305c0.238-1.353-0.404-1.826-0.303-3.043c-0.718-0.297-0.275-1.756-0.915-2.129
			c1.343-0.991,4.184-0.484,6.392-0.609C69.561,43.048,70.254,44.279,70.019,46.441z"/>
	</g>
</g>
</svg>
