<?xml version="1.0" encoding="utf-8"?>
<!-- Generator: Adobe Illustrator 16.0.0, SVG Export Plug-In . SVG Version: 6.00 Build 0)  -->
<!DOCTYPE svg PUBLIC "-//W3C//DTD SVG 1.1//EN" "http://www.w3.org/Graphics/SVG/1.1/DTD/svg11.dtd">
<svg version="1.1" id="Layer_1" xmlns="http://www.w3.org/2000/svg" xmlns:xlink="http://www.w3.org/1999/xlink" x="0px" y="0px"
	 width="63.843px" height="110px" viewBox="0 0 63.843 110" enable-background="new 0 0 63.843 110" xml:space="preserve">
<g id="balloon">
	<g>
		<path fill-rule="evenodd" clip-rule="evenodd" d="M42.964,69.703c3.101-1.705,5.574-4.036,8.114-6.309
			c3.795-5.519,6.636-11.992,9.013-18.928c2.697-6.674,4.252-14.856,3.606-24.036c-0.654-3.754-1.316-7.497-3.307-9.914
			c-1.373-3.133-4.082-4.931-6.31-7.212C51.007,1.871,47.822,0.549,43.866,0h-9.315C22.527,1.497,14.293,6.781,7.812,13.82
			c-0.477,1.326-1.495,2.109-2.104,3.305c-0.828,1.074-1.65,2.153-2.102,3.605c-0.771,1.033-1.37,2.236-1.801,3.605
			c-0.825,1.08-0.804,3.004-1.505,4.207C0.512,30.559-0.009,31.84,0,33.65c0.089,4.282,1.126,7.727,2.404,10.816
			c1.299,3.137,2.72,6.031,4.509,8.713c1.691,2.711,3.801,5.011,6.006,7.209c1.258,0.949,2.149,2.257,3.607,3.006
			c1.24,1.062,2.263,2.343,3.902,3.005c0.541,0.965,1.069,1.936,1.804,2.702c1.006,0.2,1.471,0.937,2.405,1.203
			c0.641,0.564,1.912,0.49,2.404,1.201c0.944-0.147,1.061,0.544,2.102,0.303c0.207,0.591,1.676-0.074,1.802,0.601
			c-1.094,2.954-3.974,6.835-2.101,10.815c1.3,0.312,2.549,0.896,3.603,0c1.369-0.045,2.278-1.777,3.609-0.901v3.906
			c-1.322,2.02-5.113,1.271-7.813,1.802c-2.152-0.553-4.72-0.689-7.512-0.601c-1.621,0.981-2.924,2.285-3.905,3.906
			c-0.402,2.183-0.558,5.435,0.299,7.211c2.919,5.394,9.96,6.667,18.329,6.608c0.35-0.25,0.805-0.395,1.502-0.3
			c4.438-2.067,10.305-2.715,17.125-2.404c1.076,0.829,2.03,1.776,2.705,3.005c0.463,0.436,0.263,1.539,0.298,2.404
			c-0.19,1.193,0.383,1.621,0.901,2.103c1.35,0.249,1.344-0.86,2.105-1.201v-3.306c-0.752-2.352-2.166-4.044-3.908-5.407
			c-0.555-0.042-1.002-0.198-1.199-0.601c-0.45-0.052-1.108,0.106-1.201-0.301c-7.013-0.191-12.843-0.24-18.027,1.804
			c-4.899,0.189-9.224-0.193-12.619-1.503c-1.012-0.992-2.257-1.748-2.707-3.306c-0.022-1.829-0.176-3.782,0.902-4.507
			c1.572-1.254,3.888-0.395,6.01-0.3c2.397,0.104,4.812-0.081,7.21,0c0.371-0.433,1.035-0.57,1.806-0.601
			c0.929-0.976,2.257-1.547,2.702-3.006c0.771-0.633,0.59-2.217,0.601-3.605c1.033,0.132,1.687-0.119,2.402-0.3
			c0.466-0.839,0.277-2.331,1.507-2.402c1.81,0.166,3.495,1.46,5.406,0.601c0.347-0.979,0.563-3.271,0-4.207
			c-0.548-1.057-1.464-1.744-1.805-3.005c-1.14-0.462-1.263-1.941-2.405-2.402c0.145-0.944-0.808-0.796-0.898-1.503
			c-0.337-0.064-0.471-0.334-0.6-0.602C42.939,70.233,42.544,69.812,42.964,69.703z M45.971,78.718
			C46.333,78.688,46.153,79.154,45.971,78.718c-1.064-0.442-2.225-0.781-3.909-0.601c-0.939,0.06-1.227,0.773-1.801,1.201
			c-1.347-0.352-1.639-1.765-3.605-1.502c-0.089-2.356,1.119-4.105,0.301-6.311c1.386,0.617,2.525,1.479,4.207,1.803
			C42.728,75.149,44.531,76.752,45.971,78.718z M41.163,65.799c-1.774-0.708-3.156,0.067-4.508,0.601
			c-0.035-1.265-0.449-2.155-1.504-2.402c-1.593-0.193-1.71,1.09-2.403,1.802c0.183,0.623-0.371,1.973,0.303,2.102
			c-0.514,1.058-0.659-0.699-0.902-0.9c-0.863-1.438-2.672-1.934-3.905-3.003c-0.018-1.987,0.329-4.338-1.201-4.81
			c-1.649-0.045-1.691,1.517-2.404,2.404c-1.543-0.559-2.434-1.772-3.307-3.004c-0.379-3.024,1.108-5.648,0.604-7.812
			c-2.428,0.078-2.769,2.24-3.605,3.906c-1.326-1.179-2.514-2.495-3.307-4.207c0.146-1.053,0.447-1.953,0.3-3.303
			c0.273-0.831,0.094-2.11,0.602-2.705c-0.109-2.414,1.144-3.464,1.201-5.71c-0.269-0.812-1.104,0.253-1.201,0.603
			c-0.612,0.089-0.59,0.812-1.202,0.901c-0.892,2.108-1.669,4.338-2.102,6.911c-0.931-1.376-1.812-2.797-2.405-4.507
			c0.009-2.497,0.694-4.315,0.902-6.61c0.621-0.584,0.584-1.822,1.201-2.404c0.127-1.074,0.801-1.603,0.601-3.006
			c-2.815-1.685-4.246,2.328-4.809,4.807c-0.818-0.68-0.563-2.439-0.599-3.903v-4.509c0.253-1.448,0.411-2.992,0.599-4.504
			c5.19-9.231,13.277-15.568,25.842-17.428c1.816-0.087,4.044,0.24,5.405-0.301c4.867,0.043,8.753,1.065,12.019,2.705
			c3.393,3.319,6.618,6.802,7.213,12.919v9.914c-1.505,9.813-4.982,17.651-8.113,25.838c-0.764,0.338-1.466,0.738-2.101,1.203
			C47.774,61.996,44.074,63.503,41.163,65.799z"/>
	</g>
</g>
<g id="flash1">
	<g>
		<path fill-rule="evenodd" clip-rule="evenodd" d="M47.93,34.173c-1.093-1.016-2.355-1.896-3.64-2.757
			c-0.627-0.462-1.313-0.875-2.009-1.279c-0.291-0.231-0.719-0.351-1.011-0.581c-0.268-0.285-0.834-0.329-0.998-0.698
			c1.309-2.725,2.711-5.335,3.729-8.418c0.568-1.469,1.027-3.07,1.548-4.598c0.414-0.553,0.618-1.363,0.926-2.045
			c0.101-0.288,0.386-0.604,0.463-1.024c0.09-0.486,0.026-0.906-0.1-1.318c-0.291-0.285-0.6-0.317-0.942-0.098
			c-0.427-0.156-0.562-0.55-1.258-0.487c-0.164,0.02-0.242,0.143-0.483,0.068c-0.973,0.661-1.833,1.459-2.729,2.215
			c-0.412,0.423-0.79,0.886-1.206,1.303c-0.233,0.643-0.846,0.818-1.101,1.433c-1.398,0.933-2.556,2.162-3.898,3.165
			c-0.506,0.705-1.265,1.096-1.737,1.843c-0.675,0.54-1.064,1.432-1.75,1.959c-1.115,1.326-2.322,2.539-3.487,3.803
			c-0.24,0.369-0.509,0.703-0.817,0.985c-0.276,0.326-0.449,0.775-0.817,0.986c-0.177,0.444-0.414,0.818-0.709,1.116
			c-0.239,0.293-0.85,0.648-0.594,1.128c-0.123,1.07,0.786,1.303,1.36,1.807c0.413,0.672,1.154,1.074,1.736,1.607
			c0.803,0.355,1.213,1.026,1.997,1.397c0.353,0.218,0.667,0.466,1.128,0.593c0.225,0.32,0.865,0.304,0.998,0.699
			c-0.421,1.117-1.088,1.934-1.507,3.056c-0.744,0.721-1.21,1.784-1.823,2.666c-1.146,1.863-2.393,3.604-3.224,5.853
			c0.043,0.453-0.203,0.548-0.216,0.929c-0.087,0.646,0.265,0.935,0.064,1.673c-0.188,0.762,0.053,1.178,0.442,1.473
			c0.563,0.266,1.021,0.042,1.449-0.207c0.04-0.139,0.139-0.058,0.235,0.025c0.039-0.129,0.15-0.17,0.26-0.211
			c0.207-0.144,0.408-0.295,0.637-0.409c0.871-0.434,1.585-1.057,2.42-1.534c1.642-0.987,2.826-2.538,4.524-3.458
			c1.481-1.183,3.012-2.308,4.417-3.587c1.339-1.403,2.995-2.417,4.219-3.964c0.807-0.332,1.317-1.032,2.159-1.322
			c0.692-0.519,1.456-0.951,1.751-1.96C48.41,35.221,48.085,34.766,47.93,34.173z M41.754,38.648
			c-1.01,0.924-2.117,1.729-3.025,2.779c-0.38,0.061-0.396,0.573-0.779,0.632c-0.141,0.358-0.596,0.33-0.779,0.634
			c-0.462,0.538-1.11,0.845-1.571,1.384c-1.164,0.779-2.345,1.536-3.354,2.507c-0.039-0.004-0.078-0.008-0.118-0.012
			c-0.003,0.144-0.179,0.054,0,0c0.013-0.118,0.025-0.235,0.037-0.353c-0.355,0.04-0.556,0.71-0.874,0.385
			c-0.136,0.363-0.405,0.563-0.674,0.764c-0.175,0.315-0.269,0.73-0.779,0.633c-0.291-0.633,0.392-1.069,0.523-1.612
			c0.306-0.464,0.614-0.924,0.971-1.327c0.039-0.352,0.348-0.368,0.426-0.669c0.2-0.197,0.194-0.647,0.44-0.787
			c0.162-0.641,0.439-1.14,0.758-1.587c0.459-1.118,1.088-2.025,1.521-3.173c0.359-0.398,0.505-1.059,0.864-1.458
			c0.237-0.594,0.588-1.046,0.561-1.964c0.003-0.361-0.605-0.227-0.657-0.543c0.063-0.411-0.358-0.429-0.397-0.755
			c-0.204-0.015-0.293-0.124-0.329-0.272c-1.933-0.983-3.655-2.135-4.98-3.61c0.261-0.786,0.97-1.018,1.361-1.644
			c0.604-0.406,0.966-1.11,1.583-1.501c0.097-0.458,0.57-0.449,0.688-0.881c0.306-0.196,0.524-0.503,0.791-0.75
			c0.484-0.554,0.92-1.168,1.479-1.631c0.884-1.167,1.807-2.288,2.838-3.275c0.927-1.221,2.208-1.962,2.745-3.523
			c0.177-0.048,0.307-0.152,0.389-0.316c0.141,0.169,0.423,0.201,0.484-0.068c0.336-0.206,0.434-0.704,1.016-0.608
			c0.264,1.015-0.893,1.362-0.858,2.527c-1.25,1.382-1.87,3.539-2.916,5.171c-0.897,1.816-1.888,3.518-2.178,6.079
			c0.101,0.313,0.23,0.604,0.385,0.873c0.375,0.108,0.557-0.023,0.837-0.032c0.398,0.503,0.94,0.889,1.536,1.23
			c0.467,0.484,1.063,0.862,1.656,1.243c1.042,0.843,2.126,1.652,3.193,2.473C44.051,37.14,42.592,37.511,41.754,38.648z
			 M32.165,46.22C32.342,46.165,32.168,46.076,32.165,46.22L32.165,46.22z"/>
	</g>
</g>
</svg>
