<?xml version="1.0" encoding="utf-8"?>
<!-- Generator: Adobe Illustrator 16.0.0, SVG Export Plug-In . SVG Version: 6.00 Build 0)  -->
<!DOCTYPE svg PUBLIC "-//W3C//DTD SVG 1.1//EN" "http://www.w3.org/Graphics/SVG/1.1/DTD/svg11.dtd">
<svg version="1.1" id="Layer_1" xmlns="http://www.w3.org/2000/svg" xmlns:xlink="http://www.w3.org/1999/xlink" x="0px" y="0px"
	 width="104.5px" height="99.5px" viewBox="0 0 104.5 99.5" enable-background="new 0 0 104.5 99.5" xml:space="preserve">
<g id="robot">
	<g>
		<path fill-rule="evenodd" clip-rule="evenodd" d="M101.97,84.744v-9.883c-0.434-1.543-0.249-3.704-0.282-5.646
			c-0.468-0.286-0.309-1.2-0.566-1.694c-1.548-2.952-5.971-3.835-9.316-2.823c-0.92,0.277-1.587,0.149-2.258,0.283
			c0.295-2.074-0.533-3.922,0-5.366c-0.707-0.704-0.533-2.288-0.848-3.388c-2.535-0.85-6.103-0.674-8.751-1.412
			c-6.589-0.295-11.198,0.579-16.941,0.566c-0.03-1.759-0.471-3.109-0.282-5.083c1.689-0.286,3.674-0.278,5.363-0.564
			c1.233,0.197,1.59-0.48,2.824-0.282c0.859-0.177,2.434,0.36,2.825-0.282c0.956,0.64,1.369,1.827,3.386,1.412
			c0.257-0.498,1.037-0.467,1.129-1.13c0.346-0.504,0.054-1.643,0.566-1.977V26.298c0.314-1.85,1.275-3.056,1.13-5.362
			c-1.063-1.95-4.071-1.956-5.93-3.108c-0.972,0.125-1.584-0.111-2.258-0.281c-11.634-0.058-22.232,0.919-33.036,1.693
			c0.429-2.122-1.317-2.068-1.977-3.106c0.51-1.463,2.049-1.901,1.977-3.952c-0.04-0.807-1.178-0.517-1.977-0.564
			c-0.318-0.529-1.094-0.6-1.411-1.13c0.8-0.985,2.113-1.462,3.104-2.259c0.944-0.682,1.108-2.92,0.567-4.234
			c-3.222-1.195-7.061,0.471-5.648,3.952c-1.468,0.32-3.087,0.487-2.822,2.541c0.066,1.155,1.176,1.269,2.26,1.413
			c0.414,0.902,2.031,0.6,2.821,1.13c-0.598,1.751-3.192,1.511-3.387,3.669c-0.008,0.948,0.389,1.494,0.848,1.977
			c0.243,0.348,1.815,0.782,1.129,1.13c-2.603,0.972-6.249,0.901-9.036,1.692c-1.394,2.842-0.882,7.586-1.41,11.296v9.316
			c-0.228,2.396-0.857,5.479,0,7.341c0.723,0.292,1.943,1.017,2.822,0.282c0.773,0.45,1.706,0.74,2.824,0.848h14.117
			c0.008,1.777,0.555,3.021,0.566,4.8c-2.828,0.098-5.397-0.067-7.91-0.283c-7.016,0.604-12.594,2.649-20.044,2.823
			c-0.047,0.329-0.445,0.308-0.849,0.28c-0.537,0.97-2.076,0.934-2.541,1.979c-0.289,2.408,1.25,4.331,0.85,5.927
			c-0.882-0.343-1.791-0.656-3.108-0.562c-2.954,0.713-5.279,2.059-6.775,4.233c-1.19,3.891-1.845,8.317-1.693,13.553
			c0.526,0.698,0.289,2.155,0.848,2.823c0.16,0.496-0.343,1.659,0.282,1.694c0.163,0.498-0.342,1.659,0.282,1.694
			c0.435,2.197,0.344,4.927,2.54,5.363c3.011-0.123,2.127-3.39,1.415-5.363c-0.391-2.53-0.841-4.995-1.415-7.341
			c-0.171-4.406,0.311-8.161,1.415-11.295c1.721-1.381,4.271-1.938,7.057-2.257c0.538,4.072,1.455,7.769,1.977,11.857
			c-0.271,4.786,0.464,8.567,1.127,12.424c0.28,0.941,1.469,0.978,1.695,1.975c0.129,1.095,0.729,1.717,1.975,1.695
			c1.361-0.051,1.857-0.968,1.979-2.26v-4.517c-0.508-0.812-0.542-2.095-0.851-3.106c-0.071-7.83-0.764-15.045-1.976-21.738
			c4.695-0.952,8.461-2.834,13.27-3.671c4.657-1.085,10.524-0.962,15.531-1.695c9.896-0.313,18.689-0.666,28.797-0.282
			c2.156,0.95,5.283,0.928,7.906,1.413c0.795,8.235-0.238,18.304,0.562,26.539v4.799c0.404,1.293,0.372,3.017,1.977,3.106
			c1.707-0.74,1.371-3.526,1.415-5.931V67.237c3.235,0.153,7.496-0.721,8.47,1.695v17.786c-0.287,1.589-0.945,5.021,1.129,5.084
			c1.711,0.113,2.41-0.791,2.258-2.544C101.889,87.862,102.074,86.448,101.97,84.744z M16.422,62.155h-0.566v-0.563h0.566V62.155z
			 M57.641,50.863c-0.842-0.407-1.72,0.989-1.691-0.282h3.668c-0.084,1.778,0.046,3.343,0.281,4.8
			C57.104,55.918,58.439,52.325,57.641,50.863z M57.359,46.062c-0.676,0.172-2.049-0.355-2.259,0.282
			c-6.905,0.036-13.251-0.489-20.325-0.282c-1.525,0.455-3.947,0.008-4.803,1.129c-0.792-0.284,0.081-1.198,0-1.693v-6.776
			c-0.128-2.884-0.425-5.598-0.281-8.752c-0.324-1.653-0.319-3.634-0.283-5.647c5.498-0.056,9.771-1.336,15.246-1.411
			c5.545,0.086,10.874-0.044,16.095-0.282c0.454,0.079,0.484-0.268,0.848-0.282c4.53,0.269,10.296-0.7,13.549,0.847
			c-1.552,6.146-0.63,14.688-0.562,21.738c-3.503-0.017-6.601,0.367-9.599,0.85c-2.005-0.215-3.227,0.351-5.086,0.281H57.359z
			 M70.063,27.427c-0.22-0.062-0.328-0.234-0.28-0.564c-0.291-0.742-1.121-0.951-1.414-1.693c-3.66-1.622-7.102,0.433-7.62,3.671
			c0.101,2.061,0.153,4.174,1.129,5.364C66.686,36.091,70.371,32.48,70.063,27.427z M67.242,29.687
			c-0.074,1.956-2.055,3.332-3.953,2.54C63.847,30.451,65.91,26.521,67.242,29.687z M44.373,28.274
			c-0.812-1.652-3.378-2.745-5.932-2.259c-1.078,0.206-1.792,1.008-2.54,1.412c0.017,0.487-0.214,0.725-0.563,0.847
			c0.044,1.739-0.609,2.779-0.562,4.52c0.415,0.051,0.255,0.681,0.281,1.128c0.353,0.115,0.574,0.364,0.562,0.848
			c1.016,0.583,1.95,1.252,3.39,1.41c1.557,0.054,2.599-0.412,3.67-0.846C43.955,33.69,44.577,31.399,44.373,28.274z M41.266,33.64
			c-1.139,0.492-2.708-0.047-3.669-0.564c0.252-1.161,1.06-1.764,1.129-3.106c0.642-0.488,1.577-0.681,2.823-0.566
			C41.865,30.673,42.106,32.768,41.266,33.64z M61.029,37.028c-2.004-0.608-4.324,0.432-6.494-0.282
			c-2.058,1.109-4.154,0.491-7.058,0.563c-0.603,0.526-1.876,0.384-2.259,1.13c-0.837,0.385-1.235,1.21-1.693,1.977
			c-0.168,1.582,0.149,2.673,0.566,3.67c1.718,1.395,5.058,0.683,7.339,0.283c3.729-0.037,7.837,0.308,9.88-1.411
			C62.488,41.69,62.56,37.935,61.029,37.028z M48.891,41.545c-0.559,0.457-2.055,0.908-2.826,0.282
			c0.103-1.593,1.395-1.997,2.826-2.26V41.545z M53.408,41.545h-1.697c0.228-0.98-0.417-1.087-0.28-1.978
			c0.365-0.39,1.226-0.278,1.978-0.28V41.545z M59.617,41.262c-0.912,0.577-1.924,0.621-3.105,0.283v-2.258h3.105V41.262z
			 M34.775,77.683c3.498-0.828,7.355-1.301,11.29-1.693C47.087,71,45.93,65.784,42.679,64.132h-4.801
			c-3.371,1.237-6.23,2.992-8.754,5.082c-0.207,0.826-0.682,1.388-1.125,1.976c-0.05,0.423,0.099,1.044-0.285,1.13
			c0.324,1.904-0.539,3.869,0,5.082C29.241,78.284,32.145,77.376,34.775,77.683z M30.258,74.861
			c-0.191-1.599,0.255-2.565,0.562-3.671c1.545-1.745,3.887-2.7,5.928-3.953h4.799c1.218,1.326,1.625,3.461,1.411,6.212
			c-1.002-0.239-1.689,0.818-1.974-0.283c-0.426-0.422-1.19-0.504-1.411-1.129c-1.351-0.146-2.425-1.786-3.956-0.847
			c-0.165,1.015,0.329,1.365,0.563,1.976c0.315,0.192,1.465,0.94,0.85,1.131C35.194,74.907,32.74,74.897,30.258,74.861z
			 M77.689,65.826c-0.878,0.99-0.881,2.418-0.566,3.952c0.752,1.277,3.635,1.436,5.365,0.848c0.418-0.996,0.734-2.09,0.566-3.671
			C82.18,65.685,79.335,64.597,77.689,65.826z M80.795,68.932c-0.734,0.17-1.017-0.114-0.847-0.847
			C80.211,68.386,80.988,68.172,80.795,68.932z M66.961,66.955c-0.392,1.821-0.494,4.241,0.562,5.365
			c1.182,0.7,3.174,0.592,5.081,0.565c1.458-0.992,2.541-2.356,2.26-5.083C73.649,65.594,68.75,64.648,66.961,66.955z
			 M69.783,69.214c0.375-0.402,1.599-0.402,1.978,0C71.916,69.896,69.552,70.237,69.783,69.214z M56.512,69.778
			c0.477,1.163,0.465,2.2,1.414,2.825c0.036,0.023,0.625,0.299,0.564,0.282c2.114,0.633,5.328-0.774,5.646-3.107
			c0.119-1.437-0.434-2.2-0.848-3.105C60.668,64.619,56.645,66.714,56.512,69.778z M59.898,69.214v-0.848
			c0.363-0.388,1.689-0.492,1.698,0.283C61.676,69.554,60.359,69.676,59.898,69.214z M96.039,69.778
			c-1.824-0.981-3.781,0.105-3.105,2.542c0.623,0.319,0.939,0.944,1.696,1.129c0.587-0.354,1.189-0.691,1.692-1.129
			C96.264,71.436,96.512,70.249,96.039,69.778z M9.361,75.708c0.893,0.387,0.943,0.061,1.978,0c0.988-0.962,0.853-2.377,0.282-3.672
			C9.512,70.823,8.538,74.021,9.361,75.708z M55.949,83.331c-0.619,0.606-2.314,0.133-2.823,0.849
			c-1.336-0.112-2.358,0.089-3.39,0.281c-2.53,0.012-4.484,0.597-7.057,0.564c-2.047,0.4-4.519,0.377-6.778,0.564
			c-1.419-0.195-1.966,0.479-3.384,0.283c-1.321-0.002-2.296,0.342-2.259,1.694c0.938,1.332,3.336,0.847,5.361,0.847h6.213
			c2.859-0.436,5.755-0.833,9.036-0.847c0.209-0.638,1.582-0.11,2.258-0.283c0.333-0.513,1.47-0.223,1.975-0.565
			c1.293-0.401,3.015-0.373,3.106-1.975C58.031,83.697,57.335,83.167,55.949,83.331z M66.676,88.978
			c0.512,0.617,0.951,1.308,2.26,1.129c1.257-0.438,1.82-1.57,1.692-3.389C69.433,84.125,66.348,86.084,66.676,88.978z
			 M44.936,90.671c-1.814,0.16-3.309,0.646-5.081,0.847h-3.388c-0.996,0.415-2.642,0.184-3.387,0.849
			c1.341,0.446,2.99,0.584,4.517,0.846h6.777c1.818-0.725,5.237,0.155,5.081-2.541C48.549,89.297,46.246,90.646,44.936,90.671z"/>
	</g>
</g>
</svg>
