<?xml version="1.0" encoding="utf-8"?>
<!-- Generator: Adobe Illustrator 16.0.0, SVG Export Plug-In . SVG Version: 6.00 Build 0)  -->
<!DOCTYPE svg PUBLIC "-//W3C//DTD SVG 1.1//EN" "http://www.w3.org/Graphics/SVG/1.1/DTD/svg11.dtd">
<svg version="1.1" id="Layer_1" xmlns="http://www.w3.org/2000/svg" xmlns:xlink="http://www.w3.org/1999/xlink" x="0px" y="0px"
	 width="94.834px" height="91px" viewBox="0 0 94.834 91" enable-background="new 0 0 94.834 91" xml:space="preserve">
<g id="rocket">
	<g>
		<path fill="#132C42" d="M90.866,3.267c-1.88-0.289-3.761,0.082-5.638-0.222c-1.278,0.714-2.557,0.469-3.834,1.13
			c-1.278,0.525-2.557,0.732-3.834,1.13c-2.558,0.72-5.111,1.892-7.666,2.707c-2.559,1.618-5.112,2.229-7.666,4.516
			c-1.278,0.351-2.556,1.709-3.834,2.482c-1.354,1.192-2.705,2.154-4.061,3.16c-0.525,0.527-1.051,1.053-1.578,1.579
			c-0.451,0.636-0.898,0.08-1.354,0.902c-2.329,2.332-4.659,4.665-6.987,6.994c-1.354-1.62-2.709-0.978-4.062-1.802
			c-6.389-0.503-12.779,3.593-19.165,8.354c-1.131,1.229-2.257,2.248-3.383,2.935c-0.976,0.979-1.953,1.955-2.93,2.934
			c-1.833,2.632-3.737,5.262-4.287,7.895c0.376,0.754,0.915,1.503,1.809,2.255c2.104-0.221,4.21-2.647,6.312-3.612
			c2.105-1.847,4.21-2.399,6.314-3.159c0.75,0.753,1.505,0.035,2.258,0.903c1.354-1.149,2.705-0.511,4.06-0.004
			c-1.601,3.609-2.352,7.217-3.154,10.826c-0.074,0.368,0.158,0.735,0.418,1.104c0.325,0.459,0.687,0.92,0.559,1.379
			c0.699,1.404,1.649,2.714,2.455,4.076c2.917,2.527,5.836,5.947,8.754,6.07c4.284-1.688,8.566-4.488,12.854-6.997
			c0.526,3.306-1.146,6.615-0.896,9.925c-1.118,1.502-0.844,3.004-2.705,4.51c-0.244,1.953-0.537,3.908-0.448,5.865
			c1.878-0.539,3.759-0.884,5.638-2.035c1.125-1.127,2.254-2.256,3.381-3.383c0.451-0.638,0.902-0.082,1.354-0.901
			c3.881-3.611,5.84-6.886,7.663-10.382c1.339-2.557,2.728-5.057,3.156-7.668c-0.652-1.277-0.566-2.558-1.581-3.834
			c-0.229-0.299-0.68-0.602-0.45-0.9c-0.453-0.637-0.901-0.08-1.354-0.902c-0.269-0.854-1.599-0.271-1.129-1.127
			c1.277-1.277,2.557-2.558,3.834-3.838c0.637-0.449,0.078-0.899,0.9-1.351c0.9-0.902,1.805-1.804,2.706-2.708
			c4.965-6.169,8.817-12.333,12.172-18.501c1.003-3.082,3.013-6.166,3.83-9.249c0.776-1.578,1.306-3.157,1.579-4.735
			c0.594-1.581,1.178-3.16,1.125-4.738C91.461,4.32,91.717,3.792,90.866,3.267z M27.051,38.254c0.089-1.126,2.096-2.255,2.932-3.384
			c2.782-2.209,5.56-3.905,8.343-4.291c0.603,0.964,1.205,0.534,1.805,1.354c-2.392,2.333-3.944,4.663-5.635,6.994
			C32.013,36.987,29.531,36.975,27.051,38.254z M40.145,62.609c-0.831-0.703-1.654-0.937-2.483-2.03
			c-0.75-0.371-1.506-0.913-2.255-1.806c-0.675,0.617-1.355-1.739-2.03-1.125c-0.079-1.203,0.948-2.407,1.35-3.608
			c2.258,2.256,4.514,4.509,6.769,6.762C40.633,61.404,40.603,62.007,40.145,62.609z M64.503,58.539
			c-0.854,0.525-0.594,1.053-1.13,1.578c0.253,0.525-1.087,1.053-0.675,1.578c-1.451,2.184-2.175,4.361-4.282,6.544
			c-0.578,0.905-0.796-0.104-0.45-0.45c-0.2-0.452-0.198-0.903-0.003-1.355c-0.287-0.826-0.109-1.65,0.225-2.479
			c-0.67-0.979-0.246-1.956-0.676-2.934c-0.509-0.901-0.58-1.804-0.904-2.703c2.254-1.368,4.512-4.107,6.764-5.418
			c0.995,0.752,0.699,1.5,1.807,2.256c-0.191,0.6-0.191,1.201,0.002,1.804C64.9,57.484,64.359,58.014,64.503,58.539z M65.848,41.396
			c-6.762,7.084-13.011,13.043-19.841,16.7c-3.458-2.39-6.921-7.156-10.381-8.564c1.812-3.61,4.141-7.22,6.763-10.828
			c8.726-9.308,18.796-20.034,29.085-25.05c0.301-0.062,0.602-0.129,0.901-0.45c0.585,1.351,0.702,2.706,1.804,4.057
			c1.883,2,3.764,2.75,5.644,4.284C76.087,28.159,71.745,34.776,65.848,41.396z M82.303,15.901
			c-0.979-0.679-1.961-1.128-1.809-2.253c0.902-0.997,1.805-0.093,2.708-0.904C83.873,13.797,82.605,14.851,82.303,15.901z
			 M14.146,63.586c-0.019,0.452,0.534,0.893,0.885,1.34c0.989,0.126,1.988-0.596,2.999-2.011c0.513,0.313,1.174,0.429,1.799,0.571
			c0.471,0.105,1.871,0.47,2.064,0.268c0.156-0.165,0.15,0.034,0.257-0.005c0.544-0.19,1.061-0.46,1.432-0.778
			c0.009-0.352,0.319-0.707,0.661-1.063c-0.227-0.302,0.345-0.609,0.012-0.904c-0.036-0.354-0.348-0.696-0.114-1.053
			c0.468,0.421,0.94,0.459,1.415,0.429c0.265-0.429,0.517-0.062,0.784-0.617c-0.087-0.136,0.047-0.955,0.268-0.605
			c0.391,0.289,0.782,0.65,1.173,1.044c-0.448-0.903-0.98-1.769-1.367-2.698c-0.026,0.102-0.078,0.202-0.176,0.305
			c-0.433,0.096-0.849-0.828-1.28-0.884c-0.129,0.088-0.258,0.056-0.384-0.144c-0.39,0.38-0.957-0.133-1.161-0.129
			c-0.087,0.002-0.174,0.297-0.263,0.305c-0.45,0.045-0.676-0.098-1.033,0.02c-0.604,0.196-1.113,0.325-1.562,0.933
			c-0.746,0.765,0.083,1.504-0.419,2.266c-0.982-0.632-1.973-0.593-2.96-0.703c-0.434,0.259-0.87,0.626-1.311,1.229
			c-0.686-0.11-1.369-0.52-2.062-0.266c-0.55,0.61-1.1,1.225-1.318,1.83c-0.762-0.861-1.539-0.766-2.31-0.863
			c-0.742,0.508-1.474,0.662-2.221,1.695C7.488,62.562,7,63.587,6.527,63.566c-0.366-0.074-0.615-0.443-1.025-0.586
			c-0.286-0.098-0.911-0.234-1.162-0.129c-0.287,0.123-1.021,0.795-1.176,1.073c-0.01,0.017,0.127,0.125,0.126,0.147
			c-0.003,0.252-0.395,0.51-0.397,0.762c-0.002,0.096,0.228,0.205,0.252,0.297c0.102,0.361,0.03,1.01,0.374,1.049
			c0.261-0.273,0.511,0.385,0.776-0.014c0.297,0.162,0.612-0.736,0.909-0.469c0.768,0.544,1.535,1.138,2.31,1.167
			c0.612-0.563,0.817-1.12,0.927-1.677c0.644,0.02,1.298-0.541,1.956-1.388C11.647,63.677,12.874,65.309,14.146,63.586z
			 M60.723,23.579c-1.23,0.827-0.902,1.654-1.576,2.482c0.445,0.75,0.793,1.501,0.9,2.256c1.129,0.809,2.255,1.673,3.385,2.026
			c1.918,0.07,3.951-1.819,4.732-3.838c-0.184-1.05-0.38-2.102-1.354-3.155C64.783,23.173,62.75,22.146,60.723,23.579z
			 M56.667,34.857c-0.377-0.376-0.753-0.752-1.127-1.126c-0.375,0.267-0.752,0.007-1.127,0.226
			c-1.204,0.105-2.405-0.573-3.608,0.455c-0.451,0.451-0.9,0.901-1.353,1.353c-0.228,1.357,0.932,3.385,2.707,4.056
			c1.905,0.115,4.676-2.2,4.735-4.285C56.77,35.306,56.454,35.085,56.667,34.857z M34.921,67.689
			c-0.719-0.646-1.437-0.396-2.153,0.112c-0.225,0.491-0.278,0.982-0.34,1.476c0.228,0.377,0.661,0.757,0.681,1.134
			c-0.581,0.491-0.909,0.981-1.246,1.474c0.042,0.266-0.075,0.529-0.114,0.795c0.275,0.301,0.275,0.604,0.001,0.905
			c-0.377,0.379-0.754,0.756-1.133,1.134c-0.26,1.209,0.184,2.418,0.455,3.629c-0.677,0.754-0.298,1.51-0.451,2.268
			c-0.974-0.104-1.137,1.223-1.133,1.812c0.453,0.453,0.907,0.907,1.36,1.359c-0.378,0.366-0.756,0.11-1.135,0.68
			c0.097,0.304-0.187,0.604-0.225,0.908c0.182,0.453,0.657,0.907,1.134,1.358c-0.495,0.283-1.058,0.349-1.247,1.021
			c0.203,0.339,0.354,0.681,0.795,1.021c0.942-0.026,1.709-0.743,2.152-1.701c-0.001-0.491-0.202-0.982-0.341-1.473
			c0.649-0.531,0.759-1.061,1.133-1.589c-0.172-0.302-0.042-0.604-0.454-0.905c0.339-0.304-0.792-0.604-0.454-0.906
			c0.265-0.266,0.529-0.529,0.793-0.793c0.056-0.379,0.056-0.756,0-1.133c0.593-0.457,0.397-0.909,0.906-1.362
			c0.055-1.021-0.262-2.041-0.113-3.062c1.063-1.096,0.946-2.19,1.017-3.287c0.894-0.644,0.645-1.285,1.02-1.928
			c-0.409-0.604-0.522-1.209-1.133-1.812C35.164,68.445,35.269,68.066,34.921,67.689z M30.066,68.701
			c-1.203-0.569-2.404,1.875-3.608,2.707c-0.45,0.635-0.899,0.08-1.352,0.902c-1.278,1.278-2.556,2.559-3.832,3.836
			c-0.377,0.977-1.497,1.955-2.481,2.933c-0.536,0.837-1.848,2.846-2.482,2.933c1.061-2.33,2.235-4.66,3.835-6.99
			c0.161-1.129-0.557-2.256,0.223-3.386c1.776-1.429,2.172-2.856,3.832-4.284c1.106-0.754,0.811-1.504,1.802-2.259
			c0.691-0.75,1.951-1.502,0.904-2.256c0.127-0.224,0.07-0.45-0.225-0.674c-0.38,0.256-0.753-0.239-1.131-0.229
			c-0.451,0.207-0.9,1.434-1.352,0.906c-1.894,2.031-4.425,4.061-5.637,6.09c-2.027,2.26-5.297,4.516-5.408,6.773
			c0.471,1.058,2.076,1.066,1.804,1.803c-1.494,3.458-4.668,6.916-0.898,10.372c1.805,0.254,3.609-2.431,5.412-4.062
			c0.54-1.205,2.077-2.408,2.705-3.609c0.676-0.677,1.353-1.354,2.03-2.031c0.975-1.581,2.569-3.158,3.831-4.738
			C28.54,71.857,31.256,70.277,30.066,68.701z"/>
	</g>
</g>
</svg>
