<?xml version="1.0" encoding="utf-8"?>
<!-- Generator: Adobe Illustrator 16.0.0, SVG Export Plug-In . SVG Version: 6.00 Build 0)  -->
<!DOCTYPE svg PUBLIC "-//W3C//DTD SVG 1.1//EN" "http://www.w3.org/Graphics/SVG/1.1/DTD/svg11.dtd">
<svg version="1.1" id="Layer_1" xmlns="http://www.w3.org/2000/svg" xmlns:xlink="http://www.w3.org/1999/xlink" x="0px" y="0px"
	 width="137.667px" height="133px" viewBox="0 0 137.667 133" enable-background="new 0 0 137.667 133" xml:space="preserve">
<g id="database">
	<g>
		<path fill="#132C42" d="M120.807,53.027c0.243-1.392-0.259-2.032-0.765-2.669c0.291-1.438-0.463-1.827-0.381-3.051
			c-0.481-8.545-0.037-18.013-3.052-24.027c-0.407-0.358-0.12-1.407-1.142-1.146c0.383-1.145-0.85-0.675-1.529-0.761
			c-0.15-1.501-1.674-1.629-1.902-3.049c-1.354-1.827-2.64-3.719-4.195-5.344c-2.108-1.453-4.121-2.998-6.486-4.193
			c-0.922-0.854-2.088-1.468-3.049-2.291c-0.717-1.186-2.41-1.402-3.43-2.287c-4.869-0.848-10.168-1.271-14.875-2.287H65.505
			c-6.6,1.276-13.207,2.553-19.828,3.814c-2.241,1.573-5.554,2.074-7.626,3.812c-2.524,1.29-5.925,1.705-8.009,3.431
			c-2.733,1.083-4.855,2.775-6.864,4.579c-2.362,1.452-3.569,4.055-4.958,6.483c-0.204,22.826,1.783,43.472,1.144,66.737
			c-0.066,3.881,0.664,6.962,0.383,11.058c0.044,1.864-0.206,4.021,0.378,5.341c0.52,1.061-0.356,3.014,0.38,4.577
			c0.878,0.519,1.229,1.571,1.913,2.287c0.72,0.804,2.19,0.856,2.665,1.909c2.104,0.947,3.884,2.222,5.72,3.431
			c3.922,2.183,8.095,4.111,11.827,6.482c1.533-0.259,2.173,0.366,3.431,0.382c0.75,0.648,2.358,0.439,3.05,1.146
			c2.295,0.371,4.822,0.52,6.482,1.523c1.804,0.152,2.625-0.682,4.577-0.379c2.751,1.059,6.198,1.426,9.533,1.906
			c8.76,0.492,14.819-1.709,21.738-3.051c3.609-1.86,7.788-3.144,11.823-4.58c1.698-0.844,3.116-1.967,4.577-3.049
			c1.156-1.513,3.477-1.861,4.959-3.051c1.613-0.925,3.178-1.906,4.191-3.431c0.646-0.63,1.713-0.828,2.287-1.526
			c1.08-0.32,1.299-1.5,1.907-2.287C120.055,91.743,120.218,71.264,120.807,53.027z M28.136,29.382
			c0.719-0.932,1.457-1.849,1.906-3.05c0.09-1.563,1.297-2.01,1.527-3.431c3.659-3.457,8.072-6.168,12.964-8.393
			c4.759-2.359,11.551-2.689,17.161-4.194c9.151,0.006,18.539-0.233,26.697,0.764c2.166,1.265,4.991,1.871,6.862,3.431
			c2.35,0.958,3.951,2.66,6.101,3.817c1.858,2.464,4.228,4.417,5.342,7.625c0.328,5.414-3.124,7.043-4.958,10.296
			c-3.111,0.577-5.004,2.369-7.626,3.434c-1.931,1.758-5.252,2.123-7.628,3.433c-9.521,0.782-20.517,0.33-30.128,0
			c-4.667-1.052-9.062-2.379-12.585-4.578c-0.794-0.159-1.011,0.261-1.524,0.381c0.108,0.681-0.359,0.78-0.379,0.381
			c-3.201-0.995-5.865-2.524-9.156-3.432c-2.398-2.179-5.796-3.351-7.242-6.483C25.477,27.679,26.587,30.216,28.136,29.382z
			 M28.519,98.027c0.455-1.707,1.263-3.06,2.284-4.197c-0.106-0.615,0.364-0.655,0.384-1.143c1.06,0.336,1.882,0.916,3.049,1.143
			c-0.731,1.938-2.363,2.977-3.433,4.577c-1.199,1.468-2.555,2.784-3.429,4.575C26.228,101.314,27.678,98.98,28.519,98.027z
			 M34.619,70.188c-1.615-1.144-3.288,0.367-4.197,1.144c0.04,0.462-0.555,0.235,0,0c0.269-1.636,0.625-3.19,1.527-4.195
			c4.442,1.279,7.802,3.642,12.205,4.96c5.005,0.711,10.045,1.395,14.87,2.291h14.493c7.447-0.943,15.1-1.685,21.357-3.818
			c6.832-1.683,12.524-4.51,18.305-7.243V76.29c-1.268,3.056-4.754,3.89-6.86,6.103c-3.136,1.19-5.987,2.658-9.155,3.813
			c-3.248,1.075-6.314,2.327-9.535,3.433c-1.479,0.682-3.33,0.992-4.959,1.524c-1.414,0.746-3.67,0.649-4.957,1.526
			c-1.474-0.078-2.809-0.015-3.812,0.379H62.841c-11.426-0.271-19.736-3.656-28.605-6.482c0.831-2.221,2.369-3.732,3.051-6.104
			c1.089-1.758,2.9-4.223,2.292-6.48c-2.959-0.979-4.644,2.426-6.101,4.195c-1.476,2.213-2.99,4.384-4.199,6.863
			c-0.938-0.968,0.643-2.646,1.144-3.433c0.193-1.587,1.334-2.228,1.527-3.812C33.403,75.84,35.382,73.208,34.619,70.188z
			 M109.748,109.469c-1.688,1.11-3.492,2.1-4.959,3.428c-0.467-0.041-0.901-0.109-0.765-0.763c-1.642,1.918-4.394,2.729-6.481,4.194
			c-1.338,0.447-2.06,1.505-3.812,1.529c-0.63,1.151-2.951,0.606-3.817,1.523h-3.05c-4.347,2.01-8.962,3.75-15.254,3.812v-3.049
			c0.097-1.117-0.717-1.318-1.146-1.91c-2.953,0.099-3.428,2.671-4.193,4.959c-1.695,0.299-2.29-0.508-3.814-0.383
			c-0.444-3.732,2.615-7.188-0.381-9.15c-2.094-0.059-2.144,1.921-3.052,3.05c-0.658,1.5-0.699,3.623-1.144,5.338
			c-2.163,0.257-3.127-0.682-4.958-0.762c0.771-4.063,2.026-7.636,3.433-11.058c-0.174-1.289-3.148-0.898-3.433,0
			c-0.572,1.08-1.675,1.625-1.906,3.051c-0.966,0.686-1.208,2.092-1.905,3.047c-0.634,1.15-0.451,3.113-1.903,3.435
			c-0.073-0.562-0.927-0.35-1.529-0.381c-0.886-0.879,0.704-1.231,0.382-2.67c1.015-0.854-0.54-1.909,0.381-2.67
			c0.652-2.58,2.812-5.505,1.523-8.771c-2.588-0.431-2.829,1.49-3.811,2.668H43.77c0.364,1.584-1.141,0.078,0,0
			c0.359-1.867,2.995-5.145,0.384-6.479c-2.048-0.269-2.414,1.146-3.051,2.288c-1.299,0.604-1.193,2.622-2.289,3.431
			c-0.306,1.601-1.337,2.474-1.527,4.197c-1.294,0.61-0.619,3.192-2.287,3.431c-0.036-0.978-1.487-0.545-1.522-1.523
			c0.339-0.805,1.158-1.127,1.142-2.291c0.962-1.323,1.474-3.098,1.909-4.955c0.836-1.451,1.468-3.108,2.286-4.576
			c0.178-1.729,1.969-3.45,0.765-5.342c-3.114,0.322-3.637,3.228-5.342,4.959c-1.182,2.244-2.868,5.023-4.194,6.482
			c-0.085,0.299-0.009,0.754-0.382,0.765c-0.238,0.907-0.511,1.774-1.524,1.907c0.025-1.121,0.872-1.418,1.524-1.907
			c0.085-0.296,0.01-0.753,0.382-0.765c1.923-4.559,4.656-8.308,6.865-12.588c7.097,2.317,14.133,4.684,22.5,5.723h17.542
			c6.939-1.32,13.125-3.398,19.069-5.723c2.897-1.167,6.149-1.981,8.771-3.428c3.215-0.979,5.465-2.922,8.39-4.197
			c0.206,5.903-0.437,12.644,0.382,17.924C112.863,107.244,111.059,108.114,109.748,109.469z M113.56,53.789
			C99.916,62.52,82.876,67.852,59.79,67.135c-4.879-0.843-10.12-1.324-15.256-1.904c-1.557-0.983-3.851-1.232-5.342-2.291
			c-1.863-0.546-3.281-1.543-5.335-1.906c0.087-1.911,1.63-3.215,0.764-4.96c-1.772-0.239-2.359,0.695-3.05,1.529
			c-0.653,0.542-0.89,2.496-1.909,1.522c0.31-3.691,2.979-6.415,2.289-9.916c-2.712-0.548-2.587,1.739-3.813,2.674
			c-0.427,1.735-1.434,2.886-1.908,4.576c-0.836-0.059-0.821-0.959-0.76-1.909c0.21-0.552-0.449-1.972,0.381-1.907
			c-0.094-1.618,0.994-2.052,0.761-3.812c-1.028-0.261-0.737,0.789-1.142,1.143c-0.879-0.902-0.14-3.422-0.385-4.958
			c-0.499-1.788-0.391-4.185-0.378-6.482c1.288,1.128,3.305,1.522,4.574,2.668c3.316,0.623,5.734,2.149,8.773,3.052
			c1.25,0.658,2.538,1.274,4.194,1.525c0.778,1.128,2.81,1.005,3.814,1.908c6.008,1.613,12.308,2.945,19.066,3.812H81.91
			c6.619-1.133,11.719-3.789,17.541-5.72c6.079-1.548,11.355-3.898,14.49-8.388c0.332-0.071,0.361,0.148,0.387,0.378
			C113.977,43.017,113.453,48.087,113.56,53.789z M26.989,41.587c-0.527,1.783-1.008,6.519,0.764,7.244
			c0.516-1.741,1.341-4.887,0.383-6.864C27.645,41.946,27.608,41.477,26.989,41.587z"/>
	</g>
</g>
</svg>
