<?xml version="1.0" encoding="utf-8"?>
<!-- Generator: Adobe Illustrator 16.0.0, SVG Export Plug-In . SVG Version: 6.00 Build 0)  -->
<!DOCTYPE svg PUBLIC "-//W3C//DTD SVG 1.1//EN" "http://www.w3.org/Graphics/SVG/1.1/DTD/svg11.dtd">
<svg version="1.1" id="Layer_1" xmlns="http://www.w3.org/2000/svg" xmlns:xlink="http://www.w3.org/1999/xlink" x="0px" y="0px"
	 width="137.667px" height="133px" viewBox="0 0 137.667 133" enable-background="new 0 0 137.667 133" xml:space="preserve">
<g id="database">
	<g>
		<path fill-rule="evenodd" clip-rule="evenodd" d="M106.662,70.331c0.189-1.082-0.2-1.58-0.595-2.075
			c0.228-1.118-0.359-1.421-0.296-2.373c-0.374-6.646-0.028-14.008-2.373-18.685c-0.317-0.278-0.093-1.094-0.888-0.89
			c0.298-0.891-0.66-0.525-1.189-0.592c-0.118-1.167-1.302-1.267-1.48-2.372c-1.052-1.42-2.052-2.892-3.263-4.156
			c-1.639-1.13-3.204-2.331-5.044-3.261c-0.717-0.664-1.624-1.141-2.371-1.781c-0.557-0.923-1.874-1.09-2.668-1.779
			c-3.785-0.66-7.907-0.988-11.566-1.778H63.656c-5.133,0.993-10.271,1.985-15.42,2.966c-1.742,1.223-4.318,1.613-5.931,2.964
			c-1.963,1.003-4.607,1.326-6.229,2.668c-2.125,0.842-3.775,2.158-5.338,3.561c-1.837,1.129-2.775,3.154-3.855,5.042
			c-0.158,17.751,1.387,33.806,0.89,51.899c-0.052,3.019,0.517,5.414,0.298,8.6c0.034,1.449-0.16,3.126,0.294,4.153
			c0.404,0.824-0.277,2.343,0.296,3.56c0.683,0.403,0.955,1.222,1.487,1.778c0.56,0.625,1.703,0.666,2.072,1.484
			c1.637,0.737,3.021,1.729,4.448,2.668c3.05,1.697,6.295,3.197,9.197,5.041c1.192-0.201,1.689,0.284,2.668,0.297
			c0.583,0.504,1.834,0.342,2.372,0.891c1.784,0.289,3.75,0.404,5.041,1.186c1.403,0.119,2.042-0.529,3.56-0.295
			c2.14,0.823,4.82,1.109,7.413,1.482c6.812,0.383,11.524-1.329,16.905-2.373c2.807-1.446,6.057-2.444,9.194-3.561
			c1.321-0.656,2.423-1.529,3.559-2.371c0.9-1.177,2.704-1.448,3.856-2.373c1.255-0.72,2.472-1.482,3.26-2.668
			c0.502-0.49,1.333-0.644,1.779-1.187c0.84-0.249,1.01-1.167,1.483-1.778C106.077,100.439,106.204,84.514,106.662,70.331z
			 M34.594,51.943c0.56-0.725,1.133-1.438,1.482-2.372c0.07-1.215,1.009-1.563,1.188-2.668c2.846-2.689,6.277-4.797,10.082-6.527
			c3.701-1.834,8.982-2.091,13.346-3.262c7.116,0.005,14.417-0.182,20.762,0.594c1.684,0.984,3.882,1.455,5.336,2.668
			c1.827,0.745,3.073,2.069,4.744,2.968c1.445,1.917,3.287,3.435,4.154,5.93c0.255,4.21-2.43,5.478-3.855,8.007
			c-2.42,0.449-3.892,1.842-5.931,2.67c-1.502,1.367-4.085,1.651-5.933,2.67c-7.404,0.608-15.955,0.257-23.43,0
			c-3.63-0.818-7.047-1.851-9.787-3.56c-0.617-0.124-0.786,0.203-1.186,0.296c0.084,0.53-0.279,0.607-0.295,0.296
			c-2.489-0.774-4.561-1.963-7.12-2.669c-1.865-1.694-4.508-2.606-5.632-5.042C32.527,50.619,33.39,52.592,34.594,51.943z
			 M34.892,105.326c0.354-1.326,0.982-2.379,1.776-3.264c-0.083-0.479,0.283-0.51,0.299-0.888c0.824,0.261,1.464,0.712,2.371,0.888
			c-0.568,1.507-1.838,2.314-2.67,3.56c-0.933,1.142-1.987,2.166-2.667,3.558C33.111,107.883,34.239,106.068,34.892,105.326z
			 M39.636,83.676c-1.256-0.889-2.557,0.286-3.264,0.89c0.031,0.359-0.432,0.183,0,0c0.209-1.272,0.486-2.481,1.188-3.263
			c3.454,0.995,6.067,2.832,9.491,3.857c3.893,0.552,7.812,1.084,11.563,1.781h11.271c5.792-0.734,11.743-1.311,16.609-2.969
			c5.313-1.309,9.74-3.508,14.234-5.634v10.083c-0.986,2.376-3.696,3.024-5.335,4.745c-2.438,0.927-4.656,2.067-7.12,2.966
			c-2.525,0.836-4.91,1.81-7.414,2.67c-1.151,0.53-2.59,0.771-3.856,1.186c-1.101,0.58-2.854,0.506-3.855,1.187
			c-1.146-0.06-2.184-0.011-2.965,0.296h-8.6c-8.886-0.212-15.348-2.844-22.245-5.042c0.646-1.728,1.842-2.903,2.372-4.746
			c0.848-1.367,2.256-3.284,1.782-5.04c-2.302-0.762-3.611,1.887-4.744,3.263c-1.147,1.721-2.325,3.409-3.266,5.338
			c-0.729-0.753,0.5-2.059,0.89-2.67c0.15-1.234,1.038-1.731,1.188-2.964C38.691,88.072,40.23,86.025,39.636,83.676z
			 M98.061,114.225c-1.312,0.863-2.716,1.633-3.855,2.666c-0.363-0.033-0.702-0.086-0.595-0.594
			c-1.276,1.492-3.417,2.123-5.041,3.262c-1.041,0.348-1.602,1.171-2.964,1.189c-0.49,0.896-2.295,0.473-2.969,1.186h-2.372
			c-3.381,1.562-6.97,2.916-11.862,2.965v-2.371c0.075-0.868-0.558-1.025-0.891-1.484c-2.297,0.076-2.666,2.076-3.262,3.855
			c-1.318,0.232-1.78-0.395-2.966-0.297c-0.346-2.903,2.033-5.59-0.297-7.116c-1.628-0.045-1.667,1.494-2.373,2.372
			c-0.512,1.166-0.544,2.817-0.89,4.151c-1.682,0.2-2.432-0.53-3.855-0.593c0.6-3.16,1.576-5.938,2.67-8.599
			c-0.136-1.003-2.448-0.699-2.67,0c-0.444,0.839-1.303,1.263-1.482,2.372c-0.751,0.533-0.939,1.627-1.481,2.369
			c-0.493,0.895-0.351,2.422-1.48,2.672c-0.057-0.438-0.721-0.272-1.189-0.297c-0.688-0.684,0.548-0.957,0.298-2.076
			c0.789-0.664-0.42-1.484,0.296-2.076c0.507-2.007,2.188-4.281,1.185-6.821c-2.013-0.335-2.199,1.159-2.963,2.075h-0.299
			c0.283,1.232-0.887,0.06,0,0c0.279-1.452,2.329-4.001,0.299-5.039c-1.593-0.208-1.877,0.891-2.373,1.779
			c-1.011,0.47-0.928,2.039-1.78,2.668c-0.237,1.245-1.04,1.924-1.188,3.264c-1.006,0.475-0.481,2.483-1.778,2.668
			c-0.027-0.761-1.156-0.424-1.184-1.186c0.264-0.626,0.9-0.876,0.888-1.781c0.748-1.029,1.146-2.408,1.484-3.854
			c0.65-1.128,1.142-2.417,1.777-3.559c0.139-1.344,1.531-2.683,0.595-4.154c-2.422,0.25-2.828,2.51-4.154,3.856
			c-0.919,1.745-2.23,3.907-3.262,5.041c-0.066,0.232-0.007,0.587-0.297,0.595c-0.185,0.705-0.397,1.38-1.186,1.483
			c0.02-0.872,0.678-1.104,1.186-1.483c0.066-0.23,0.008-0.586,0.297-0.595c1.496-3.545,3.621-6.46,5.339-9.789
			c5.519,1.802,10.99,3.642,17.497,4.45h13.643c5.396-1.027,10.207-2.644,14.829-4.45c2.253-0.907,4.782-1.541,6.821-2.666
			c2.5-0.761,4.25-2.272,6.523-3.264c0.16,4.591-0.34,9.832,0.297,13.939C100.484,112.494,99.081,113.171,98.061,114.225z
			 M101.026,70.924c-10.61,6.79-23.861,10.936-41.815,10.379c-3.794-0.656-7.87-1.029-11.864-1.481
			c-1.211-0.764-2.995-0.958-4.154-1.782c-1.449-0.424-2.552-1.2-4.149-1.482c0.067-1.486,1.268-2.5,0.594-3.857
			c-1.378-0.186-1.835,0.541-2.372,1.189c-0.508,0.421-0.692,1.941-1.484,1.184c0.241-2.871,2.316-4.989,1.78-7.711
			c-2.109-0.426-2.012,1.352-2.966,2.079c-0.332,1.349-1.115,2.245-1.483,3.558c-0.65-0.046-0.639-0.746-0.591-1.484
			c0.163-0.429-0.35-1.534,0.296-1.483c-0.073-1.258,0.773-1.596,0.592-2.964c-0.8-0.203-0.573,0.613-0.888,0.889
			c-0.684-0.702-0.108-2.662-0.3-3.855c-0.388-1.391-0.304-3.254-0.294-5.041c1.001,0.877,2.57,1.184,3.557,2.075
			c2.579,0.484,4.459,1.671,6.822,2.374c0.973,0.512,1.974,0.991,3.262,1.186c0.605,0.877,2.186,0.782,2.967,1.484
			c4.672,1.254,9.571,2.29,14.827,2.964h13.05c5.148-0.881,9.114-2.946,13.642-4.449c4.728-1.204,8.831-3.031,11.269-6.523
			c0.258-0.055,0.28,0.115,0.3,0.294C101.35,62.547,100.943,66.49,101.026,70.924z M33.703,61.435
			c-0.41,1.387-0.784,5.069,0.594,5.634c0.401-1.354,1.043-3.801,0.298-5.338C34.212,61.714,34.184,61.349,33.703,61.435z"/>
	</g>
</g>
<g id="database_2_">
	<g>
		<path fill-rule="evenodd" clip-rule="evenodd" d="M62.222,30.498c0.174-0.855-0.275-1.086-0.227-1.814
			c-0.286-5.082-0.021-10.711-1.814-14.287c-0.243-0.213-0.071-0.837-0.679-0.681c0.228-0.681-0.505-0.401-0.909-0.453
			c-0.09-0.893-0.996-0.969-1.132-1.813c-0.804-1.086-1.569-2.211-2.495-3.178c-1.253-0.864-2.45-1.782-3.857-2.493
			c-0.548-0.508-1.242-0.873-1.813-1.362c-0.426-0.706-1.433-0.833-2.04-1.36c-2.894-0.504-6.046-0.756-8.844-1.36h-8.62
			c-3.925,0.759-7.853,1.518-11.791,2.268c-1.332,0.936-3.302,1.233-4.535,2.267c-1.501,0.767-3.523,1.014-4.763,2.04
			c-1.625,0.644-2.887,1.65-4.082,2.723c-1.405,0.863-2.122,2.411-2.948,3.855C1.555,28.423,2.736,40.699,2.356,54.534
			c-0.04,2.308,0.395,4.14,0.228,6.575c0.026,1.108-0.123,2.391,0.225,3.176c0.31,0.63-0.212,1.792,0.227,2.722
			c0.522,0.308,0.73,0.934,1.137,1.359c0.428,0.478,1.302,0.509,1.584,1.135c1.251,0.563,2.31,1.322,3.401,2.04
			c2.332,1.298,4.813,2.445,7.032,3.854c0.912-0.154,1.292,0.217,2.04,0.227c0.446,0.385,1.402,0.261,1.814,0.681
			c1.364,0.221,2.867,0.31,3.854,0.907c1.073,0.091,1.562-0.405,2.722-0.226c0.913,0.351,1.959,0.57,3.046,0.749V73.84
			c-0.606-0.042-0.98-0.316-1.687-0.258c-0.264-2.22,1.555-4.274-0.227-5.441c-1.245-0.034-1.274,1.143-1.814,1.814
			c-0.391,0.892-0.416,2.154-0.68,3.174c-1.286,0.153-1.859-0.406-2.948-0.454c0.458-2.416,1.206-4.54,2.042-6.575
			c-0.104-0.767-1.872-0.535-2.042,0c-0.339,0.642-0.996,0.965-1.133,1.814c-0.574,0.408-0.718,1.244-1.133,1.812
			c-0.377,0.684-0.268,1.852-1.132,2.043c-0.043-0.334-0.551-0.208-0.91-0.227c-0.526-0.523,0.419-0.732,0.228-1.587
			c0.604-0.508-0.321-1.135,0.227-1.588c0.387-1.534,1.672-3.273,0.906-5.216c-1.539-0.256-1.682,0.887-2.266,1.587h-0.229
			c0.217,0.942-0.678,0.045,0,0c0.213-1.11,1.781-3.059,0.229-3.853c-1.218-0.159-1.435,0.681-1.814,1.36
			c-0.773,0.359-0.709,1.56-1.361,2.04c-0.182,0.952-0.795,1.471-0.908,2.496c-0.769,0.363-0.368,1.899-1.359,2.04
			c-0.021-0.582-0.884-0.324-0.905-0.906c0.202-0.479,0.688-0.67,0.679-1.362c0.572-0.787,0.877-1.841,1.135-2.946
			c0.497-0.863,0.873-1.848,1.359-2.721c0.106-1.027,1.171-2.051,0.455-3.176c-1.852,0.191-2.162,1.919-3.176,2.949
			c-0.703,1.334-1.706,2.987-2.494,3.854C8.654,64.689,8.7,64.96,8.478,64.966c-0.141,0.539-0.304,1.055-0.906,1.134
			c0.015-0.667,0.518-0.844,0.906-1.134c0.051-0.176,0.006-0.448,0.227-0.455c1.144-2.711,2.769-4.939,4.083-7.485
			c4.219,1.378,8.403,2.785,13.378,3.403h3.5v-4.534h-1.458c-6.794-0.162-11.735-2.174-17.009-3.855
			c0.494-1.321,1.408-2.22,1.813-3.629c0.648-1.045,1.725-2.511,1.363-3.854c-1.76-0.583-2.761,1.443-3.627,2.495
			c-0.877,1.316-1.778,2.607-2.497,4.082c-0.558-0.576,0.382-1.574,0.68-2.042c0.115-0.944,0.794-1.324,0.908-2.266
			c0.865-1.175,2.042-2.74,1.587-4.537c-0.96-0.68-1.955,0.219-2.496,0.68c0.024,0.275-0.33,0.14,0,0
			c0.16-0.973,0.372-1.897,0.908-2.495c2.641,0.761,4.639,2.166,7.257,2.95c2.977,0.422,5.973,0.829,8.842,1.362h8.618
			c0.905-0.115,1.815-0.225,2.722-0.338c1.199-1.297,2.014-2.949,2.282-4.792c-3.995,0.666-8.355,0.967-13.166,0.818
			c-2.901-0.501-6.018-0.787-9.072-1.132c-0.926-0.584-2.29-0.732-3.177-1.362c-1.108-0.325-1.951-0.917-3.173-1.133
			c0.052-1.137,0.969-1.912,0.454-2.95c-1.054-0.142-1.403,0.414-1.813,0.91c-0.389,0.322-0.53,1.484-1.135,0.905
			c0.185-2.195,1.771-3.814,1.361-5.896c-1.613-0.326-1.538,1.034-2.268,1.59c-0.254,1.032-0.853,1.716-1.134,2.721
			c-0.498-0.035-0.488-0.57-0.452-1.135c0.125-0.328-0.267-1.173,0.227-1.134c-0.056-0.961,0.591-1.22,0.453-2.267
			c-0.612-0.155-0.438,0.469-0.679,0.68c-0.522-0.537-0.083-2.035-0.229-2.948c-0.296-1.063-0.232-2.488-0.225-3.854
			c0.765,0.67,1.965,0.905,2.719,1.586c1.972,0.371,3.41,1.278,5.217,1.815c0.744,0.391,1.509,0.757,2.494,0.906
			c0.463,0.671,1.671,0.598,2.269,1.135c3.572,0.959,7.319,1.751,11.337,2.267h9.979c3.937-0.674,6.969-2.253,10.431-3.402
			c3.615-0.92,6.753-2.317,8.617-4.987c0.197-0.042,0.214,0.088,0.229,0.225c-0.207,3.121-0.518,6.135-0.455,9.526
			c-0.428,0.274-0.872,0.533-1.312,0.795h5.585c0.012-0.414,0.022-0.838,0.036-1.249C62.822,31.257,62.524,30.877,62.222,30.498z
			 M7.799,58.843c0.271-1.014,0.751-1.819,1.358-2.496c-0.063-0.366,0.216-0.39,0.229-0.679c0.63,0.199,1.119,0.544,1.813,0.679
			c-0.435,1.152-1.405,1.77-2.042,2.722c-0.713,0.873-1.52,1.656-2.04,2.721C6.438,60.798,7.3,59.411,7.799,58.843z M51.338,22.106
			c-1.85,0.343-2.976,1.408-4.535,2.042c-1.148,1.045-3.124,1.263-4.536,2.042c-5.662,0.465-12.2,0.196-17.916,0
			c-2.775-0.625-5.388-1.415-7.483-2.722c-0.472-0.095-0.601,0.155-0.907,0.227c0.064,0.405-0.213,0.464-0.225,0.227
			c-1.903-0.592-3.487-1.501-5.444-2.041c-1.426-1.295-3.447-1.993-4.307-3.855c0.005-1.013,0.666,0.496,1.586,0
			C8,17.471,8.438,16.926,8.705,16.211c0.054-0.929,0.771-1.195,0.908-2.04c2.176-2.056,4.8-3.667,7.709-4.991
			c2.83-1.403,6.868-1.599,10.205-2.494C32.968,6.69,38.55,6.547,43.402,7.14c1.288,0.752,2.968,1.112,4.08,2.04
			c1.397,0.57,2.35,1.582,3.627,2.27c1.105,1.465,2.514,2.626,3.177,4.534C54.481,19.203,52.428,20.172,51.338,22.106z M7.344,29.59
			c0.307-1.035,0.797-2.906,0.228-4.082c-0.292-0.012-0.314-0.292-0.682-0.226C6.576,26.343,6.29,29.158,7.344,29.59z"/>
	</g>
</g>
<g id="database_4_">
	<g>
		<path fill-rule="evenodd" clip-rule="evenodd" d="M80.244,31.405c-0.196,0.796-0.595,1.39-0.897,2.079
			c0.758,0.104,1.517,0.217,2.281,0.325c0.502-1.337,1.167-2.557,0.883-3.994C80.898,29.489,80.973,30.849,80.244,31.405z
			 M135.348,32.085c0.146-0.828-0.152-1.208-0.454-1.587c0.174-0.855-0.274-1.086-0.227-1.814
			c-0.286-5.082-0.021-10.711-1.814-14.287c-0.243-0.213-0.071-0.837-0.679-0.681c0.229-0.681-0.505-0.401-0.909-0.453
			c-0.091-0.893-0.995-0.969-1.132-1.813c-0.805-1.086-1.569-2.211-2.495-3.178c-1.253-0.864-2.45-1.782-3.856-2.493
			c-0.549-0.508-1.242-0.873-1.813-1.362c-0.426-0.706-1.433-0.833-2.04-1.36c-2.895-0.504-6.046-0.756-8.844-1.36h-8.62
			c-3.925,0.759-7.853,1.518-11.791,2.268c-1.332,0.936-3.302,1.233-4.535,2.267c-1.501,0.767-3.523,1.014-4.763,2.04
			c-1.625,0.644-2.887,1.65-4.082,2.723c-1.405,0.863-2.122,2.411-2.948,3.855c-0.056,6.254,0.166,12.232,0.383,18.214
			c1.325,0.03,2.621,0.159,3.913,0.326c-0.001-0.127,0.005-0.262,0.014-0.4c0.125-0.328-0.267-1.173,0.227-1.134
			c-0.056-0.961,0.591-1.22,0.453-2.267c-0.612-0.155-0.438,0.469-0.679,0.68c-0.522-0.537-0.083-2.035-0.229-2.948
			c-0.296-1.063-0.232-2.488-0.225-3.854c0.765,0.67,1.965,0.905,2.719,1.586c1.972,0.371,3.41,1.278,5.217,1.815
			c0.744,0.391,1.509,0.757,2.494,0.906c0.463,0.671,1.671,0.598,2.269,1.135c3.572,0.959,7.319,1.751,11.337,2.267h9.978
			c3.938-0.674,6.97-2.253,10.432-3.402c3.615-0.92,6.752-2.317,8.616-4.987c0.196-0.042,0.214,0.088,0.229,0.225
			c-0.207,3.121-0.519,6.135-0.455,9.526c-8.113,5.191-18.245,8.362-31.974,7.936c-2.298-0.397-4.732-0.66-7.163-0.923
			c2.644,2.006,6.728,2.468,7.809,5.234h7.516c4.429-0.562,8.979-1.002,12.7-2.271c4.062-1,7.447-2.682,10.885-4.307v7.709
			c-0.755,1.816-2.826,2.312-4.08,3.629c-1.864,0.708-3.561,1.58-5.443,2.268c-1.932,0.639-3.756,1.383-5.67,2.041
			c-0.881,0.406-1.98,0.59-2.949,0.906c-0.841,0.443-2.182,0.387-2.947,0.908c-0.876-0.046-1.67-0.009-2.268,0.226h-4.789v4.534
			h6.604c4.126-0.785,7.805-2.021,11.338-3.402c1.723-0.693,3.657-1.179,5.217-2.039c1.911-0.582,3.25-1.737,4.988-2.495
			c0.122,3.511-0.26,7.518,0.227,10.658c-0.414,1.173-1.488,1.69-2.268,2.497c-1.003,0.66-2.076,1.248-2.947,2.038
			c-0.278-0.025-0.537-0.065-0.455-0.454c-0.977,1.141-2.613,1.623-3.854,2.494c-0.796,0.266-1.225,0.895-2.267,0.909
			c-0.375,0.686-1.754,0.361-2.27,0.907h-1.814c-2.584,1.194-5.328,2.229-9.07,2.267v-1.813c0.059-0.664-0.426-0.783-0.681-1.135
			c-1.756,0.059-2.039,1.588-2.494,2.948c-0.08,0.014-0.149,0.018-0.222,0.024c0.048,1.355,0.186,2.613,0.546,4.042
			c0.571,0.083,1.145,0.162,1.716,0.244c5.208,0.293,8.812-1.016,12.927-1.814c2.146-1.105,4.631-1.869,7.029-2.723
			c1.011-0.502,1.854-1.169,2.722-1.812c0.688-0.9,2.067-1.107,2.948-1.814c0.96-0.551,1.891-1.134,2.493-2.04
			c0.384-0.375,1.019-0.492,1.36-0.907c0.643-0.19,0.771-0.893,1.135-1.359C134.901,55.107,134.999,42.929,135.348,32.085z
			 M124.01,22.106c-1.851,0.343-2.977,1.408-4.535,2.042c-1.148,1.045-3.123,1.263-4.536,2.042c-5.661,0.465-12.2,0.196-17.916,0
			c-2.775-0.625-5.388-1.415-7.483-2.722c-0.472-0.095-0.601,0.155-0.907,0.227c0.064,0.405-0.213,0.464-0.225,0.227
			c-1.903-0.592-3.487-1.501-5.444-2.041c-1.426-1.295-3.447-1.993-4.307-3.855c0.005-1.013,0.666,0.496,1.586,0
			c0.428-0.554,0.866-1.099,1.133-1.814c0.054-0.929,0.771-1.195,0.908-2.04c2.176-2.056,4.8-3.667,7.709-4.991
			c2.83-1.403,6.868-1.599,10.205-2.494c5.441,0.004,11.023-0.139,15.875,0.454c1.288,0.752,2.968,1.112,4.08,2.04
			c1.397,0.57,2.351,1.582,3.628,2.27c1.105,1.465,2.514,2.626,3.176,4.534C127.153,19.203,125.1,20.172,124.01,22.106z
			 M83.132,34.012c0.347,0.043,0.697,0.084,1.048,0.121c-0.024-0.078-0.042-0.155-0.082-0.236
			C83.681,33.84,83.376,33.896,83.132,34.012z M80.244,25.508c-0.292-0.012-0.314-0.292-0.682-0.226
			c-0.313,1.061-0.6,3.876,0.454,4.308C80.323,28.555,80.813,26.684,80.244,25.508z"/>
	</g>
</g>
</svg>
