<?xml version="1.0" encoding="utf-8"?>
<!-- Generator: Adobe Illustrator 16.0.0, SVG Export Plug-In . SVG Version: 6.00 Build 0)  -->
<!DOCTYPE svg PUBLIC "-//W3C//DTD SVG 1.1//EN" "http://www.w3.org/Graphics/SVG/1.1/DTD/svg11.dtd">
<svg version="1.1" id="Layer_1" xmlns="http://www.w3.org/2000/svg" xmlns:xlink="http://www.w3.org/1999/xlink" x="0px" y="0px"
	 width="113.924px" height="92.405px" viewBox="0 0 113.924 92.405" enable-background="new 0 0 113.924 92.405"
	 xml:space="preserve">
<g id="signal">
	<g>
		<path fill-rule="evenodd" clip-rule="evenodd" d="M98.262,26.564c-0.91-1.597-1.243-3.779-2.295-5.243
			c-0.646-1.86-1.455-3.567-2.621-4.914c-0.776-1.741-2.04-2.986-2.949-4.591c-1.687-1.047-2.283-3.179-5.245-2.952
			c-0.484,0.175-0.823,0.486-1.308,0.659c-1.385,3.936,2.006,5.826,2.621,8.847c1.585,2.567,2.98,5.319,3.932,8.525
			c2.418,5.699,3.133,13.601,3.279,20.646c-0.216,6.996-1.959,12.461-3.935,17.701c-1.278,2.322-1.816,5.391-3.606,7.207
			c-0.912,2.117-3.172,5.367-1.309,8.195c2.819,1.545,6.069-0.488,7.21-2.623c1.164-2.553,2.624-4.807,3.603-7.535
			c2.462-4.973,3.963-10.898,5.244-17.045C101.724,43.71,100.631,34.073,98.262,26.564z M19.932,20.014
			c0.379-1.915,1.782-2.81,2.291-4.591c0.763-0.583,1.578-1.885,1.969-2.295c0.475-0.494,0.575-0.65,0.654-1.311
			c0.042-0.322-0.029-0.66,0-0.982c-0.509-0.474-1.275-0.689-1.965-0.986c-0.441,0.105-0.628,0.468-1.311,0.33
			C13.192,18.298,7.809,29.412,6.165,44.267v13.764c0.599,3.332,1.133,6.732,1.968,9.832c0.824,3.109,1.507,6.359,2.951,8.85
			c0.422,1.543,1.194,2.736,1.963,3.934c0.774,1.195,1.995,1.941,2.948,2.947c1.515,0.457,2.661,1.281,4.919,0.984
			c0.722-0.402,1.388-0.494,1.967-0.984c0.552-0.465,1.079-0.818,0.981-1.965c-0.109-3.383-4.207-2.781-5.244-5.244
			c-6.387-10.648-8.059-33.363-2.949-46.869C16.843,26.098,18.091,22.761,19.932,20.014z M84.171,48.853v-6.881
			c-0.741-3.958-1.276-8.12-3.28-10.819c-0.465-1.829-1.525-3.062-2.292-4.588c-1.374-1.137-1.574-3.45-4.263-3.277
			c-0.484,0.17-0.828,0.486-1.308,0.655c-0.799,1.297-0.21,3.587,0.653,4.262c0.424,1.547,0.873,3.062,1.64,4.262
			c0.933,3,1.871,5.996,2.294,9.505v5.571c-0.453,0.424-0.324,1.424-0.331,2.295c-0.895,2.707-1.765,5.441-2.622,8.193
			c-0.705,1.15-1.167,2.545-1.634,3.934c-0.726,1.135-1.626,2.092-1.643,3.932c0.767,1.422,1.546,2.826,3.936,2.623
			c1.851-0.334,2.836-1.535,3.277-3.275c0.938-1.248,1.608-2.762,1.967-4.592c1.565-2.803,2.304-6.436,3.278-9.83
			C83.608,49.818,84.178,49.626,84.171,48.853z M35.335,63.927c-1.337-1.078-2.453-2.107-3.28-3.602
			c-1.1-2.393-1.52-5.471-1.965-8.521v-9.833c0.392-3.324,1.198-6.231,2.295-8.849c0.696-1.159,1.088-2.632,1.964-3.607
			c0.234-1.311,2.484-1.938,1.315-3.603c-0.347-0.857-1.335-1.073-2.622-0.986c-0.391,0.16-0.744,0.351-0.988,0.657
			c-0.497,0.441-1.228,0.812-1.634,1.312c-0.354,0.426-0.489,1.132-0.657,1.309c-0.476,0.494-0.704,0.877-0.985,1.311
			c-2.189,3.38-3.851,7.519-4.259,12.126v12.456c0.482,3.34,1.276,6.369,2.293,9.178c0.253,0.074,0.384,0.275,0.328,0.652
			c1.551,1.4,2.522,3.381,4.586,4.266c1.097,1.391,4.232,2.82,6.229,1.311c-0.085-0.963,0.741-1.01,0.658-1.967
			C38.486,65.417,36.529,64.902,35.335,63.927z M68.11,40.659c-0.088-0.189-0.583-0.413-0.326-0.985
			c-2.687-4.525-7.398-7.023-15.404-6.225c-0.2,0.019-0.391,0.049-0.328,0.328h-0.657c-3.869,1.375-6.334,4.154-8.193,7.541
			c-0.609,2.116-0.787,4.672-0.656,7.536c0.552,0.764,0.857,1.766,0.982,2.951c1.901,3.127,4.513,5.539,7.867,7.209
			c2.21,0.521,4.645,0.818,7.539,0.658c0.28-0.49,1.056-0.477,1.639-0.658c1.809-0.598,3.938-2.859,5.243-3.934
			c0.106-0.084-0.082-0.533,0-0.656c0.283-0.414,0.752-0.553,0.986-0.98c0.381-0.697,0.798-1.885,0.982-2.621
			c0.053-0.209,0.317-0.301,0.326-0.33c0.577-2.062,0.475-5.863,0.328-7.539C68.329,41.749,68.387,41.265,68.11,40.659z
			 M62.54,48.525c-0.577,0.738-0.783,1.846-1.313,2.625c-0.429,0.879-1.442,1.174-1.966,1.965c-0.617-0.586-0.239-2.162-1.637-1.965
			c-1.45,0.084-1.713,1.348-2.296,2.293c-0.832-0.035-0.776-1.221-0.326-1.639c0.181-0.586,0.166-1.363,0.652-1.641
			c0.007-1.635,1.175-2.102,0.984-3.934c-0.287-1.041-1.317-1.109-2.291-0.654c-0.218-1.197,0.703-1.258,0.654-2.295
			c-0.314-1.215,0.048-3.107-0.984-3.606c0.562-0.75,2.503-0.119,3.606-0.326c1.801,0.272,2.881,1.27,4.258,1.969
			c0.531,0.998,0.572,2.487,0.985,3.602C62.476,45.837,62.508,47.181,62.54,48.525z"/>
	</g>
</g>
</svg>
