<?xml version="1.0" encoding="utf-8"?>
<!-- Generator: Adobe Illustrator 16.0.0, SVG Export Plug-In . SVG Version: 6.00 Build 0)  -->
<!DOCTYPE svg PUBLIC "-//W3C//DTD SVG 1.1//EN" "http://www.w3.org/Graphics/SVG/1.1/DTD/svg11.dtd">
<svg version="1.1" id="Layer_1" xmlns="http://www.w3.org/2000/svg" xmlns:xlink="http://www.w3.org/1999/xlink" x="0px" y="0px"
	 width="90.268px" height="90px" viewBox="0 0 90.268 90" enable-background="new 0 0 90.268 90" xml:space="preserve">
<g id="smile-sad">
	<g>
		<path fill-rule="evenodd" clip-rule="evenodd" d="M90.228,37.044c0.009-3.515-0.385-6.63-0.636-9.882
			c-0.638-1.172-0.877-2.735-1.276-4.143c-0.686-1.121-1.137-2.476-1.596-3.826c-0.652-0.62-1.045-1.504-1.59-2.232
			c-0.387-0.994-1.379-1.384-1.597-2.551c-1.937-1.675-3.672-3.551-5.736-5.1C72.8,6.046,67.853,3.408,61.539,1.661
			C55.122-0.113,46.798-0.092,38.59,0.068c-0.071,0.248-0.268,0.37-0.638,0.319c-1.514-0.237-2.192,0.357-3.509,0.317
			c-5.651,1.572-11.103,3.344-15.937,5.737c-1.5,1.478-3.304,2.646-4.781,4.144c-0.406,1.083-1.768,1.208-1.912,2.551
			c-0.838,0.756-1.922,1.268-2.232,2.549C7.919,17,6.708,18.767,5.755,20.787c-0.702,0.785-1.343,1.63-1.593,2.868
			c-0.613,0.981-1.761,1.428-1.911,2.87c-1.079,3.811-1.347,8.432-1.596,13.068c-0.997,3.888-0.529,9.245-0.636,14.026
			c0.693-0.055,0.145,1.13,0.319,1.593C3.03,65.59,8.709,72.98,15.319,79.44c0.998-0.151,0.843,0.857,1.591,0.956
			c-0.05,0.902,1.966-0.267,1.913,0.637c0.961,0.74,1.983,1.416,2.868,2.232c2.25,1.259,4.441,2.575,7.016,3.505
			c6.232,2.798,14.652,3.409,23.905,3.188c0.145-0.922,2.411,0.283,2.551-0.638c1.418,0.25,1.914-0.423,3.186-0.318
			c1.597-0.64,3.424-1.044,5.1-1.595c1.492-0.742,2.977-1.489,4.467-2.23c1.607-0.729,2.768-1.908,4.463-2.549
			c3.633-3.381,7.496-6.529,9.881-11.158c2.852-4.267,5-9.237,6.057-15.3c0.691-1.009,0.48-2.92,0.953-4.146
			c0.007-0.846-0.117-1.818,0.323-2.229c0.193-0.762-0.403-2.313,0.316-2.549C89.688,43.519,90.448,40.771,90.228,37.044z
			 M83.533,53.301c-0.53,1.948-1.354,4.938-2.232,7.012c-0.093,0.223-0.558,0.769-0.636,0.958c-0.192,0.468-0.105,0.799-0.319,1.274
			c-1.407,3.125-3.258,5.7-4.78,8.288c-2.295,2.595-4.811,4.965-7.333,7.333c-2.032,0.729-3.149,2.375-5.419,2.867
			c-1.471,1.289-4.012,1.515-5.736,2.55c-2.683,0.294-5.15,0.802-7.969,0.955c-5.553,0.03-10.587-0.465-14.982-1.593
			c-3.859-0.924-6.662-2.9-10.519-3.826c-1.397-1.363-3.225-2.3-4.784-3.504c-1.282-1.48-3.046-2.479-4.459-3.826
			c-0.114-1.057-0.958-1.381-1.594-1.912c-1.188-2.639-3.198-4.452-3.828-7.65c-1.623-2.199-2.369-5.276-3.187-8.288
			c-0.417-2.15,0.074-4.462,0-7.014c-0.068-2.333-0.561-4.886-0.317-7.331c1.808-9.346,5.489-16.82,11.154-22.312
			C23.625,11.985,30.918,6.954,43.369,7.08h0.64c0.313-0.843,2.534-0.079,3.822,0c3.306,0.207,7.064,0.056,10.199,0.638
			C58.124,7.734,58.38,8,58.672,8.037c0.735,0.088,0.781,0.096,1.591,0.318c0.762,0.208,2.38,0.573,3.509,0.955
			c0.114,0.041,0,0.303,0.316,0.32c0.659,0.037,1.011,0.361,1.593,0.637c0.118,0.055,0.562-0.094,0.64,0
			c0.248,0.3,1.825,0.807,2.552,1.275c6.609,3.061,11.727,7.61,14.979,14.026c0.124,1.15,0.426,2.126,0.959,2.867
			C85.716,37.272,85.505,46.076,83.533,53.301z M57.396,35.77c0.748,0.1,0.715,0.986,1.276,1.274
			c0.103,0.746,1.388,0.31,1.591,0.956c1.379-0.218,2.326-0.86,3.509-1.275c1.124-1.189,1.82-2.641,2.229-4.144
			c0.71-2.604,0.421-6.939-0.636-9.244c-1.043-0.659-1.876-1.521-3.825-1.274c-1.167,0.746-2.108,1.715-3.19,2.549
			c-0.238,1.672-1.064,2.759-1.271,4.463v5.739C57.448,34.865,57.424,35.317,57.396,35.77z M32.533,38
			c2.297,0.172,3.836-0.408,5.098-1.275c1.632-3.493,2.105-9.639,0-13.069c-1.154-0.546-2.604-0.795-4.463-0.636
			c-1.418,0.703-2.385,1.862-3.186,3.188c-0.499,3.523-0.913,9.301,1.274,11.155C31.85,37.406,32.323,37.572,32.533,38z
			 M76.2,43.102c-6.279,8.17-10.917,17.981-20.4,22.949c-0.725,0.231-1.628,0.285-2.23,0.639h-6.058
			c-9.888-1.801-15.941-7.431-21.354-13.707c-1.584-1.605-1.217-5.158-4.147-5.418c-2.992,1.213-1.591,5.841,0,7.648
			c1.097,2.835,3.205,4.662,4.784,7.014c6.464,5.648,13.51,10.715,25.818,10.519c7.343-0.735,11.193-4.96,14.984-9.244
			c1.79-2.247,3.629-4.444,4.781-7.33c1-1.017,1.229-2.809,2.229-3.826c-0.031-0.987,0.39-1.522,0.639-2.231
			c0.479-0.582,0.338-1.787,0.954-2.231c-0.092-1.687,0.556-2.634,0.641-4.144C76.774,43.381,76.487,43.241,76.2,43.102z"/>
	</g>
</g>
</svg>
