<?xml version="1.0" encoding="utf-8"?>
<!-- Generator: Adobe Illustrator 16.0.0, SVG Export Plug-In . SVG Version: 6.00 Build 0)  -->
<!DOCTYPE svg PUBLIC "-//W3C//DTD SVG 1.1//EN" "http://www.w3.org/Graphics/SVG/1.1/DTD/svg11.dtd">
<svg version="1.1" id="Layer_1" xmlns="http://www.w3.org/2000/svg" xmlns:xlink="http://www.w3.org/1999/xlink" x="0px" y="0px"
	 width="112px" height="76.052px" viewBox="0 0 112 76.052" enable-background="new 0 0 112 76.052" xml:space="preserve">
<g id="gauge1">
	<g>
		<path fill-rule="evenodd" clip-rule="evenodd" d="M46.928,16.536c1.647,1.79,5.842,1.034,7.609-0.293
			c0.936-2.085,1.146-4.898,1.46-7.607c-0.331-1.911-0.596-3.889-1.46-5.265c-0.998-0.272-1.718-0.821-3.221-0.586
			c-1.042,0.615-2.397,0.918-3.217,1.757c-0.354,1.305-0.75,2.565-0.587,4.387C46.778,10.829,46.223,14.132,46.928,16.536z
			 M92.273,4.833c-0.308-1.351-1.412-1.902-3.219-1.755C88.71,3.22,88.394,3.39,88.177,3.663c-2.014,1.983-3.498,4.499-5.85,6.144
			c-1.613,2.483-4.029,4.163-5.85,6.437c-4.228,3.962-6.965,9.421-11.118,13.458c0.05,1.027-0.988,0.962-1.17,1.755
			c-0.538,0.438-0.729,1.221-1.461,1.462c-0.642,1.406-1.893,2.205-2.636,3.511c-1.896,2.2-3.416,4.776-5.556,6.728
			c-3.63,4.564-6.892,9.495-10.242,14.334c-0.046,0.346,0.052,0.832-0.291,0.878c-0.399,3.405-1.854,5.752-1.463,9.946
			c2.371,4.26,6.366,6.897,13.165,6.73c0.71-0.365,1.421-0.725,2.341-0.878c2.472-1.329,4.08-3.525,5.851-5.558
			c0.511-1.537,1.139-2.957,1.462-4.681c5.931-8.5,8.892-19.972,13.164-30.133c0.848-2.76,2.119-5.098,3.22-7.604
			c1.027-2.581,2.769-4.447,3.511-7.313c1.484-2.124,2.318-4.896,3.801-7.021C89.805,9.36,92.931,7.767,92.273,4.833z
			 M53.947,62.757c-0.177-0.016-0.344-0.043-0.291-0.291c-0.365-0.121-0.598-0.378-0.583-0.88c0.367,0.121,0.597,0.378,0.583,0.88
			C53.835,62.48,54.002,62.508,53.947,62.757C54.304,62.727,54.13,63.183,53.947,62.757z M55.997,67.146
			c-0.544-0.327,0.589-2.308-0.583-2.632c0.497-0.669,1.647,0.477,2.633,0.292C57.686,65.907,56.777,66.459,55.997,67.146z
			 M64.774,54.858c-0.429-0.255-0.926-0.438-0.877-1.17h1.17C65.105,54.214,64.711,54.305,64.774,54.858z M77.645,22.678
			c-0.881,2.237-1.888,4.353-2.923,6.436c-0.962,2.161-1.314,4.928-2.633,6.729c-1.706,4.537-3.263,9.222-5.267,13.458
			c-0.666,0.212-1.495,0.261-2.048,0.585c-1.762,1.357-4.309,1.931-5.56,3.802c-0.379,3.015,1.414,3.851,3.22,4.68
			c-0.746,1.109-1.353,2.353-2.048,3.511c-1.165,0.092-0.794-1.353-1.758-1.462c-0.459-0.709-1.046-1.293-1.754-1.757
			c-0.22-1.123-0.806-1.827-1.169-2.339c-0.163-0.231-0.406-0.64-0.584-0.878v-2.633c-0.069-0.518,0.292-1.466-0.585-1.17
			c0.481-1.661,2.027-2.261,2.632-3.803c1.409-0.735,1.842-2.449,3.218-3.217c0.553-1.592,1.92-2.371,2.633-3.804
			c0.972-1.172,1.888-2.402,2.925-3.511c1.13-1.472,2.586-3.162,3.512-4.388c0.547-0.724,1.024-1.186,1.464-1.755
			c0.464-0.609,0.631-0.921,0.878-1.461c0.04-0.093,0.512-0.19,0.581-0.293c0.225-0.324,0.368-0.888,0.584-1.169
			c0.33-0.426,0.859-0.465,0.88-0.878c0.017-0.337,0.188-0.13,0.295-0.293C75.087,25.598,76.461,23.493,77.645,22.678
			C77.617,22.325,78.072,22.498,77.645,22.678z M29.96,17.706c-0.926-1.9-1.579-4.075-4.094-4.39
			c-1.489,0.266-2.896,0.617-3.804,1.464c-0.157,0.82-0.43,1.521-0.587,2.339c-0.29,1.658,0.88,1.854,0.587,3.51
			c0.627,1.045,1.467,1.724,2.048,2.34c0.3,0.318,0.341,0.894,0.585,1.17c0.913,1.025,2.088,2.155,3.512,2.632
			c0.982,0.288,3.641,0.02,4.68-0.583c0.342-0.438,0.364-1.196,0.88-1.464c0.143-1.605-0.947-1.981-0.88-3.51
			C31.654,20.301,30.866,18.948,29.96,17.706z M99.879,23.556c-0.34-0.049-0.317-0.462-0.291-0.877
			c-0.677-0.491-1.248-1.094-2.342-1.17c-0.18,0.018-0.345,0.044-0.29,0.292h-0.879c-1.72,1.402-3.251,2.991-4.39,4.973
			c-1.274,1.944-2.952,3.484-3.511,6.144c0.26,2.548,2.357,3.881,4.976,3.218c1.905-1.31,2.679-3.755,4.094-5.558
			C98.381,28.49,99.533,26.43,99.879,23.556z M8.021,42.864c0.832,0.337,0.959,1.38,1.755,1.756
			c2.209-0.146,5.518,1.234,7.607,0.584c0.095-0.029,0.46-0.509,0.582-0.584c0.74-0.458,0.559-0.165,0.879-0.879
			c0.049-0.106,0.524-0.16,0.588-0.291c0.193-0.413-0.028-1.29,0.293-1.756c-0.448-0.726-0.523-1.82-1.467-2.049
			c-0.605-0.662-1.493-1.038-2.341-1.461c-1.396-1.139-2.921-2.149-5.264-2.341c-1.751,0.395-3.646,0.646-4.681,1.756
			c-0.066,0.227-0.01,0.576-0.292,0.585c-0.029,1.198-0.058,2.397,0.292,3.216C6.407,42.135,7.205,42.508,8.021,42.864z
			 M95.49,51.056c0.016,1.934,0.916,2.986,1.756,4.095c0.345,0.047,0.831-0.05,0.88,0.293c1.272,0.008,2.708,0.174,3.217-0.585
			c0.921-0.445,1.858-0.873,2.926-1.17c1.617-1.113,3.522-1.938,4.682-3.511c-0.012-1.061,0.162-2.309-0.589-2.632
			c0.362-0.826,0.362-1.806,0-2.633c-0.662-0.406-1.131-1.012-1.752-1.461h-2.049c-0.617,0.15-0.896,0.585-1.463,0.876
			c-0.479,0.247-1.038,0.32-1.465,0.585c-0.847,0.531-1.621,1.216-2.34,1.755C97.701,47.866,95.873,49.014,95.49,51.056z
			 M17.09,63.635c-3.328-1.155-7.67-1.302-12.288-1.169C3.021,63.415,1.252,64.373,1,66.853c0.18,2.551,1.419,4.042,2.924,5.266
			c3.824,0.661,9.02-0.049,12.874,0.586c1.852-0.975,3.042-2.613,3.217-5.267C19.65,65.559,18.27,64.698,17.09,63.635z
			 M104.853,66.269c-0.371,0.015-0.403,0.374-0.878,0.293c-4.632-0.149-9.302-0.333-9.654,3.801c0.28,2.312,1.906,3.438,4.098,3.803
			c2.423,0.406,5.378-0.566,7.897-0.293c0.075-0.606,1.287-0.08,1.464-0.584c0.548-0.233,1.07-0.489,1.754-0.584
			c0.587-0.876,1.528-1.399,1.464-2.927C110.498,67.059,107.91,66.429,104.853,66.269z"/>
	</g>
</g>
</svg>
