<?xml version="1.0" encoding="utf-8"?>
<!-- Generator: Adobe Illustrator 16.0.0, SVG Export Plug-In . SVG Version: 6.00 Build 0)  -->
<!DOCTYPE svg PUBLIC "-//W3C//DTD SVG 1.1//EN" "http://www.w3.org/Graphics/SVG/1.1/DTD/svg11.dtd">
<svg version="1.1" id="Layer_1" xmlns="http://www.w3.org/2000/svg" xmlns:xlink="http://www.w3.org/1999/xlink" x="0px" y="0px"
	 width="113px" height="100.5px" viewBox="0 0 113 100.5" enable-background="new 0 0 113 100.5" xml:space="preserve">
<g id="tools2">
	<g>
		<path fill="#132C42" d="M109.762,12.251c-1.623-0.084-2.916,0.16-4.037,0.577c-1.688,0.397-2.535-0.125-3.75,0.578
			c-0.672,0.965-0.613,2.658-0.578,4.327c-0.748,1.078-1.51,2.144-2.31,3.173c-0.938,0.886-1.052,2.602-2.595,2.886
			c-3.406-0.249-5.891-1.42-6.926-4.039c-0.241-1.651,0.058-3.553,0.289-5.482c1.778-2.165,5.873-2.012,7.502-4.328
			c0.248-2.075-0.504-3.149-1.152-4.326c-0.354-1.572-0.627-3.222-1.443-4.329C92.611,1.727,89.67,1.698,87.838,1
			c-6.265,2.682-11.47,6.418-14.715,12.116c-0.07,1.565-0.462,2.808-0.287,4.616c0.538,1.289,0.688,2.967,1.439,4.039
			c0.024,1.901,1.322,2.526,1.442,4.328c-1.709,1.558-3.235,3.301-5.19,4.615c-1.877,2.546-3.631,5.217-6.06,7.213
			c-1.913,2.511-4.938,3.908-6.636,6.635c-1.131-1.368-2.33-2.669-3.462-4.039c-1.021-1.219-2.135-3.458-4.617-2.308
			c-1.209,3.607,2.366,4.69,3.464,6.924c1.554,2.195,3.06,4.439,4.615,6.634c-1.23,1.176-1.874,2.938-1.73,5.482
			c-1.061-0.188-1.438-1.062-2.019-1.73c-0.795-0.551-1.468-1.226-2.021-2.021c-1.062-0.188-1.437-1.062-2.018-1.73
			c-1.216-0.129-1.33-1.363-2.308-1.729c-1.028-2.533-3.14-3.976-4.041-6.636c-0.414-0.16-0.706-0.45-0.866-0.864
			c-0.176-0.5-1.37,0.021-1.443-0.578c1.499-1.482,3.322-2.642,4.905-4.039c0.957-0.486,1.833-1.051,2.596-1.729
			c1.296-0.245,2.064-1.015,2.308-2.308c-0.777-2.495-3.203-3.335-4.617-5.194c0.299-2.681-1.511-3.144-2.595-4.326
			c-0.841-0.922-1.473-1.773-2.021-2.885c0.453-0.801,0.823-1.68,1.445-2.308c0.852-0.399,1.168-1.333,2.02-1.731
			c3.632-2.331,7.558-4.368,12.404-5.482c3.2-0.357,5.563,0.987,7.79,0c0.469-0.876,1.271-1.421,1.154-2.883
			c-0.195-1.539-1.377-2.089-2.31-2.886c-0.62-1.113-1.796-1.667-2.595-2.597c-1.932-0.573-3.342-1.66-5.482-2.019h-6.924
			c-3.112,0.254-5.62,1.11-8.366,1.73c-0.862,0.776-2.154,1.118-3.175,1.731c-1.229,0.405-1.989,1.278-3.175,1.731
			c-1.458,1.81-4.325,2.212-6.057,3.75c-2.317,0.951-4.089,2.449-5.771,4.04c-1.901,1.368-4.062,2.476-4.616,5.193
			c0.102,1.534,0.68,2.59,0.866,4.039c-1.15,0.965-2.171,2.057-3.461,2.885c-0.638-1.477-1.79-2.443-3.75-2.597
			c-1.561-0.152-2.512,0.89-3.462,1.443c-1.152,0.667-2.139,1.217-3.174,2.019C3.644,29.322,1.03,30.171,1,33.599
			c0.459,2.04,2.335,2.667,2.884,4.617c1.236,1.265,2.139,2.861,3.175,4.328c0.644,1.252,1.73,2.284,2.308,3.173
			c0.259,0.399,0.285,1.001,0.576,1.441c0.29,0.438,0.846,0.767,0.866,1.155c0.016,0.334,0.182,0.128,0.287,0.289
			c0.695,1.047,1.562,1.752,2.887,2.019c1.754,0.026,2.227-1.235,3.75-1.442c0.981-0.748,2.3-1.161,2.884-2.308
			c-0.445-3.386-0.134-5.201,0.291-8.366c1.244-1.255,2.211-2.788,4.039-3.462c1.45-0.189,2.326,0.363,3.173,0
			c3.305,3.137,5.849,7.035,9.233,10.097c1.458,0.422,2.18-0.846,2.884-0.288c1.687,3.889,4.353,6.802,6.344,10.384
			c-3.225,1.969-5.421,4.966-8.653,6.926c-2.427,2.861-5.361,5.217-7.79,8.079c-2.851,2.34-5.458,4.926-8.366,7.211
			c-1.146,1.448-2.574,2.618-3.75,4.039c-0.327,0.911-1.983,1.646-2.02,2.309c-0.047,0.913-1.903,1.134-1.152,2.597
			c0.647,0.987,2.17,1.098,3.172,1.729c0.672,2.021,2.583,2.804,3.463,4.617c1.173,0.557,1.862,1.6,2.887,2.307
			c0.701,0.162,0.611,1.115,1.729,0.867c0.307,0.653,0.873,1.048,1.729,1.153c1.614-0.312,2.36-1.489,3.464-2.309
			c1.03-0.891,2.081-1.768,2.885-2.885c1.843-2.005,3.716-3.977,5.191-6.348c0.795-0.553,1.466-1.225,2.02-2.021
			c0.711-0.635,1.738-0.956,2.021-2.02c1.53-1.161,2.873-2.515,4.329-3.75c1.294-1.685,2.443-3.52,4.326-4.616
			c1.029-1.762,2.188-3.391,4.04-4.327c3.005,3.054,5.36,6.756,8.367,9.81c0.178,1.071,0.688,1.812,0.862,2.885
			c1.472,1.416,2.026,3.746,3.754,4.904c0.093,1.348,1.636,1.248,1.729,2.597c0.945,0.497,1.361,1.522,2.308,2.019
			c1.265,1.621,2.845,2.926,4.329,4.329c1.943,1.036,2.35,3.61,5.191,3.749c1.301,0.051,1.379-1.119,2.021-1.73
			c0.99,0.127,1.615-0.113,2.308-0.287c1.965-1.69,4.235-3.075,6.059-4.905c0.838-0.988,2.578-1.074,3.176-2.31
			c0.453-3.53-2.047-4.106-2.887-6.346c-1.713-1.459-3.049-3.301-4.617-4.904c-3.086-3.162-6.406-6.092-9.232-9.521
			c-1.711-1.367-3.123-3.028-4.611-4.616c-1.379-1.797-3.092-3.259-4.329-5.193c-1.777-1.396-2.767-3.58-4.616-4.902
			c-0.436-1.104-1.193-1.883-2.02-2.598c-0.441-1.193-1.676-1.594-2.019-2.884c1.636-2.111,3.767-3.731,6.058-5.192
			c2.264-2.545,4.512-5.103,7.213-7.214c1.488-2.26,3.138-4.362,4.615-6.635c0-1.155,0.576-1.73,0.576-2.885
			c0.045-4.851-2.783-6.833-2.309-12.118c1.225-2.045,2.951-3.588,4.041-5.768c1.412-0.416,2.146-1.508,3.462-2.021
			c1.235-0.107,1.916-0.774,3.171-0.865c-0.13-0.803,1.576,0.226,1.443-0.577c0.715-0.043,1.399-0.054,1.442,0.577
			c0.372,2.199-1.573,2.079-2.309,3.173c-1.32,0.508-2.216,1.442-3.462,2.02c0.076,0.844-0.65,0.887-0.577,1.73
			c-0.623,0.244-0.243,1.488-0.864,1.73v6.059c0.702,0.834,0.73,2.347,1.729,2.886c0.226,1.312,1.558,1.519,2.021,2.596
			c1.098,0.345,2.018,0.867,2.882,1.442c0.433,0.048,1.067-0.103,1.154,0.289h5.194c0.055-0.428,0.697-0.266,1.154-0.289
			c1.522-0.978,2.535-2.464,3.75-3.751c0.344-1.58,1.385-2.461,1.729-4.039c0.467-0.494,0.873-1.05,0.864-2.02
			c0.021-0.939,1.311-0.616,2.021-0.865c-0.054,2.555,0.202,4.797,0.576,6.924c-0.395,1.432-0.664,2.989-0.864,4.615
			c-0.598,0.749-0.784,1.909-1.731,2.309c0.231,1.481-0.312,2.19-0.574,3.173c-1.934,1.722-4.725,2.585-7.213,3.75
			c-0.818-0.238-0.748,0.407-1.445,0.289c-2.602,0.102-4.48-0.519-6.346-1.154c-0.477-0.772-1.223-1.276-1.732-2.019
			c0.031-1.28-0.34-2.158-1.441-2.308c-3.408-0.042-4.403,2.326-5.77,4.327c-1.919,1.446-3.23,3.502-4.904,5.193
			c-1.504,1.86-3.373,3.358-4.615,5.482c-1.073,0.562-1.308,1.962-2.309,2.596c-0.511,1.222-1.697,1.767-1.441,3.75
			c0.496,1.332,1.281,2.374,3.175,2.308c1.59-0.139,2.383-1.076,2.883-2.308c0.653-0.211,0.864-0.868,1.153-1.442
			c0.351-0.609,1.087-0.838,1.154-1.729c1.902-1.466,3.293-3.44,5.193-4.905c0.676-1.056,1.553-1.908,2.309-2.884
			c0.92-0.809,1.414-2.049,2.598-2.598c0.263,0.507,1.01,0.528,1.441,0.866c0.241,0.622,1.84-0.108,2.021,0.577
			c1.419,0.214,2.666,0.604,4.037,0.866h4.614c0.049-0.334,0.459-0.313,0.867-0.288c2.234-0.94,4.057-2.287,6.059-3.462
			c2.664-2.721,4.496-6.276,6.059-10.096v-8.08C110.936,18.391,111.596,13.535,109.762,12.251z M40.236,34.466
			c-1.37,0.363-1.772,1.69-2.884,2.308c-1.062-0.19-1.438-1.063-2.021-1.731c-0.699-0.455-1.275-1.033-1.734-1.731
			c-2.109-1.062-4.697-1.648-6.631-2.885c-0.884,0.208-1.053-0.294-1.734-0.288c-1.283-0.227-1.729,0.384-2.883,0.288
			c-2.41,1.629-4.348,3.731-6.058,6.058c-0.133,2.754-1.715,4.055-1.443,7.214c-2.604-3.458-5.191-6.929-7.79-10.387
			c0.24-1.012,1.148-1.35,2.017-1.731c0.554-0.698,1.281-1.221,2.309-1.442c0.846,0.117,0.937,0.986,1.443,1.442
			c1.023-0.157,0.709,1.021,1.73,0.864h1.154c2.384-0.115,2.72-2.281,4.328-3.172c1.226-1.18,2.8-2.008,2.884-4.326
			c0.099-1.062-0.442-1.482-1.153-1.732c0.096-1.058-0.32-1.601-0.575-2.308c0.2-1.335,1.691-1.385,2.308-2.307
			c0.954-0.487,1.831-1.053,2.596-1.732c1.036-0.407,1.637-1.248,2.596-1.73c0.696-0.746,2.079-0.807,2.598-1.731
			c2.224-0.659,3.929-1.838,5.769-2.885c1.365-1.521,3.72-2.048,5.481-3.173c2.174-0.037,3.536-0.889,5.77-0.865h6.636
			c-0.911,0.725-2.203,1.067-3.461,1.443c-4.608,2.507-9.633,4.599-12.982,8.365c-0.174,1.077-1.086,1.415-1.154,2.596
			c-0.592,0.563-0.373,1.937-0.867,2.598c0.091,0.678,0.458,1.083,0.288,2.02c0.697,2.092,2.649,2.927,3.174,5.192
			c0.864,0.963,1.787,1.866,2.596,2.886C42.224,32.993,40.791,33.29,40.236,34.466z M39.369,79.471
			c-0.945-0.109-1.27-0.844-2.017-1.152c-0.242-0.817-1.134-0.981-1.734-1.442c-1.347,0.09-2.055,0.826-2.307,2.021
			c-0.119,0.692,0.528,0.625,0.287,1.44c0.265,0.638,0.67,1.203,1.155,1.729c0.39,0.423,1.556,0.398,0.866,1.156
			c-1.658-0.265-1.937-1.908-3.461-2.309c-1.398-0.248-1.637,0.67-2.02,1.441c0.164,2.049,1.54,2.885,2.886,3.75
			c-0.127,1.025-1.043,1.264-1.441,2.02c-1.43-0.107-1.239-1.84-2.308-2.309c-1.876-0.215-2.027,2.093-1.445,3.463
			c-0.553-0.406-1.16-0.762-2.018-0.865c-0.987,0.154-0.442,1.391-0.29,2.02c-0.846-0.595-1.58-1.306-2.596-1.729
			c-0.422-0.922-1.791-0.899-2.017-2.021c3.15-1.85,5.588-4.412,8.366-6.635c2.564-2.436,5.421-4.581,7.789-7.213
			c1.097-0.232,0.365,1.363,0.578,2.02c0.501,0.845,0.85,1.84,1.729,2.31C40.306,77.957,40.203,78.576,39.369,79.471z
			 M48.602,69.373c-1.079-0.268-1.517-1.178-2.597-1.441c-1.3-0.052-1.38,1.119-2.02,1.73c0.093,1.254,0.868,1.824,1.155,2.885
			c-0.054,1.002-1.019,1.096-1.155,2.02c-2.066-0.625-2.151-3.233-5.193-2.885c3.427-3.883,8.127-6.49,11.542-10.386
			c0.465-0.081,0.495,0.272,0.863,0.288c0.405,1.23,1.207,2.062,2.021,2.885C52.097,66.521,50.173,67.771,48.602,69.373z
			 M75.145,73.124c4.66,4.567,9.496,8.966,13.849,13.847c0.043,0.814-0.816,0.725-1.154,1.154c-0.263,0.51-0.646,0.895-1.155,1.154
			c-0.685,0.758-1.146,1.74-2.307,2.02c-0.454-0.699-1.031-1.275-1.732-1.73c-0.106-1.143-0.404-2.094-0.865-2.885
			c-0.078-0.263-1.072-0.969-1.152-0.289c-0.588-0.084-0.564-0.779-1.156-0.865c0.158-2.655-0.059-4.938-1.729-5.77
			c-0.381,0.293-1.064,0.283-1.442,0.576c-0.29,0.46-0.274,1.162-0.866,0.578C75.316,78.336,74.988,75.969,75.145,73.124z
			 M71.682,69.373c0.588,0.086,0.564,0.783,1.154,0.867c0.137,0.904-0.777,0.76-0.865,1.441
			C71.617,71.133,71.256,69.834,71.682,69.373z M70.814,74.277c0.149,0.147-0.209,0.369-0.287,0.289
			C70.379,74.417,70.736,74.198,70.814,74.277z M64.182,60.43c0.854,0.687,1.373,1.706,2.019,2.598
			c0.825,0.716,1.586,1.492,2.021,2.597c-1.004,0.919-0.853,2.994-1.154,4.617c-1.453-1.339-2.482-3.097-3.75-4.617
			c-1.328-1.364-2.476-2.91-3.75-4.327c0.377-1.777,0.506-4.882,0-6.636c0.466-0.082,0.498,0.272,0.865,0.289
			C61.346,57.107,63.059,58.475,64.182,60.43z"/>
	</g>
</g>
</svg>
