<?xml version="1.0" encoding="utf-8"?>
<!-- Generator: Adobe Illustrator 16.0.0, SVG Export Plug-In . SVG Version: 6.00 Build 0)  -->
<!DOCTYPE svg PUBLIC "-//W3C//DTD SVG 1.1//EN" "http://www.w3.org/Graphics/SVG/1.1/DTD/svg11.dtd">
<svg version="1.1" id="Layer_1" xmlns="http://www.w3.org/2000/svg" xmlns:xlink="http://www.w3.org/1999/xlink" x="0px" y="0px"
	 width="107px" height="104px" viewBox="0 0 107 104" enable-background="new 0 0 107 104" xml:space="preserve">
<g id="trash">
	<g>
		<path fill-rule="evenodd" clip-rule="evenodd" d="M97.222,14.599c-0.551-0.64-0.993-1.388-1.944-1.627
			c-0.557,0.017-0.829-0.25-0.973-0.652c0.1-0.75-0.931-0.361-0.969-0.975c-5.114-0.718-10.953-0.704-16.826-0.651
			c-1.222,0.25-1.548-0.397-2.59-0.326c-0.772-0.198-2.349,0.409-2.589-0.325c-0.867-3.142-1.024-7-3.234-8.79
			C62.895-0.027,55.531,0.87,49.323,0.604c-3.267,0.621-6.463,1.31-9.062,2.602c-0.872,0.968-1.229,2.453-2.268,3.256
			c-0.275,1.674-0.461,3.44-1.291,4.557c-1.634-0.231-1.81,1.001-3.561,0.651c-1.758,0.248-2.624-0.402-4.208-0.325
			c-3.906,0.52-7.611,1.242-12.3,0.975c-0.053,0.38-0.512,0.354-0.968,0.327c-1.515,0.429-2.178,1.717-3.56,2.277
			c-1.266,0.681-1.853,2.042-2.59,3.255c0.298,2.088,0.362,4.409,1.296,5.859c1.824,0.881,5.063,0.329,7.119,0.976
			c0.128,12.782,1.435,24.382,2.913,35.803c1.638,11.264,2.692,23.113,5.825,32.877c-0.12,1.963,0.091,3.594,0.324,5.205
			c0.844,1.213,2.969,1.136,3.884,2.28c2.009,0.147,3.19,1.13,5.501,0.975c0.244,0.734,1.816,0.128,2.588,0.326
			c0.538,0.546,1.902,0.259,2.915,0.328c1.063,0.011,1.608,0.548,2.911,0.324c0.878,0.201,2.569-0.414,2.912,0.326h25.244
			c3.446-0.766,6.749-1.676,9.708-2.931c0.695-0.711,1.006-1.807,1.943-2.276c0.43-0.977,0.33-2.491,0.323-3.906
			c0.735-0.78,1.236-1.793,1.294-3.255v-6.836c0.148-1.475,0.583-2.667,0.65-4.23V64.074c0.75-6.407,1.636-12.675,1.938-19.53
			c0.63-6.636,1.719-12.809,1.618-20.181c1.887-0.384,4.248-0.286,5.502-1.302C96.955,20.786,97.978,17.705,97.222,14.599z
			 M49.323,5.81c4.65-0.747,10.673-0.115,15.856-0.323c1.119,0.722,0.188,3.5,0.973,4.556c-0.768,0.748-2.908,0.117-4.211,0.325
			c-4.49,0.579-8.988,1.157-13.59,1.628C48.39,9.861,48.101,7.402,49,6.137C48.94,5.86,49.126,5.83,49.323,5.81z M44.792,8.415
			c0.166,0.168-0.232,0.415-0.321,0.327C44.301,8.572,44.705,8.326,44.792,8.415z M49.972,95.646c0.061-0.37,0.322-0.182,0.322,0
			C50.231,96.016,49.968,95.825,49.972,95.646z M80.39,73.514c-0.95,6.42-2.331,12.407-2.585,19.527
			c-4.365,1.253-9.229,2.006-14.24,2.605c-1.305,0.425-2.61,0.849-4.535,0.651c-0.105-1.646,1.412-2.807,0-3.907
			c-1.702-0.197-2.564,0.458-2.912,1.627c-0.592,0.814-0.259,2.562-1.939,2.28c-1.324,0.098,0.055-0.452-0.327-1.303
			c0.181-0.581,0.168-1.351,0.652-1.626c-0.05-1.305,1.305-2.357,0.322-3.581c-2.379-0.44-2.739,1.149-3.561,2.278
			c-0.574-0.289-0.821-0.908-1.941-0.653c-1,0.406-1.737,1.079-2.263,1.957c-1.128,0.168-0.646,1.954-2.268,1.626
			c0.272-2.221,1.571-3.414,1.941-5.531c-0.096-0.667-0.875-0.64-0.971-1.303c-3.492,0.282-4.384,3.182-5.824,5.533
			c-0.97-1.422,1.041-2.633,0.972-4.23c0.667-0.862,1.481-2.903,0.646-4.234c-1.958-0.128-2.289,1.389-3.235,2.278
			c-0.585,1.146-1.577,1.889-1.943,3.257c-0.932-1.492,0.709-3.188,1.294-4.232c0.086-0.999,0.702-1.464,0.971-2.28
			c0.47-0.504,0.433-1.517,0.972-1.952c0.007-1.502,0.843,0.28,0.968,0.651c0.577,0.29,0.824,0.91,1.945,0.651
			c1.187,0.002,1.241-1.14,1.944-1.626c-0.577-7.669-1.671-14.815-2.916-21.811c-1.046-7.081-1.288-14.977-2.589-21.807v-4.882
			c-0.151-1.365-0.419-2.613-1.617-2.928c-3.805-0.03-1.736,5.849-2.267,9.112c1.059,12.935,2.166,25.817,4.532,37.431
			c0.153,1.021-0.816,0.918-1.294,1.301c-0.327,0.435-0.534,0.982-0.971,1.303c-0.621,0.896-1.437,1.594-1.945,2.604
			c-0.844-0.768,0.533-2.054,0.326-3.253c0.543-0.759,0.846-1.755,0.973-2.93c0.505-0.902,1.004-1.811,1.291-2.929
			c0.444-0.968,0.469-2.36-0.322-2.93c-2.719,0.194-3.751,2.084-4.529,4.232c-0.833-0.793-0.857-2.395-0.973-3.909
			c0.292-2.417,1.27-4.148,1.621-6.508c0.539-0.758,0.844-1.755,0.969-2.931c0.652-0.647,1.107-1.489,0.971-2.927
			c-0.104-0.767-1.001-0.728-1.294-1.303c-2.159,0.107-2.798,1.746-3.56,3.253c-0.928-0.502-1.289-2.853-0.649-3.903
			c0.538-1.09,0.76-2.494,1.298-3.583c0.334-2.522,2.683-4.617,1.617-7.485c-3.093-0.07-3.321,2.737-4.208,4.882
			c-0.882-0.306-0.739-1.643-0.97-2.604c0.224-1.421-0.552-1.834-0.327-3.255c-0.272-2.11-0.659-4.109-0.646-6.508
			c-0.689-4.083-1.466-8.075-1.618-12.695c13.617-0.109,27.833,0.179,39.155,0c1.423-0.168,1.066-0.102,2.266-0.324h4.856
			c2.721-0.628,6.486-0.205,9.711-0.327c0.804-0.272,1.733-0.424,2.912-0.324C82.131,39.676,80.036,55.363,80.39,73.514z
			 M87.513,19.481c-0.69,0.272-2.041-0.278-2.268,0.652c-7.634,0.021-15.466-0.15-22.654,0.324c-6.999,0.846-14.63-0.461-22.33,0
			c-1.95-0.207-3.812-0.504-5.825-0.651c-4.915,0.373-10.207,0.368-15.535,0.327c-0.984-0.205-2.785,0.417-3.235-0.327
			c-0.41-1.279,0.765-0.967,1.618-0.975c1.017,0.156,1.264-0.463,1.94-0.651h8.414c8.391-1.436,18.339-1.306,28.156-1.303
			c0.523,0.094,0.559-0.306,0.973-0.324c8.505,0.234,16.506,0.971,25.244,0.976c1.163-0.457,3.253,0.021,3.881-0.976
			c1.801-0.294,2.725,0.296,3.238,1.302C88.836,18.904,88.483,19.098,87.513,19.481z M53.852,78.72
			c-1.074-2.713-1.245-6.34-1.939-9.44c-0.821-2.971-1.377-6.208-1.295-10.089c-0.576-7.015-0.581-14.604-1.294-21.481v-3.906
			c-0.106-1.302,0.415-3.241-0.972-3.255c-0.019-0.199-0.047-0.385-0.323-0.327c-0.382,0.157-0.734,0.346-0.968,0.651
			c-1.19,0.904-0.557,3.479-0.648,5.534c-0.245,5.517-0.327,11.68-0.327,17.25c0,8.041,1.14,15.94,2.588,21.157
			c-0.164,2.877,0.27,5.156,0.649,7.485c0.075,1.335,0.157,2.663,0.648,3.579c0.481,0.927,1.906,0.906,3.235,0.979
			c0.843-0.567,0.656-2.161,0.645-3.583V78.72z M73.919,34.779c0.102-0.763,0.51-1.221,0.322-2.276
			c-0.505-0.469-0.252-1.697-1.293-1.628c-0.02-0.199-0.05-0.386-0.322-0.325c-0.384,0.157-0.736,0.347-0.974,0.651
			c-1.031,0.627-1.045,2.622-1.293,4.23c-1.707,11.043-0.663,25.737-0.971,37.43c-0.024,1.389-0.54,2.276-0.325,3.904
			c-0.055,1.795,0.988,2.483,0.646,4.558c0.037,0.835,0.182,1.554,0.649,1.952c0.004,0.972-0.029,1.985,0.97,1.954
			c0.523-0.776,0.517-2.084,0.969-2.929c0.083-1.332-0.313-3.138,0.649-3.581c-0.162-2.981,0.231-5.409,0.648-7.812V39.662
			c0.722-0.141,0.13-1.603,0.323-2.278V34.779z M61.942,44.544c-0.104-2.498-0.501-4.698-0.323-7.487
			c-0.583-0.717-0.281-2.32-0.645-3.253c0.304-1.607-0.394-2.208-0.972-2.93c-0.8-0.05-1.342,0.168-1.616,0.65
			c-0.349,0.951-0.727,1.875-0.647,3.255c-0.336,0.857-0.39,1.999-0.326,3.255c-0.631,1.86-0.195,4.794-0.323,7.162
			c-0.169,1.977,0,4.296,0,6.511v22.455c0.738,0.454,0.12,2.269,0.323,3.257c0.592,0.705-0.062,2.665,0.646,3.255
			c0.54,0.651-0.026,2.414,0.648,2.929c-0.031,1.333,0.044,2.558,1.294,2.606c2.149-0.337,3.376-1.598,3.236-4.232
			c0.078-2.682-0.452-4.755-0.647-7.162C62.01,65.094,62.438,54.357,61.942,44.544z"/>
	</g>
</g>
</svg>
