<?xml version="1.0" encoding="utf-8"?>
<!-- Generator: Adobe Illustrator 16.0.0, SVG Export Plug-In . SVG Version: 6.00 Build 0)  -->
<!DOCTYPE svg PUBLIC "-//W3C//DTD SVG 1.1//EN" "http://www.w3.org/Graphics/SVG/1.1/DTD/svg11.dtd">
<svg version="1.1" id="Layer_1" xmlns="http://www.w3.org/2000/svg" xmlns:xlink="http://www.w3.org/1999/xlink" x="0px" y="0px"
	 width="59.344px" height="43.676px" viewBox="0 0 59.344 43.676" enable-background="new 0 0 59.344 43.676" xml:space="preserve">
<g id="arrow3-down">
	<g>
		<path fill="#6084d1" fill-rule="evenodd" clip-rule="evenodd" d="M59.092,1.201c-0.146-0.995-1.863-0.418-2.854-0.571
			c-0.82-0.318-1.77-0.514-2.852-0.57c-9.576,0.314-18.79,0.991-28.531,1.142c-0.973-0.26-1.766-0.706-2.852-0.856
			c-5.398-0.332-12.332-0.57-17.687,0H1.75C1.524,0.976-0.02,0.29,0.322,1.485C0.526,2.543-0.165,2.71,0.038,3.768
			c0.646,0.305,1.038,0.865,1.141,1.711c1.037,0.865,1.601,2.202,2.566,3.139c1.667,2.045,3.252,4.168,5.137,5.992
			c1.561,2.529,3.118,5.06,4.852,7.418c1.533,2.647,3.534,4.83,5.133,7.416c0.721,0.151,0.707,0.815,0.856,1.142
			c0.04,0.086,0.498,0.19,0.573,0.286c0.09,0.119-0.064,0.431,0,0.57c0.035,0.084,0.498,0.192,0.567,0.285
			c0.265,0.348,0.364,0.855,0.57,1.141c0.306,0.424,0.835,0.446,0.856,0.856c0.018,0.329,0.186,0.128,0.287,0.285
			c0.561,0.868,0.873,1.737,1.426,2.567c0.963,1.129,1.418,2.766,2.568,3.709c0.766,1.463,1.23,3.111,3.139,3.139
			c0.092,0.607,1.244-0.046,1.425-0.285c0.885,0.028,0.815-0.896,1.995-0.57c0.826-0.507,1.334-1.33,1.714-2.283
			c0.75-0.676,1.718-1.133,1.997-2.282c1.398-1.456,2.54-3.165,3.425-5.136c2.388-3.316,4.827-6.584,6.847-10.27
			c1.168-1.586,1.922-3.592,3.137-5.136c0.336-1.088,1.045-1.808,1.426-2.853c0.58-0.848,1.367-1.489,1.713-2.568
			c1.482-1.372,2.557-3.149,3.996-4.564C58.241,5.828,59.997,3.674,59.092,1.201z M17.156,14.895
			c-0.841-0.301-0.995-1.292-1.428-1.998c0.187-1.241,1.482-1.369,1.712-2.566c1.618-0.193,2.34,0.513,3.709,0.569
			C19.415,11.829,18.113,13.188,17.156,14.895z M31.704,23.453h1.426c0.512-0.081,0.586,0.271,0.287,0.287
			c-1.495,0.026-2.571,0.474-4.279,0.284C29.04,22.901,31.078,22.97,31.704,23.453z M23.145,11.756
			c0.01-0.277,0.35-0.221,0.572-0.285c2.188,0.472,4.395,0.933,6.844,1.142c-0.579,0.654-2.367,0.104-3.421,0.284
			c-0.751,0.297-1.751,0.342-2.853,0.285C24,12.614,23.793,11.964,23.145,11.756z M24.288,19.458v-1.425
			c0.965,0.078,1.639,0.453,2.853,0.284c0.457,1.122-1.231,0.099-1.143,0.856C25.125,18.966,25.161,19.667,24.288,19.458z
			 M27.426,30.585c-0.819-0.8-1.42-1.813-1.714-3.138c0.486,0.104,0.54-0.222,0.573-0.57c1.629,0.176,2.904,0.709,4.849,0.57
			c0.254,0.92-0.931,0.4-1.141,0.854C29.164,29.092,28.116,29.661,27.426,30.585z M31.993,38.86
			c-1.023-1.074-1.648-2.537-2.283-3.994c1.166,0.068,1.605,0.864,2.852,0.855C32.076,36.473,32.532,38.165,31.993,38.86z
			 M31.993,32.583c0.121-0.637,1.402-0.115,1.994-0.284C34.04,33.747,32.629,32.817,31.993,32.583z M38.55,24.31h-0.567
			c0.051-0.243-0.113-0.27-0.289-0.286C37.583,23.47,38.995,23.607,38.55,24.31z M36.556,8.333c-1.694,0.17-2.545-0.499-4.28-0.284
			c1.289-0.802,3.875-0.308,5.418-0.857h6.85c1.021-0.501,3.088,0.046,3.994-0.57c0.486-0.104,0.538,0.224,0.569,0.57
			C45.071,7.719,40.502,7.715,36.556,8.333z"/>
	</g>
</g>
</svg>
