<?xml version="1.0" encoding="utf-8"?>
<!-- Generator: Adobe Illustrator 16.0.0, SVG Export Plug-In . SVG Version: 6.00 Build 0)  -->
<!DOCTYPE svg PUBLIC "-//W3C//DTD SVG 1.1//EN" "http://www.w3.org/Graphics/SVG/1.1/DTD/svg11.dtd">
<svg version="1.1" id="Layer_1" xmlns="http://www.w3.org/2000/svg" xmlns:xlink="http://www.w3.org/1999/xlink" x="0px" y="0px"
	 width="86.027px" height="109.617px" viewBox="0 0 86.027 109.617" enable-background="new 0 0 86.027 109.617"
	 xml:space="preserve">
<g id="lock-open">
	<g>
		<path fill="#132C42" d="M81.226,44.555c-0.998-1.421-2.32-2.525-4.109-3.16c-0.458-0.803-1.91-0.611-2.207-1.58
			c-0.719-0.546-2.648,0.122-2.843-0.947c0.3-8.407-0.272-15.943-1.58-22.745c-1.088-1.65-1.634-3.845-2.847-5.37
			c-0.888-1.952-2.556-3.131-3.791-4.737c-1.769-1.036-3.298-2.275-5.37-3.159c-1.954-0.834-4.25-1.331-6.633-1.895H42.37
			c-1.81,0.399-3.638,0.786-5.686,0.946c-0.614,0.859-2.282,0.666-2.845,1.583c-1.565-0.092-1.886,1.062-3.158,1.262
			c-1.568,1.485-3.867,2.244-6.002,3.161C24.551,8.31,24.272,8.56,23.73,8.545c-2.341,2.714-4.693,5.412-6.002,9.16
			c-0.992,1.534-1.194,3.859-1.896,5.687c-0.967,1.663-1.493,3.772-1.262,6.633c1.256,1.269,2.841,2.212,5.683,1.896
			c1.109,0.155,2.059,0.472,3.477,0.315c0.951,0.417,2.707,0.031,3.477,0.63c1.561-0.545,3.449-0.759,5.684-0.63
			c1.674-7.598,5.21-13.325,12.639-15.163c1.902-0.01,3.887-0.1,5.369,0.314c2.902,3.1,2.451,9.553,3.79,14.216v4.107
			c-0.201,1.167,0.411,3.146-0.314,3.79c-7.377,0.314-16.062-0.692-22.426,0.632c-5.073-0.931-11.516-0.492-16.747-1.264
			c-0.564-0.041-0.741,0.313-0.63,0.947c-0.051,0.584-1.07,0.194-1.264,0.631c-2.532-0.109-4.285,0.56-6.949,0.317
			c0.64,2.428-1.579,2.004-1.582,3.791c-0.021,0.191-0.047,0.372-0.317,0.314c-0.132,8.136,0.562,15.446,0.317,23.692
			c0.273,1.412,0.783,2.586,0.947,4.105c-0.02,5.289,0.507,10.031,1.265,14.535c1.099,3.012,2.882,5.332,3.792,8.529
			c1.366,0.85,2.116,2.307,3.162,3.477c1.169,1.145,2.591,2.039,3.787,3.158c1.086,0.281,1.97,0.768,2.847,1.264
			c1.225,0.244,2.697,0.254,3.156,1.266c1.172,0.195,1.851,0.89,2.844,1.263c0.916,0.561,2.382,0.567,3.162,1.264
			c4.669,1.068,10.282,1.604,15.795,0.947c1.548-0.66,3.583-0.839,5.369-1.263h5.366c7.712-4.084,14.254-9.336,19.903-15.479
			c1.039-3.492,2.777-6.279,3.475-10.111c0.844-3.684,1.214-7.844,1.896-11.688C81.337,61.5,81.953,52.357,81.226,44.555z
			 M49.955,10.752c-2.773,0.245-4.593-0.464-7.268-0.315c-0.896,0.053-1.316,0.579-2.211,0.632c-2.596,1.191-4.66,2.92-6.95,4.422
			c-0.546,1.139-1.523,1.847-2.211,2.843c-0.835,0.849-1.242,2.127-2.212,2.843c-0.254,1.429-1.259,2.111-1.265,3.79
			c-0.731,0.845-0.654,2.504-2.844,1.896c-0.581-1.061,1.167-2.089,1.264-3.476c-0.283-0.664-0.49-1.403-0.947-1.895
			c-0.553-0.292-1.694,0.011-1.581-0.947c1.213-1.736,2.362-3.533,4.106-4.739c-0.068-1.23,0.678-1.635,0.948-2.527
			c1.326-1.516,3.598-2.091,5.054-3.475c1.967-0.773,3.515-1.962,5.687-2.526h3.791c2.833-1.064,6.771-1.021,10.744-0.949
			c0.05,0.37,0.572,0.267,0.942,0.316c1.959,1.202,3.521,2.799,5.373,4.105c1.271,1.678,2.48,3.415,3.474,5.369
			c0.204,2.219,0.577,4.269,1.264,6.003c0.198,3.806,0.451,7.556,0.318,11.689c-0.006,1.153-0.898,1.417-1.268,2.212v1.893
			c-0.174,0.461,0.371,1.633-0.314,1.58c-1.523,0.472-1.316-0.788-1.263-1.894c-1.169-0.143-2.174-0.027-2.843-1.265
			c0.486-1.888,1.116-3.938,0.947-6.949c-0.195-3.46-1.079-7.2-1.584-10.11c-0.327-1.037-1.423-1.309-1.892-2.209
			c-0.447-0.819-1.069-1.458-1.581-2.213C53.621,13.613,52.018,11.954,49.955,10.752z M72.067,72.039
			c0.448,1.234,0.215,3.148,0.944,4.104c-0.394,1.717-0.452,3.756-0.631,5.688c-1.938,3.114-4.179,5.933-6.316,8.846
			c-1.941,1.535-3.937,3.017-6.003,4.419c-2.506,0.866-4.521,2.221-6.634,3.479c-3.171,0.276-7.648,0.668-10.74,0
			c-1.082-0.785,0.12-2.158-1.265-2.847c-1.615-1.166-2.463,1.918-3.791,0.947c-1.549-0.145,0.389-1.23,0.313-1.895
			c0.529-0.523,0.253-1.855,0.316-2.846c-0.456-1.334-1.442-2.138-3.474-1.894c-1.979,0.021-2.207,1.795-4.107,1.894
			c-1.689,0.733-1.661,3.186-3.476,3.793c-0.522-1.277,1.443-2.47,0.946-4.738c-0.102-0.74-0.978-0.707-1.262-1.264
			c-2.157,0.373-3.298,1.756-4.108,3.475c-1.087-0.229-0.209-0.949,0-1.58c0.438-0.508,0.269-1.629,0.947-1.895
			c0.342-1.558,1.363-2.429,1.581-4.105c0.997-1.15,1.128-2.662,1.581-4.107c0.062-0.205,0.572-0.781,0.629-0.947
			c0.066-0.188-0.047-0.438,0-0.631c0.094-0.379,0.557-1.731,0.316-3.16c-0.285-0.559-0.704-0.977-1.264-1.264
			c-3.58-0.316-3.884,2.644-5.685,4.104c-1.2,1.959-2.513,3.811-3.477,6.004c-0.746-0.269,0.263-1.388,0.316-1.896
			c-0.031-0.979,0.386-1.51,0.633-2.213c0.312-1.475,0.95-2.631,1.264-4.104c0.899-2.68,2.633-4.529,2.528-8.215
			c-0.315-0.949-0.951-1.582-1.898-1.896c-1.798,0.094-2.982,0.803-3.791,1.896c-0.799-0.422,0.466-1.402,0.321-2.213
			c0.243-0.701,0.661-1.232,0.629-2.211c0.661-1.234,1.161-2.629,1.58-4.107c-0.036-1.65-0.856-2.514-1.894-3.156
			c0.597-1.408,2.438-1.564,2.526-3.477c-0.18-1.295-1.191-1.756-2.212-2.211c-2.149-0.362-2.271,1.309-3.792,1.579
			c0.486-1.619,0.392-3.82,0.636-5.687c1.443-0.555,2.422-1.579,3.789-2.212c17.394,1.458,36.565,1.132,55.281,1.264
			C72.477,54.762,73.724,64.85,72.067,72.039z M47.741,59.085c-2.262-0.442-3.917-0.651-6.317-0.315
			c-1.798,1.045-3.902,1.782-5.368,3.157c-1.471,2.08-2.57,5.968-1.581,9.479c0.99,1.643,3.32,1.945,4.422,3.475
			c-0.693,3.322-0.946,8.377-0.314,12.006c0.687,0.682,1.648,1.084,2.523,1.578c1.173,0.197,1.445,1.291,3.16,0.947
			c4.456-1.441,2.887-8.906,3.163-14.531c1.765-1.5,3.066-3.457,3.788-6c0.238-2.242-0.391-3.611-0.314-5.686
			C49.922,61.748,49.006,60.242,47.741,59.085z"/>
	</g>
</g>
</svg>
