<?xml version="1.0" encoding="utf-8"?>
<!-- Generator: Adobe Illustrator 16.0.0, SVG Export Plug-In . SVG Version: 6.00 Build 0)  -->
<!DOCTYPE svg PUBLIC "-//W3C//DTD SVG 1.1//EN" "http://www.w3.org/Graphics/SVG/1.1/DTD/svg11.dtd">
<svg version="1.1" id="Layer_1" xmlns="http://www.w3.org/2000/svg" xmlns:xlink="http://www.w3.org/1999/xlink" x="0px" y="0px"
	 width="108.225px" height="97.357px" viewBox="0 0 108.225 97.357" enable-background="new 0 0 108.225 97.357"
	 xml:space="preserve">
<g id="user4">
	<g>
		<path fill="#132C42" d="M86.798,76.744c-0.197-0.387-0.054-0.785-0.285-1.141c-0.193-0.299-0.841-0.785-1.142-1.143
			c-1.299-1.526-3.157-3.401-4.563-4.277c-0.271-0.168-0.56-0.101-0.857-0.285c-0.496-0.31-0.934-0.879-1.426-1.142
			c-1.133-0.606-2.445-0.938-3.709-1.428c-0.119-0.045-0.019-0.218-0.283-0.285c-0.369-0.092-0.604-0.223-0.857-0.285
			c-0.366-0.09-0.604-0.222-0.856-0.284c-0.172-0.043-0.4,0.059-0.568,0c-0.147-0.054-0.672-0.514-0.854-0.569
			c-1.42-0.437-3.631-0.909-4.566-1.142c-0.178-0.046-0.389,0.03-0.568,0c-2.67-0.449-5.317-0.738-7.987-1.143
			c-0.943-0.675-1.678-1.56-2.57-2.282c-0.102-2.371-0.35-4.596-0.854-6.562c1.317-1.723,2.557-3.529,3.991-5.135
			c1.541-3.691,3.58-6.884,4.564-11.127c6.918-0.017,8.162-7.804,6.848-14.265c-1.522-0.537-2.771,0.344-3.992-0.571
			c-0.057-7.075-1.661-12.603-3.995-17.402c-1.105-1.082-2.113-2.262-3.14-3.424c-0.99-0.246-1.582-0.89-2.278-1.427
			C54.956,0.938,53.153,0.361,51.135,0h-3.709c-0.364,0.396-1.239,0.283-1.993,0.287c-2.14,1.094-4.854,1.613-6.279,3.424
			c-1.248,0.367-1.793,1.438-2.566,2.28c-1.002,0.71-1.793,1.63-2.28,2.854c-1.023,0.597-1.188,2.048-2,2.854
			c-0.226,1.486-1.354,2.068-1.427,3.708c-0.7,0.914-0.973,2.261-1.141,3.709c-0.52,0.338-0.223,1.486-0.568,1.996
			c0.062,0.92-0.506,1.209-0.287,2.283c-1.696,0.396-3.01,1.175-3.993,2.281c-1.584,2.282-1.711,5.649-1.427,9.131
			c0.845,0.866,1.795,1.629,2.566,2.567c0.371,1.34,2.406,1.019,2.854,2.281c0.531,6.317,3.779,9.913,5.136,15.406v3.71
			c-0.931,1.829-2.537,2.976-4.279,3.993c-1.143,0.567-2.596,0.828-3.994,1.141c-3.354,2.258-7.992,3.229-11.41,5.422
			c-4.002,1.611-6.842,4.38-9.704,7.133c-0.486,1.506-1.683,2.306-1.992,3.993c-0.808,1.19-1.918,2.077-2.283,3.709v1.997
			c-0.17,0.59,0.352,1.874-0.287,1.997c-0.408,1.358,1.195,0.709,0.855,1.997c-0.505,1.16-0.283,3.072,0,4.279
			c1.268,1.205,2.53,2.417,5.422,1.995c1.067-0.021,0.862,1.231,2.284,0.857c27.627-0.219,53.312-0.667,77.884-3.994
			c1.008-2.606,2.018-5.211,2.28-8.56c0-3.071-0.549-5.516-1.424-7.417C87.301,77.172,86.887,76.916,86.798,76.744z M65.971,27.959
			c1.311-0.262,1.379,0.715,2.567,0.57c-0.229,2.146-0.557,4.201-3.139,3.994C65.192,30.605,66.18,29.88,65.971,27.959z
			 M27.741,32.523c-0.885,0.029-1.361-0.349-1.996-0.57c-0.047-0.902,0.758-0.953,0.57-1.996c1.022-0.168,1.381,0.332,1.998,0.571
			C28.073,31.145,27.573,31.5,27.741,32.523z M81.665,87.873c-20.844,0.172-41.627,0.406-62.766,0.284
			c-2.277,0.288-5.48,0.536-7.703,0c0.435-1.749,0.635-3.737,0.854-5.706c1.722-2.271,3.496-4.49,5.707-6.275
			c2.66-1.332,5.322-2.664,7.986-3.994c3.031-1.914,5.994-3.896,9.127-5.706c1.117-1.453,2.349-2.79,3.427-4.279
			c0.141-1,0.426-1.857,0.286-3.139c0.164-0.976,0.953-1.328,0.854-2.566c-0.969-6.926-2.115-13.672-2.283-21.398
			c0.357-6.682,0.854-13.224,2.57-18.543c1.235-1.9,2.569-3.703,3.709-5.707c1.897-1.047,3.059-2.838,5.133-3.709
			c0.752-0.295,1.754-0.34,2.854-0.284c0.511,0.036,0.601-0.351,1.142-0.283c2.961-0.3,3.346,1.977,4.85,3.137
			c0.039,1.291,1.271,1.396,1.144,2.854c1.012,0.318,0.715,1.947,1.424,2.566c0.42,7.217,0.99,15.715,0.287,23.109
			c-0.752,2.957-2.461,4.959-3.711,7.418c-0.615,0.428-0.662,1.427-1.709,1.426c-0.728,0.322-0.66,1.433-1.431,1.712
			c-0.274,1.244-0.985,2.056-1.426,3.14c-0.363,1.158-0.526,2.517-0.568,3.992c0.148,1.578-1.807,1.052-1.428,2.854
			c-0.561,0.769-0.168,2.492-0.283,3.708c0.351,1.455,1.318,2.295,1.994,3.425c1.185,0.622,2.474,1.14,3.142,2.282
			c1.598-0.271,1.934,0.729,3.137,0.854c0.813,0.422,1.887,0.584,2.567,1.142c9.275,1.09,17.216,3.52,21.113,9.983
			C82.344,82.484,82.157,85.322,81.665,87.873z M107.911,37.375c-2.904,0.051-5.752,0.042-7.99-0.569
			c-0.938,0.584-2.889,0.152-4.276,0.284c0.231-2.231-0.246-3.751-0.572-5.421c-0.012-2.968-0.012-4.6,0.572-6.562
			c-0.68-0.94-1.183-2.056-1.998-2.854c-3.156-0.078-6.16-0.305-9.131-0.569c-4.152,1.934-1.306,10.864-2.566,15.69h-4.564
			c-2.202,0.556-5.76-0.244-6.848,1.426c-0.414,2.012-0.082,3.479-0.285,5.992c-0.211,2.59,0.111,4.643,1.427,5.705
			c3.147,0.779,6.926-0.047,9.987-0.284v9.984c0.574,1.325,1.777,2.027,2.281,3.424c3.092,0.753,7.438,0.747,10.555,0
			c0.886-1.493,0.492-4.262,0.57-6.562v-7.416h10.271c0.062-0.224,0.238-0.332,0.572-0.287c0.803-0.904,1.818-1.604,2.281-2.853
			C108.292,43.27,108.133,40.291,107.911,37.375z M89.368,28.246c1.002,0.518,1.654,1.388,2.853,1.711v4.851
			c-1.152-0.939-2.209-1.978-3.427-2.854C89.143,30.878,89.37,29.677,89.368,28.246z M89.938,39.656
			c0.045,1.662-0.918,2.315-1.146,3.71c-1.196-0.036-1.364-1.104-2.565-1.142c0.43-1.757,1.356-3.017,1.711-4.851
			C88.999,37.74,89.276,38.892,89.938,39.656z M87.655,26.534c0.969,0.723,0.273,1.589,0,2.566c-0.75,0.39-0.135,2.148-1.428,1.997
			C86.28,29.154,85.879,26.754,87.655,26.534z M74.815,40.799c1.137,0.089,1.432-0.659,2.567-0.569
			c-0.896,1.671-2.151,2.981-2.852,4.85C73.971,44.127,74.784,42.104,74.815,40.799z M76.243,46.789
			c-0.359-1.745,1.627-3.467,1.713-5.705c0.045-0.333-0.063-0.508-0.287-0.57c0.123-0.639,1.404-0.116,1.998-0.284
			c-0.381,1.328-0.973,2.448-1.428,3.708C77.618,44.932,78.239,47.172,76.243,46.789z M81.665,47.361
			c-0.983,0.123-1.6-0.114-2.284-0.287c0.647-2.303,1.454-4.443,1.997-6.846h3.138C83.409,42.447,82.358,44.725,81.665,47.361z
			 M84.514,47.645c0.041-1.386,0.448-2.402,0.856-3.424c0.926,0.501,1.427,1.428,1.998,2.282c-0.098,1.521-0.838,2.396-1.143,3.71
			C84.854,50.158,86.682,46.904,84.514,47.645z M88.51,58.772c-0.477,0.378-0.956,0.755-1.997,0.568v-6.274
			c1.02,0.596,1.186,2.047,1.997,2.852c0.316,1.209,1.41,1.635,1.429,3.14C89.522,58.901,88.463,59.391,88.51,58.772z
			 M91.647,54.777c-1.268-1.018-1.965-2.601-2.854-3.994c0.043-0.908,0.65-1.256,0.574-2.281c1.117,0.211,1.549,1.111,2.566,1.426
			c0.188,1.044-0.619,1.095-0.572,1.998C91.163,53.171,91.848,53.532,91.647,54.777z M92.504,46.789
			c-1.256,0.211-1.168-0.922-1.999-1.141c0.475-1.054,0.712-2.332,1.143-3.424c1.16-0.112,0.879,1.213,1.715,1.428
			C93.202,44.823,92.543,45.496,92.504,46.789z M94.788,39.942c0.055-0.325,0.287-0.157,0.283,0
			C95.018,40.266,94.788,40.1,94.788,39.942z M98.211,43.079c-0.688,0.609-1.262-0.634-1.713-1.14
			c0.148-0.896,0.5-1.592,0.855-2.283c0.387,0.09,0.237,0.715,0.283,1.143C97.963,41.424,98.375,41.963,98.211,43.079z
			 M100.493,45.361c0.051-0.229,0.287-0.283,0.283-0.568h0.572C101.483,45.402,100.942,45.336,100.493,45.361z M104.772,43.366
			c-1.41-0.491-2.662-1.144-3.14-2.567c0.334-0.047,0.24-0.521,0.283-0.855c0.906-0.393,0.955-0.063,1.998,0
			C104.387,40.896,104.924,41.787,104.772,43.366z"/>
	</g>
</g>
</svg>
