<?xml version="1.0" encoding="utf-8"?>
<!-- Generator: Adobe Illustrator 16.0.0, SVG Export Plug-In . SVG Version: 6.00 Build 0)  -->
<!DOCTYPE svg PUBLIC "-//W3C//DTD SVG 1.1//EN" "http://www.w3.org/Graphics/SVG/1.1/DTD/svg11.dtd">
<svg version="1.1" id="Layer_1" xmlns="http://www.w3.org/2000/svg" xmlns:xlink="http://www.w3.org/1999/xlink" x="0px" y="0px"
	 width="90.268px" height="90px" viewBox="0 0 90.268 90" enable-background="new 0 0 90.268 90" xml:space="preserve">
<g id="file1_2_">
	<g>
		<path fill="#132C42" d="M68.749,21.992c-0.024-3.031-0.007-6.107-0.582-8.586c-1.229,0.01-2.284,0.187-3.316,0.39
			c-0.561-0.35-1.131-0.69-2.146-0.585c-10.657-0.011-21.003-0.326-31.803-0.194c-0.279,0.107-0.477,0.304-0.586,0.584
			c-0.453,0.586-0.867,1.214-1.365,1.756c-0.366,0.345,0.233,0.57-0.194,0.974c-0.343,0.177-0.603,0.438-0.78,0.781
			c-1.053,1.031-2.072,2.092-2.73,3.513c-0.694,0.346-0.808,1.273-1.366,1.756c-0.55,0.488-0.617,1.461-1.17,1.95
			c-0.049,0.992-0.844,1.239-1.171,1.952c-0.446,0.659-1.277,0.934-1.367,1.952c0,1.495,0,2.991,0,4.486
			c0.135,1.167,0.521,2.082,0.588,3.316c-0.703,9.898-0.098,21.104-0.588,31.216c0.115,1.642-0.236,3.751,0.198,5.074
			c0,0.454,0,0.911,0,1.366c-0.119,0.346,0.568,0.81,0,0.975c-0.308,0.743-0.478,1.241,0,1.95c0.863,0.762,2.458,0.194,3.705,0.194
			c1.099-0.396,2.686-0.306,3.902-0.584c6.241-0.105,10.761,0.263,16.332-0.18c0-1.166,0-2.332,0-3.498
			c-2.69,0.188-5.392,0.365-8.139,0.36c-0.788,0.183,0.247-1.058-0.391-1.367c-0.877-0.096-0.546,1.013-0.975,1.367
			c-0.911,0-1.822,0-2.73,0c-0.892-0.14-1.979,0.22-2.342,0c0.271-1.131,1.206-2.3,0.78-3.513c-1.253-0.215-1.4,0.68-1.95,1.17
			c-0.155,0.883-0.778,1.304-0.78,2.342c-0.831-0.079-2.009,0.189-2.535-0.195c0.151-1.726,1.593-3.006,1.171-4.683
			c-1.562,0.131-1.822,1.561-2.343,2.733c-0.722-0.416-0.303-1.638,0-2.149c0.479-0.495,0.445-1.505,0.975-1.949
			c0.299-1.653,1.242-2.662,1.368-4.487c-0.585-0.486-1.315,0.129-1.368,0.779c-0.398,0.133-0.64,1.424-0.975,0.977
			c0-0.521,0-1.041,0-1.562c0.245-0.858,0.743-1.468,1.171-2.146c0.299-1.588,1.029-2.742,1.364-4.293
			c0.162-1.369,1.395-2.955,0.585-4.095c-0.861-0.083-1.364,0.191-1.755,0.584c-0.474,0.06-0.86,1.2-1.171,0.78
			c-0.099-7.578,0.346-14.611,0.197-22.24c0.12-0.902-0.439-1.124-0.392-1.953c0.975,0,1.95,0,2.926,0
			c1.319-0.239,2.622-0.498,4.293-0.39c1.301-0.387,2.917-0.463,3.9-1.17c0.181-0.342,0.065-0.973,0.392-1.17
			c-0.307-1.712-0.447-3.584-0.781-5.268c-0.283-1.734-0.841-3.193-0.976-5.073c1.99-0.118,4.211-0.733,6.243-0.195
			c7.36-0.141,13.619,0.818,20.879,0.78c1.29,0.106,2.841,0.662,4.096,0.196c0.004,0.848,0.063,1.755-0.195,2.34
			c0.371,0.734,0.018,2.191,0.39,2.928c0.017,0.844,0.026,1.695,0.042,2.542c1.118,0.217,2.303,0.151,3.479,0.057
			C68.747,23.814,68.739,22.974,68.749,21.992z M30.902,19.454c-0.418,0.091-0.371-0.279-0.391-0.586
			C30.752,18.955,30.913,19.119,30.902,19.454z M24.659,26.479c0.275-0.701,0.841-1.107,1.17-1.755
			c0.47,0.374,0.647,1.042,1.17,1.365C26.477,26.476,25.279,26.188,24.659,26.479z M29.144,25.111
			c-0.283-0.17-0.618-0.292-0.583-0.78c-0.525-0.383-0.934-0.886-1.173-1.561c0.76,0.154,0.743,1.08,1.368,1.367
			c0.242,0.603,0.646,1.047,1.173,1.365C29.749,26.032,29.208,25.339,29.144,25.111z M31.683,24.137
			c-0.916-0.062-0.791-1.162-1.561-1.367c-0.283-0.693-0.791-1.159-1.367-1.561c0.114-0.406,0.41-0.629,0.585-0.973
			c0.195,0,0.39,0,0.588,0c0.254,0.976,0.939,1.53,1.559,2.146C31.333,23.185,31.786,23.382,31.683,24.137z"/>
	</g>
</g>
<g id="file1_4_">
	<g>
		<path fill="#132C42" d="M90.226,44.094c0.055-1.181,0.494-1.977,0.582-3.123c0.155-3.042-0.035-4.831,0-8.388
			c-0.023-3.031-0.007-6.107-0.582-8.586c-1.228,0.01-2.284,0.187-3.315,0.39c-0.562-0.35-1.132-0.69-2.146-0.585
			c-10.657-0.011-21.003-0.326-31.802-0.194c-0.28,0.107-0.478,0.304-0.586,0.584c-0.453,0.586-0.868,1.214-1.366,1.756
			c-0.366,0.345,0.234,0.57-0.194,0.974c-0.343,0.177-0.602,0.438-0.779,0.781c-1.054,1.031-2.072,2.092-2.731,3.513
			c-0.694,0.346-0.807,1.273-1.366,1.756c-0.55,0.488-0.617,1.461-1.17,1.95c-0.049,0.992-0.844,1.239-1.171,1.952
			c-0.446,0.659-1.277,0.934-1.367,1.952v4.486c0.136,1.167,0.522,2.082,0.588,3.316c-0.702,9.897-0.098,21.104-0.588,31.216
			c0.115,1.643-0.235,3.751,0.198,5.074v1.366c-0.119,0.346,0.569,0.81,0,0.975c-0.307,0.743-0.477,1.241,0,1.95
			c0.864,0.762,2.458,0.193,3.705,0.193c1.099-0.395,2.686-0.305,3.903-0.584c6.336-0.106,10.894,0.279,16.583-0.195
			c5.426-0.562,11.258-0.35,16.972-0.196c1.762,0.245,4.19,0.681,5.854,0.392c0.49-0.354,0.858-0.832,0.978-1.56
			c0.129-0.782,0.585-1.233,0.78-1.952C91.534,69.596,90.546,56.312,90.226,44.094z M52.961,30.046
			c-0.418,0.091-0.371-0.279-0.392-0.586C52.812,29.546,52.972,29.711,52.961,30.046z M51.399,30.828h0.588
			c0.255,0.976,0.939,1.53,1.56,2.146c-0.153,0.803,0.299,1,0.196,1.755c-0.916-0.062-0.791-1.162-1.562-1.367
			c-0.283-0.693-0.791-1.159-1.367-1.561C50.928,31.396,51.225,31.172,51.399,30.828z M50.814,34.729
			c0.242,0.603,0.646,1.047,1.173,1.365c-0.179,0.53-0.72-0.163-0.783-0.391c-0.283-0.17-0.618-0.292-0.583-0.78
			c-0.526-0.383-0.935-0.886-1.174-1.561C50.207,33.516,50.189,34.442,50.814,34.729z M47.888,35.315
			c0.47,0.374,0.648,1.042,1.17,1.365c-0.521,0.388-1.72,0.101-2.34,0.391C46.995,36.37,47.56,35.963,47.888,35.315z M86.324,83.699
			c-1,0.087-1.07-0.752-1.953-0.78h-4.097c-7.501-0.717-14.604,0.597-22.047,0.585c-0.788,0.184,0.247-1.057-0.39-1.367
			c-0.877-0.096-0.546,1.014-0.976,1.367h-2.73c-0.891-0.139-1.979,0.221-2.341,0c0.27-1.131,1.206-2.3,0.779-3.512
			c-1.253-0.215-1.399,0.679-1.949,1.17c-0.156,0.882-0.779,1.303-0.781,2.341c-0.831-0.079-2.008,0.188-2.535-0.194
			c0.152-1.727,1.593-3.007,1.171-4.684c-1.562,0.131-1.822,1.561-2.343,2.732c-0.721-0.416-0.302-1.637,0-2.148
			c0.479-0.495,0.446-1.504,0.975-1.949c0.3-1.652,1.242-2.662,1.368-4.486c-0.585-0.487-1.314,0.129-1.368,0.778
			c-0.397,0.134-0.64,1.425-0.975,0.976v-1.561c0.246-0.859,0.744-1.468,1.171-2.146c0.299-1.588,1.03-2.74,1.365-4.291
			c0.162-1.37,1.394-2.955,0.585-4.096c-0.862-0.082-1.365,0.191-1.755,0.584c-0.475,0.06-0.861,1.2-1.171,0.78
			c-0.1-7.578,0.345-14.61,0.196-22.24c0.12-0.902-0.438-1.124-0.392-1.953h2.926c1.32-0.239,2.622-0.498,4.293-0.39
			c1.301-0.387,2.917-0.463,3.901-1.17c0.18-0.342,0.064-0.973,0.391-1.17c-0.306-1.712-0.447-3.584-0.781-5.268
			c-0.282-1.734-0.841-3.193-0.976-5.073c1.991-0.118,4.211-0.733,6.243-0.195c7.361-0.141,13.62,0.818,20.879,0.78
			c1.29,0.106,2.841,0.662,4.096,0.196c0.004,0.848,0.064,1.755-0.194,2.34c0.37,0.734,0.017,2.191,0.389,2.928
			c0.312,15.553,0.109,31.626,0.586,47.019C87.322,80.925,87.606,83.098,86.324,83.699z"/>
	</g>
</g>
<g id="file1_1_">
	<g>
		<path fill="#132C42" d="M47.21,10.007c-0.024-3.031-0.007-6.107-0.582-8.586c-1.229,0.01-2.284,0.187-3.316,0.39
			c-0.561-0.35-1.131-0.69-2.146-0.585C30.508,1.216,20.163,0.901,9.364,1.032C9.083,1.14,8.887,1.336,8.777,1.617
			C8.325,2.203,7.909,2.831,7.411,3.373c-0.366,0.345,0.233,0.57-0.194,0.974c-0.343,0.177-0.602,0.438-0.78,0.781
			c-1.052,1.031-2.07,2.092-2.73,3.513C3.012,8.987,2.899,9.914,2.34,10.397c-0.55,0.488-0.617,1.461-1.17,1.95
			c-0.049,0.992-0.844,1.239-1.171,1.952c-0.446,0.659-1.277,0.934-1.367,1.952v4.486c0.135,1.167,0.521,2.082,0.588,3.316
			c-0.703,9.898-0.098,21.104-0.588,31.217c0.115,1.642-0.236,3.75,0.198,5.073v1.366c-0.119,0.346,0.568,0.811,0,0.975
			c-0.308,0.743-0.478,1.241,0,1.95c0.863,0.763,2.458,0.194,3.705,0.194c1.099-0.395,2.686-0.305,3.902-0.584
			c5.771-0.098,10.075,0.207,15.096-0.096v-3.5c-2.283,0.153-4.575,0.283-6.902,0.278c-0.788,0.183,0.247-1.057-0.39-1.366
			c-0.878-0.097-0.547,1.013-0.976,1.366h-2.73c-0.892-0.139-1.979,0.22-2.342,0c0.271-1.131,1.206-2.3,0.78-3.512
			c-1.253-0.215-1.399,0.679-1.95,1.17c-0.155,0.882-0.778,1.304-0.78,2.341c-0.831-0.078-2.009,0.189-2.535-0.195
			c0.151-1.726,1.593-3.006,1.171-4.683c-1.562,0.132-1.822,1.562-2.343,2.733c-0.722-0.416-0.303-1.637,0-2.149
			c0.479-0.495,0.445-1.504,0.975-1.948c0.299-1.654,1.242-2.662,1.368-4.488c-0.585-0.486-1.315,0.13-1.368,0.779
			c-0.398,0.133-0.64,1.424-0.975,0.977v-1.561c0.246-0.859,0.743-1.469,1.171-2.146c0.299-1.588,1.029-2.741,1.364-4.292
			c0.162-1.37,1.395-2.955,0.586-4.095c-0.862-0.083-1.365,0.191-1.756,0.584c-0.474,0.059-0.86,1.2-1.171,0.78
			c-0.099-7.578,0.346-14.611,0.197-22.24c0.12-0.902-0.439-1.124-0.392-1.953h2.926c1.32-0.239,2.622-0.498,4.293-0.39
			c1.301-0.387,2.917-0.463,3.9-1.17c0.181-0.342,0.065-0.973,0.392-1.17c-0.306-1.712-0.447-3.584-0.781-5.268
			c-0.283-1.734-0.841-3.193-0.976-5.073c1.989-0.117,4.21-0.732,6.242-0.194c7.36-0.141,13.619,0.818,20.879,0.78
			c1.29,0.106,2.841,0.662,4.096,0.196c0.004,0.848,0.063,1.755-0.195,2.34c0.371,0.734,0.018,2.191,0.39,2.928
			c0.025,1.292,0.044,2.593,0.062,3.892c1.165-0.035,2.325-0.141,3.477-0.269C47.219,12.576,47.196,11.437,47.21,10.007z
			 M9.364,7.469C8.946,7.56,8.993,7.19,8.973,6.883C9.214,6.97,9.375,7.134,9.364,7.469z M3.121,14.494
			c0.275-0.701,0.841-1.107,1.17-1.755c0.47,0.374,0.647,1.042,1.17,1.365C4.939,14.491,3.741,14.204,3.121,14.494z M7.606,13.126
			c-0.282-0.17-0.618-0.292-0.583-0.78c-0.525-0.383-0.934-0.886-1.173-1.561c0.76,0.154,0.743,1.08,1.368,1.367
			c0.242,0.603,0.646,1.047,1.173,1.365C8.211,14.047,7.67,13.354,7.606,13.126z M10.145,12.152
			c-0.916-0.062-0.791-1.162-1.561-1.367c-0.283-0.693-0.791-1.159-1.367-1.561c0.114-0.406,0.41-0.629,0.585-0.973H8.39
			c0.254,0.976,0.939,1.53,1.56,2.146C9.795,11.2,10.248,11.397,10.145,12.152z"/>
	</g>
</g>
</svg>
