<?xml version="1.0" encoding="utf-8"?>
<!-- Generator: Adobe Illustrator 16.0.0, SVG Export Plug-In . SVG Version: 6.00 Build 0)  -->
<!DOCTYPE svg PUBLIC "-//W3C//DTD SVG 1.1//EN" "http://www.w3.org/Graphics/SVG/1.1/DTD/svg11.dtd">
<svg version="1.1" id="Layer_1" xmlns="http://www.w3.org/2000/svg" xmlns:xlink="http://www.w3.org/1999/xlink" x="0px" y="0px"
	 width="128.493px" height="127.425px" viewBox="0 0 128.493 127.425" enable-background="new 0 0 128.493 127.425"
	 xml:space="preserve">
<g id="tag">
	<g>
		<path fill-rule="evenodd" clip-rule="evenodd" d="M118.754,26.887c-0.453-6.633-1.797-12.373-4.621-16.635
			c-1.067-0.78-2.562-1.133-3.39-2.155c-3.284-0.516-7.355-0.245-11.088-0.308c-0.393,0.016-0.427,0.396-0.925,0.308
			c-0.867,0.366-1.769,0.692-2.774,0.926c-1.906,1.17-3.097,3.061-5.235,4.003c-0.727,1.632-2.391,2.333-3.08,4.004
			c-1.156,1.205-2.039,2.687-3.083,4.004c-0.475,1.68-1.368,2.94-1.845,4.622c-0.883,1.375-1.242,3.278-2.464,4.313
			c-7.592,0.624-14.956,1.474-22.488,2.155c-0.263,0.458-0.775,0.662-1.542,0.616c-2.169,1.529-4.62,2.771-6.161,4.932
			c-1.191,0.655-2.241,1.452-3.078,2.461c-1.35,0.604-2.296,1.608-2.775,3.081c-2.401,1.296-3.563,3.829-5.544,5.546
			c-1.115,0.732-1.786,1.911-2.466,3.08c-0.526,0.396-1.212,0.638-1.23,1.542c-0.839,0.188-1.443,0.61-1.851,1.229
			c-2.113,1.585-3.507,3.885-5.237,5.854c-2.22,1.58-4.093,3.503-5.85,5.544c-4.183,3.415-8.507,6.693-11.708,11.09
			c-0.462,3.648-1.771,6.446-1.54,10.784c2.145,4.013,5.903,6.417,8.934,9.548c1.253,2.34,3.368,3.82,4.621,6.159
			c1.803,1.791,3.356,3.831,4.929,5.854c2.311,1.795,4.871,3.34,6.777,5.545c1.728,0.427,2.988,1.322,4.311,2.154
			c1.576,0.584,3.368,0.95,4.929,1.541c0.425-0.604,1.89-0.166,2.465-0.615c1.038-0.09,2.104-0.154,2.775-0.616
			c1.514-0.642,3.275-1.036,5.234-1.23c1.617-1.569,3.29-3.078,5.235-4.315c1.534-1.648,3.34-3.027,5.238-4.312
			c3.254-3.114,6.643-6.091,9.859-9.242c2.761-2.064,5.443-4.205,8.317-6.161c0.724-1.124,1.857-1.834,2.771-2.773
			c0.729-1.221,2.074-1.826,3.081-2.771c1.849-1.95,4.386-3.212,5.854-5.546c1.23-5.645,3.02-10.738,3.08-17.558
			c0.915-0.727,0.592-2.693,0.922-4.005c0.238-4.999,0.705-9.767,0.925-14.787c6.014-1.172,10.622-3.756,14.477-7.083
			c0.687-1.271,1.781-2.123,2.466-3.39c0.915-1.14,1.385-2.721,2.154-4.006c0.058-0.458-0.105-1.135,0.31-1.231
			C118.628,28.405,118.065,27.02,118.754,26.887z M80.861,45.678c0.495,2.429-2.248,1.895-3.692,1.54
			C76.949,45.368,79.582,45.038,80.861,45.678z M79.321,86.648c-0.014,0.188-0.044,0.366-0.306,0.308
			c-0.04,0.783-0.448,1.195-1.232,1.232c-0.02,0.186-0.046,0.365-0.307,0.309c-0.02,0.188-0.049,0.363-0.308,0.308
			c0.028,0.373-0.45,0.188,0,0c0.013-0.188,0.046-0.366,0.308-0.308c0.016-0.189,0.045-0.366,0.307-0.309
			c0.09-0.628,0.832-0.603,0.924-1.232h0.309C79.033,86.771,79.061,86.591,79.321,86.648c-0.053-0.673,0.255-0.98,0.928-0.925
			C80.302,86.396,79.994,86.704,79.321,86.648z M94.729,44.137c-0.216,1.223-1.357,1.521-1.852,2.465
			c-0.35,5.091-0.342,10.538-1.231,15.096c-1.696,1.794-2.11,4.87-2.156,8.312c-0.456,0.264-0.661,0.779-0.616,1.544
			c-2.422,1.788-2.947,5.471-6.16,6.47c0.086-1.838,0.072-3.563-1.232-4.004c-1.495,0.966-1.318,3.836-0.926,5.85
			c-0.158,1.692-1.771,1.926-2.158,3.391c-1.294,0.447-1.199,2.291-2.771,2.463c-0.201-2.366,0.609-5.741-0.92-6.775
			c-1.494,0.355-1.505,2.191-2.16,3.388c0.215,1.959-0.519,2.968-0.303,4.927c0.08,1.006-1.198,0.655-1.238,1.542
			c-0.449,0.577-0.011,2.042-0.614,2.466c-0.214,1.324-1.813,1.265-2.157,2.464c-1.045,0.389-1.166,1.708-2.464,1.847
			c0.022-3.104,0.021-6.18-1.23-8.008c-1.393,0.147-1.108,1.972-1.234,3.386c-0.745,0.796,0.055,3.14-0.615,4.007v4.005
			c-1.164,1.509-2.628,2.712-4.006,4.005c-1.642-3.084,1.004-10.453-2.464-11.705c-2.129,0.438-1.404,3.729-2.155,5.545v5.852
			c-0.283,1.618,1.405,1.26,1.538,2.465c-1.25,0.29-1.648,1.432-2.772,1.849c-0.868,0.671-1.929,1.15-2.772,1.849
			c-0.919-0.312-0.607-1.858-0.923-2.775v-3.387c0.255-0.871-0.435-0.8-0.307-1.542c-0.142-1.499,0.323-3.606-0.307-4.62
			c-1.712,0.344-1.578,2.535-2.16,4.008c0.238,2.699-0.451,4.476-0.306,7.083c0.107,0.917,0.177,1.875,0.925,2.155
			c-0.853,0.689-2.444,0.639-4.006,0.618c-0.283-3.419-0.884-6.513-0.617-10.478c-0.56-0.772-0.56-2.106-1.848-2.154
			c-3.699,0.248-2.796,5.887-2.465,9.243c-3.188-1.741-5.417-4.442-8.315-6.468c-0.923-1.544-2.315-2.615-3.389-4.008
			c-1.51-0.851-1.878-2.846-3.389-3.695c-0.688-1.775-2.17-2.759-2.773-4.621c-1.249-1.112-1.668-3.055-2.771-4.313
			c0.24-2.499-0.446-4.074-0.308-6.468c0.479-1.369,2.133-1.562,2.771-2.774c1.056-0.794,1.975-1.719,2.771-2.771
			c2.309-0.775,3.656-2.509,5.237-4.003c1.663-1.419,3.167-2.996,4.929-4.315c0.586-1.367,1.482-2.42,1.853-4.005
			c1.375-0.266,1.604-1.678,3.079-1.846c1.846-2.159,3.623-4.387,5.852-6.161c1.401-2.502,3.971-3.833,5.237-6.469
			c1.981-0.998,3.464-2.492,4.927-4.007c0.083-0.636,1.367-0.074,1.234-0.925c0.626-0.089,0.601-0.832,1.23-0.921
			c0.67-0.769,1.977-0.897,2.464-1.85c1.718,0.177,2.725-0.355,4.006-0.615c6.056,0.306,10.315-1.185,16.018-1.236
			c-0.012,2.043-1.15,2.962-0.924,5.238c-2.762,0.339-4.803,2.308-5.854,4.93c-0.236,0.589-0.169,0.797-0.309,1.849
			c-0.141,1.084-0.119,2.26,0.621,3.696c0.303,0.615,1.359,0.486,1.227,1.54c0.969,0.163,1.721,0.542,2.466,0.925
			c2.833-0.349,5.206-1.16,7.392-2.154c1.151-0.597,1.53-1.962,2.465-2.773c-0.138-1.403,0.194-2.606,0-3.696
			c-0.424-2.436-2.199-3.612-4.004-4.622c0.311-2.464,1.403-4.141,2.158-6.161c2.174-0.392,4.488-0.646,6.467-1.232
			c2.725,0.356,3.607,2.554,4.93,4.312C95.254,39.739,94.469,41.415,94.729,44.137z M113.827,29.351
			c-1.196,1.788-2.375,3.582-3.699,5.236c-2.892,1.419-4.962,3.667-8.931,4.005c-0.082-0.901,0.694-0.944,0.612-1.846
			c-0.864-2.625-3.417-3.569-4.31-6.161c-1.482-0.471-2.357-1.547-3.389-2.465c-1.132,0.103-1.715-0.342-2.466-0.618
			c-2.017,0.039-3.259,0.848-5.236,0.925c1.542-6.055,5.5-9.695,8.933-13.864c1.545-0.609,2.814-1.498,4.006-2.463
			c3.707-0.313,8.205-0.681,11.088,0.617C113.068,16.658,114.9,22.692,113.827,29.351z"/>
	</g>
</g>
</svg>
